<?xml version="1.0" standalone="no"?>
 <!DOCTYPE svg PUBLIC "-//W3C//DTD SVG 1.1//EN" 
 "http://www.w3.org/Graphics/SVG/1.1/DTD/svg11.dtd"> 
<svg
  xmlns:svg="http://www.w3.org/2000/svg"
  xmlns="http://www.w3.org/2000/svg"
  xmlns:xlink="http://www.w3.org/1999/xlink"
  version="1.1"
  width="316.1284mm" height="125.0442mm" viewBox="0.0000 0.0000 316.1284 125.0442">
<title>SVG Image created as A600KBv2-User_6.svg date 2024/06/22 22:05:18 </title>
  <desc>Image generated by PCBNEW </desc>
<g style="fill:#000000; fill-opacity:1.0000;stroke:#000000; stroke-opacity:1.0000;
stroke-linecap:round; stroke-linejoin:round;"
 transform="translate(0 0) scale(1 1)">
<path style="fill:none; 
stroke:#000000; stroke-width:0.1000; stroke-opacity:1; 
stroke-linecap:round; stroke-linejoin:round;fill:none"
d="M 279.0280,31.4943
293.0820,31.4943
293.0820,45.5483
279.0280,45.5483
Z" /> 
<path style="fill:none; 
stroke:#000000; stroke-width:0.1000; stroke-opacity:1; 
stroke-linecap:round; stroke-linejoin:round;fill:none"
d="M 40.5254,107.8858
54.5795,107.8858
54.5795,121.9398
40.5254,121.9398
Z" /> 
</g>
<g style="fill:none; 
stroke:#000000; stroke-width:0.1000; stroke-opacity:1; 
stroke-linecap:round; stroke-linejoin:round;">
<path d="M0.0550 0.0500
L316.0797 0.0700
" />
<path style="fill:none; 
stroke:#000000; stroke-width:0.1000; stroke-opacity:1; 
stroke-linecap:round; stroke-linejoin:round;fill:none"
d="M 174.7717,50.5968
188.8257,50.5968
188.8257,64.6509
174.7717,64.6509
Z" /> 
<path style="fill:none; 
stroke:#000000; stroke-width:0.1000; stroke-opacity:1; 
stroke-linecap:round; stroke-linejoin:round;fill:none"
d="M 279.2831,88.7921
293.3371,88.7921
293.3371,102.8461
279.2831,102.8461
Z" /> 
<path style="fill:none; 
stroke:#000000; stroke-width:0.1000; stroke-opacity:1; 
stroke-linecap:round; stroke-linejoin:round;fill:none"
d="M 110.5231,2.9970
124.5771,2.9970
124.5771,17.0511
110.5231,17.0511
Z" /> 
<path style="fill:none; 
stroke:#000000; stroke-width:0.1000; stroke-opacity:1; 
stroke-linecap:round; stroke-linejoin:round;fill:none"
d="M 260.2758,107.8966
274.3298,107.8966
274.3298,121.9506
260.2758,121.9506
Z" /> 
<path style="fill:none; 
stroke:#000000; stroke-width:0.1000; stroke-opacity:1; 
stroke-linecap:round; stroke-linejoin:round;fill:none"
d="M 250.7739,50.7475
264.8279,50.7475
264.8279,64.8016
250.7739,64.8016
Z" /> 
<path style="fill:none; 
stroke:#000000; stroke-width:0.1000; stroke-opacity:1; 
stroke-linecap:round; stroke-linejoin:round;fill:none"
d="M 32.0209,31.4925
46.0749,31.4925
46.0749,45.5465
32.0209,45.5465
Z" /> 
<path style="fill:none; 
stroke:#000000; stroke-width:0.1000; stroke-opacity:1; 
stroke-linecap:round; stroke-linejoin:round;fill:none"
d="M 38.5205,2.9970
52.5745,2.9970
52.5745,17.0511
38.5205,17.0511
Z" /> 
<path style="fill:none; 
stroke:#000000; stroke-width:0.1000; stroke-opacity:1; 
stroke-linecap:round; stroke-linejoin:round;fill:none"
d="M 83.8854,105.9680
89.9229,105.9680
89.9229,124.0527
83.8854,124.0527
Z" /> 
<path style="fill:none; 
stroke:#000000; stroke-width:0.1000; stroke-opacity:1; 
stroke-linecap:round; stroke-linejoin:round;fill:none"
d="M 241.2730,107.8966
255.3270,107.8966
255.3270,121.9506
241.2730,121.9506
Z" /> 
<path style="fill:none; 
stroke:#000000; stroke-width:0.1000; stroke-opacity:1; 
stroke-linecap:round; stroke-linejoin:round;fill:none"
d="M 127.0236,31.4925
141.0776,31.4925
141.0776,45.5465
127.0236,45.5465
Z" /> 
<circle cx="64.5658" cy="120.9271" r="1.6000" /> 
<circle cx="115.0517" cy="59.0210" r="1.2500" /> 
<path style="fill:none; 
stroke:#000000; stroke-width:0.1000; stroke-opacity:1; 
stroke-linecap:round; stroke-linejoin:round;fill:none"
d="M 191.0233,2.9970
205.0773,2.9970
205.0773,17.0511
191.0233,17.0511
Z" /> 
<circle cx="215.0517" cy="76.0210" r="1.2500" /> 
<path style="fill:none; 
stroke:#000000; stroke-width:0.1000; stroke-opacity:1; 
stroke-linecap:round; stroke-linejoin:round;fill:none"
d="M 219.2792,107.8966
233.3332,107.8966
233.3332,121.9506
219.2792,121.9506
Z" /> 
<circle cx="208.5333" cy="108.9240" r="1.6000" /> 
<path d="M316.0758 105.1803
L316.0807 125.0067
" />
<path style="fill:none; 
stroke:#000000; stroke-width:0.1000; stroke-opacity:1; 
stroke-linecap:round; stroke-linejoin:round;fill:none"
d="M 190.8817,105.9437
196.9193,105.9437
196.9193,124.0284
190.8817,124.0284
Z" /> 
<path style="fill:none; 
stroke:#000000; stroke-width:0.1000; stroke-opacity:1; 
stroke-linecap:round; stroke-linejoin:round;fill:none"
d="M 70.0220,31.4925
84.0760,31.4925
84.0760,45.5465
70.0220,45.5465
Z" /> 
<path style="fill:none; 
stroke:#000000; stroke-width:0.1000; stroke-opacity:1; 
stroke-linecap:round; stroke-linejoin:round;fill:none"
d="M 236.5254,69.7012
250.5794,69.7012
250.5794,83.7552
236.5254,83.7552
Z" /> 
<path style="fill:none; 
stroke:#000000; stroke-width:0.1000; stroke-opacity:1; 
stroke-linecap:round; stroke-linejoin:round;fill:none"
d="M 215.0203,2.9970
229.0743,2.9970
229.0743,17.0511
215.0203,17.0511
Z" /> 
<circle cx="29.0517" cy="10.0210" r="1.2500" /> 
<path style="fill:none; 
stroke:#000000; stroke-width:0.1000; stroke-opacity:1; 
stroke-linecap:round; stroke-linejoin:round;fill:none"
d="M 122.5221,69.7012
136.5761,69.7012
136.5761,83.7552
122.5221,83.7552
Z" /> 
<path style="fill:none; 
stroke:#000000; stroke-width:0.1000; stroke-opacity:1; 
stroke-linecap:round; stroke-linejoin:round;fill:none"
d="M 112.7741,88.7870
126.8281,88.7870
126.8281,102.8410
112.7741,102.8410
Z" /> 
<path style="fill:none; 
stroke:#000000; stroke-width:0.1000; stroke-opacity:1; 
stroke-linecap:round; stroke-linejoin:round;fill:none"
d="M 276.9957,60.2415
291.0497,60.2415
291.0497,74.2955
276.9957,74.2955
Z" /> 
<path style="fill:none; 
stroke:#000000; stroke-width:0.1000; stroke-opacity:1; 
stroke-linecap:round; stroke-linejoin:round;fill:none"
d="M 16.0359,107.8858
30.0900,107.8858
30.0900,121.9398
16.0359,121.9398
Z" /> 
<path style="fill:none; 
stroke:#000000; stroke-width:0.1000; stroke-opacity:1; 
stroke-linecap:round; stroke-linejoin:round;fill:none"
d="M 51.0214,31.4925
65.0755,31.4925
65.0755,45.5465
51.0214,45.5465
Z" /> 
<path style="fill:none; 
stroke:#000000; stroke-width:0.1000; stroke-opacity:1; 
stroke-linecap:round; stroke-linejoin:round;fill:none"
d="M 260.0158,31.4925
274.0698,31.4925
274.0698,45.5465
260.0158,45.5465
Z" /> 
<path style="fill:none; 
stroke:#000000; stroke-width:0.1000; stroke-opacity:1; 
stroke-linecap:round; stroke-linejoin:round;fill:none"
d="M 217.5248,69.7012
231.5788,69.7012
231.5788,83.7552
217.5248,83.7552
Z" /> 
<path style="fill:none; 
stroke:#000000; stroke-width:0.1000; stroke-opacity:1; 
stroke-linecap:round; stroke-linejoin:round;fill:none"
d="M 8.0380,31.4839
22.0921,31.4839
22.0921,45.5379
8.0380,45.5379
Z" /> 
<circle cx="148.0517" cy="96.0210" r="1.2500" /> 
<path style="fill:none; 
stroke:#000000; stroke-width:0.1000; stroke-opacity:1; 
stroke-linecap:round; stroke-linejoin:round;fill:none"
d="M 150.7659,88.8009
164.8199,88.8009
164.8199,102.8549
150.7659,102.8549
Z" /> 
<path style="fill:none; 
stroke:#000000; stroke-width:0.1000; stroke-opacity:1; 
stroke-linecap:round; stroke-linejoin:round;fill:none"
d="M 165.0247,31.4925
179.0787,31.4925
179.0787,45.5465
165.0247,45.5465
Z" /> 
<circle cx="58.0517" cy="57.0210" r="1.2500" /> 
<circle cx="238.0517" cy="115.0210" r="1.2500" /> 
<path style="fill:none; 
stroke:#000000; stroke-width:0.1000; stroke-opacity:1; 
stroke-linecap:round; stroke-linejoin:round;fill:none"
d="M 36.7766,88.7870
50.8306,88.7870
50.8306,102.8410
36.7766,102.8410
Z" /> 
<path style="fill:none; 
stroke:#000000; stroke-width:0.1000; stroke-opacity:1; 
stroke-linecap:round; stroke-linejoin:round;fill:none"
d="M 241.0269,31.4925
255.0809,31.4925
255.0809,45.5465
241.0269,45.5465
Z" /> 
<path style="fill:none; 
stroke:#000000; stroke-width:0.1000; stroke-opacity:1; 
stroke-linecap:round; stroke-linejoin:round;fill:none"
d="M 155.7711,50.5968
169.8252,50.5968
169.8252,64.6509
155.7711,64.6509
Z" /> 
<circle cx="287.0517" cy="10.0210" r="1.2500" /> 
<path style="fill:none; 
stroke:#000000; stroke-width:0.1000; stroke-opacity:1; 
stroke-linecap:round; stroke-linejoin:round;fill:none"
d="M 93.7713,88.7870
107.8253,88.7870
107.8253,102.8410
93.7713,102.8410
Z" /> 
<path style="fill:none; 
stroke:#000000; stroke-width:0.1000; stroke-opacity:1; 
stroke-linecap:round; stroke-linejoin:round;fill:none"
d="M 103.5216,69.6896
117.5756,69.6896
117.5756,83.7436
103.5216,83.7436
Z" /> 
<circle cx="273.0517" cy="96.0210" r="1.2500" /> 
<path style="fill:none; 
stroke:#000000; stroke-width:0.1000; stroke-opacity:1; 
stroke-linecap:round; stroke-linejoin:round;fill:none"
d="M 275.0015,76.2259
293.0862,76.2259
293.0862,82.2634
275.0015,82.2634
Z" /> 
<path style="fill:none; 
stroke:#000000; stroke-width:0.1000; stroke-opacity:1; 
stroke-linecap:round; stroke-linejoin:round;fill:none"
d="M 274.9862,52.3208
293.0709,52.3208
293.0709,58.3583
274.9862,58.3583
Z" /> 
<path style="fill:none; 
stroke:#000000; stroke-width:0.1000; stroke-opacity:1; 
stroke-linecap:round; stroke-linejoin:round;fill:none"
d="M 136.7706,50.5968
150.8246,50.5968
150.8246,64.6509
136.7706,64.6509
Z" /> 
<circle cx="58.0517" cy="115.0210" r="1.2500" /> 
<path d="M296.2198 48.3046
L296.2678 105.1803
" />
<circle cx="82.0517" cy="76.0210" r="1.2500" /> 
<path style="fill:none; 
stroke:#000000; stroke-width:0.1000; stroke-opacity:1; 
stroke-linecap:round; stroke-linejoin:round;fill:none"
d="M 119.0517,20.0210
164.0517,20.0210
164.0517,29.0210
119.0517,29.0210
Z" /> 
<path d="M0.0500 125.0095
L0.0550 0.0500
" />
<path style="fill:none; 
stroke:#000000; stroke-width:0.1000; stroke-opacity:1; 
stroke-linecap:round; stroke-linejoin:round;fill:none"
d="M 62.5291,2.9970
76.5831,2.9970
76.5831,17.0511
62.5291,17.0511
Z" /> 
<path style="fill:none; 
stroke:#000000; stroke-width:0.1000; stroke-opacity:1; 
stroke-linecap:round; stroke-linejoin:round;fill:none"
d="M 212.7728,50.5968
226.8268,50.5968
226.8268,64.6509
212.7728,64.6509
Z" /> 
<path style="fill:none; 
stroke:#000000; stroke-width:0.1000; stroke-opacity:1; 
stroke-linecap:round; stroke-linejoin:round;fill:none"
d="M 76.8880,105.9819
82.9255,105.9819
82.9255,124.0666
76.8880,124.0666
Z" /> 
<circle cx="270.0517" cy="58.0210" r="1.2500" /> 
<path style="fill:none; 
stroke:#000000; stroke-width:0.1000; stroke-opacity:1; 
stroke-linecap:round; stroke-linejoin:round;fill:none"
d="M 239.0289,2.9970
253.0829,2.9970
253.0829,17.0511
239.0289,17.0511
Z" /> 
<path d="M316.0797 0.0700
L316.0758 48.3046
" />
<path style="fill:none; 
stroke:#000000; stroke-width:0.1000; stroke-opacity:1; 
stroke-linecap:round; stroke-linejoin:round;fill:none"
d="M 200.3971,105.9437
206.4346,105.9437
206.4346,124.0284
200.3971,124.0284
Z" /> 
<circle cx="219.0517" cy="34.0210" r="1.2500" /> 
<circle cx="208.5419" cy="120.8924" r="1.6000" /> 
<path style="fill:none; 
stroke:#000000; stroke-width:0.1000; stroke-opacity:1; 
stroke-linecap:round; stroke-linejoin:round;fill:none"
d="M 207.7745,88.7870
221.8285,88.7870
221.8285,102.8410
207.7745,102.8410
Z" /> 
<path style="fill:none; 
stroke:#000000; stroke-width:0.1000; stroke-opacity:1; 
stroke-linecap:round; stroke-linejoin:round;fill:none"
d="M 5.5438,2.9747
19.5979,2.9747
19.5979,17.0287
5.5438,17.0287
Z" /> 
<circle cx="191.0517" cy="58.0210" r="1.2500" /> 
<path style="fill:none; 
stroke:#000000; stroke-width:0.1000; stroke-opacity:1; 
stroke-linecap:round; stroke-linejoin:round;fill:none"
d="M 169.7688,88.7870
183.8228,88.7870
183.8228,102.8410
169.7688,102.8410
Z" /> 
<path style="fill:none; 
stroke:#000000; stroke-width:0.1000; stroke-opacity:1; 
stroke-linecap:round; stroke-linejoin:round;fill:none"
d="M 46.5199,69.7012
60.5740,69.7012
60.5740,83.7552
46.5199,83.7552
Z" /> 
<path style="fill:none; 
stroke:#000000; stroke-width:0.1000; stroke-opacity:1; 
stroke-linecap:round; stroke-linejoin:round;fill:none"
d="M 129.8757,107.9769
143.9298,107.9769
143.9298,122.0309
129.8757,122.0309
Z" /> 
<circle cx="30.0517" cy="96.0210" r="1.2500" /> 
<path style="fill:none; 
stroke:#000000; stroke-width:0.1000; stroke-opacity:1; 
stroke-linecap:round; stroke-linejoin:round;fill:none"
d="M 117.7701,50.5968
131.8241,50.5968
131.8241,64.6509
117.7701,64.6509
Z" /> 
<path style="fill:none; 
stroke:#000000; stroke-width:0.1000; stroke-opacity:1; 
stroke-linecap:round; stroke-linejoin:round;fill:none"
d="M 10.5363,88.7920
24.5903,88.7920
24.5903,102.8460
10.5363,102.8460
Z" /> 
<path style="fill:none; 
stroke:#000000; stroke-width:0.1000; stroke-opacity:1; 
stroke-linecap:round; stroke-linejoin:round;fill:none"
d="M 108.0231,31.4925
122.0771,31.4925
122.0771,45.5465
108.0231,45.5465
Z" /> 
<path d="M316.0807 125.0067
L0.0500 125.0095
" />
<circle cx="26.0517" cy="33.0210" r="1.2500" /> 
<path style="fill:none; 
stroke:#000000; stroke-width:0.1000; stroke-opacity:1; 
stroke-linecap:round; stroke-linejoin:round;fill:none"
d="M 296.5305,2.9940
310.5845,2.9940
310.5845,17.0480
296.5305,17.0480
Z" /> 
<path style="fill:none; 
stroke:#000000; stroke-width:0.1000; stroke-opacity:1; 
stroke-linecap:round; stroke-linejoin:round;fill:none"
d="M 98.7695,50.5968
112.8235,50.5968
112.8235,64.6509
98.7695,64.6509
Z" /> 
<path style="fill:none; 
stroke:#000000; stroke-width:0.1000; stroke-opacity:1; 
stroke-linecap:round; stroke-linejoin:round;fill:none"
d="M 89.0225,31.4925
103.0765,31.4925
103.0765,45.5465
89.0225,45.5465
Z" /> 
<path style="fill:none; 
stroke:#000000; stroke-width:0.1000; stroke-opacity:1; 
stroke-linecap:round; stroke-linejoin:round;fill:none"
d="M 13.0257,50.5869
27.0797,50.5869
27.0797,64.6409
13.0257,64.6409
Z" /> 
<path style="fill:none; 
stroke:#000000; stroke-width:0.1000; stroke-opacity:1; 
stroke-linecap:round; stroke-linejoin:round;fill:none"
d="M 141.5226,69.7012
155.5767,69.7012
155.5767,83.7552
141.5226,83.7552
Z" /> 
<path style="fill:none; 
stroke:#000000; stroke-width:0.1000; stroke-opacity:1; 
stroke-linecap:round; stroke-linejoin:round;fill:none"
d="M 79.7806,50.5968
93.8346,50.5968
93.8346,64.6509
79.7806,64.6509
Z" /> 
<path style="fill:none; 
stroke:#000000; stroke-width:0.1000; stroke-opacity:1; 
stroke-linecap:round; stroke-linejoin:round;fill:none"
d="M 253.0139,88.7870
267.0679,88.7870
267.0679,102.8410
253.0139,102.8410
Z" /> 
<path style="fill:none; 
stroke:#000000; stroke-width:0.1000; stroke-opacity:1; 
stroke-linecap:round; stroke-linejoin:round;fill:none"
d="M 60.7800,50.5968
74.8340,50.5968
74.8340,64.6509
60.7800,64.6509
Z" /> 
<circle cx="64.5290" cy="108.9051" r="1.6000" /> 
<path style="fill:none; 
stroke:#000000; stroke-width:0.1000; stroke-opacity:1; 
stroke-linecap:round; stroke-linejoin:round;fill:none"
d="M 188.7716,88.7870
202.8257,88.7870
202.8257,102.8410
188.7716,102.8410
Z" /> 
<path style="fill:none; 
stroke:#000000; stroke-width:0.1000; stroke-opacity:1; 
stroke-linecap:round; stroke-linejoin:round;fill:none"
d="M 74.7684,88.7730
88.8224,88.7730
88.8224,102.8271
74.7684,102.8271
Z" /> 
<path style="fill:none; 
stroke:#000000; stroke-width:0.1000; stroke-opacity:1; 
stroke-linecap:round; stroke-linejoin:round;fill:none"
d="M 55.7655,88.7870
69.8195,88.7870
69.8195,102.8410
55.7655,102.8410
Z" /> 
<path style="fill:none; 
stroke:#000000; stroke-width:0.1000; stroke-opacity:1; 
stroke-linecap:round; stroke-linejoin:round;fill:none"
d="M 183.9038,105.9604
189.9413,105.9604
189.9413,124.0451
183.9038,124.0451
Z" /> 
<path style="fill:none; 
stroke:#000000; stroke-width:0.1000; stroke-opacity:1; 
stroke-linecap:round; stroke-linejoin:round;fill:none"
d="M 29.0401,48.5915
35.0776,48.5915
35.0776,66.6762
29.0401,66.6762
Z" /> 
<path d="M296.2678 105.1803
L316.0758 105.1803
" />
<circle cx="210.0517" cy="10.0210" r="1.2500" /> 
<path style="fill:none; 
stroke:#000000; stroke-width:0.1000; stroke-opacity:1; 
stroke-linecap:round; stroke-linejoin:round;fill:none"
d="M 84.5210,69.7012
98.5750,69.7012
98.5750,83.7552
84.5210,83.7552
Z" /> 
<path style="fill:none; 
stroke:#000000; stroke-width:0.1000; stroke-opacity:1; 
stroke-linecap:round; stroke-linejoin:round;fill:none"
d="M 167.0263,2.9970
181.0803,2.9970
181.0803,17.0511
167.0263,17.0511
Z" /> 
<path style="fill:none; 
stroke:#000000; stroke-width:0.1000; stroke-opacity:1; 
stroke-linecap:round; stroke-linejoin:round;fill:none"
d="M 193.7722,50.5968
207.8263,50.5968
207.8263,64.6509
193.7722,64.6509
Z" /> 
<path style="fill:none; 
stroke:#000000; stroke-width:0.1000; stroke-opacity:1; 
stroke-linecap:round; stroke-linejoin:round;fill:none"
d="M 298.2676,107.8966
312.3217,107.8966
312.3217,121.9506
298.2676,121.9506
Z" /> 
<circle cx="105.0517" cy="10.0210" r="1.2500" /> 
<path style="fill:none; 
stroke:#000000; stroke-width:0.1000; stroke-opacity:1; 
stroke-linecap:round; stroke-linejoin:round;fill:none"
d="M 131.7770,88.7870
145.8310,88.7870
145.8310,102.8410
131.7770,102.8410
Z" /> 
<path style="fill:none; 
stroke:#000000; stroke-width:0.1000; stroke-opacity:1; 
stroke-linecap:round; stroke-linejoin:round;fill:none"
d="M 298.0285,31.4925
312.0825,31.4925
312.0825,45.5465
298.0285,45.5465
Z" /> 
<path d="M316.0758 48.3046
L296.2198 48.3046
" />
<path style="fill:none; 
stroke:#000000; stroke-width:0.1000; stroke-opacity:1; 
stroke-linecap:round; stroke-linejoin:round;fill:none"
d="M 203.0258,31.4925
217.0798,31.4925
217.0798,45.5465
203.0258,45.5465
Z" /> 
<path style="fill:none; 
stroke:#000000; stroke-width:0.1000; stroke-opacity:1; 
stroke-linecap:round; stroke-linejoin:round;fill:none"
d="M 65.5089,69.7012
79.5629,69.7012
79.5629,83.7552
65.5089,83.7552
Z" /> 
<path style="fill:none; 
stroke:#000000; stroke-width:0.1000; stroke-opacity:1; 
stroke-linecap:round; stroke-linejoin:round;fill:none"
d="M 184.0252,31.4925
198.0793,31.4925
198.0793,45.5465
184.0252,45.5465
Z" /> 
<path style="fill:none; 
stroke:#000000; stroke-width:0.1000; stroke-opacity:1; 
stroke-linecap:round; stroke-linejoin:round;fill:none"
d="M 5.0180,48.5915
11.0555,48.5915
11.0555,66.6762
5.0180,66.6762
Z" /> 
<path style="fill:none; 
stroke:#000000; stroke-width:0.1000; stroke-opacity:1; 
stroke-linecap:round; stroke-linejoin:round;fill:none"
d="M 134.5201,2.9970
148.5742,2.9970
148.5742,17.0511
134.5201,17.0511
Z" /> 
<path style="fill:none; 
stroke:#000000; stroke-width:0.1000; stroke-opacity:1; 
stroke-linecap:round; stroke-linejoin:round;fill:none"
d="M 222.0263,31.4925
236.0804,31.4925
236.0804,45.5465
222.0263,45.5465
Z" /> 
<path style="fill:none; 
stroke:#000000; stroke-width:0.1000; stroke-opacity:1; 
stroke-linecap:round; stroke-linejoin:round;fill:none"
d="M 226.7774,88.7870
240.8314,88.7870
240.8314,102.8410
226.7774,102.8410
Z" /> 
<path style="fill:none; 
stroke:#000000; stroke-width:0.1000; stroke-opacity:1; 
stroke-linecap:round; stroke-linejoin:round;fill:none"
d="M 231.7733,50.7475
245.8273,50.7475
245.8273,64.8016
231.7733,64.8016
Z" /> 
<path style="fill:none; 
stroke:#000000; stroke-width:0.1000; stroke-opacity:1; 
stroke-linecap:round; stroke-linejoin:round;fill:none"
d="M 6.0327,69.6854
20.0867,69.6854
20.0867,83.7395
6.0327,83.7395
Z" /> 
<path style="fill:none; 
stroke:#000000; stroke-width:0.1000; stroke-opacity:1; 
stroke-linecap:round; stroke-linejoin:round;fill:none"
d="M 86.5279,2.9988
100.5819,2.9988
100.5819,17.0528
86.5279,17.0528
Z" /> 
<path style="fill:none; 
stroke:#000000; stroke-width:0.1000; stroke-opacity:1; 
stroke-linecap:round; stroke-linejoin:round;fill:none"
d="M 198.5243,69.7012
212.5783,69.7012
212.5783,83.7552
198.5243,83.7552
Z" /> 
<path style="fill:none; 
stroke:#000000; stroke-width:0.1000; stroke-opacity:1; 
stroke-linecap:round; stroke-linejoin:round;fill:none"
d="M 67.3727,105.9680
73.4102,105.9680
73.4102,124.0527
67.3727,124.0527
Z" /> 
<path style="fill:none; 
stroke:#000000; stroke-width:0.1000; stroke-opacity:1; 
stroke-linecap:round; stroke-linejoin:round;fill:none"
d="M 27.5078,69.7012
41.5618,69.7012
41.5618,83.7552
27.5078,83.7552
Z" /> 
<path style="fill:none; 
stroke:#000000; stroke-width:0.1000; stroke-opacity:1; 
stroke-linecap:round; stroke-linejoin:round;fill:none"
d="M 263.0277,2.9988
277.0818,2.9988
277.0818,17.0528
263.0277,17.0528
Z" /> 
<path style="fill:none; 
stroke:#000000; stroke-width:0.1000; stroke-opacity:1; 
stroke-linecap:round; stroke-linejoin:round;fill:none"
d="M 41.7795,50.5968
55.8335,50.5968
55.8335,64.6509
41.7795,64.6509
Z" /> 
<path style="fill:none; 
stroke:#000000; stroke-width:0.1000; stroke-opacity:1; 
stroke-linecap:round; stroke-linejoin:round;fill:none"
d="M 279.2787,107.9105
293.3327,107.9105
293.3327,121.9646
279.2787,121.9646
Z" /> 
<path style="fill:none; 
stroke:#000000; stroke-width:0.1000; stroke-opacity:1; 
stroke-linecap:round; stroke-linejoin:round;fill:none"
d="M 179.5237,69.7012
193.5778,69.7012
193.5778,83.7552
179.5237,83.7552
Z" /> 
<path style="fill:none; 
stroke:#000000; stroke-width:0.1000; stroke-opacity:1; 
stroke-linecap:round; stroke-linejoin:round;fill:none"
d="M 160.5232,69.7012
174.5772,69.7012
174.5772,83.7552
160.5232,83.7552
Z" /> 
<path style="fill:none; 
stroke:#000000; stroke-width:0.1000; stroke-opacity:1; 
stroke-linecap:round; stroke-linejoin:round;fill:none"
d="M 146.0242,31.4925
160.0782,31.4925
160.0782,45.5465
146.0242,45.5465
Z" /> 
<path style="fill:none; 
stroke:#000000; stroke-width:0.1000; stroke-opacity:1; 
stroke-linecap:round; stroke-linejoin:round;fill:none"
d="M 255.5259,69.7012
269.5799,69.7012
269.5799,83.7552
255.5259,83.7552
Z" /> 
</g> 
</svg>
