%TF.GenerationSoftware,KiCad,Pcbnew,8.0.1*%
%TF.CreationDate,2024-06-22T21:57:48+10:00*%
%TF.ProjectId,A600KBv2,41363030-4b42-4763-922e-6b696361645f,rev?*%
%TF.SameCoordinates,Original*%
%TF.FileFunction,Legend,Top*%
%TF.FilePolarity,Positive*%
%FSLAX46Y46*%
G04 Gerber Fmt 4.6, Leading zero omitted, Abs format (unit mm)*
G04 Created by KiCad (PCBNEW 8.0.1) date 2024-06-22 21:57:48*
%MOMM*%
%LPD*%
G01*
G04 APERTURE LIST*
%ADD10C,0.100000*%
%ADD11C,0.150000*%
%ADD12C,0.120000*%
G04 APERTURE END LIST*
D10*
X311880949Y-63042587D02*
X311880949Y-62042587D01*
X311880949Y-62042587D02*
X312214282Y-62756872D01*
X312214282Y-62756872D02*
X312547615Y-62042587D01*
X312547615Y-62042587D02*
X312547615Y-63042587D01*
X313404758Y-62994968D02*
X313309520Y-63042587D01*
X313309520Y-63042587D02*
X313119044Y-63042587D01*
X313119044Y-63042587D02*
X313023806Y-62994968D01*
X313023806Y-62994968D02*
X312976187Y-62899729D01*
X312976187Y-62899729D02*
X312976187Y-62518777D01*
X312976187Y-62518777D02*
X313023806Y-62423539D01*
X313023806Y-62423539D02*
X313119044Y-62375920D01*
X313119044Y-62375920D02*
X313309520Y-62375920D01*
X313309520Y-62375920D02*
X313404758Y-62423539D01*
X313404758Y-62423539D02*
X313452377Y-62518777D01*
X313452377Y-62518777D02*
X313452377Y-62614015D01*
X313452377Y-62614015D02*
X312976187Y-62709253D01*
X314309520Y-62994968D02*
X314214282Y-63042587D01*
X314214282Y-63042587D02*
X314023806Y-63042587D01*
X314023806Y-63042587D02*
X313928568Y-62994968D01*
X313928568Y-62994968D02*
X313880949Y-62947348D01*
X313880949Y-62947348D02*
X313833330Y-62852110D01*
X313833330Y-62852110D02*
X313833330Y-62566396D01*
X313833330Y-62566396D02*
X313880949Y-62471158D01*
X313880949Y-62471158D02*
X313928568Y-62423539D01*
X313928568Y-62423539D02*
X314023806Y-62375920D01*
X314023806Y-62375920D02*
X314214282Y-62375920D01*
X314214282Y-62375920D02*
X314309520Y-62423539D01*
X314738092Y-63042587D02*
X314738092Y-62042587D01*
X315166663Y-63042587D02*
X315166663Y-62518777D01*
X315166663Y-62518777D02*
X315119044Y-62423539D01*
X315119044Y-62423539D02*
X315023806Y-62375920D01*
X315023806Y-62375920D02*
X314880949Y-62375920D01*
X314880949Y-62375920D02*
X314785711Y-62423539D01*
X314785711Y-62423539D02*
X314738092Y-62471158D01*
X316071425Y-63042587D02*
X316071425Y-62518777D01*
X316071425Y-62518777D02*
X316023806Y-62423539D01*
X316023806Y-62423539D02*
X315928568Y-62375920D01*
X315928568Y-62375920D02*
X315738092Y-62375920D01*
X315738092Y-62375920D02*
X315642854Y-62423539D01*
X316071425Y-62994968D02*
X315976187Y-63042587D01*
X315976187Y-63042587D02*
X315738092Y-63042587D01*
X315738092Y-63042587D02*
X315642854Y-62994968D01*
X315642854Y-62994968D02*
X315595235Y-62899729D01*
X315595235Y-62899729D02*
X315595235Y-62804491D01*
X315595235Y-62804491D02*
X315642854Y-62709253D01*
X315642854Y-62709253D02*
X315738092Y-62661634D01*
X315738092Y-62661634D02*
X315976187Y-62661634D01*
X315976187Y-62661634D02*
X316071425Y-62614015D01*
X316547616Y-62375920D02*
X316547616Y-63042587D01*
X316547616Y-62471158D02*
X316595235Y-62423539D01*
X316595235Y-62423539D02*
X316690473Y-62375920D01*
X316690473Y-62375920D02*
X316833330Y-62375920D01*
X316833330Y-62375920D02*
X316928568Y-62423539D01*
X316928568Y-62423539D02*
X316976187Y-62518777D01*
X316976187Y-62518777D02*
X316976187Y-63042587D01*
X317452378Y-63042587D02*
X317452378Y-62375920D01*
X317452378Y-62042587D02*
X317404759Y-62090206D01*
X317404759Y-62090206D02*
X317452378Y-62137825D01*
X317452378Y-62137825D02*
X317499997Y-62090206D01*
X317499997Y-62090206D02*
X317452378Y-62042587D01*
X317452378Y-62042587D02*
X317452378Y-62137825D01*
X318357139Y-62994968D02*
X318261901Y-63042587D01*
X318261901Y-63042587D02*
X318071425Y-63042587D01*
X318071425Y-63042587D02*
X317976187Y-62994968D01*
X317976187Y-62994968D02*
X317928568Y-62947348D01*
X317928568Y-62947348D02*
X317880949Y-62852110D01*
X317880949Y-62852110D02*
X317880949Y-62566396D01*
X317880949Y-62566396D02*
X317928568Y-62471158D01*
X317928568Y-62471158D02*
X317976187Y-62423539D01*
X317976187Y-62423539D02*
X318071425Y-62375920D01*
X318071425Y-62375920D02*
X318261901Y-62375920D01*
X318261901Y-62375920D02*
X318357139Y-62423539D01*
X319214282Y-63042587D02*
X319214282Y-62518777D01*
X319214282Y-62518777D02*
X319166663Y-62423539D01*
X319166663Y-62423539D02*
X319071425Y-62375920D01*
X319071425Y-62375920D02*
X318880949Y-62375920D01*
X318880949Y-62375920D02*
X318785711Y-62423539D01*
X319214282Y-62994968D02*
X319119044Y-63042587D01*
X319119044Y-63042587D02*
X318880949Y-63042587D01*
X318880949Y-63042587D02*
X318785711Y-62994968D01*
X318785711Y-62994968D02*
X318738092Y-62899729D01*
X318738092Y-62899729D02*
X318738092Y-62804491D01*
X318738092Y-62804491D02*
X318785711Y-62709253D01*
X318785711Y-62709253D02*
X318880949Y-62661634D01*
X318880949Y-62661634D02*
X319119044Y-62661634D01*
X319119044Y-62661634D02*
X319214282Y-62614015D01*
X319833330Y-63042587D02*
X319738092Y-62994968D01*
X319738092Y-62994968D02*
X319690473Y-62899729D01*
X319690473Y-62899729D02*
X319690473Y-62042587D01*
X320976188Y-63042587D02*
X320976188Y-62042587D01*
X321071426Y-62661634D02*
X321357140Y-63042587D01*
X321357140Y-62375920D02*
X320976188Y-62756872D01*
X322166664Y-62994968D02*
X322071426Y-63042587D01*
X322071426Y-63042587D02*
X321880950Y-63042587D01*
X321880950Y-63042587D02*
X321785712Y-62994968D01*
X321785712Y-62994968D02*
X321738093Y-62899729D01*
X321738093Y-62899729D02*
X321738093Y-62518777D01*
X321738093Y-62518777D02*
X321785712Y-62423539D01*
X321785712Y-62423539D02*
X321880950Y-62375920D01*
X321880950Y-62375920D02*
X322071426Y-62375920D01*
X322071426Y-62375920D02*
X322166664Y-62423539D01*
X322166664Y-62423539D02*
X322214283Y-62518777D01*
X322214283Y-62518777D02*
X322214283Y-62614015D01*
X322214283Y-62614015D02*
X321738093Y-62709253D01*
X322547617Y-62375920D02*
X322785712Y-63042587D01*
X323023807Y-62375920D02*
X322785712Y-63042587D01*
X322785712Y-63042587D02*
X322690474Y-63280682D01*
X322690474Y-63280682D02*
X322642855Y-63328301D01*
X322642855Y-63328301D02*
X322547617Y-63375920D01*
X323404760Y-63042587D02*
X323404760Y-62042587D01*
X323404760Y-62423539D02*
X323499998Y-62375920D01*
X323499998Y-62375920D02*
X323690474Y-62375920D01*
X323690474Y-62375920D02*
X323785712Y-62423539D01*
X323785712Y-62423539D02*
X323833331Y-62471158D01*
X323833331Y-62471158D02*
X323880950Y-62566396D01*
X323880950Y-62566396D02*
X323880950Y-62852110D01*
X323880950Y-62852110D02*
X323833331Y-62947348D01*
X323833331Y-62947348D02*
X323785712Y-62994968D01*
X323785712Y-62994968D02*
X323690474Y-63042587D01*
X323690474Y-63042587D02*
X323499998Y-63042587D01*
X323499998Y-63042587D02*
X323404760Y-62994968D01*
X324452379Y-63042587D02*
X324357141Y-62994968D01*
X324357141Y-62994968D02*
X324309522Y-62947348D01*
X324309522Y-62947348D02*
X324261903Y-62852110D01*
X324261903Y-62852110D02*
X324261903Y-62566396D01*
X324261903Y-62566396D02*
X324309522Y-62471158D01*
X324309522Y-62471158D02*
X324357141Y-62423539D01*
X324357141Y-62423539D02*
X324452379Y-62375920D01*
X324452379Y-62375920D02*
X324595236Y-62375920D01*
X324595236Y-62375920D02*
X324690474Y-62423539D01*
X324690474Y-62423539D02*
X324738093Y-62471158D01*
X324738093Y-62471158D02*
X324785712Y-62566396D01*
X324785712Y-62566396D02*
X324785712Y-62852110D01*
X324785712Y-62852110D02*
X324738093Y-62947348D01*
X324738093Y-62947348D02*
X324690474Y-62994968D01*
X324690474Y-62994968D02*
X324595236Y-63042587D01*
X324595236Y-63042587D02*
X324452379Y-63042587D01*
X325642855Y-63042587D02*
X325642855Y-62518777D01*
X325642855Y-62518777D02*
X325595236Y-62423539D01*
X325595236Y-62423539D02*
X325499998Y-62375920D01*
X325499998Y-62375920D02*
X325309522Y-62375920D01*
X325309522Y-62375920D02*
X325214284Y-62423539D01*
X325642855Y-62994968D02*
X325547617Y-63042587D01*
X325547617Y-63042587D02*
X325309522Y-63042587D01*
X325309522Y-63042587D02*
X325214284Y-62994968D01*
X325214284Y-62994968D02*
X325166665Y-62899729D01*
X325166665Y-62899729D02*
X325166665Y-62804491D01*
X325166665Y-62804491D02*
X325214284Y-62709253D01*
X325214284Y-62709253D02*
X325309522Y-62661634D01*
X325309522Y-62661634D02*
X325547617Y-62661634D01*
X325547617Y-62661634D02*
X325642855Y-62614015D01*
X326119046Y-63042587D02*
X326119046Y-62375920D01*
X326119046Y-62566396D02*
X326166665Y-62471158D01*
X326166665Y-62471158D02*
X326214284Y-62423539D01*
X326214284Y-62423539D02*
X326309522Y-62375920D01*
X326309522Y-62375920D02*
X326404760Y-62375920D01*
X327166665Y-63042587D02*
X327166665Y-62042587D01*
X327166665Y-62994968D02*
X327071427Y-63042587D01*
X327071427Y-63042587D02*
X326880951Y-63042587D01*
X326880951Y-63042587D02*
X326785713Y-62994968D01*
X326785713Y-62994968D02*
X326738094Y-62947348D01*
X326738094Y-62947348D02*
X326690475Y-62852110D01*
X326690475Y-62852110D02*
X326690475Y-62566396D01*
X326690475Y-62566396D02*
X326738094Y-62471158D01*
X326738094Y-62471158D02*
X326785713Y-62423539D01*
X326785713Y-62423539D02*
X326880951Y-62375920D01*
X326880951Y-62375920D02*
X327071427Y-62375920D01*
X327071427Y-62375920D02*
X327166665Y-62423539D01*
X328261904Y-62375920D02*
X328642856Y-62375920D01*
X328404761Y-63042587D02*
X328404761Y-62185444D01*
X328404761Y-62185444D02*
X328452380Y-62090206D01*
X328452380Y-62090206D02*
X328547618Y-62042587D01*
X328547618Y-62042587D02*
X328642856Y-62042587D01*
X329119047Y-63042587D02*
X329023809Y-62994968D01*
X329023809Y-62994968D02*
X328976190Y-62947348D01*
X328976190Y-62947348D02*
X328928571Y-62852110D01*
X328928571Y-62852110D02*
X328928571Y-62566396D01*
X328928571Y-62566396D02*
X328976190Y-62471158D01*
X328976190Y-62471158D02*
X329023809Y-62423539D01*
X329023809Y-62423539D02*
X329119047Y-62375920D01*
X329119047Y-62375920D02*
X329261904Y-62375920D01*
X329261904Y-62375920D02*
X329357142Y-62423539D01*
X329357142Y-62423539D02*
X329404761Y-62471158D01*
X329404761Y-62471158D02*
X329452380Y-62566396D01*
X329452380Y-62566396D02*
X329452380Y-62852110D01*
X329452380Y-62852110D02*
X329404761Y-62947348D01*
X329404761Y-62947348D02*
X329357142Y-62994968D01*
X329357142Y-62994968D02*
X329261904Y-63042587D01*
X329261904Y-63042587D02*
X329119047Y-63042587D01*
X329880952Y-63042587D02*
X329880952Y-62375920D01*
X329880952Y-62566396D02*
X329928571Y-62471158D01*
X329928571Y-62471158D02*
X329976190Y-62423539D01*
X329976190Y-62423539D02*
X330071428Y-62375920D01*
X330071428Y-62375920D02*
X330166666Y-62375920D01*
X331119048Y-62375920D02*
X331500000Y-62375920D01*
X331261905Y-62042587D02*
X331261905Y-62899729D01*
X331261905Y-62899729D02*
X331309524Y-62994968D01*
X331309524Y-62994968D02*
X331404762Y-63042587D01*
X331404762Y-63042587D02*
X331500000Y-63042587D01*
X331833334Y-63042587D02*
X331833334Y-62042587D01*
X332261905Y-63042587D02*
X332261905Y-62518777D01*
X332261905Y-62518777D02*
X332214286Y-62423539D01*
X332214286Y-62423539D02*
X332119048Y-62375920D01*
X332119048Y-62375920D02*
X331976191Y-62375920D01*
X331976191Y-62375920D02*
X331880953Y-62423539D01*
X331880953Y-62423539D02*
X331833334Y-62471158D01*
X333119048Y-62994968D02*
X333023810Y-63042587D01*
X333023810Y-63042587D02*
X332833334Y-63042587D01*
X332833334Y-63042587D02*
X332738096Y-62994968D01*
X332738096Y-62994968D02*
X332690477Y-62899729D01*
X332690477Y-62899729D02*
X332690477Y-62518777D01*
X332690477Y-62518777D02*
X332738096Y-62423539D01*
X332738096Y-62423539D02*
X332833334Y-62375920D01*
X332833334Y-62375920D02*
X333023810Y-62375920D01*
X333023810Y-62375920D02*
X333119048Y-62423539D01*
X333119048Y-62423539D02*
X333166667Y-62518777D01*
X333166667Y-62518777D02*
X333166667Y-62614015D01*
X333166667Y-62614015D02*
X332690477Y-62709253D01*
X334309525Y-62756872D02*
X334785715Y-62756872D01*
X334214287Y-63042587D02*
X334547620Y-62042587D01*
X334547620Y-62042587D02*
X334880953Y-63042587D01*
X335642858Y-62042587D02*
X335452382Y-62042587D01*
X335452382Y-62042587D02*
X335357144Y-62090206D01*
X335357144Y-62090206D02*
X335309525Y-62137825D01*
X335309525Y-62137825D02*
X335214287Y-62280682D01*
X335214287Y-62280682D02*
X335166668Y-62471158D01*
X335166668Y-62471158D02*
X335166668Y-62852110D01*
X335166668Y-62852110D02*
X335214287Y-62947348D01*
X335214287Y-62947348D02*
X335261906Y-62994968D01*
X335261906Y-62994968D02*
X335357144Y-63042587D01*
X335357144Y-63042587D02*
X335547620Y-63042587D01*
X335547620Y-63042587D02*
X335642858Y-62994968D01*
X335642858Y-62994968D02*
X335690477Y-62947348D01*
X335690477Y-62947348D02*
X335738096Y-62852110D01*
X335738096Y-62852110D02*
X335738096Y-62614015D01*
X335738096Y-62614015D02*
X335690477Y-62518777D01*
X335690477Y-62518777D02*
X335642858Y-62471158D01*
X335642858Y-62471158D02*
X335547620Y-62423539D01*
X335547620Y-62423539D02*
X335357144Y-62423539D01*
X335357144Y-62423539D02*
X335261906Y-62471158D01*
X335261906Y-62471158D02*
X335214287Y-62518777D01*
X335214287Y-62518777D02*
X335166668Y-62614015D01*
X336357144Y-62042587D02*
X336452382Y-62042587D01*
X336452382Y-62042587D02*
X336547620Y-62090206D01*
X336547620Y-62090206D02*
X336595239Y-62137825D01*
X336595239Y-62137825D02*
X336642858Y-62233063D01*
X336642858Y-62233063D02*
X336690477Y-62423539D01*
X336690477Y-62423539D02*
X336690477Y-62661634D01*
X336690477Y-62661634D02*
X336642858Y-62852110D01*
X336642858Y-62852110D02*
X336595239Y-62947348D01*
X336595239Y-62947348D02*
X336547620Y-62994968D01*
X336547620Y-62994968D02*
X336452382Y-63042587D01*
X336452382Y-63042587D02*
X336357144Y-63042587D01*
X336357144Y-63042587D02*
X336261906Y-62994968D01*
X336261906Y-62994968D02*
X336214287Y-62947348D01*
X336214287Y-62947348D02*
X336166668Y-62852110D01*
X336166668Y-62852110D02*
X336119049Y-62661634D01*
X336119049Y-62661634D02*
X336119049Y-62423539D01*
X336119049Y-62423539D02*
X336166668Y-62233063D01*
X336166668Y-62233063D02*
X336214287Y-62137825D01*
X336214287Y-62137825D02*
X336261906Y-62090206D01*
X336261906Y-62090206D02*
X336357144Y-62042587D01*
X337309525Y-62042587D02*
X337404763Y-62042587D01*
X337404763Y-62042587D02*
X337500001Y-62090206D01*
X337500001Y-62090206D02*
X337547620Y-62137825D01*
X337547620Y-62137825D02*
X337595239Y-62233063D01*
X337595239Y-62233063D02*
X337642858Y-62423539D01*
X337642858Y-62423539D02*
X337642858Y-62661634D01*
X337642858Y-62661634D02*
X337595239Y-62852110D01*
X337595239Y-62852110D02*
X337547620Y-62947348D01*
X337547620Y-62947348D02*
X337500001Y-62994968D01*
X337500001Y-62994968D02*
X337404763Y-63042587D01*
X337404763Y-63042587D02*
X337309525Y-63042587D01*
X337309525Y-63042587D02*
X337214287Y-62994968D01*
X337214287Y-62994968D02*
X337166668Y-62947348D01*
X337166668Y-62947348D02*
X337119049Y-62852110D01*
X337119049Y-62852110D02*
X337071430Y-62661634D01*
X337071430Y-62661634D02*
X337071430Y-62423539D01*
X337071430Y-62423539D02*
X337119049Y-62233063D01*
X337119049Y-62233063D02*
X337166668Y-62137825D01*
X337166668Y-62137825D02*
X337214287Y-62090206D01*
X337214287Y-62090206D02*
X337309525Y-62042587D01*
X338833335Y-62661634D02*
X339595240Y-62661634D01*
X340785716Y-62756872D02*
X341261906Y-62756872D01*
X340690478Y-63042587D02*
X341023811Y-62042587D01*
X341023811Y-62042587D02*
X341357144Y-63042587D01*
X342119049Y-62042587D02*
X341928573Y-62042587D01*
X341928573Y-62042587D02*
X341833335Y-62090206D01*
X341833335Y-62090206D02*
X341785716Y-62137825D01*
X341785716Y-62137825D02*
X341690478Y-62280682D01*
X341690478Y-62280682D02*
X341642859Y-62471158D01*
X341642859Y-62471158D02*
X341642859Y-62852110D01*
X341642859Y-62852110D02*
X341690478Y-62947348D01*
X341690478Y-62947348D02*
X341738097Y-62994968D01*
X341738097Y-62994968D02*
X341833335Y-63042587D01*
X341833335Y-63042587D02*
X342023811Y-63042587D01*
X342023811Y-63042587D02*
X342119049Y-62994968D01*
X342119049Y-62994968D02*
X342166668Y-62947348D01*
X342166668Y-62947348D02*
X342214287Y-62852110D01*
X342214287Y-62852110D02*
X342214287Y-62614015D01*
X342214287Y-62614015D02*
X342166668Y-62518777D01*
X342166668Y-62518777D02*
X342119049Y-62471158D01*
X342119049Y-62471158D02*
X342023811Y-62423539D01*
X342023811Y-62423539D02*
X341833335Y-62423539D01*
X341833335Y-62423539D02*
X341738097Y-62471158D01*
X341738097Y-62471158D02*
X341690478Y-62518777D01*
X341690478Y-62518777D02*
X341642859Y-62614015D01*
X342833335Y-62042587D02*
X342928573Y-62042587D01*
X342928573Y-62042587D02*
X343023811Y-62090206D01*
X343023811Y-62090206D02*
X343071430Y-62137825D01*
X343071430Y-62137825D02*
X343119049Y-62233063D01*
X343119049Y-62233063D02*
X343166668Y-62423539D01*
X343166668Y-62423539D02*
X343166668Y-62661634D01*
X343166668Y-62661634D02*
X343119049Y-62852110D01*
X343119049Y-62852110D02*
X343071430Y-62947348D01*
X343071430Y-62947348D02*
X343023811Y-62994968D01*
X343023811Y-62994968D02*
X342928573Y-63042587D01*
X342928573Y-63042587D02*
X342833335Y-63042587D01*
X342833335Y-63042587D02*
X342738097Y-62994968D01*
X342738097Y-62994968D02*
X342690478Y-62947348D01*
X342690478Y-62947348D02*
X342642859Y-62852110D01*
X342642859Y-62852110D02*
X342595240Y-62661634D01*
X342595240Y-62661634D02*
X342595240Y-62423539D01*
X342595240Y-62423539D02*
X342642859Y-62233063D01*
X342642859Y-62233063D02*
X342690478Y-62137825D01*
X342690478Y-62137825D02*
X342738097Y-62090206D01*
X342738097Y-62090206D02*
X342833335Y-62042587D01*
X343785716Y-62042587D02*
X343880954Y-62042587D01*
X343880954Y-62042587D02*
X343976192Y-62090206D01*
X343976192Y-62090206D02*
X344023811Y-62137825D01*
X344023811Y-62137825D02*
X344071430Y-62233063D01*
X344071430Y-62233063D02*
X344119049Y-62423539D01*
X344119049Y-62423539D02*
X344119049Y-62661634D01*
X344119049Y-62661634D02*
X344071430Y-62852110D01*
X344071430Y-62852110D02*
X344023811Y-62947348D01*
X344023811Y-62947348D02*
X343976192Y-62994968D01*
X343976192Y-62994968D02*
X343880954Y-63042587D01*
X343880954Y-63042587D02*
X343785716Y-63042587D01*
X343785716Y-63042587D02*
X343690478Y-62994968D01*
X343690478Y-62994968D02*
X343642859Y-62947348D01*
X343642859Y-62947348D02*
X343595240Y-62852110D01*
X343595240Y-62852110D02*
X343547621Y-62661634D01*
X343547621Y-62661634D02*
X343547621Y-62423539D01*
X343547621Y-62423539D02*
X343595240Y-62233063D01*
X343595240Y-62233063D02*
X343642859Y-62137825D01*
X343642859Y-62137825D02*
X343690478Y-62090206D01*
X343690478Y-62090206D02*
X343785716Y-62042587D01*
X344547621Y-63042587D02*
X344547621Y-62042587D01*
X345119049Y-63042587D02*
X344690478Y-62471158D01*
X345119049Y-62042587D02*
X344547621Y-62614015D01*
X345880954Y-62518777D02*
X346023811Y-62566396D01*
X346023811Y-62566396D02*
X346071430Y-62614015D01*
X346071430Y-62614015D02*
X346119049Y-62709253D01*
X346119049Y-62709253D02*
X346119049Y-62852110D01*
X346119049Y-62852110D02*
X346071430Y-62947348D01*
X346071430Y-62947348D02*
X346023811Y-62994968D01*
X346023811Y-62994968D02*
X345928573Y-63042587D01*
X345928573Y-63042587D02*
X345547621Y-63042587D01*
X345547621Y-63042587D02*
X345547621Y-62042587D01*
X345547621Y-62042587D02*
X345880954Y-62042587D01*
X345880954Y-62042587D02*
X345976192Y-62090206D01*
X345976192Y-62090206D02*
X346023811Y-62137825D01*
X346023811Y-62137825D02*
X346071430Y-62233063D01*
X346071430Y-62233063D02*
X346071430Y-62328301D01*
X346071430Y-62328301D02*
X346023811Y-62423539D01*
X346023811Y-62423539D02*
X345976192Y-62471158D01*
X345976192Y-62471158D02*
X345880954Y-62518777D01*
X345880954Y-62518777D02*
X345547621Y-62518777D01*
X346452383Y-62375920D02*
X346690478Y-63042587D01*
X346690478Y-63042587D02*
X346928573Y-62375920D01*
X347261907Y-62137825D02*
X347309526Y-62090206D01*
X347309526Y-62090206D02*
X347404764Y-62042587D01*
X347404764Y-62042587D02*
X347642859Y-62042587D01*
X347642859Y-62042587D02*
X347738097Y-62090206D01*
X347738097Y-62090206D02*
X347785716Y-62137825D01*
X347785716Y-62137825D02*
X347833335Y-62233063D01*
X347833335Y-62233063D02*
X347833335Y-62328301D01*
X347833335Y-62328301D02*
X347785716Y-62471158D01*
X347785716Y-62471158D02*
X347214288Y-63042587D01*
X347214288Y-63042587D02*
X347833335Y-63042587D01*
X349023812Y-63042587D02*
X349023812Y-62375920D01*
X349023812Y-62566396D02*
X349071431Y-62471158D01*
X349071431Y-62471158D02*
X349119050Y-62423539D01*
X349119050Y-62423539D02*
X349214288Y-62375920D01*
X349214288Y-62375920D02*
X349309526Y-62375920D01*
X350166669Y-63042587D02*
X349595241Y-63042587D01*
X349880955Y-63042587D02*
X349880955Y-62042587D01*
X349880955Y-62042587D02*
X349785717Y-62185444D01*
X349785717Y-62185444D02*
X349690479Y-62280682D01*
X349690479Y-62280682D02*
X349595241Y-62328301D01*
X315642855Y-63985864D02*
X316023807Y-63985864D01*
X315785712Y-64652531D02*
X315785712Y-63795388D01*
X315785712Y-63795388D02*
X315833331Y-63700150D01*
X315833331Y-63700150D02*
X315928569Y-63652531D01*
X315928569Y-63652531D02*
X316023807Y-63652531D01*
X316499998Y-64652531D02*
X316404760Y-64604912D01*
X316404760Y-64604912D02*
X316357141Y-64557292D01*
X316357141Y-64557292D02*
X316309522Y-64462054D01*
X316309522Y-64462054D02*
X316309522Y-64176340D01*
X316309522Y-64176340D02*
X316357141Y-64081102D01*
X316357141Y-64081102D02*
X316404760Y-64033483D01*
X316404760Y-64033483D02*
X316499998Y-63985864D01*
X316499998Y-63985864D02*
X316642855Y-63985864D01*
X316642855Y-63985864D02*
X316738093Y-64033483D01*
X316738093Y-64033483D02*
X316785712Y-64081102D01*
X316785712Y-64081102D02*
X316833331Y-64176340D01*
X316833331Y-64176340D02*
X316833331Y-64462054D01*
X316833331Y-64462054D02*
X316785712Y-64557292D01*
X316785712Y-64557292D02*
X316738093Y-64604912D01*
X316738093Y-64604912D02*
X316642855Y-64652531D01*
X316642855Y-64652531D02*
X316499998Y-64652531D01*
X317261903Y-64652531D02*
X317261903Y-63985864D01*
X317261903Y-64176340D02*
X317309522Y-64081102D01*
X317309522Y-64081102D02*
X317357141Y-64033483D01*
X317357141Y-64033483D02*
X317452379Y-63985864D01*
X317452379Y-63985864D02*
X317547617Y-63985864D01*
X319166665Y-63700150D02*
X319071427Y-63652531D01*
X319071427Y-63652531D02*
X318928570Y-63652531D01*
X318928570Y-63652531D02*
X318785713Y-63700150D01*
X318785713Y-63700150D02*
X318690475Y-63795388D01*
X318690475Y-63795388D02*
X318642856Y-63890626D01*
X318642856Y-63890626D02*
X318595237Y-64081102D01*
X318595237Y-64081102D02*
X318595237Y-64223959D01*
X318595237Y-64223959D02*
X318642856Y-64414435D01*
X318642856Y-64414435D02*
X318690475Y-64509673D01*
X318690475Y-64509673D02*
X318785713Y-64604912D01*
X318785713Y-64604912D02*
X318928570Y-64652531D01*
X318928570Y-64652531D02*
X319023808Y-64652531D01*
X319023808Y-64652531D02*
X319166665Y-64604912D01*
X319166665Y-64604912D02*
X319214284Y-64557292D01*
X319214284Y-64557292D02*
X319214284Y-64223959D01*
X319214284Y-64223959D02*
X319023808Y-64223959D01*
X320071427Y-64652531D02*
X320071427Y-64128721D01*
X320071427Y-64128721D02*
X320023808Y-64033483D01*
X320023808Y-64033483D02*
X319928570Y-63985864D01*
X319928570Y-63985864D02*
X319738094Y-63985864D01*
X319738094Y-63985864D02*
X319642856Y-64033483D01*
X320071427Y-64604912D02*
X319976189Y-64652531D01*
X319976189Y-64652531D02*
X319738094Y-64652531D01*
X319738094Y-64652531D02*
X319642856Y-64604912D01*
X319642856Y-64604912D02*
X319595237Y-64509673D01*
X319595237Y-64509673D02*
X319595237Y-64414435D01*
X319595237Y-64414435D02*
X319642856Y-64319197D01*
X319642856Y-64319197D02*
X319738094Y-64271578D01*
X319738094Y-64271578D02*
X319976189Y-64271578D01*
X319976189Y-64271578D02*
X320071427Y-64223959D01*
X320404761Y-63985864D02*
X320785713Y-63985864D01*
X320547618Y-63652531D02*
X320547618Y-64509673D01*
X320547618Y-64509673D02*
X320595237Y-64604912D01*
X320595237Y-64604912D02*
X320690475Y-64652531D01*
X320690475Y-64652531D02*
X320785713Y-64652531D01*
X321499999Y-64604912D02*
X321404761Y-64652531D01*
X321404761Y-64652531D02*
X321214285Y-64652531D01*
X321214285Y-64652531D02*
X321119047Y-64604912D01*
X321119047Y-64604912D02*
X321071428Y-64509673D01*
X321071428Y-64509673D02*
X321071428Y-64128721D01*
X321071428Y-64128721D02*
X321119047Y-64033483D01*
X321119047Y-64033483D02*
X321214285Y-63985864D01*
X321214285Y-63985864D02*
X321404761Y-63985864D01*
X321404761Y-63985864D02*
X321499999Y-64033483D01*
X321499999Y-64033483D02*
X321547618Y-64128721D01*
X321547618Y-64128721D02*
X321547618Y-64223959D01*
X321547618Y-64223959D02*
X321071428Y-64319197D01*
X321976190Y-64652531D02*
X321976190Y-63985864D01*
X321976190Y-64176340D02*
X322023809Y-64081102D01*
X322023809Y-64081102D02*
X322071428Y-64033483D01*
X322071428Y-64033483D02*
X322166666Y-63985864D01*
X322166666Y-63985864D02*
X322261904Y-63985864D01*
X322738095Y-64652531D02*
X322642857Y-64604912D01*
X322642857Y-64604912D02*
X322595238Y-64557292D01*
X322595238Y-64557292D02*
X322547619Y-64462054D01*
X322547619Y-64462054D02*
X322547619Y-64176340D01*
X322547619Y-64176340D02*
X322595238Y-64081102D01*
X322595238Y-64081102D02*
X322642857Y-64033483D01*
X322642857Y-64033483D02*
X322738095Y-63985864D01*
X322738095Y-63985864D02*
X322880952Y-63985864D01*
X322880952Y-63985864D02*
X322976190Y-64033483D01*
X322976190Y-64033483D02*
X323023809Y-64081102D01*
X323023809Y-64081102D02*
X323071428Y-64176340D01*
X323071428Y-64176340D02*
X323071428Y-64462054D01*
X323071428Y-64462054D02*
X323023809Y-64557292D01*
X323023809Y-64557292D02*
X322976190Y-64604912D01*
X322976190Y-64604912D02*
X322880952Y-64652531D01*
X322880952Y-64652531D02*
X322738095Y-64652531D01*
X323500000Y-63985864D02*
X323500000Y-64652531D01*
X323500000Y-64081102D02*
X323547619Y-64033483D01*
X323547619Y-64033483D02*
X323642857Y-63985864D01*
X323642857Y-63985864D02*
X323785714Y-63985864D01*
X323785714Y-63985864D02*
X323880952Y-64033483D01*
X323880952Y-64033483D02*
X323928571Y-64128721D01*
X323928571Y-64128721D02*
X323928571Y-64652531D01*
X325166667Y-64652531D02*
X325166667Y-63652531D01*
X325738095Y-64652531D02*
X325309524Y-64081102D01*
X325738095Y-63652531D02*
X325166667Y-64223959D01*
X326119048Y-64604912D02*
X326261905Y-64652531D01*
X326261905Y-64652531D02*
X326500000Y-64652531D01*
X326500000Y-64652531D02*
X326595238Y-64604912D01*
X326595238Y-64604912D02*
X326642857Y-64557292D01*
X326642857Y-64557292D02*
X326690476Y-64462054D01*
X326690476Y-64462054D02*
X326690476Y-64366816D01*
X326690476Y-64366816D02*
X326642857Y-64271578D01*
X326642857Y-64271578D02*
X326595238Y-64223959D01*
X326595238Y-64223959D02*
X326500000Y-64176340D01*
X326500000Y-64176340D02*
X326309524Y-64128721D01*
X326309524Y-64128721D02*
X326214286Y-64081102D01*
X326214286Y-64081102D02*
X326166667Y-64033483D01*
X326166667Y-64033483D02*
X326119048Y-63938245D01*
X326119048Y-63938245D02*
X326119048Y-63843007D01*
X326119048Y-63843007D02*
X326166667Y-63747769D01*
X326166667Y-63747769D02*
X326214286Y-63700150D01*
X326214286Y-63700150D02*
X326309524Y-63652531D01*
X326309524Y-63652531D02*
X326547619Y-63652531D01*
X326547619Y-63652531D02*
X326690476Y-63700150D01*
X327119048Y-64271578D02*
X327880953Y-64271578D01*
X328261905Y-63652531D02*
X328880952Y-63652531D01*
X328880952Y-63652531D02*
X328547619Y-64033483D01*
X328547619Y-64033483D02*
X328690476Y-64033483D01*
X328690476Y-64033483D02*
X328785714Y-64081102D01*
X328785714Y-64081102D02*
X328833333Y-64128721D01*
X328833333Y-64128721D02*
X328880952Y-64223959D01*
X328880952Y-64223959D02*
X328880952Y-64462054D01*
X328880952Y-64462054D02*
X328833333Y-64557292D01*
X328833333Y-64557292D02*
X328785714Y-64604912D01*
X328785714Y-64604912D02*
X328690476Y-64652531D01*
X328690476Y-64652531D02*
X328404762Y-64652531D01*
X328404762Y-64652531D02*
X328309524Y-64604912D01*
X328309524Y-64604912D02*
X328261905Y-64557292D01*
X329214286Y-63652531D02*
X329833333Y-63652531D01*
X329833333Y-63652531D02*
X329500000Y-64033483D01*
X329500000Y-64033483D02*
X329642857Y-64033483D01*
X329642857Y-64033483D02*
X329738095Y-64081102D01*
X329738095Y-64081102D02*
X329785714Y-64128721D01*
X329785714Y-64128721D02*
X329833333Y-64223959D01*
X329833333Y-64223959D02*
X329833333Y-64462054D01*
X329833333Y-64462054D02*
X329785714Y-64557292D01*
X329785714Y-64557292D02*
X329738095Y-64604912D01*
X329738095Y-64604912D02*
X329642857Y-64652531D01*
X329642857Y-64652531D02*
X329357143Y-64652531D01*
X329357143Y-64652531D02*
X329261905Y-64604912D01*
X329261905Y-64604912D02*
X329214286Y-64557292D01*
X331166667Y-64652531D02*
X331071429Y-64604912D01*
X331071429Y-64604912D02*
X331023810Y-64509673D01*
X331023810Y-64509673D02*
X331023810Y-63652531D01*
X331690477Y-64652531D02*
X331595239Y-64604912D01*
X331595239Y-64604912D02*
X331547620Y-64557292D01*
X331547620Y-64557292D02*
X331500001Y-64462054D01*
X331500001Y-64462054D02*
X331500001Y-64176340D01*
X331500001Y-64176340D02*
X331547620Y-64081102D01*
X331547620Y-64081102D02*
X331595239Y-64033483D01*
X331595239Y-64033483D02*
X331690477Y-63985864D01*
X331690477Y-63985864D02*
X331833334Y-63985864D01*
X331833334Y-63985864D02*
X331928572Y-64033483D01*
X331928572Y-64033483D02*
X331976191Y-64081102D01*
X331976191Y-64081102D02*
X332023810Y-64176340D01*
X332023810Y-64176340D02*
X332023810Y-64462054D01*
X332023810Y-64462054D02*
X331976191Y-64557292D01*
X331976191Y-64557292D02*
X331928572Y-64604912D01*
X331928572Y-64604912D02*
X331833334Y-64652531D01*
X331833334Y-64652531D02*
X331690477Y-64652531D01*
X332357144Y-63985864D02*
X332547620Y-64652531D01*
X332547620Y-64652531D02*
X332738096Y-64176340D01*
X332738096Y-64176340D02*
X332928572Y-64652531D01*
X332928572Y-64652531D02*
X333119048Y-63985864D01*
X333500001Y-64271578D02*
X334261906Y-64271578D01*
X334738096Y-63985864D02*
X334738096Y-64985864D01*
X334738096Y-64033483D02*
X334833334Y-63985864D01*
X334833334Y-63985864D02*
X335023810Y-63985864D01*
X335023810Y-63985864D02*
X335119048Y-64033483D01*
X335119048Y-64033483D02*
X335166667Y-64081102D01*
X335166667Y-64081102D02*
X335214286Y-64176340D01*
X335214286Y-64176340D02*
X335214286Y-64462054D01*
X335214286Y-64462054D02*
X335166667Y-64557292D01*
X335166667Y-64557292D02*
X335119048Y-64604912D01*
X335119048Y-64604912D02*
X335023810Y-64652531D01*
X335023810Y-64652531D02*
X334833334Y-64652531D01*
X334833334Y-64652531D02*
X334738096Y-64604912D01*
X335642858Y-64652531D02*
X335642858Y-63985864D01*
X335642858Y-64176340D02*
X335690477Y-64081102D01*
X335690477Y-64081102D02*
X335738096Y-64033483D01*
X335738096Y-64033483D02*
X335833334Y-63985864D01*
X335833334Y-63985864D02*
X335928572Y-63985864D01*
X336404763Y-64652531D02*
X336309525Y-64604912D01*
X336309525Y-64604912D02*
X336261906Y-64557292D01*
X336261906Y-64557292D02*
X336214287Y-64462054D01*
X336214287Y-64462054D02*
X336214287Y-64176340D01*
X336214287Y-64176340D02*
X336261906Y-64081102D01*
X336261906Y-64081102D02*
X336309525Y-64033483D01*
X336309525Y-64033483D02*
X336404763Y-63985864D01*
X336404763Y-63985864D02*
X336547620Y-63985864D01*
X336547620Y-63985864D02*
X336642858Y-64033483D01*
X336642858Y-64033483D02*
X336690477Y-64081102D01*
X336690477Y-64081102D02*
X336738096Y-64176340D01*
X336738096Y-64176340D02*
X336738096Y-64462054D01*
X336738096Y-64462054D02*
X336690477Y-64557292D01*
X336690477Y-64557292D02*
X336642858Y-64604912D01*
X336642858Y-64604912D02*
X336547620Y-64652531D01*
X336547620Y-64652531D02*
X336404763Y-64652531D01*
X337023811Y-63985864D02*
X337404763Y-63985864D01*
X337166668Y-64652531D02*
X337166668Y-63795388D01*
X337166668Y-63795388D02*
X337214287Y-63700150D01*
X337214287Y-63700150D02*
X337309525Y-63652531D01*
X337309525Y-63652531D02*
X337404763Y-63652531D01*
X337738097Y-64652531D02*
X337738097Y-63985864D01*
X337738097Y-63652531D02*
X337690478Y-63700150D01*
X337690478Y-63700150D02*
X337738097Y-63747769D01*
X337738097Y-63747769D02*
X337785716Y-63700150D01*
X337785716Y-63700150D02*
X337738097Y-63652531D01*
X337738097Y-63652531D02*
X337738097Y-63747769D01*
X338357144Y-64652531D02*
X338261906Y-64604912D01*
X338261906Y-64604912D02*
X338214287Y-64509673D01*
X338214287Y-64509673D02*
X338214287Y-63652531D01*
X339119049Y-64604912D02*
X339023811Y-64652531D01*
X339023811Y-64652531D02*
X338833335Y-64652531D01*
X338833335Y-64652531D02*
X338738097Y-64604912D01*
X338738097Y-64604912D02*
X338690478Y-64509673D01*
X338690478Y-64509673D02*
X338690478Y-64128721D01*
X338690478Y-64128721D02*
X338738097Y-64033483D01*
X338738097Y-64033483D02*
X338833335Y-63985864D01*
X338833335Y-63985864D02*
X339023811Y-63985864D01*
X339023811Y-63985864D02*
X339119049Y-64033483D01*
X339119049Y-64033483D02*
X339166668Y-64128721D01*
X339166668Y-64128721D02*
X339166668Y-64223959D01*
X339166668Y-64223959D02*
X338690478Y-64319197D01*
X340309526Y-64604912D02*
X340404764Y-64652531D01*
X340404764Y-64652531D02*
X340595240Y-64652531D01*
X340595240Y-64652531D02*
X340690478Y-64604912D01*
X340690478Y-64604912D02*
X340738097Y-64509673D01*
X340738097Y-64509673D02*
X340738097Y-64462054D01*
X340738097Y-64462054D02*
X340690478Y-64366816D01*
X340690478Y-64366816D02*
X340595240Y-64319197D01*
X340595240Y-64319197D02*
X340452383Y-64319197D01*
X340452383Y-64319197D02*
X340357145Y-64271578D01*
X340357145Y-64271578D02*
X340309526Y-64176340D01*
X340309526Y-64176340D02*
X340309526Y-64128721D01*
X340309526Y-64128721D02*
X340357145Y-64033483D01*
X340357145Y-64033483D02*
X340452383Y-63985864D01*
X340452383Y-63985864D02*
X340595240Y-63985864D01*
X340595240Y-63985864D02*
X340690478Y-64033483D01*
X341071431Y-63985864D02*
X341261907Y-64652531D01*
X341261907Y-64652531D02*
X341452383Y-64176340D01*
X341452383Y-64176340D02*
X341642859Y-64652531D01*
X341642859Y-64652531D02*
X341833335Y-63985864D01*
X342214288Y-64652531D02*
X342214288Y-63985864D01*
X342214288Y-63652531D02*
X342166669Y-63700150D01*
X342166669Y-63700150D02*
X342214288Y-63747769D01*
X342214288Y-63747769D02*
X342261907Y-63700150D01*
X342261907Y-63700150D02*
X342214288Y-63652531D01*
X342214288Y-63652531D02*
X342214288Y-63747769D01*
X342547621Y-63985864D02*
X342928573Y-63985864D01*
X342690478Y-63652531D02*
X342690478Y-64509673D01*
X342690478Y-64509673D02*
X342738097Y-64604912D01*
X342738097Y-64604912D02*
X342833335Y-64652531D01*
X342833335Y-64652531D02*
X342928573Y-64652531D01*
X343690478Y-64604912D02*
X343595240Y-64652531D01*
X343595240Y-64652531D02*
X343404764Y-64652531D01*
X343404764Y-64652531D02*
X343309526Y-64604912D01*
X343309526Y-64604912D02*
X343261907Y-64557292D01*
X343261907Y-64557292D02*
X343214288Y-64462054D01*
X343214288Y-64462054D02*
X343214288Y-64176340D01*
X343214288Y-64176340D02*
X343261907Y-64081102D01*
X343261907Y-64081102D02*
X343309526Y-64033483D01*
X343309526Y-64033483D02*
X343404764Y-63985864D01*
X343404764Y-63985864D02*
X343595240Y-63985864D01*
X343595240Y-63985864D02*
X343690478Y-64033483D01*
X344119050Y-64652531D02*
X344119050Y-63652531D01*
X344547621Y-64652531D02*
X344547621Y-64128721D01*
X344547621Y-64128721D02*
X344500002Y-64033483D01*
X344500002Y-64033483D02*
X344404764Y-63985864D01*
X344404764Y-63985864D02*
X344261907Y-63985864D01*
X344261907Y-63985864D02*
X344166669Y-64033483D01*
X344166669Y-64033483D02*
X344119050Y-64081102D01*
X345404764Y-64604912D02*
X345309526Y-64652531D01*
X345309526Y-64652531D02*
X345119050Y-64652531D01*
X345119050Y-64652531D02*
X345023812Y-64604912D01*
X345023812Y-64604912D02*
X344976193Y-64509673D01*
X344976193Y-64509673D02*
X344976193Y-64128721D01*
X344976193Y-64128721D02*
X345023812Y-64033483D01*
X345023812Y-64033483D02*
X345119050Y-63985864D01*
X345119050Y-63985864D02*
X345309526Y-63985864D01*
X345309526Y-63985864D02*
X345404764Y-64033483D01*
X345404764Y-64033483D02*
X345452383Y-64128721D01*
X345452383Y-64128721D02*
X345452383Y-64223959D01*
X345452383Y-64223959D02*
X344976193Y-64319197D01*
X345833336Y-64604912D02*
X345928574Y-64652531D01*
X345928574Y-64652531D02*
X346119050Y-64652531D01*
X346119050Y-64652531D02*
X346214288Y-64604912D01*
X346214288Y-64604912D02*
X346261907Y-64509673D01*
X346261907Y-64509673D02*
X346261907Y-64462054D01*
X346261907Y-64462054D02*
X346214288Y-64366816D01*
X346214288Y-64366816D02*
X346119050Y-64319197D01*
X346119050Y-64319197D02*
X345976193Y-64319197D01*
X345976193Y-64319197D02*
X345880955Y-64271578D01*
X345880955Y-64271578D02*
X345833336Y-64176340D01*
X345833336Y-64176340D02*
X345833336Y-64128721D01*
X345833336Y-64128721D02*
X345880955Y-64033483D01*
X345880955Y-64033483D02*
X345976193Y-63985864D01*
X345976193Y-63985864D02*
X346119050Y-63985864D01*
X346119050Y-63985864D02*
X346214288Y-64033483D01*
X318452379Y-66262475D02*
X318452379Y-65738665D01*
X318452379Y-65738665D02*
X318404760Y-65643427D01*
X318404760Y-65643427D02*
X318309522Y-65595808D01*
X318309522Y-65595808D02*
X318119046Y-65595808D01*
X318119046Y-65595808D02*
X318023808Y-65643427D01*
X318452379Y-66214856D02*
X318357141Y-66262475D01*
X318357141Y-66262475D02*
X318119046Y-66262475D01*
X318119046Y-66262475D02*
X318023808Y-66214856D01*
X318023808Y-66214856D02*
X317976189Y-66119617D01*
X317976189Y-66119617D02*
X317976189Y-66024379D01*
X317976189Y-66024379D02*
X318023808Y-65929141D01*
X318023808Y-65929141D02*
X318119046Y-65881522D01*
X318119046Y-65881522D02*
X318357141Y-65881522D01*
X318357141Y-65881522D02*
X318452379Y-65833903D01*
X319309522Y-66214856D02*
X319214284Y-66262475D01*
X319214284Y-66262475D02*
X319023808Y-66262475D01*
X319023808Y-66262475D02*
X318928570Y-66214856D01*
X318928570Y-66214856D02*
X318880951Y-66119617D01*
X318880951Y-66119617D02*
X318880951Y-65738665D01*
X318880951Y-65738665D02*
X318928570Y-65643427D01*
X318928570Y-65643427D02*
X319023808Y-65595808D01*
X319023808Y-65595808D02*
X319214284Y-65595808D01*
X319214284Y-65595808D02*
X319309522Y-65643427D01*
X319309522Y-65643427D02*
X319357141Y-65738665D01*
X319357141Y-65738665D02*
X319357141Y-65833903D01*
X319357141Y-65833903D02*
X318880951Y-65929141D01*
X319785713Y-66262475D02*
X319785713Y-65262475D01*
X319785713Y-65643427D02*
X319880951Y-65595808D01*
X319880951Y-65595808D02*
X320071427Y-65595808D01*
X320071427Y-65595808D02*
X320166665Y-65643427D01*
X320166665Y-65643427D02*
X320214284Y-65691046D01*
X320214284Y-65691046D02*
X320261903Y-65786284D01*
X320261903Y-65786284D02*
X320261903Y-66071998D01*
X320261903Y-66071998D02*
X320214284Y-66167236D01*
X320214284Y-66167236D02*
X320166665Y-66214856D01*
X320166665Y-66214856D02*
X320071427Y-66262475D01*
X320071427Y-66262475D02*
X319880951Y-66262475D01*
X319880951Y-66262475D02*
X319785713Y-66214856D01*
X321071427Y-66214856D02*
X320976189Y-66262475D01*
X320976189Y-66262475D02*
X320785713Y-66262475D01*
X320785713Y-66262475D02*
X320690475Y-66214856D01*
X320690475Y-66214856D02*
X320642856Y-66119617D01*
X320642856Y-66119617D02*
X320642856Y-65738665D01*
X320642856Y-65738665D02*
X320690475Y-65643427D01*
X320690475Y-65643427D02*
X320785713Y-65595808D01*
X320785713Y-65595808D02*
X320976189Y-65595808D01*
X320976189Y-65595808D02*
X321071427Y-65643427D01*
X321071427Y-65643427D02*
X321119046Y-65738665D01*
X321119046Y-65738665D02*
X321119046Y-65833903D01*
X321119046Y-65833903D02*
X320642856Y-65929141D01*
X321547618Y-66262475D02*
X321547618Y-65595808D01*
X321547618Y-65786284D02*
X321595237Y-65691046D01*
X321595237Y-65691046D02*
X321642856Y-65643427D01*
X321642856Y-65643427D02*
X321738094Y-65595808D01*
X321738094Y-65595808D02*
X321833332Y-65595808D01*
X322166666Y-66262475D02*
X322166666Y-65262475D01*
X322166666Y-65643427D02*
X322261904Y-65595808D01*
X322261904Y-65595808D02*
X322452380Y-65595808D01*
X322452380Y-65595808D02*
X322547618Y-65643427D01*
X322547618Y-65643427D02*
X322595237Y-65691046D01*
X322595237Y-65691046D02*
X322642856Y-65786284D01*
X322642856Y-65786284D02*
X322642856Y-66071998D01*
X322642856Y-66071998D02*
X322595237Y-66167236D01*
X322595237Y-66167236D02*
X322547618Y-66214856D01*
X322547618Y-66214856D02*
X322452380Y-66262475D01*
X322452380Y-66262475D02*
X322261904Y-66262475D01*
X322261904Y-66262475D02*
X322166666Y-66214856D01*
X323499999Y-66262475D02*
X323499999Y-65738665D01*
X323499999Y-65738665D02*
X323452380Y-65643427D01*
X323452380Y-65643427D02*
X323357142Y-65595808D01*
X323357142Y-65595808D02*
X323166666Y-65595808D01*
X323166666Y-65595808D02*
X323071428Y-65643427D01*
X323499999Y-66214856D02*
X323404761Y-66262475D01*
X323404761Y-66262475D02*
X323166666Y-66262475D01*
X323166666Y-66262475D02*
X323071428Y-66214856D01*
X323071428Y-66214856D02*
X323023809Y-66119617D01*
X323023809Y-66119617D02*
X323023809Y-66024379D01*
X323023809Y-66024379D02*
X323071428Y-65929141D01*
X323071428Y-65929141D02*
X323166666Y-65881522D01*
X323166666Y-65881522D02*
X323404761Y-65881522D01*
X323404761Y-65881522D02*
X323499999Y-65833903D01*
X324404761Y-66214856D02*
X324309523Y-66262475D01*
X324309523Y-66262475D02*
X324119047Y-66262475D01*
X324119047Y-66262475D02*
X324023809Y-66214856D01*
X324023809Y-66214856D02*
X323976190Y-66167236D01*
X323976190Y-66167236D02*
X323928571Y-66071998D01*
X323928571Y-66071998D02*
X323928571Y-65786284D01*
X323928571Y-65786284D02*
X323976190Y-65691046D01*
X323976190Y-65691046D02*
X324023809Y-65643427D01*
X324023809Y-65643427D02*
X324119047Y-65595808D01*
X324119047Y-65595808D02*
X324309523Y-65595808D01*
X324309523Y-65595808D02*
X324404761Y-65643427D01*
X324833333Y-66262475D02*
X324833333Y-65262475D01*
X325261904Y-66262475D02*
X325261904Y-65738665D01*
X325261904Y-65738665D02*
X325214285Y-65643427D01*
X325214285Y-65643427D02*
X325119047Y-65595808D01*
X325119047Y-65595808D02*
X324976190Y-65595808D01*
X324976190Y-65595808D02*
X324880952Y-65643427D01*
X324880952Y-65643427D02*
X324833333Y-65691046D01*
X326690476Y-65262475D02*
X326785714Y-65262475D01*
X326785714Y-65262475D02*
X326880952Y-65310094D01*
X326880952Y-65310094D02*
X326928571Y-65357713D01*
X326928571Y-65357713D02*
X326976190Y-65452951D01*
X326976190Y-65452951D02*
X327023809Y-65643427D01*
X327023809Y-65643427D02*
X327023809Y-65881522D01*
X327023809Y-65881522D02*
X326976190Y-66071998D01*
X326976190Y-66071998D02*
X326928571Y-66167236D01*
X326928571Y-66167236D02*
X326880952Y-66214856D01*
X326880952Y-66214856D02*
X326785714Y-66262475D01*
X326785714Y-66262475D02*
X326690476Y-66262475D01*
X326690476Y-66262475D02*
X326595238Y-66214856D01*
X326595238Y-66214856D02*
X326547619Y-66167236D01*
X326547619Y-66167236D02*
X326500000Y-66071998D01*
X326500000Y-66071998D02*
X326452381Y-65881522D01*
X326452381Y-65881522D02*
X326452381Y-65643427D01*
X326452381Y-65643427D02*
X326500000Y-65452951D01*
X326500000Y-65452951D02*
X326547619Y-65357713D01*
X326547619Y-65357713D02*
X326595238Y-65310094D01*
X326595238Y-65310094D02*
X326690476Y-65262475D01*
X327880952Y-65262475D02*
X327690476Y-65262475D01*
X327690476Y-65262475D02*
X327595238Y-65310094D01*
X327595238Y-65310094D02*
X327547619Y-65357713D01*
X327547619Y-65357713D02*
X327452381Y-65500570D01*
X327452381Y-65500570D02*
X327404762Y-65691046D01*
X327404762Y-65691046D02*
X327404762Y-66071998D01*
X327404762Y-66071998D02*
X327452381Y-66167236D01*
X327452381Y-66167236D02*
X327500000Y-66214856D01*
X327500000Y-66214856D02*
X327595238Y-66262475D01*
X327595238Y-66262475D02*
X327785714Y-66262475D01*
X327785714Y-66262475D02*
X327880952Y-66214856D01*
X327880952Y-66214856D02*
X327928571Y-66167236D01*
X327928571Y-66167236D02*
X327976190Y-66071998D01*
X327976190Y-66071998D02*
X327976190Y-65833903D01*
X327976190Y-65833903D02*
X327928571Y-65738665D01*
X327928571Y-65738665D02*
X327880952Y-65691046D01*
X327880952Y-65691046D02*
X327785714Y-65643427D01*
X327785714Y-65643427D02*
X327595238Y-65643427D01*
X327595238Y-65643427D02*
X327500000Y-65691046D01*
X327500000Y-65691046D02*
X327452381Y-65738665D01*
X327452381Y-65738665D02*
X327404762Y-65833903D01*
X329119047Y-65214856D02*
X328261905Y-66500570D01*
X329404762Y-65357713D02*
X329452381Y-65310094D01*
X329452381Y-65310094D02*
X329547619Y-65262475D01*
X329547619Y-65262475D02*
X329785714Y-65262475D01*
X329785714Y-65262475D02*
X329880952Y-65310094D01*
X329880952Y-65310094D02*
X329928571Y-65357713D01*
X329928571Y-65357713D02*
X329976190Y-65452951D01*
X329976190Y-65452951D02*
X329976190Y-65548189D01*
X329976190Y-65548189D02*
X329928571Y-65691046D01*
X329928571Y-65691046D02*
X329357143Y-66262475D01*
X329357143Y-66262475D02*
X329976190Y-66262475D01*
X330833333Y-65595808D02*
X330833333Y-66262475D01*
X330595238Y-65214856D02*
X330357143Y-65929141D01*
X330357143Y-65929141D02*
X330976190Y-65929141D01*
X332547619Y-65595808D02*
X332547619Y-66405332D01*
X332547619Y-66405332D02*
X332500000Y-66500570D01*
X332500000Y-66500570D02*
X332452381Y-66548189D01*
X332452381Y-66548189D02*
X332357143Y-66595808D01*
X332357143Y-66595808D02*
X332214286Y-66595808D01*
X332214286Y-66595808D02*
X332119048Y-66548189D01*
X332547619Y-66214856D02*
X332452381Y-66262475D01*
X332452381Y-66262475D02*
X332261905Y-66262475D01*
X332261905Y-66262475D02*
X332166667Y-66214856D01*
X332166667Y-66214856D02*
X332119048Y-66167236D01*
X332119048Y-66167236D02*
X332071429Y-66071998D01*
X332071429Y-66071998D02*
X332071429Y-65786284D01*
X332071429Y-65786284D02*
X332119048Y-65691046D01*
X332119048Y-65691046D02*
X332166667Y-65643427D01*
X332166667Y-65643427D02*
X332261905Y-65595808D01*
X332261905Y-65595808D02*
X332452381Y-65595808D01*
X332452381Y-65595808D02*
X332547619Y-65643427D01*
X333023810Y-66262475D02*
X333023810Y-65595808D01*
X333023810Y-65786284D02*
X333071429Y-65691046D01*
X333071429Y-65691046D02*
X333119048Y-65643427D01*
X333119048Y-65643427D02*
X333214286Y-65595808D01*
X333214286Y-65595808D02*
X333309524Y-65595808D01*
X334071429Y-66262475D02*
X334071429Y-65738665D01*
X334071429Y-65738665D02*
X334023810Y-65643427D01*
X334023810Y-65643427D02*
X333928572Y-65595808D01*
X333928572Y-65595808D02*
X333738096Y-65595808D01*
X333738096Y-65595808D02*
X333642858Y-65643427D01*
X334071429Y-66214856D02*
X333976191Y-66262475D01*
X333976191Y-66262475D02*
X333738096Y-66262475D01*
X333738096Y-66262475D02*
X333642858Y-66214856D01*
X333642858Y-66214856D02*
X333595239Y-66119617D01*
X333595239Y-66119617D02*
X333595239Y-66024379D01*
X333595239Y-66024379D02*
X333642858Y-65929141D01*
X333642858Y-65929141D02*
X333738096Y-65881522D01*
X333738096Y-65881522D02*
X333976191Y-65881522D01*
X333976191Y-65881522D02*
X334071429Y-65833903D01*
X334452382Y-65595808D02*
X334690477Y-66262475D01*
X334928572Y-65595808D02*
X334690477Y-66262475D01*
X334690477Y-66262475D02*
X334595239Y-66500570D01*
X334595239Y-66500570D02*
X334547620Y-66548189D01*
X334547620Y-66548189D02*
X334452382Y-66595808D01*
X335738096Y-65595808D02*
X335738096Y-66262475D01*
X335309525Y-65595808D02*
X335309525Y-66119617D01*
X335309525Y-66119617D02*
X335357144Y-66214856D01*
X335357144Y-66214856D02*
X335452382Y-66262475D01*
X335452382Y-66262475D02*
X335595239Y-66262475D01*
X335595239Y-66262475D02*
X335690477Y-66214856D01*
X335690477Y-66214856D02*
X335738096Y-66167236D01*
X336214287Y-65595808D02*
X336214287Y-66262475D01*
X336214287Y-65691046D02*
X336261906Y-65643427D01*
X336261906Y-65643427D02*
X336357144Y-65595808D01*
X336357144Y-65595808D02*
X336500001Y-65595808D01*
X336500001Y-65595808D02*
X336595239Y-65643427D01*
X336595239Y-65643427D02*
X336642858Y-65738665D01*
X336642858Y-65738665D02*
X336642858Y-66262475D01*
X337119049Y-66262475D02*
X337119049Y-65595808D01*
X337119049Y-65262475D02*
X337071430Y-65310094D01*
X337071430Y-65310094D02*
X337119049Y-65357713D01*
X337119049Y-65357713D02*
X337166668Y-65310094D01*
X337166668Y-65310094D02*
X337119049Y-65262475D01*
X337119049Y-65262475D02*
X337119049Y-65357713D01*
X338023810Y-66214856D02*
X337928572Y-66262475D01*
X337928572Y-66262475D02*
X337738096Y-66262475D01*
X337738096Y-66262475D02*
X337642858Y-66214856D01*
X337642858Y-66214856D02*
X337595239Y-66167236D01*
X337595239Y-66167236D02*
X337547620Y-66071998D01*
X337547620Y-66071998D02*
X337547620Y-65786284D01*
X337547620Y-65786284D02*
X337595239Y-65691046D01*
X337595239Y-65691046D02*
X337642858Y-65643427D01*
X337642858Y-65643427D02*
X337738096Y-65595808D01*
X337738096Y-65595808D02*
X337928572Y-65595808D01*
X337928572Y-65595808D02*
X338023810Y-65643427D01*
X338595239Y-66262475D02*
X338500001Y-66214856D01*
X338500001Y-66214856D02*
X338452382Y-66167236D01*
X338452382Y-66167236D02*
X338404763Y-66071998D01*
X338404763Y-66071998D02*
X338404763Y-65786284D01*
X338404763Y-65786284D02*
X338452382Y-65691046D01*
X338452382Y-65691046D02*
X338500001Y-65643427D01*
X338500001Y-65643427D02*
X338595239Y-65595808D01*
X338595239Y-65595808D02*
X338738096Y-65595808D01*
X338738096Y-65595808D02*
X338833334Y-65643427D01*
X338833334Y-65643427D02*
X338880953Y-65691046D01*
X338880953Y-65691046D02*
X338928572Y-65786284D01*
X338928572Y-65786284D02*
X338928572Y-66071998D01*
X338928572Y-66071998D02*
X338880953Y-66167236D01*
X338880953Y-66167236D02*
X338833334Y-66214856D01*
X338833334Y-66214856D02*
X338738096Y-66262475D01*
X338738096Y-66262475D02*
X338595239Y-66262475D01*
X339357144Y-66262475D02*
X339357144Y-65595808D01*
X339357144Y-65786284D02*
X339404763Y-65691046D01*
X339404763Y-65691046D02*
X339452382Y-65643427D01*
X339452382Y-65643427D02*
X339547620Y-65595808D01*
X339547620Y-65595808D02*
X339642858Y-65595808D01*
X339976192Y-65595808D02*
X339976192Y-66262475D01*
X339976192Y-65691046D02*
X340023811Y-65643427D01*
X340023811Y-65643427D02*
X340119049Y-65595808D01*
X340119049Y-65595808D02*
X340261906Y-65595808D01*
X340261906Y-65595808D02*
X340357144Y-65643427D01*
X340357144Y-65643427D02*
X340404763Y-65738665D01*
X340404763Y-65738665D02*
X340404763Y-66262475D01*
X340880954Y-66167236D02*
X340928573Y-66214856D01*
X340928573Y-66214856D02*
X340880954Y-66262475D01*
X340880954Y-66262475D02*
X340833335Y-66214856D01*
X340833335Y-66214856D02*
X340880954Y-66167236D01*
X340880954Y-66167236D02*
X340880954Y-66262475D01*
X341785715Y-66214856D02*
X341690477Y-66262475D01*
X341690477Y-66262475D02*
X341500001Y-66262475D01*
X341500001Y-66262475D02*
X341404763Y-66214856D01*
X341404763Y-66214856D02*
X341357144Y-66167236D01*
X341357144Y-66167236D02*
X341309525Y-66071998D01*
X341309525Y-66071998D02*
X341309525Y-65786284D01*
X341309525Y-65786284D02*
X341357144Y-65691046D01*
X341357144Y-65691046D02*
X341404763Y-65643427D01*
X341404763Y-65643427D02*
X341500001Y-65595808D01*
X341500001Y-65595808D02*
X341690477Y-65595808D01*
X341690477Y-65595808D02*
X341785715Y-65643427D01*
X342357144Y-66262475D02*
X342261906Y-66214856D01*
X342261906Y-66214856D02*
X342214287Y-66167236D01*
X342214287Y-66167236D02*
X342166668Y-66071998D01*
X342166668Y-66071998D02*
X342166668Y-65786284D01*
X342166668Y-65786284D02*
X342214287Y-65691046D01*
X342214287Y-65691046D02*
X342261906Y-65643427D01*
X342261906Y-65643427D02*
X342357144Y-65595808D01*
X342357144Y-65595808D02*
X342500001Y-65595808D01*
X342500001Y-65595808D02*
X342595239Y-65643427D01*
X342595239Y-65643427D02*
X342642858Y-65691046D01*
X342642858Y-65691046D02*
X342690477Y-65786284D01*
X342690477Y-65786284D02*
X342690477Y-66071998D01*
X342690477Y-66071998D02*
X342642858Y-66167236D01*
X342642858Y-66167236D02*
X342595239Y-66214856D01*
X342595239Y-66214856D02*
X342500001Y-66262475D01*
X342500001Y-66262475D02*
X342357144Y-66262475D01*
X343119049Y-66262475D02*
X343119049Y-65595808D01*
X343119049Y-65691046D02*
X343166668Y-65643427D01*
X343166668Y-65643427D02*
X343261906Y-65595808D01*
X343261906Y-65595808D02*
X343404763Y-65595808D01*
X343404763Y-65595808D02*
X343500001Y-65643427D01*
X343500001Y-65643427D02*
X343547620Y-65738665D01*
X343547620Y-65738665D02*
X343547620Y-66262475D01*
X343547620Y-65738665D02*
X343595239Y-65643427D01*
X343595239Y-65643427D02*
X343690477Y-65595808D01*
X343690477Y-65595808D02*
X343833334Y-65595808D01*
X343833334Y-65595808D02*
X343928573Y-65643427D01*
X343928573Y-65643427D02*
X343976192Y-65738665D01*
X343976192Y-65738665D02*
X343976192Y-66262475D01*
X320619047Y-67872419D02*
X320142857Y-67872419D01*
X320142857Y-67872419D02*
X320142857Y-66872419D01*
X320952381Y-67872419D02*
X320952381Y-66872419D01*
X321999999Y-67777180D02*
X321952380Y-67824800D01*
X321952380Y-67824800D02*
X321809523Y-67872419D01*
X321809523Y-67872419D02*
X321714285Y-67872419D01*
X321714285Y-67872419D02*
X321571428Y-67824800D01*
X321571428Y-67824800D02*
X321476190Y-67729561D01*
X321476190Y-67729561D02*
X321428571Y-67634323D01*
X321428571Y-67634323D02*
X321380952Y-67443847D01*
X321380952Y-67443847D02*
X321380952Y-67300990D01*
X321380952Y-67300990D02*
X321428571Y-67110514D01*
X321428571Y-67110514D02*
X321476190Y-67015276D01*
X321476190Y-67015276D02*
X321571428Y-66920038D01*
X321571428Y-66920038D02*
X321714285Y-66872419D01*
X321714285Y-66872419D02*
X321809523Y-66872419D01*
X321809523Y-66872419D02*
X321952380Y-66920038D01*
X321952380Y-66920038D02*
X321999999Y-66967657D01*
X322428571Y-67348609D02*
X322761904Y-67348609D01*
X322904761Y-67872419D02*
X322428571Y-67872419D01*
X322428571Y-67872419D02*
X322428571Y-66872419D01*
X322428571Y-66872419D02*
X322904761Y-66872419D01*
X323333333Y-67872419D02*
X323333333Y-66872419D01*
X323333333Y-66872419D02*
X323904761Y-67872419D01*
X323904761Y-67872419D02*
X323904761Y-66872419D01*
X324333333Y-67824800D02*
X324476190Y-67872419D01*
X324476190Y-67872419D02*
X324714285Y-67872419D01*
X324714285Y-67872419D02*
X324809523Y-67824800D01*
X324809523Y-67824800D02*
X324857142Y-67777180D01*
X324857142Y-67777180D02*
X324904761Y-67681942D01*
X324904761Y-67681942D02*
X324904761Y-67586704D01*
X324904761Y-67586704D02*
X324857142Y-67491466D01*
X324857142Y-67491466D02*
X324809523Y-67443847D01*
X324809523Y-67443847D02*
X324714285Y-67396228D01*
X324714285Y-67396228D02*
X324523809Y-67348609D01*
X324523809Y-67348609D02*
X324428571Y-67300990D01*
X324428571Y-67300990D02*
X324380952Y-67253371D01*
X324380952Y-67253371D02*
X324333333Y-67158133D01*
X324333333Y-67158133D02*
X324333333Y-67062895D01*
X324333333Y-67062895D02*
X324380952Y-66967657D01*
X324380952Y-66967657D02*
X324428571Y-66920038D01*
X324428571Y-66920038D02*
X324523809Y-66872419D01*
X324523809Y-66872419D02*
X324761904Y-66872419D01*
X324761904Y-66872419D02*
X324904761Y-66920038D01*
X325333333Y-67348609D02*
X325666666Y-67348609D01*
X325809523Y-67872419D02*
X325333333Y-67872419D01*
X325333333Y-67872419D02*
X325333333Y-66872419D01*
X325333333Y-66872419D02*
X325809523Y-66872419D01*
X326238095Y-67777180D02*
X326285714Y-67824800D01*
X326285714Y-67824800D02*
X326238095Y-67872419D01*
X326238095Y-67872419D02*
X326190476Y-67824800D01*
X326190476Y-67824800D02*
X326238095Y-67777180D01*
X326238095Y-67777180D02*
X326238095Y-67872419D01*
X326238095Y-67253371D02*
X326285714Y-67300990D01*
X326285714Y-67300990D02*
X326238095Y-67348609D01*
X326238095Y-67348609D02*
X326190476Y-67300990D01*
X326190476Y-67300990D02*
X326238095Y-67253371D01*
X326238095Y-67253371D02*
X326238095Y-67348609D01*
X328047618Y-67777180D02*
X327999999Y-67824800D01*
X327999999Y-67824800D02*
X327857142Y-67872419D01*
X327857142Y-67872419D02*
X327761904Y-67872419D01*
X327761904Y-67872419D02*
X327619047Y-67824800D01*
X327619047Y-67824800D02*
X327523809Y-67729561D01*
X327523809Y-67729561D02*
X327476190Y-67634323D01*
X327476190Y-67634323D02*
X327428571Y-67443847D01*
X327428571Y-67443847D02*
X327428571Y-67300990D01*
X327428571Y-67300990D02*
X327476190Y-67110514D01*
X327476190Y-67110514D02*
X327523809Y-67015276D01*
X327523809Y-67015276D02*
X327619047Y-66920038D01*
X327619047Y-66920038D02*
X327761904Y-66872419D01*
X327761904Y-66872419D02*
X327857142Y-66872419D01*
X327857142Y-66872419D02*
X327999999Y-66920038D01*
X327999999Y-66920038D02*
X328047618Y-66967657D01*
X329047618Y-67777180D02*
X328999999Y-67824800D01*
X328999999Y-67824800D02*
X328857142Y-67872419D01*
X328857142Y-67872419D02*
X328761904Y-67872419D01*
X328761904Y-67872419D02*
X328619047Y-67824800D01*
X328619047Y-67824800D02*
X328523809Y-67729561D01*
X328523809Y-67729561D02*
X328476190Y-67634323D01*
X328476190Y-67634323D02*
X328428571Y-67443847D01*
X328428571Y-67443847D02*
X328428571Y-67300990D01*
X328428571Y-67300990D02*
X328476190Y-67110514D01*
X328476190Y-67110514D02*
X328523809Y-67015276D01*
X328523809Y-67015276D02*
X328619047Y-66920038D01*
X328619047Y-66920038D02*
X328761904Y-66872419D01*
X328761904Y-66872419D02*
X328857142Y-66872419D01*
X328857142Y-66872419D02*
X328999999Y-66920038D01*
X328999999Y-66920038D02*
X329047618Y-66967657D01*
X330571428Y-67348609D02*
X330714285Y-67396228D01*
X330714285Y-67396228D02*
X330761904Y-67443847D01*
X330761904Y-67443847D02*
X330809523Y-67539085D01*
X330809523Y-67539085D02*
X330809523Y-67681942D01*
X330809523Y-67681942D02*
X330761904Y-67777180D01*
X330761904Y-67777180D02*
X330714285Y-67824800D01*
X330714285Y-67824800D02*
X330619047Y-67872419D01*
X330619047Y-67872419D02*
X330238095Y-67872419D01*
X330238095Y-67872419D02*
X330238095Y-66872419D01*
X330238095Y-66872419D02*
X330571428Y-66872419D01*
X330571428Y-66872419D02*
X330666666Y-66920038D01*
X330666666Y-66920038D02*
X330714285Y-66967657D01*
X330714285Y-66967657D02*
X330761904Y-67062895D01*
X330761904Y-67062895D02*
X330761904Y-67158133D01*
X330761904Y-67158133D02*
X330714285Y-67253371D01*
X330714285Y-67253371D02*
X330666666Y-67300990D01*
X330666666Y-67300990D02*
X330571428Y-67348609D01*
X330571428Y-67348609D02*
X330238095Y-67348609D01*
X331428571Y-67396228D02*
X331428571Y-67872419D01*
X331095238Y-66872419D02*
X331428571Y-67396228D01*
X331428571Y-67396228D02*
X331761904Y-66872419D01*
X332095238Y-67491466D02*
X332857143Y-67491466D01*
X333333333Y-67872419D02*
X333333333Y-66872419D01*
X333333333Y-66872419D02*
X333904761Y-67872419D01*
X333904761Y-67872419D02*
X333904761Y-66872419D01*
X334952380Y-67777180D02*
X334904761Y-67824800D01*
X334904761Y-67824800D02*
X334761904Y-67872419D01*
X334761904Y-67872419D02*
X334666666Y-67872419D01*
X334666666Y-67872419D02*
X334523809Y-67824800D01*
X334523809Y-67824800D02*
X334428571Y-67729561D01*
X334428571Y-67729561D02*
X334380952Y-67634323D01*
X334380952Y-67634323D02*
X334333333Y-67443847D01*
X334333333Y-67443847D02*
X334333333Y-67300990D01*
X334333333Y-67300990D02*
X334380952Y-67110514D01*
X334380952Y-67110514D02*
X334428571Y-67015276D01*
X334428571Y-67015276D02*
X334523809Y-66920038D01*
X334523809Y-66920038D02*
X334666666Y-66872419D01*
X334666666Y-66872419D02*
X334761904Y-66872419D01*
X334761904Y-66872419D02*
X334904761Y-66920038D01*
X334904761Y-66920038D02*
X334952380Y-66967657D01*
X335380952Y-67491466D02*
X336142857Y-67491466D01*
X336571428Y-67824800D02*
X336714285Y-67872419D01*
X336714285Y-67872419D02*
X336952380Y-67872419D01*
X336952380Y-67872419D02*
X337047618Y-67824800D01*
X337047618Y-67824800D02*
X337095237Y-67777180D01*
X337095237Y-67777180D02*
X337142856Y-67681942D01*
X337142856Y-67681942D02*
X337142856Y-67586704D01*
X337142856Y-67586704D02*
X337095237Y-67491466D01*
X337095237Y-67491466D02*
X337047618Y-67443847D01*
X337047618Y-67443847D02*
X336952380Y-67396228D01*
X336952380Y-67396228D02*
X336761904Y-67348609D01*
X336761904Y-67348609D02*
X336666666Y-67300990D01*
X336666666Y-67300990D02*
X336619047Y-67253371D01*
X336619047Y-67253371D02*
X336571428Y-67158133D01*
X336571428Y-67158133D02*
X336571428Y-67062895D01*
X336571428Y-67062895D02*
X336619047Y-66967657D01*
X336619047Y-66967657D02*
X336666666Y-66920038D01*
X336666666Y-66920038D02*
X336761904Y-66872419D01*
X336761904Y-66872419D02*
X336999999Y-66872419D01*
X336999999Y-66872419D02*
X337142856Y-66920038D01*
X337523809Y-67586704D02*
X337999999Y-67586704D01*
X337428571Y-67872419D02*
X337761904Y-66872419D01*
X337761904Y-66872419D02*
X338095237Y-67872419D01*
X339619047Y-67205752D02*
X339619047Y-67872419D01*
X339380952Y-66824800D02*
X339142857Y-67539085D01*
X339142857Y-67539085D02*
X339761904Y-67539085D01*
X340142857Y-67777180D02*
X340190476Y-67824800D01*
X340190476Y-67824800D02*
X340142857Y-67872419D01*
X340142857Y-67872419D02*
X340095238Y-67824800D01*
X340095238Y-67824800D02*
X340142857Y-67777180D01*
X340142857Y-67777180D02*
X340142857Y-67872419D01*
X340809523Y-66872419D02*
X340904761Y-66872419D01*
X340904761Y-66872419D02*
X340999999Y-66920038D01*
X340999999Y-66920038D02*
X341047618Y-66967657D01*
X341047618Y-66967657D02*
X341095237Y-67062895D01*
X341095237Y-67062895D02*
X341142856Y-67253371D01*
X341142856Y-67253371D02*
X341142856Y-67491466D01*
X341142856Y-67491466D02*
X341095237Y-67681942D01*
X341095237Y-67681942D02*
X341047618Y-67777180D01*
X341047618Y-67777180D02*
X340999999Y-67824800D01*
X340999999Y-67824800D02*
X340904761Y-67872419D01*
X340904761Y-67872419D02*
X340809523Y-67872419D01*
X340809523Y-67872419D02*
X340714285Y-67824800D01*
X340714285Y-67824800D02*
X340666666Y-67777180D01*
X340666666Y-67777180D02*
X340619047Y-67681942D01*
X340619047Y-67681942D02*
X340571428Y-67491466D01*
X340571428Y-67491466D02*
X340571428Y-67253371D01*
X340571428Y-67253371D02*
X340619047Y-67062895D01*
X340619047Y-67062895D02*
X340666666Y-66967657D01*
X340666666Y-66967657D02*
X340714285Y-66920038D01*
X340714285Y-66920038D02*
X340809523Y-66872419D01*
X171875312Y-61777180D02*
X171827693Y-61824800D01*
X171827693Y-61824800D02*
X171684836Y-61872419D01*
X171684836Y-61872419D02*
X171589598Y-61872419D01*
X171589598Y-61872419D02*
X171446741Y-61824800D01*
X171446741Y-61824800D02*
X171351503Y-61729561D01*
X171351503Y-61729561D02*
X171303884Y-61634323D01*
X171303884Y-61634323D02*
X171256265Y-61443847D01*
X171256265Y-61443847D02*
X171256265Y-61300990D01*
X171256265Y-61300990D02*
X171303884Y-61110514D01*
X171303884Y-61110514D02*
X171351503Y-61015276D01*
X171351503Y-61015276D02*
X171446741Y-60920038D01*
X171446741Y-60920038D02*
X171589598Y-60872419D01*
X171589598Y-60872419D02*
X171684836Y-60872419D01*
X171684836Y-60872419D02*
X171827693Y-60920038D01*
X171827693Y-60920038D02*
X171875312Y-60967657D01*
X172494360Y-60872419D02*
X172684836Y-60872419D01*
X172684836Y-60872419D02*
X172780074Y-60920038D01*
X172780074Y-60920038D02*
X172875312Y-61015276D01*
X172875312Y-61015276D02*
X172922931Y-61205752D01*
X172922931Y-61205752D02*
X172922931Y-61539085D01*
X172922931Y-61539085D02*
X172875312Y-61729561D01*
X172875312Y-61729561D02*
X172780074Y-61824800D01*
X172780074Y-61824800D02*
X172684836Y-61872419D01*
X172684836Y-61872419D02*
X172494360Y-61872419D01*
X172494360Y-61872419D02*
X172399122Y-61824800D01*
X172399122Y-61824800D02*
X172303884Y-61729561D01*
X172303884Y-61729561D02*
X172256265Y-61539085D01*
X172256265Y-61539085D02*
X172256265Y-61205752D01*
X172256265Y-61205752D02*
X172303884Y-61015276D01*
X172303884Y-61015276D02*
X172399122Y-60920038D01*
X172399122Y-60920038D02*
X172494360Y-60872419D01*
X173351503Y-61872419D02*
X173351503Y-60872419D01*
X173351503Y-60872419D02*
X173922931Y-61872419D01*
X173922931Y-61872419D02*
X173922931Y-60872419D01*
X174399122Y-61872419D02*
X174399122Y-60872419D01*
X174399122Y-60872419D02*
X174970550Y-61872419D01*
X174970550Y-61872419D02*
X174970550Y-60872419D01*
X175446741Y-61348609D02*
X175780074Y-61348609D01*
X175922931Y-61872419D02*
X175446741Y-61872419D01*
X175446741Y-61872419D02*
X175446741Y-60872419D01*
X175446741Y-60872419D02*
X175922931Y-60872419D01*
X176922931Y-61777180D02*
X176875312Y-61824800D01*
X176875312Y-61824800D02*
X176732455Y-61872419D01*
X176732455Y-61872419D02*
X176637217Y-61872419D01*
X176637217Y-61872419D02*
X176494360Y-61824800D01*
X176494360Y-61824800D02*
X176399122Y-61729561D01*
X176399122Y-61729561D02*
X176351503Y-61634323D01*
X176351503Y-61634323D02*
X176303884Y-61443847D01*
X176303884Y-61443847D02*
X176303884Y-61300990D01*
X176303884Y-61300990D02*
X176351503Y-61110514D01*
X176351503Y-61110514D02*
X176399122Y-61015276D01*
X176399122Y-61015276D02*
X176494360Y-60920038D01*
X176494360Y-60920038D02*
X176637217Y-60872419D01*
X176637217Y-60872419D02*
X176732455Y-60872419D01*
X176732455Y-60872419D02*
X176875312Y-60920038D01*
X176875312Y-60920038D02*
X176922931Y-60967657D01*
X177208646Y-60872419D02*
X177780074Y-60872419D01*
X177494360Y-61872419D02*
X177494360Y-60872419D01*
X178303884Y-60872419D02*
X178494360Y-60872419D01*
X178494360Y-60872419D02*
X178589598Y-60920038D01*
X178589598Y-60920038D02*
X178684836Y-61015276D01*
X178684836Y-61015276D02*
X178732455Y-61205752D01*
X178732455Y-61205752D02*
X178732455Y-61539085D01*
X178732455Y-61539085D02*
X178684836Y-61729561D01*
X178684836Y-61729561D02*
X178589598Y-61824800D01*
X178589598Y-61824800D02*
X178494360Y-61872419D01*
X178494360Y-61872419D02*
X178303884Y-61872419D01*
X178303884Y-61872419D02*
X178208646Y-61824800D01*
X178208646Y-61824800D02*
X178113408Y-61729561D01*
X178113408Y-61729561D02*
X178065789Y-61539085D01*
X178065789Y-61539085D02*
X178065789Y-61205752D01*
X178065789Y-61205752D02*
X178113408Y-61015276D01*
X178113408Y-61015276D02*
X178208646Y-60920038D01*
X178208646Y-60920038D02*
X178303884Y-60872419D01*
X179732455Y-61872419D02*
X179399122Y-61396228D01*
X179161027Y-61872419D02*
X179161027Y-60872419D01*
X179161027Y-60872419D02*
X179541979Y-60872419D01*
X179541979Y-60872419D02*
X179637217Y-60920038D01*
X179637217Y-60920038D02*
X179684836Y-60967657D01*
X179684836Y-60967657D02*
X179732455Y-61062895D01*
X179732455Y-61062895D02*
X179732455Y-61205752D01*
X179732455Y-61205752D02*
X179684836Y-61300990D01*
X179684836Y-61300990D02*
X179637217Y-61348609D01*
X179637217Y-61348609D02*
X179541979Y-61396228D01*
X179541979Y-61396228D02*
X179161027Y-61396228D01*
X181113408Y-60872419D02*
X181303884Y-60872419D01*
X181303884Y-60872419D02*
X181399122Y-60920038D01*
X181399122Y-60920038D02*
X181494360Y-61015276D01*
X181494360Y-61015276D02*
X181541979Y-61205752D01*
X181541979Y-61205752D02*
X181541979Y-61539085D01*
X181541979Y-61539085D02*
X181494360Y-61729561D01*
X181494360Y-61729561D02*
X181399122Y-61824800D01*
X181399122Y-61824800D02*
X181303884Y-61872419D01*
X181303884Y-61872419D02*
X181113408Y-61872419D01*
X181113408Y-61872419D02*
X181018170Y-61824800D01*
X181018170Y-61824800D02*
X180922932Y-61729561D01*
X180922932Y-61729561D02*
X180875313Y-61539085D01*
X180875313Y-61539085D02*
X180875313Y-61205752D01*
X180875313Y-61205752D02*
X180922932Y-61015276D01*
X180922932Y-61015276D02*
X181018170Y-60920038D01*
X181018170Y-60920038D02*
X181113408Y-60872419D01*
X181970551Y-61872419D02*
X181970551Y-60872419D01*
X181970551Y-60872419D02*
X182541979Y-61872419D01*
X182541979Y-61872419D02*
X182541979Y-60872419D01*
X183970551Y-60872419D02*
X184161027Y-60872419D01*
X184161027Y-60872419D02*
X184256265Y-60920038D01*
X184256265Y-60920038D02*
X184351503Y-61015276D01*
X184351503Y-61015276D02*
X184399122Y-61205752D01*
X184399122Y-61205752D02*
X184399122Y-61539085D01*
X184399122Y-61539085D02*
X184351503Y-61729561D01*
X184351503Y-61729561D02*
X184256265Y-61824800D01*
X184256265Y-61824800D02*
X184161027Y-61872419D01*
X184161027Y-61872419D02*
X183970551Y-61872419D01*
X183970551Y-61872419D02*
X183875313Y-61824800D01*
X183875313Y-61824800D02*
X183780075Y-61729561D01*
X183780075Y-61729561D02*
X183732456Y-61539085D01*
X183732456Y-61539085D02*
X183732456Y-61205752D01*
X183732456Y-61205752D02*
X183780075Y-61015276D01*
X183780075Y-61015276D02*
X183875313Y-60920038D01*
X183875313Y-60920038D02*
X183970551Y-60872419D01*
X184684837Y-60872419D02*
X185256265Y-60872419D01*
X184970551Y-61872419D02*
X184970551Y-60872419D01*
X185589599Y-61872419D02*
X185589599Y-60872419D01*
X185589599Y-61348609D02*
X186161027Y-61348609D01*
X186161027Y-61872419D02*
X186161027Y-60872419D01*
X186637218Y-61348609D02*
X186970551Y-61348609D01*
X187113408Y-61872419D02*
X186637218Y-61872419D01*
X186637218Y-61872419D02*
X186637218Y-60872419D01*
X186637218Y-60872419D02*
X187113408Y-60872419D01*
X188113408Y-61872419D02*
X187780075Y-61396228D01*
X187541980Y-61872419D02*
X187541980Y-60872419D01*
X187541980Y-60872419D02*
X187922932Y-60872419D01*
X187922932Y-60872419D02*
X188018170Y-60920038D01*
X188018170Y-60920038D02*
X188065789Y-60967657D01*
X188065789Y-60967657D02*
X188113408Y-61062895D01*
X188113408Y-61062895D02*
X188113408Y-61205752D01*
X188113408Y-61205752D02*
X188065789Y-61300990D01*
X188065789Y-61300990D02*
X188018170Y-61348609D01*
X188018170Y-61348609D02*
X187922932Y-61396228D01*
X187922932Y-61396228D02*
X187541980Y-61396228D01*
X189256266Y-61824800D02*
X189399123Y-61872419D01*
X189399123Y-61872419D02*
X189637218Y-61872419D01*
X189637218Y-61872419D02*
X189732456Y-61824800D01*
X189732456Y-61824800D02*
X189780075Y-61777180D01*
X189780075Y-61777180D02*
X189827694Y-61681942D01*
X189827694Y-61681942D02*
X189827694Y-61586704D01*
X189827694Y-61586704D02*
X189780075Y-61491466D01*
X189780075Y-61491466D02*
X189732456Y-61443847D01*
X189732456Y-61443847D02*
X189637218Y-61396228D01*
X189637218Y-61396228D02*
X189446742Y-61348609D01*
X189446742Y-61348609D02*
X189351504Y-61300990D01*
X189351504Y-61300990D02*
X189303885Y-61253371D01*
X189303885Y-61253371D02*
X189256266Y-61158133D01*
X189256266Y-61158133D02*
X189256266Y-61062895D01*
X189256266Y-61062895D02*
X189303885Y-60967657D01*
X189303885Y-60967657D02*
X189351504Y-60920038D01*
X189351504Y-60920038D02*
X189446742Y-60872419D01*
X189446742Y-60872419D02*
X189684837Y-60872419D01*
X189684837Y-60872419D02*
X189827694Y-60920038D01*
X190256266Y-61872419D02*
X190256266Y-60872419D01*
X190732456Y-61872419D02*
X190732456Y-60872419D01*
X190732456Y-60872419D02*
X190970551Y-60872419D01*
X190970551Y-60872419D02*
X191113408Y-60920038D01*
X191113408Y-60920038D02*
X191208646Y-61015276D01*
X191208646Y-61015276D02*
X191256265Y-61110514D01*
X191256265Y-61110514D02*
X191303884Y-61300990D01*
X191303884Y-61300990D02*
X191303884Y-61443847D01*
X191303884Y-61443847D02*
X191256265Y-61634323D01*
X191256265Y-61634323D02*
X191208646Y-61729561D01*
X191208646Y-61729561D02*
X191113408Y-61824800D01*
X191113408Y-61824800D02*
X190970551Y-61872419D01*
X190970551Y-61872419D02*
X190732456Y-61872419D01*
X191732456Y-61348609D02*
X192065789Y-61348609D01*
X192208646Y-61872419D02*
X191732456Y-61872419D01*
X191732456Y-61872419D02*
X191732456Y-60872419D01*
X191732456Y-60872419D02*
X192208646Y-60872419D01*
X192637218Y-61777180D02*
X192684837Y-61824800D01*
X192684837Y-61824800D02*
X192637218Y-61872419D01*
X192637218Y-61872419D02*
X192589599Y-61824800D01*
X192589599Y-61824800D02*
X192637218Y-61777180D01*
X192637218Y-61777180D02*
X192637218Y-61872419D01*
X192637218Y-61491466D02*
X192589599Y-60920038D01*
X192589599Y-60920038D02*
X192637218Y-60872419D01*
X192637218Y-60872419D02*
X192684837Y-60920038D01*
X192684837Y-60920038D02*
X192637218Y-61491466D01*
X192637218Y-61491466D02*
X192637218Y-60872419D01*
D11*
X347496358Y-91258938D02*
X347020167Y-91592271D01*
X347496358Y-91830366D02*
X346496358Y-91830366D01*
X346496358Y-91830366D02*
X346496358Y-91449414D01*
X346496358Y-91449414D02*
X346543977Y-91354176D01*
X346543977Y-91354176D02*
X346591596Y-91306557D01*
X346591596Y-91306557D02*
X346686834Y-91258938D01*
X346686834Y-91258938D02*
X346829691Y-91258938D01*
X346829691Y-91258938D02*
X346924929Y-91306557D01*
X346924929Y-91306557D02*
X346972548Y-91354176D01*
X346972548Y-91354176D02*
X347020167Y-91449414D01*
X347020167Y-91449414D02*
X347020167Y-91830366D01*
X346496358Y-90354176D02*
X346496358Y-90830366D01*
X346496358Y-90830366D02*
X346972548Y-90877985D01*
X346972548Y-90877985D02*
X346924929Y-90830366D01*
X346924929Y-90830366D02*
X346877310Y-90735128D01*
X346877310Y-90735128D02*
X346877310Y-90497033D01*
X346877310Y-90497033D02*
X346924929Y-90401795D01*
X346924929Y-90401795D02*
X346972548Y-90354176D01*
X346972548Y-90354176D02*
X347067786Y-90306557D01*
X347067786Y-90306557D02*
X347305881Y-90306557D01*
X347305881Y-90306557D02*
X347401119Y-90354176D01*
X347401119Y-90354176D02*
X347448739Y-90401795D01*
X347448739Y-90401795D02*
X347496358Y-90497033D01*
X347496358Y-90497033D02*
X347496358Y-90735128D01*
X347496358Y-90735128D02*
X347448739Y-90830366D01*
X347448739Y-90830366D02*
X347401119Y-90877985D01*
X347577468Y-138356272D02*
X347577468Y-137356272D01*
X347577468Y-137356272D02*
X347815563Y-137356272D01*
X347815563Y-137356272D02*
X347958420Y-137403891D01*
X347958420Y-137403891D02*
X348053658Y-137499129D01*
X348053658Y-137499129D02*
X348101277Y-137594367D01*
X348101277Y-137594367D02*
X348148896Y-137784843D01*
X348148896Y-137784843D02*
X348148896Y-137927700D01*
X348148896Y-137927700D02*
X348101277Y-138118176D01*
X348101277Y-138118176D02*
X348053658Y-138213414D01*
X348053658Y-138213414D02*
X347958420Y-138308653D01*
X347958420Y-138308653D02*
X347815563Y-138356272D01*
X347815563Y-138356272D02*
X347577468Y-138356272D01*
X349053658Y-137356272D02*
X348577468Y-137356272D01*
X348577468Y-137356272D02*
X348529849Y-137832462D01*
X348529849Y-137832462D02*
X348577468Y-137784843D01*
X348577468Y-137784843D02*
X348672706Y-137737224D01*
X348672706Y-137737224D02*
X348910801Y-137737224D01*
X348910801Y-137737224D02*
X349006039Y-137784843D01*
X349006039Y-137784843D02*
X349053658Y-137832462D01*
X349053658Y-137832462D02*
X349101277Y-137927700D01*
X349101277Y-137927700D02*
X349101277Y-138165795D01*
X349101277Y-138165795D02*
X349053658Y-138261033D01*
X349053658Y-138261033D02*
X349006039Y-138308653D01*
X349006039Y-138308653D02*
X348910801Y-138356272D01*
X348910801Y-138356272D02*
X348672706Y-138356272D01*
X348672706Y-138356272D02*
X348577468Y-138308653D01*
X348577468Y-138308653D02*
X348529849Y-138261033D01*
X338273392Y-128293752D02*
X338273392Y-129008037D01*
X338273392Y-129008037D02*
X338225773Y-129150894D01*
X338225773Y-129150894D02*
X338130535Y-129246133D01*
X338130535Y-129246133D02*
X337987678Y-129293752D01*
X337987678Y-129293752D02*
X337892440Y-129293752D01*
X338701964Y-128388990D02*
X338749583Y-128341371D01*
X338749583Y-128341371D02*
X338844821Y-128293752D01*
X338844821Y-128293752D02*
X339082916Y-128293752D01*
X339082916Y-128293752D02*
X339178154Y-128341371D01*
X339178154Y-128341371D02*
X339225773Y-128388990D01*
X339225773Y-128388990D02*
X339273392Y-128484228D01*
X339273392Y-128484228D02*
X339273392Y-128579466D01*
X339273392Y-128579466D02*
X339225773Y-128722323D01*
X339225773Y-128722323D02*
X338654345Y-129293752D01*
X338654345Y-129293752D02*
X339273392Y-129293752D01*
D10*
X184738095Y-147857419D02*
X184738095Y-146857419D01*
X184738095Y-146857419D02*
X185071428Y-147571704D01*
X185071428Y-147571704D02*
X185404761Y-146857419D01*
X185404761Y-146857419D02*
X185404761Y-147857419D01*
X185785714Y-146857419D02*
X186452380Y-147857419D01*
X186452380Y-146857419D02*
X185785714Y-147857419D01*
X187261904Y-146857419D02*
X187071428Y-146857419D01*
X187071428Y-146857419D02*
X186976190Y-146905038D01*
X186976190Y-146905038D02*
X186928571Y-146952657D01*
X186928571Y-146952657D02*
X186833333Y-147095514D01*
X186833333Y-147095514D02*
X186785714Y-147285990D01*
X186785714Y-147285990D02*
X186785714Y-147666942D01*
X186785714Y-147666942D02*
X186833333Y-147762180D01*
X186833333Y-147762180D02*
X186880952Y-147809800D01*
X186880952Y-147809800D02*
X186976190Y-147857419D01*
X186976190Y-147857419D02*
X187166666Y-147857419D01*
X187166666Y-147857419D02*
X187261904Y-147809800D01*
X187261904Y-147809800D02*
X187309523Y-147762180D01*
X187309523Y-147762180D02*
X187357142Y-147666942D01*
X187357142Y-147666942D02*
X187357142Y-147428847D01*
X187357142Y-147428847D02*
X187309523Y-147333609D01*
X187309523Y-147333609D02*
X187261904Y-147285990D01*
X187261904Y-147285990D02*
X187166666Y-147238371D01*
X187166666Y-147238371D02*
X186976190Y-147238371D01*
X186976190Y-147238371D02*
X186880952Y-147285990D01*
X186880952Y-147285990D02*
X186833333Y-147333609D01*
X186833333Y-147333609D02*
X186785714Y-147428847D01*
X187928571Y-147285990D02*
X187833333Y-147238371D01*
X187833333Y-147238371D02*
X187785714Y-147190752D01*
X187785714Y-147190752D02*
X187738095Y-147095514D01*
X187738095Y-147095514D02*
X187738095Y-147047895D01*
X187738095Y-147047895D02*
X187785714Y-146952657D01*
X187785714Y-146952657D02*
X187833333Y-146905038D01*
X187833333Y-146905038D02*
X187928571Y-146857419D01*
X187928571Y-146857419D02*
X188119047Y-146857419D01*
X188119047Y-146857419D02*
X188214285Y-146905038D01*
X188214285Y-146905038D02*
X188261904Y-146952657D01*
X188261904Y-146952657D02*
X188309523Y-147047895D01*
X188309523Y-147047895D02*
X188309523Y-147095514D01*
X188309523Y-147095514D02*
X188261904Y-147190752D01*
X188261904Y-147190752D02*
X188214285Y-147238371D01*
X188214285Y-147238371D02*
X188119047Y-147285990D01*
X188119047Y-147285990D02*
X187928571Y-147285990D01*
X187928571Y-147285990D02*
X187833333Y-147333609D01*
X187833333Y-147333609D02*
X187785714Y-147381228D01*
X187785714Y-147381228D02*
X187738095Y-147476466D01*
X187738095Y-147476466D02*
X187738095Y-147666942D01*
X187738095Y-147666942D02*
X187785714Y-147762180D01*
X187785714Y-147762180D02*
X187833333Y-147809800D01*
X187833333Y-147809800D02*
X187928571Y-147857419D01*
X187928571Y-147857419D02*
X188119047Y-147857419D01*
X188119047Y-147857419D02*
X188214285Y-147809800D01*
X188214285Y-147809800D02*
X188261904Y-147762180D01*
X188261904Y-147762180D02*
X188309523Y-147666942D01*
X188309523Y-147666942D02*
X188309523Y-147476466D01*
X188309523Y-147476466D02*
X188261904Y-147381228D01*
X188261904Y-147381228D02*
X188214285Y-147333609D01*
X188214285Y-147333609D02*
X188119047Y-147285990D01*
X237372419Y-155691353D02*
X237372419Y-155024687D01*
X237372419Y-155024687D02*
X238372419Y-155453258D01*
X237372419Y-154643734D02*
X238181942Y-154643734D01*
X238181942Y-154643734D02*
X238277180Y-154596115D01*
X238277180Y-154596115D02*
X238324800Y-154548496D01*
X238324800Y-154548496D02*
X238372419Y-154453258D01*
X238372419Y-154453258D02*
X238372419Y-154262782D01*
X238372419Y-154262782D02*
X238324800Y-154167544D01*
X238324800Y-154167544D02*
X238277180Y-154119925D01*
X238277180Y-154119925D02*
X238181942Y-154072306D01*
X238181942Y-154072306D02*
X237372419Y-154072306D01*
X130372419Y-156667544D02*
X130372419Y-156858020D01*
X130372419Y-156858020D02*
X130420038Y-156953258D01*
X130420038Y-156953258D02*
X130467657Y-157000877D01*
X130467657Y-157000877D02*
X130610514Y-157096115D01*
X130610514Y-157096115D02*
X130800990Y-157143734D01*
X130800990Y-157143734D02*
X131181942Y-157143734D01*
X131181942Y-157143734D02*
X131277180Y-157096115D01*
X131277180Y-157096115D02*
X131324800Y-157048496D01*
X131324800Y-157048496D02*
X131372419Y-156953258D01*
X131372419Y-156953258D02*
X131372419Y-156762782D01*
X131372419Y-156762782D02*
X131324800Y-156667544D01*
X131324800Y-156667544D02*
X131277180Y-156619925D01*
X131277180Y-156619925D02*
X131181942Y-156572306D01*
X131181942Y-156572306D02*
X130943847Y-156572306D01*
X130943847Y-156572306D02*
X130848609Y-156619925D01*
X130848609Y-156619925D02*
X130800990Y-156667544D01*
X130800990Y-156667544D02*
X130753371Y-156762782D01*
X130753371Y-156762782D02*
X130753371Y-156953258D01*
X130753371Y-156953258D02*
X130800990Y-157048496D01*
X130800990Y-157048496D02*
X130848609Y-157096115D01*
X130848609Y-157096115D02*
X130943847Y-157143734D01*
X131277180Y-156143734D02*
X131324800Y-156096115D01*
X131324800Y-156096115D02*
X131372419Y-156143734D01*
X131372419Y-156143734D02*
X131324800Y-156191353D01*
X131324800Y-156191353D02*
X131277180Y-156143734D01*
X131277180Y-156143734D02*
X131372419Y-156143734D01*
X130467657Y-155715163D02*
X130420038Y-155667544D01*
X130420038Y-155667544D02*
X130372419Y-155572306D01*
X130372419Y-155572306D02*
X130372419Y-155334211D01*
X130372419Y-155334211D02*
X130420038Y-155238973D01*
X130420038Y-155238973D02*
X130467657Y-155191354D01*
X130467657Y-155191354D02*
X130562895Y-155143735D01*
X130562895Y-155143735D02*
X130658133Y-155143735D01*
X130658133Y-155143735D02*
X130800990Y-155191354D01*
X130800990Y-155191354D02*
X131372419Y-155762782D01*
X131372419Y-155762782D02*
X131372419Y-155143735D01*
X130372419Y-154238973D02*
X130372419Y-154715163D01*
X130372419Y-154715163D02*
X130848609Y-154762782D01*
X130848609Y-154762782D02*
X130800990Y-154715163D01*
X130800990Y-154715163D02*
X130753371Y-154619925D01*
X130753371Y-154619925D02*
X130753371Y-154381830D01*
X130753371Y-154381830D02*
X130800990Y-154286592D01*
X130800990Y-154286592D02*
X130848609Y-154238973D01*
X130848609Y-154238973D02*
X130943847Y-154191354D01*
X130943847Y-154191354D02*
X131181942Y-154191354D01*
X131181942Y-154191354D02*
X131277180Y-154238973D01*
X131277180Y-154238973D02*
X131324800Y-154286592D01*
X131324800Y-154286592D02*
X131372419Y-154381830D01*
X131372419Y-154381830D02*
X131372419Y-154619925D01*
X131372419Y-154619925D02*
X131324800Y-154715163D01*
X131324800Y-154715163D02*
X131277180Y-154762782D01*
X130372419Y-153762782D02*
X131181942Y-153762782D01*
X131181942Y-153762782D02*
X131277180Y-153715163D01*
X131277180Y-153715163D02*
X131324800Y-153667544D01*
X131324800Y-153667544D02*
X131372419Y-153572306D01*
X131372419Y-153572306D02*
X131372419Y-153381830D01*
X131372419Y-153381830D02*
X131324800Y-153286592D01*
X131324800Y-153286592D02*
X131277180Y-153238973D01*
X131277180Y-153238973D02*
X131181942Y-153191354D01*
X131181942Y-153191354D02*
X130372419Y-153191354D01*
X115372419Y-155691353D02*
X115372419Y-155024687D01*
X115372419Y-155024687D02*
X116372419Y-155453258D01*
X115372419Y-154643734D02*
X116181942Y-154643734D01*
X116181942Y-154643734D02*
X116277180Y-154596115D01*
X116277180Y-154596115D02*
X116324800Y-154548496D01*
X116324800Y-154548496D02*
X116372419Y-154453258D01*
X116372419Y-154453258D02*
X116372419Y-154262782D01*
X116372419Y-154262782D02*
X116324800Y-154167544D01*
X116324800Y-154167544D02*
X116277180Y-154119925D01*
X116277180Y-154119925D02*
X116181942Y-154072306D01*
X116181942Y-154072306D02*
X115372419Y-154072306D01*
X106300990Y-156453258D02*
X106253371Y-156548496D01*
X106253371Y-156548496D02*
X106205752Y-156596115D01*
X106205752Y-156596115D02*
X106110514Y-156643734D01*
X106110514Y-156643734D02*
X106062895Y-156643734D01*
X106062895Y-156643734D02*
X105967657Y-156596115D01*
X105967657Y-156596115D02*
X105920038Y-156548496D01*
X105920038Y-156548496D02*
X105872419Y-156453258D01*
X105872419Y-156453258D02*
X105872419Y-156262782D01*
X105872419Y-156262782D02*
X105920038Y-156167544D01*
X105920038Y-156167544D02*
X105967657Y-156119925D01*
X105967657Y-156119925D02*
X106062895Y-156072306D01*
X106062895Y-156072306D02*
X106110514Y-156072306D01*
X106110514Y-156072306D02*
X106205752Y-156119925D01*
X106205752Y-156119925D02*
X106253371Y-156167544D01*
X106253371Y-156167544D02*
X106300990Y-156262782D01*
X106300990Y-156262782D02*
X106300990Y-156453258D01*
X106300990Y-156453258D02*
X106348609Y-156548496D01*
X106348609Y-156548496D02*
X106396228Y-156596115D01*
X106396228Y-156596115D02*
X106491466Y-156643734D01*
X106491466Y-156643734D02*
X106681942Y-156643734D01*
X106681942Y-156643734D02*
X106777180Y-156596115D01*
X106777180Y-156596115D02*
X106824800Y-156548496D01*
X106824800Y-156548496D02*
X106872419Y-156453258D01*
X106872419Y-156453258D02*
X106872419Y-156262782D01*
X106872419Y-156262782D02*
X106824800Y-156167544D01*
X106824800Y-156167544D02*
X106777180Y-156119925D01*
X106777180Y-156119925D02*
X106681942Y-156072306D01*
X106681942Y-156072306D02*
X106491466Y-156072306D01*
X106491466Y-156072306D02*
X106396228Y-156119925D01*
X106396228Y-156119925D02*
X106348609Y-156167544D01*
X106348609Y-156167544D02*
X106300990Y-156262782D01*
X105824800Y-154929449D02*
X107110514Y-155786591D01*
X106872419Y-154548496D02*
X106872419Y-154358020D01*
X106872419Y-154358020D02*
X106824800Y-154262782D01*
X106824800Y-154262782D02*
X106777180Y-154215163D01*
X106777180Y-154215163D02*
X106634323Y-154119925D01*
X106634323Y-154119925D02*
X106443847Y-154072306D01*
X106443847Y-154072306D02*
X106062895Y-154072306D01*
X106062895Y-154072306D02*
X105967657Y-154119925D01*
X105967657Y-154119925D02*
X105920038Y-154167544D01*
X105920038Y-154167544D02*
X105872419Y-154262782D01*
X105872419Y-154262782D02*
X105872419Y-154453258D01*
X105872419Y-154453258D02*
X105920038Y-154548496D01*
X105920038Y-154548496D02*
X105967657Y-154596115D01*
X105967657Y-154596115D02*
X106062895Y-154643734D01*
X106062895Y-154643734D02*
X106300990Y-154643734D01*
X106300990Y-154643734D02*
X106396228Y-154596115D01*
X106396228Y-154596115D02*
X106443847Y-154548496D01*
X106443847Y-154548496D02*
X106491466Y-154453258D01*
X106491466Y-154453258D02*
X106491466Y-154262782D01*
X106491466Y-154262782D02*
X106443847Y-154167544D01*
X106443847Y-154167544D02*
X106396228Y-154119925D01*
X106396228Y-154119925D02*
X106300990Y-154072306D01*
X105872419Y-153643734D02*
X106681942Y-153643734D01*
X106681942Y-153643734D02*
X106777180Y-153596115D01*
X106777180Y-153596115D02*
X106824800Y-153548496D01*
X106824800Y-153548496D02*
X106872419Y-153453258D01*
X106872419Y-153453258D02*
X106872419Y-153262782D01*
X106872419Y-153262782D02*
X106824800Y-153167544D01*
X106824800Y-153167544D02*
X106777180Y-153119925D01*
X106777180Y-153119925D02*
X106681942Y-153072306D01*
X106681942Y-153072306D02*
X105872419Y-153072306D01*
X222372419Y-156167544D02*
X222372419Y-156358020D01*
X222372419Y-156358020D02*
X222420038Y-156453258D01*
X222420038Y-156453258D02*
X222467657Y-156500877D01*
X222467657Y-156500877D02*
X222610514Y-156596115D01*
X222610514Y-156596115D02*
X222800990Y-156643734D01*
X222800990Y-156643734D02*
X223181942Y-156643734D01*
X223181942Y-156643734D02*
X223277180Y-156596115D01*
X223277180Y-156596115D02*
X223324800Y-156548496D01*
X223324800Y-156548496D02*
X223372419Y-156453258D01*
X223372419Y-156453258D02*
X223372419Y-156262782D01*
X223372419Y-156262782D02*
X223324800Y-156167544D01*
X223324800Y-156167544D02*
X223277180Y-156119925D01*
X223277180Y-156119925D02*
X223181942Y-156072306D01*
X223181942Y-156072306D02*
X222943847Y-156072306D01*
X222943847Y-156072306D02*
X222848609Y-156119925D01*
X222848609Y-156119925D02*
X222800990Y-156167544D01*
X222800990Y-156167544D02*
X222753371Y-156262782D01*
X222753371Y-156262782D02*
X222753371Y-156453258D01*
X222753371Y-156453258D02*
X222800990Y-156548496D01*
X222800990Y-156548496D02*
X222848609Y-156596115D01*
X222848609Y-156596115D02*
X222943847Y-156643734D01*
X223277180Y-155643734D02*
X223324800Y-155596115D01*
X223324800Y-155596115D02*
X223372419Y-155643734D01*
X223372419Y-155643734D02*
X223324800Y-155691353D01*
X223324800Y-155691353D02*
X223277180Y-155643734D01*
X223277180Y-155643734D02*
X223372419Y-155643734D01*
X222467657Y-155215163D02*
X222420038Y-155167544D01*
X222420038Y-155167544D02*
X222372419Y-155072306D01*
X222372419Y-155072306D02*
X222372419Y-154834211D01*
X222372419Y-154834211D02*
X222420038Y-154738973D01*
X222420038Y-154738973D02*
X222467657Y-154691354D01*
X222467657Y-154691354D02*
X222562895Y-154643735D01*
X222562895Y-154643735D02*
X222658133Y-154643735D01*
X222658133Y-154643735D02*
X222800990Y-154691354D01*
X222800990Y-154691354D02*
X223372419Y-155262782D01*
X223372419Y-155262782D02*
X223372419Y-154643735D01*
X222372419Y-153738973D02*
X222372419Y-154215163D01*
X222372419Y-154215163D02*
X222848609Y-154262782D01*
X222848609Y-154262782D02*
X222800990Y-154215163D01*
X222800990Y-154215163D02*
X222753371Y-154119925D01*
X222753371Y-154119925D02*
X222753371Y-153881830D01*
X222753371Y-153881830D02*
X222800990Y-153786592D01*
X222800990Y-153786592D02*
X222848609Y-153738973D01*
X222848609Y-153738973D02*
X222943847Y-153691354D01*
X222943847Y-153691354D02*
X223181942Y-153691354D01*
X223181942Y-153691354D02*
X223277180Y-153738973D01*
X223277180Y-153738973D02*
X223324800Y-153786592D01*
X223324800Y-153786592D02*
X223372419Y-153881830D01*
X223372419Y-153881830D02*
X223372419Y-154119925D01*
X223372419Y-154119925D02*
X223324800Y-154215163D01*
X223324800Y-154215163D02*
X223277180Y-154262782D01*
X222372419Y-153262782D02*
X223181942Y-153262782D01*
X223181942Y-153262782D02*
X223277180Y-153215163D01*
X223277180Y-153215163D02*
X223324800Y-153167544D01*
X223324800Y-153167544D02*
X223372419Y-153072306D01*
X223372419Y-153072306D02*
X223372419Y-152881830D01*
X223372419Y-152881830D02*
X223324800Y-152786592D01*
X223324800Y-152786592D02*
X223277180Y-152738973D01*
X223277180Y-152738973D02*
X223181942Y-152691354D01*
X223181942Y-152691354D02*
X222372419Y-152691354D01*
X247300990Y-155953258D02*
X247253371Y-156048496D01*
X247253371Y-156048496D02*
X247205752Y-156096115D01*
X247205752Y-156096115D02*
X247110514Y-156143734D01*
X247110514Y-156143734D02*
X247062895Y-156143734D01*
X247062895Y-156143734D02*
X246967657Y-156096115D01*
X246967657Y-156096115D02*
X246920038Y-156048496D01*
X246920038Y-156048496D02*
X246872419Y-155953258D01*
X246872419Y-155953258D02*
X246872419Y-155762782D01*
X246872419Y-155762782D02*
X246920038Y-155667544D01*
X246920038Y-155667544D02*
X246967657Y-155619925D01*
X246967657Y-155619925D02*
X247062895Y-155572306D01*
X247062895Y-155572306D02*
X247110514Y-155572306D01*
X247110514Y-155572306D02*
X247205752Y-155619925D01*
X247205752Y-155619925D02*
X247253371Y-155667544D01*
X247253371Y-155667544D02*
X247300990Y-155762782D01*
X247300990Y-155762782D02*
X247300990Y-155953258D01*
X247300990Y-155953258D02*
X247348609Y-156048496D01*
X247348609Y-156048496D02*
X247396228Y-156096115D01*
X247396228Y-156096115D02*
X247491466Y-156143734D01*
X247491466Y-156143734D02*
X247681942Y-156143734D01*
X247681942Y-156143734D02*
X247777180Y-156096115D01*
X247777180Y-156096115D02*
X247824800Y-156048496D01*
X247824800Y-156048496D02*
X247872419Y-155953258D01*
X247872419Y-155953258D02*
X247872419Y-155762782D01*
X247872419Y-155762782D02*
X247824800Y-155667544D01*
X247824800Y-155667544D02*
X247777180Y-155619925D01*
X247777180Y-155619925D02*
X247681942Y-155572306D01*
X247681942Y-155572306D02*
X247491466Y-155572306D01*
X247491466Y-155572306D02*
X247396228Y-155619925D01*
X247396228Y-155619925D02*
X247348609Y-155667544D01*
X247348609Y-155667544D02*
X247300990Y-155762782D01*
X246824800Y-154429449D02*
X248110514Y-155286591D01*
X247872419Y-154048496D02*
X247872419Y-153858020D01*
X247872419Y-153858020D02*
X247824800Y-153762782D01*
X247824800Y-153762782D02*
X247777180Y-153715163D01*
X247777180Y-153715163D02*
X247634323Y-153619925D01*
X247634323Y-153619925D02*
X247443847Y-153572306D01*
X247443847Y-153572306D02*
X247062895Y-153572306D01*
X247062895Y-153572306D02*
X246967657Y-153619925D01*
X246967657Y-153619925D02*
X246920038Y-153667544D01*
X246920038Y-153667544D02*
X246872419Y-153762782D01*
X246872419Y-153762782D02*
X246872419Y-153953258D01*
X246872419Y-153953258D02*
X246920038Y-154048496D01*
X246920038Y-154048496D02*
X246967657Y-154096115D01*
X246967657Y-154096115D02*
X247062895Y-154143734D01*
X247062895Y-154143734D02*
X247300990Y-154143734D01*
X247300990Y-154143734D02*
X247396228Y-154096115D01*
X247396228Y-154096115D02*
X247443847Y-154048496D01*
X247443847Y-154048496D02*
X247491466Y-153953258D01*
X247491466Y-153953258D02*
X247491466Y-153762782D01*
X247491466Y-153762782D02*
X247443847Y-153667544D01*
X247443847Y-153667544D02*
X247396228Y-153619925D01*
X247396228Y-153619925D02*
X247300990Y-153572306D01*
X246872419Y-153143734D02*
X247681942Y-153143734D01*
X247681942Y-153143734D02*
X247777180Y-153096115D01*
X247777180Y-153096115D02*
X247824800Y-153048496D01*
X247824800Y-153048496D02*
X247872419Y-152953258D01*
X247872419Y-152953258D02*
X247872419Y-152762782D01*
X247872419Y-152762782D02*
X247824800Y-152667544D01*
X247824800Y-152667544D02*
X247777180Y-152619925D01*
X247777180Y-152619925D02*
X247681942Y-152572306D01*
X247681942Y-152572306D02*
X246872419Y-152572306D01*
D11*
X348249057Y-133748843D02*
X347915724Y-133272652D01*
X347677629Y-133748843D02*
X347677629Y-132748843D01*
X347677629Y-132748843D02*
X348058581Y-132748843D01*
X348058581Y-132748843D02*
X348153819Y-132796462D01*
X348153819Y-132796462D02*
X348201438Y-132844081D01*
X348201438Y-132844081D02*
X348249057Y-132939319D01*
X348249057Y-132939319D02*
X348249057Y-133082176D01*
X348249057Y-133082176D02*
X348201438Y-133177414D01*
X348201438Y-133177414D02*
X348153819Y-133225033D01*
X348153819Y-133225033D02*
X348058581Y-133272652D01*
X348058581Y-133272652D02*
X347677629Y-133272652D01*
X348582391Y-132748843D02*
X349201438Y-132748843D01*
X349201438Y-132748843D02*
X348868105Y-133129795D01*
X348868105Y-133129795D02*
X349010962Y-133129795D01*
X349010962Y-133129795D02*
X349106200Y-133177414D01*
X349106200Y-133177414D02*
X349153819Y-133225033D01*
X349153819Y-133225033D02*
X349201438Y-133320271D01*
X349201438Y-133320271D02*
X349201438Y-133558366D01*
X349201438Y-133558366D02*
X349153819Y-133653604D01*
X349153819Y-133653604D02*
X349106200Y-133701224D01*
X349106200Y-133701224D02*
X349010962Y-133748843D01*
X349010962Y-133748843D02*
X348725248Y-133748843D01*
X348725248Y-133748843D02*
X348630010Y-133701224D01*
X348630010Y-133701224D02*
X348582391Y-133653604D01*
X343356115Y-99488692D02*
X342356115Y-99488692D01*
X342356115Y-99488692D02*
X342356115Y-99250597D01*
X342356115Y-99250597D02*
X342403734Y-99107740D01*
X342403734Y-99107740D02*
X342498972Y-99012502D01*
X342498972Y-99012502D02*
X342594210Y-98964883D01*
X342594210Y-98964883D02*
X342784686Y-98917264D01*
X342784686Y-98917264D02*
X342927543Y-98917264D01*
X342927543Y-98917264D02*
X343118019Y-98964883D01*
X343118019Y-98964883D02*
X343213257Y-99012502D01*
X343213257Y-99012502D02*
X343308496Y-99107740D01*
X343308496Y-99107740D02*
X343356115Y-99250597D01*
X343356115Y-99250597D02*
X343356115Y-99488692D01*
X342356115Y-98583930D02*
X342356115Y-97964883D01*
X342356115Y-97964883D02*
X342737067Y-98298216D01*
X342737067Y-98298216D02*
X342737067Y-98155359D01*
X342737067Y-98155359D02*
X342784686Y-98060121D01*
X342784686Y-98060121D02*
X342832305Y-98012502D01*
X342832305Y-98012502D02*
X342927543Y-97964883D01*
X342927543Y-97964883D02*
X343165638Y-97964883D01*
X343165638Y-97964883D02*
X343260876Y-98012502D01*
X343260876Y-98012502D02*
X343308496Y-98060121D01*
X343308496Y-98060121D02*
X343356115Y-98155359D01*
X343356115Y-98155359D02*
X343356115Y-98441073D01*
X343356115Y-98441073D02*
X343308496Y-98536311D01*
X343308496Y-98536311D02*
X343260876Y-98583930D01*
X69582811Y-111971787D02*
X69582811Y-110971787D01*
X69582811Y-110971787D02*
X69820906Y-110971787D01*
X69820906Y-110971787D02*
X69963763Y-111019406D01*
X69963763Y-111019406D02*
X70059001Y-111114644D01*
X70059001Y-111114644D02*
X70106620Y-111209882D01*
X70106620Y-111209882D02*
X70154239Y-111400358D01*
X70154239Y-111400358D02*
X70154239Y-111543215D01*
X70154239Y-111543215D02*
X70106620Y-111733691D01*
X70106620Y-111733691D02*
X70059001Y-111828929D01*
X70059001Y-111828929D02*
X69963763Y-111924168D01*
X69963763Y-111924168D02*
X69820906Y-111971787D01*
X69820906Y-111971787D02*
X69582811Y-111971787D01*
X70535192Y-111067025D02*
X70582811Y-111019406D01*
X70582811Y-111019406D02*
X70678049Y-110971787D01*
X70678049Y-110971787D02*
X70916144Y-110971787D01*
X70916144Y-110971787D02*
X71011382Y-111019406D01*
X71011382Y-111019406D02*
X71059001Y-111067025D01*
X71059001Y-111067025D02*
X71106620Y-111162263D01*
X71106620Y-111162263D02*
X71106620Y-111257501D01*
X71106620Y-111257501D02*
X71059001Y-111400358D01*
X71059001Y-111400358D02*
X70487573Y-111971787D01*
X70487573Y-111971787D02*
X71106620Y-111971787D01*
X337833333Y-108359580D02*
X337785714Y-108407200D01*
X337785714Y-108407200D02*
X337642857Y-108454819D01*
X337642857Y-108454819D02*
X337547619Y-108454819D01*
X337547619Y-108454819D02*
X337404762Y-108407200D01*
X337404762Y-108407200D02*
X337309524Y-108311961D01*
X337309524Y-108311961D02*
X337261905Y-108216723D01*
X337261905Y-108216723D02*
X337214286Y-108026247D01*
X337214286Y-108026247D02*
X337214286Y-107883390D01*
X337214286Y-107883390D02*
X337261905Y-107692914D01*
X337261905Y-107692914D02*
X337309524Y-107597676D01*
X337309524Y-107597676D02*
X337404762Y-107502438D01*
X337404762Y-107502438D02*
X337547619Y-107454819D01*
X337547619Y-107454819D02*
X337642857Y-107454819D01*
X337642857Y-107454819D02*
X337785714Y-107502438D01*
X337785714Y-107502438D02*
X337833333Y-107550057D01*
X338785714Y-108454819D02*
X338214286Y-108454819D01*
X338500000Y-108454819D02*
X338500000Y-107454819D01*
X338500000Y-107454819D02*
X338404762Y-107597676D01*
X338404762Y-107597676D02*
X338309524Y-107692914D01*
X338309524Y-107692914D02*
X338214286Y-107740533D01*
X347485490Y-119071937D02*
X347485490Y-118071937D01*
X347485490Y-118071937D02*
X347723585Y-118071937D01*
X347723585Y-118071937D02*
X347866442Y-118119556D01*
X347866442Y-118119556D02*
X347961680Y-118214794D01*
X347961680Y-118214794D02*
X348009299Y-118310032D01*
X348009299Y-118310032D02*
X348056918Y-118500508D01*
X348056918Y-118500508D02*
X348056918Y-118643365D01*
X348056918Y-118643365D02*
X348009299Y-118833841D01*
X348009299Y-118833841D02*
X347961680Y-118929079D01*
X347961680Y-118929079D02*
X347866442Y-119024318D01*
X347866442Y-119024318D02*
X347723585Y-119071937D01*
X347723585Y-119071937D02*
X347485490Y-119071937D01*
X348914061Y-118405270D02*
X348914061Y-119071937D01*
X348675966Y-118024318D02*
X348437871Y-118738603D01*
X348437871Y-118738603D02*
X349056918Y-118738603D01*
X342804819Y-94166666D02*
X342328628Y-94499999D01*
X342804819Y-94738094D02*
X341804819Y-94738094D01*
X341804819Y-94738094D02*
X341804819Y-94357142D01*
X341804819Y-94357142D02*
X341852438Y-94261904D01*
X341852438Y-94261904D02*
X341900057Y-94214285D01*
X341900057Y-94214285D02*
X341995295Y-94166666D01*
X341995295Y-94166666D02*
X342138152Y-94166666D01*
X342138152Y-94166666D02*
X342233390Y-94214285D01*
X342233390Y-94214285D02*
X342281009Y-94261904D01*
X342281009Y-94261904D02*
X342328628Y-94357142D01*
X342328628Y-94357142D02*
X342328628Y-94738094D01*
X342138152Y-93309523D02*
X342804819Y-93309523D01*
X341757200Y-93547618D02*
X342471485Y-93785713D01*
X342471485Y-93785713D02*
X342471485Y-93166666D01*
X348173991Y-114871739D02*
X347840658Y-114395548D01*
X347602563Y-114871739D02*
X347602563Y-113871739D01*
X347602563Y-113871739D02*
X347983515Y-113871739D01*
X347983515Y-113871739D02*
X348078753Y-113919358D01*
X348078753Y-113919358D02*
X348126372Y-113966977D01*
X348126372Y-113966977D02*
X348173991Y-114062215D01*
X348173991Y-114062215D02*
X348173991Y-114205072D01*
X348173991Y-114205072D02*
X348126372Y-114300310D01*
X348126372Y-114300310D02*
X348078753Y-114347929D01*
X348078753Y-114347929D02*
X347983515Y-114395548D01*
X347983515Y-114395548D02*
X347602563Y-114395548D01*
X348554944Y-113966977D02*
X348602563Y-113919358D01*
X348602563Y-113919358D02*
X348697801Y-113871739D01*
X348697801Y-113871739D02*
X348935896Y-113871739D01*
X348935896Y-113871739D02*
X349031134Y-113919358D01*
X349031134Y-113919358D02*
X349078753Y-113966977D01*
X349078753Y-113966977D02*
X349126372Y-114062215D01*
X349126372Y-114062215D02*
X349126372Y-114157453D01*
X349126372Y-114157453D02*
X349078753Y-114300310D01*
X349078753Y-114300310D02*
X348507325Y-114871739D01*
X348507325Y-114871739D02*
X349126372Y-114871739D01*
X337238095Y-104454819D02*
X337238095Y-105264342D01*
X337238095Y-105264342D02*
X337285714Y-105359580D01*
X337285714Y-105359580D02*
X337333333Y-105407200D01*
X337333333Y-105407200D02*
X337428571Y-105454819D01*
X337428571Y-105454819D02*
X337619047Y-105454819D01*
X337619047Y-105454819D02*
X337714285Y-105407200D01*
X337714285Y-105407200D02*
X337761904Y-105359580D01*
X337761904Y-105359580D02*
X337809523Y-105264342D01*
X337809523Y-105264342D02*
X337809523Y-104454819D01*
X338809523Y-105454819D02*
X338238095Y-105454819D01*
X338523809Y-105454819D02*
X338523809Y-104454819D01*
X338523809Y-104454819D02*
X338428571Y-104597676D01*
X338428571Y-104597676D02*
X338333333Y-104692914D01*
X338333333Y-104692914D02*
X338238095Y-104740533D01*
X349410093Y-98743685D02*
X348410093Y-98743685D01*
X348410093Y-98743685D02*
X348410093Y-98505590D01*
X348410093Y-98505590D02*
X348457712Y-98362733D01*
X348457712Y-98362733D02*
X348552950Y-98267495D01*
X348552950Y-98267495D02*
X348648188Y-98219876D01*
X348648188Y-98219876D02*
X348838664Y-98172257D01*
X348838664Y-98172257D02*
X348981521Y-98172257D01*
X348981521Y-98172257D02*
X349171997Y-98219876D01*
X349171997Y-98219876D02*
X349267235Y-98267495D01*
X349267235Y-98267495D02*
X349362474Y-98362733D01*
X349362474Y-98362733D02*
X349410093Y-98505590D01*
X349410093Y-98505590D02*
X349410093Y-98743685D01*
X349410093Y-97219876D02*
X349410093Y-97791304D01*
X349410093Y-97505590D02*
X348410093Y-97505590D01*
X348410093Y-97505590D02*
X348552950Y-97600828D01*
X348552950Y-97600828D02*
X348648188Y-97696066D01*
X348648188Y-97696066D02*
X348695807Y-97791304D01*
D12*
%TO.C,R5*%
X346265000Y-94227064D02*
X346265000Y-93772936D01*
X347735000Y-94227064D02*
X347735000Y-93772936D01*
%TO.C,D5*%
X343880888Y-136001859D02*
X343880888Y-137921859D01*
X343880888Y-137921859D02*
X346565888Y-137921859D01*
X346565888Y-136001859D02*
X343880888Y-136001859D01*
%TO.C,J2*%
X337276726Y-125238933D02*
X337276726Y-117558933D01*
X339936726Y-117558933D02*
X337276726Y-117558933D01*
X339936726Y-125238933D02*
X337276726Y-125238933D01*
X339936726Y-125238933D02*
X339936726Y-117558933D01*
X339936726Y-126508933D02*
X339936726Y-127838933D01*
X339936726Y-127838933D02*
X338606726Y-127838933D01*
%TO.C,R3*%
X345283977Y-132542331D02*
X345738105Y-132542331D01*
X345283977Y-134012331D02*
X345738105Y-134012331D01*
%TO.C,D3*%
X343591296Y-97750598D02*
X343591296Y-100435598D01*
X343591296Y-100435598D02*
X345511296Y-100435598D01*
X345511296Y-100435598D02*
X345511296Y-97750598D01*
%TO.C,D2*%
X72776961Y-112450353D02*
X75461961Y-112450353D01*
X75461961Y-110530353D02*
X72776961Y-110530353D01*
X75461961Y-112450353D02*
X75461961Y-110530353D01*
%TO.C,C1*%
X341223752Y-107265000D02*
X340701248Y-107265000D01*
X341223752Y-108735000D02*
X340701248Y-108735000D01*
%TO.C,D4*%
X343839349Y-116810853D02*
X343839349Y-118730853D01*
X343839349Y-118730853D02*
X346524349Y-118730853D01*
X346524349Y-116810853D02*
X343839349Y-116810853D01*
%TO.C,R4*%
X343265000Y-94227064D02*
X343265000Y-93772936D01*
X344735000Y-94227064D02*
X344735000Y-93772936D01*
%TO.C,R2*%
X345248975Y-113661888D02*
X345703103Y-113661888D01*
X345248975Y-115131888D02*
X345703103Y-115131888D01*
%TO.C,U1*%
X341137500Y-103390000D02*
X340337500Y-103390000D01*
X341137500Y-103390000D02*
X341937500Y-103390000D01*
X341137500Y-106510000D02*
X340337500Y-106510000D01*
X341137500Y-106510000D02*
X341937500Y-106510000D01*
X339837500Y-103440000D02*
X339597500Y-103110000D01*
X340077500Y-103110000D01*
X339837500Y-103440000D01*
G36*
X339837500Y-103440000D02*
G01*
X339597500Y-103110000D01*
X340077500Y-103110000D01*
X339837500Y-103440000D01*
G37*
%TO.C,D1*%
X345503297Y-97750598D02*
X345503297Y-100435598D01*
X345503297Y-100435598D02*
X347423297Y-100435598D01*
X347423297Y-100435598D02*
X347423297Y-97750598D01*
%TD*%
M02*
