M48
; DRILL file {KiCad 8.0.4} date 2024-08-07T11:26:51+1000
; FORMAT={-:-/ absolute / metric / decimal}
; #@! TF.CreationDate,2024-08-07T11:26:51+10:00
; #@! TF.GenerationSoftware,Kicad,Pcbnew,8.0.4
; #@! TF.FileFunction,Plated,1,2,PTH
FMAT,2
METRIC
; #@! TA.AperFunction,Plated,PTH,ViaDrill
T1C0.300
; #@! TA.AperFunction,Plated,PTH,ViaDrill
T2C0.500
; #@! TA.AperFunction,Plated,PTH,ComponentDrill
T3C0.850
; #@! TA.AperFunction,Plated,PTH,ComponentDrill
T4C1.000
; #@! TA.AperFunction,Plated,PTH,ComponentDrill
T5C1.450
%
G90
G05
T1
X166.0Y-46.0
X343.5Y-103.0
X343.5Y-106.5
X343.5Y-110.5
X345.5Y-110.5
X350.0Y-46.0
T2
X50.0Y-63.0
X50.0Y-66.0
X51.0Y-62.0
X70.0Y-64.0
X71.0Y-65.0
X75.0Y-67.0
X77.0Y-109.0
X78.0Y-111.0
X83.0Y-68.0
X101.0Y-69.0
X112.0Y-70.0
X149.0Y-86.0
X162.128Y-53.516
X172.0Y-86.0
X174.0Y-58.0
X184.0Y-84.0
X201.985Y-139.349
X203.0Y-144.0
X204.0Y-143.0
X216.0Y-61.0
X222.0Y-161.0
X234.0Y-68.0
X241.0Y-62.0
X265.0Y-67.0
X269.0Y-143.0
X281.0Y-65.0
X284.0Y-140.5
X285.0Y-63.0
X289.0Y-86.0
X291.0Y-145.0
X307.0Y-106.0
X308.0Y-140.0
X313.0Y-66.0
X314.0Y-83.0
X322.0Y-144.0
X335.0Y-123.0
X338.0Y-64.0
X338.0Y-104.0
X350.0Y-46.0
T3
X162.25Y-63.75
X163.5Y-66.25
X164.75Y-63.75
X166.0Y-66.25
X167.25Y-63.75
X168.5Y-66.25
X169.75Y-63.75
X171.0Y-66.25
X172.25Y-63.75
X173.5Y-66.25
X174.75Y-63.75
X176.0Y-66.25
X177.25Y-63.75
X178.5Y-66.25
X179.75Y-63.75
X181.0Y-66.25
X182.25Y-63.75
X183.5Y-66.25
X184.75Y-63.75
X186.0Y-66.25
X187.25Y-63.75
X188.5Y-66.25
X189.75Y-63.75
X191.0Y-66.25
X192.25Y-63.75
X193.5Y-66.25
X194.75Y-63.75
X196.0Y-66.25
X197.25Y-63.75
X198.5Y-66.25
X199.75Y-63.75
X201.0Y-66.25
T4
X353.5Y-134.0
X353.5Y-136.54
X353.5Y-139.08
X353.5Y-141.62
T5
X48.1Y-54.7
X48.6Y-121.4
X50.6Y-83.2
X53.1Y-140.5
X55.1Y-55.75
X55.6Y-102.3
X55.6Y-122.45
X57.6Y-84.25
X58.6Y-159.6
X60.1Y-141.55
X62.6Y-103.35
X65.6Y-160.65
X70.1Y-121.4
X74.6Y-83.2
X77.1Y-122.45
X79.35Y-140.5
X81.1Y-54.7
X81.6Y-84.25
X83.1Y-159.6
X84.35Y-102.3
X86.35Y-141.55
X88.1Y-55.75
X89.1Y-121.4
X90.1Y-160.65
X91.35Y-103.35
X93.6Y-83.2
X96.1Y-122.45
X98.35Y-140.5
X100.6Y-84.25
X103.35Y-102.3
X105.1Y-54.7
X105.35Y-141.55
X108.1Y-121.4
X110.35Y-103.35
X112.1Y-55.75
X112.6Y-83.2
X115.1Y-122.45
X117.35Y-140.5
X119.6Y-84.25
X122.35Y-102.3
X124.35Y-141.55
X127.1Y-121.4
X129.1Y-54.7
X129.35Y-103.35
X131.6Y-83.2
X134.1Y-122.45
X136.1Y-55.75
X136.35Y-140.5
X138.6Y-84.25
X141.35Y-102.3
X143.35Y-141.55
X146.1Y-121.4
X148.35Y-103.35
X150.6Y-83.2
X153.1Y-54.7
X153.1Y-122.45
X155.35Y-140.5
X157.6Y-84.25
X160.1Y-55.75
X160.35Y-102.3
X162.35Y-141.55
X165.1Y-121.4
X167.35Y-103.35
X169.6Y-83.2
X172.1Y-122.45
X172.452Y-159.675
X174.35Y-140.5
X176.6Y-84.25
X177.1Y-54.7
X179.35Y-102.3
X179.452Y-160.725
X181.35Y-141.55
X184.1Y-55.75
X184.1Y-121.4
X186.35Y-103.35
X188.6Y-83.2
X191.1Y-122.45
X193.35Y-140.5
X195.6Y-84.25
X198.35Y-102.3
X200.35Y-141.55
X203.1Y-121.4
X205.35Y-103.35
X207.6Y-83.2
X209.6Y-54.7
X210.1Y-122.45
X212.35Y-140.5
X214.6Y-84.25
X216.6Y-55.75
X217.35Y-102.3
X219.35Y-141.55
X222.1Y-121.4
X224.35Y-103.35
X226.6Y-83.2
X229.1Y-122.45
X231.35Y-140.5
X233.6Y-54.7
X233.6Y-84.25
X236.35Y-102.3
X238.35Y-141.55
X240.6Y-55.75
X241.1Y-121.4
X243.35Y-103.35
X245.6Y-83.2
X248.1Y-122.45
X250.35Y-140.5
X252.6Y-84.25
X255.35Y-102.3
X257.35Y-141.55
X257.6Y-54.7
X260.1Y-121.4
X261.85Y-159.6
X262.35Y-103.35
X264.6Y-55.75
X264.6Y-83.2
X267.1Y-122.45
X268.85Y-160.65
X269.35Y-140.5
X271.6Y-84.25
X274.35Y-102.45
X276.35Y-141.55
X279.1Y-121.4
X281.35Y-103.5
X281.6Y-54.7
X283.6Y-83.2
X283.85Y-159.6
X286.1Y-122.45
X288.6Y-55.75
X290.6Y-84.25
X290.85Y-160.65
X293.35Y-102.447
X295.6Y-140.5
X298.1Y-121.4
X300.35Y-103.497
X302.6Y-83.2
X302.6Y-141.55
X302.85Y-159.6
X305.1Y-122.45
X305.6Y-54.7
X309.6Y-84.25
X309.85Y-160.65
X312.6Y-55.75
X321.6Y-83.2
X321.85Y-140.5
X321.85Y-159.6
X328.6Y-84.25
X328.675Y-111.675
X328.85Y-141.55
X328.85Y-160.65
X329.725Y-104.675
X339.1Y-54.7
X340.6Y-83.2
X340.85Y-159.6
X346.1Y-55.75
X347.6Y-84.25
X347.85Y-160.65
M30
