%TF.GenerationSoftware,KiCad,Pcbnew,8.0.4*%
%TF.CreationDate,2024-08-07T11:27:00+10:00*%
%TF.ProjectId,A600KBv2,41363030-4b42-4763-922e-6b696361645f,rev?*%
%TF.SameCoordinates,Original*%
%TF.FileFunction,Copper,L1,Top*%
%TF.FilePolarity,Positive*%
%FSLAX46Y46*%
G04 Gerber Fmt 4.6, Leading zero omitted, Abs format (unit mm)*
G04 Created by KiCad (PCBNEW 8.0.4) date 2024-08-07 11:27:00*
%MOMM*%
%LPD*%
G01*
G04 APERTURE LIST*
G04 Aperture macros list*
%AMRoundRect*
0 Rectangle with rounded corners*
0 $1 Rounding radius*
0 $2 $3 $4 $5 $6 $7 $8 $9 X,Y pos of 4 corners*
0 Add a 4 corners polygon primitive as box body*
4,1,4,$2,$3,$4,$5,$6,$7,$8,$9,$2,$3,0*
0 Add four circle primitives for the rounded corners*
1,1,$1+$1,$2,$3*
1,1,$1+$1,$4,$5*
1,1,$1+$1,$6,$7*
1,1,$1+$1,$8,$9*
0 Add four rect primitives between the rounded corners*
20,1,$1+$1,$2,$3,$4,$5,0*
20,1,$1+$1,$4,$5,$6,$7,0*
20,1,$1+$1,$6,$7,$8,$9,0*
20,1,$1+$1,$8,$9,$2,$3,0*%
G04 Aperture macros list end*
%TA.AperFunction,ComponentPad*%
%ADD10R,1.700000X1.700000*%
%TD*%
%TA.AperFunction,ComponentPad*%
%ADD11O,1.700000X1.700000*%
%TD*%
%TA.AperFunction,ComponentPad*%
%ADD12C,2.300000*%
%TD*%
%TA.AperFunction,SMDPad,CuDef*%
%ADD13RoundRect,0.250000X0.450000X-0.350000X0.450000X0.350000X-0.450000X0.350000X-0.450000X-0.350000X0*%
%TD*%
%TA.AperFunction,SMDPad,CuDef*%
%ADD14RoundRect,0.250000X0.350000X0.450000X-0.350000X0.450000X-0.350000X-0.450000X0.350000X-0.450000X0*%
%TD*%
%TA.AperFunction,SMDPad,CuDef*%
%ADD15RoundRect,0.243750X-0.243750X-0.456250X0.243750X-0.456250X0.243750X0.456250X-0.243750X0.456250X0*%
%TD*%
%TA.AperFunction,SMDPad,CuDef*%
%ADD16RoundRect,0.243750X0.456250X-0.243750X0.456250X0.243750X-0.456250X0.243750X-0.456250X-0.243750X0*%
%TD*%
%TA.AperFunction,SMDPad,CuDef*%
%ADD17RoundRect,0.243750X0.243750X0.456250X-0.243750X0.456250X-0.243750X-0.456250X0.243750X-0.456250X0*%
%TD*%
%TA.AperFunction,SMDPad,CuDef*%
%ADD18RoundRect,0.250000X0.337500X0.475000X-0.337500X0.475000X-0.337500X-0.475000X0.337500X-0.475000X0*%
%TD*%
%TA.AperFunction,SMDPad,CuDef*%
%ADD19RoundRect,0.150000X-0.512500X-0.150000X0.512500X-0.150000X0.512500X0.150000X-0.512500X0.150000X0*%
%TD*%
%TA.AperFunction,ComponentPad*%
%ADD20C,1.524000*%
%TD*%
%TA.AperFunction,ViaPad*%
%ADD21C,1.000000*%
%TD*%
%TA.AperFunction,ViaPad*%
%ADD22C,0.600000*%
%TD*%
%TA.AperFunction,Conductor*%
%ADD23C,0.200000*%
%TD*%
%TA.AperFunction,Conductor*%
%ADD24C,0.300000*%
%TD*%
G04 APERTURE END LIST*
D10*
%TO.P,J2,1,Pin_1*%
%TO.N,Net-(D4-K)*%
X353500000Y-141620000D03*
D11*
%TO.P,J2,2,Pin_2*%
%TO.N,Net-(J2-Pin_2)*%
X353500000Y-139080000D03*
%TO.P,J2,3,Pin_3*%
%TO.N,Net-(J2-Pin_3)*%
X353500000Y-136540000D03*
%TO.P,J2,4,Pin_4*%
%TO.N,Net-(J2-Pin_4)*%
X353500000Y-134000000D03*
%TD*%
D12*
%TO.P,MX36,1,COL*%
%TO.N,/30*%
X83100000Y-159600000D03*
%TO.P,MX36,2,ROW*%
%TO.N,/14*%
X90100000Y-160650000D03*
%TD*%
D13*
%TO.P,R5,1*%
%TO.N,Net-(D1-A)*%
X347000000Y-92500000D03*
%TO.P,R5,2*%
%TO.N,Net-(J2-Pin_2)*%
X347000000Y-90500000D03*
%TD*%
D12*
%TO.P,MX78,1,COL*%
%TO.N,/7*%
X321850000Y-159600000D03*
%TO.P,MX78,2,ROW*%
%TO.N,/29*%
X328850000Y-160650000D03*
%TD*%
%TO.P,MX60,1,COL*%
%TO.N,Net-(J1-Pin_1)*%
X257600000Y-54700000D03*
%TO.P,MX60,2,ROW*%
%TO.N,/26*%
X264600000Y-55750000D03*
%TD*%
%TO.P,MX61,1,COL*%
%TO.N,/2*%
X264600000Y-83200000D03*
%TO.P,MX61,2,ROW*%
%TO.N,/26*%
X271600000Y-84250000D03*
%TD*%
%TO.P,MX41,1,COL*%
%TO.N,/7*%
X193350000Y-140500000D03*
%TO.P,MX41,2,ROW*%
%TO.N,/21*%
X200350000Y-141550000D03*
%TD*%
%TO.P,MX29,1,COL*%
%TO.N,/7*%
X155350000Y-140500000D03*
%TO.P,MX29,2,ROW*%
%TO.N,/19*%
X162350000Y-141550000D03*
%TD*%
%TO.P,MX66,1,COL*%
%TO.N,/3*%
X293350000Y-102446569D03*
%TO.P,MX66,2,ROW*%
%TO.N,/27*%
X300350000Y-103496569D03*
%TD*%
%TO.P,MX58,1,COL*%
%TO.N,Net-(J1-Pin_5)*%
X260100000Y-121400000D03*
%TO.P,MX58,2,ROW*%
%TO.N,/25*%
X267100000Y-122450000D03*
%TD*%
%TO.P,MX3,1,COL*%
%TO.N,/2*%
X50600000Y-83200000D03*
%TO.P,MX3,2,ROW*%
%TO.N,/15*%
X57600000Y-84250000D03*
%TD*%
%TO.P,MX76,1,COL*%
%TO.N,/3*%
X302850000Y-159600000D03*
%TO.P,MX76,2,ROW*%
%TO.N,/29*%
X309850000Y-160650000D03*
%TD*%
%TO.P,MX16,1,COL*%
%TO.N,Net-(J1-Pin_5)*%
X108100000Y-121400000D03*
%TO.P,MX16,2,ROW*%
%TO.N,/17*%
X115100000Y-122450000D03*
%TD*%
%TO.P,MX23,1,COL*%
%TO.N,/7*%
X136350000Y-140500000D03*
%TO.P,MX23,2,ROW*%
%TO.N,/18*%
X143350000Y-141550000D03*
%TD*%
%TO.P,MX12,1,COL*%
%TO.N,/30*%
X261850000Y-159600000D03*
%TO.P,MX12,2,ROW*%
%TO.N,/10*%
X268850000Y-160650000D03*
%TD*%
D14*
%TO.P,R6,1*%
%TO.N,Net-(J2-Pin_2)*%
X342500000Y-105500000D03*
%TO.P,R6,2*%
%TO.N,CAPS_GND*%
X340500000Y-105500000D03*
%TD*%
D12*
%TO.P,MX26,1,COL*%
%TO.N,/2*%
X131600000Y-83200000D03*
%TO.P,MX26,2,ROW*%
%TO.N,/19*%
X138600000Y-84250000D03*
%TD*%
%TO.P,MX70,1,COL*%
%TO.N,/2*%
X302600000Y-83200000D03*
%TO.P,MX70,2,ROW*%
%TO.N,/28*%
X309600000Y-84250000D03*
%TD*%
%TO.P,MX4,1,COL*%
%TO.N,/3*%
X55600000Y-102300000D03*
%TO.P,MX4,2,ROW*%
%TO.N,/15*%
X62600000Y-103350000D03*
%TD*%
%TO.P,MX59,1,COL*%
%TO.N,/7*%
X269350000Y-140500000D03*
%TO.P,MX59,2,ROW*%
%TO.N,/25*%
X276350000Y-141550000D03*
%TD*%
%TO.P,MX57,1,COL*%
%TO.N,/3*%
X255350000Y-102300000D03*
%TO.P,MX57,2,ROW*%
%TO.N,/25*%
X262350000Y-103350000D03*
%TD*%
%TO.P,MX46,1,COL*%
%TO.N,Net-(J1-Pin_1)*%
X209600000Y-54700000D03*
%TO.P,MX46,2,ROW*%
%TO.N,/23*%
X216600000Y-55750000D03*
%TD*%
%TO.P,MX53,1,COL*%
%TO.N,Net-(J1-Pin_5)*%
X241100000Y-121400000D03*
%TO.P,MX53,2,ROW*%
%TO.N,/24*%
X248100000Y-122450000D03*
%TD*%
%TO.P,MX72,1,COL*%
%TO.N,Net-(J1-Pin_5)*%
X340600000Y-83200000D03*
%TO.P,MX72,2,ROW*%
%TO.N,/28*%
X347600000Y-84250000D03*
%TD*%
%TO.P,MX44,1,COL*%
%TO.N,Net-(J1-Pin_5)*%
X203100000Y-121400000D03*
%TO.P,MX44,2,ROW*%
%TO.N,/22*%
X210100000Y-122450000D03*
%TD*%
%TO.P,MX73,1,COL*%
%TO.N,/7*%
X321600000Y-83200000D03*
%TO.P,MX73,2,ROW*%
%TO.N,/28*%
X328600000Y-84250000D03*
%TD*%
%TO.P,MX33,1,COL*%
%TO.N,/3*%
X160350000Y-102300000D03*
%TO.P,MX33,2,ROW*%
%TO.N,/20*%
X167350000Y-103350000D03*
%TD*%
%TO.P,MX27,1,COL*%
%TO.N,/3*%
X141350000Y-102300000D03*
%TO.P,MX27,2,ROW*%
%TO.N,/19*%
X148350000Y-103350000D03*
%TD*%
D15*
%TO.P,D5,1,K*%
%TO.N,Net-(D4-K)*%
X344500000Y-136961859D03*
%TO.P,D5,2,A*%
%TO.N,Net-(D5-A)*%
X346375000Y-136961859D03*
%TD*%
D12*
%TO.P,MX68,1,COL*%
%TO.N,/7*%
X172451750Y-159675000D03*
%TO.P,MX68,2,ROW*%
%TO.N,/27*%
X179451750Y-160725000D03*
%TD*%
D14*
%TO.P,R3,1*%
%TO.N,Net-(J2-Pin_4)*%
X350500000Y-131500000D03*
%TO.P,R3,2*%
%TO.N,Net-(D5-A)*%
X348500000Y-131500000D03*
%TD*%
D12*
%TO.P,MX71,1,COL*%
%TO.N,/3*%
X328675000Y-111675000D03*
%TO.P,MX71,2,ROW*%
%TO.N,/28*%
X329725000Y-104675000D03*
%TD*%
%TO.P,MX37,1,COL*%
%TO.N,Net-(J1-Pin_1)*%
X177100000Y-54700000D03*
%TO.P,MX37,2,ROW*%
%TO.N,/21*%
X184100000Y-55750000D03*
%TD*%
%TO.P,MX5,1,COL*%
%TO.N,Net-(J1-Pin_5)*%
X70100000Y-121400000D03*
%TO.P,MX5,2,ROW*%
%TO.N,/15*%
X77100000Y-122450000D03*
%TD*%
%TO.P,MX7,1,COL*%
%TO.N,/30*%
X283850000Y-159600000D03*
%TO.P,MX7,2,ROW*%
%TO.N,/8*%
X290850000Y-160650000D03*
%TD*%
%TO.P,MX18,1,COL*%
%TO.N,/30*%
X48600000Y-121400000D03*
%TO.P,MX18,2,ROW*%
%TO.N,/11*%
X55600000Y-122450000D03*
%TD*%
%TO.P,MX52,1,COL*%
%TO.N,/3*%
X236350000Y-102300000D03*
%TO.P,MX52,2,ROW*%
%TO.N,/24*%
X243350000Y-103350000D03*
%TD*%
%TO.P,MX30,1,COL*%
%TO.N,/30*%
X58600000Y-159600000D03*
%TO.P,MX30,2,ROW*%
%TO.N,/13*%
X65600000Y-160650000D03*
%TD*%
%TO.P,MX1,1,COL*%
%TO.N,/30*%
X295600000Y-140500000D03*
%TO.P,MX1,2,ROW*%
%TO.N,/6*%
X302600000Y-141550000D03*
%TD*%
%TO.P,MX15,1,COL*%
%TO.N,/3*%
X103350000Y-102300000D03*
%TO.P,MX15,2,ROW*%
%TO.N,/17*%
X110350000Y-103350000D03*
%TD*%
%TO.P,MX50,1,COL*%
%TO.N,/7*%
X231350000Y-140500000D03*
%TO.P,MX50,2,ROW*%
%TO.N,/23*%
X238350000Y-141550000D03*
%TD*%
%TO.P,MX24,1,COL*%
%TO.N,/30*%
X53100000Y-140500000D03*
%TO.P,MX24,2,ROW*%
%TO.N,/12*%
X60100000Y-141550000D03*
%TD*%
D16*
%TO.P,D3,1,K*%
%TO.N,Net-(D3-K)*%
X344551296Y-99688098D03*
%TO.P,D3,2,A*%
%TO.N,Net-(D3-A)*%
X344551296Y-97813098D03*
%TD*%
D12*
%TO.P,MX42,1,COL*%
%TO.N,/2*%
X188600000Y-83200000D03*
%TO.P,MX42,2,ROW*%
%TO.N,/22*%
X195600000Y-84250000D03*
%TD*%
%TO.P,MX25,1,COL*%
%TO.N,Net-(J1-Pin_1)*%
X129100000Y-54700000D03*
%TO.P,MX25,2,ROW*%
%TO.N,/19*%
X136100000Y-55750000D03*
%TD*%
%TO.P,MX48,1,COL*%
%TO.N,/3*%
X217350000Y-102300000D03*
%TO.P,MX48,2,ROW*%
%TO.N,/23*%
X224350000Y-103350000D03*
%TD*%
D17*
%TO.P,D2,1,K*%
%TO.N,CAPS_GND*%
X74714461Y-111490353D03*
%TO.P,D2,2,A*%
%TO.N,VCC*%
X72839461Y-111490353D03*
%TD*%
D18*
%TO.P,C1,1*%
%TO.N,Net-(J2-Pin_2)*%
X342500000Y-111500000D03*
%TO.P,C1,2*%
%TO.N,Net-(D4-K)*%
X340425000Y-111500000D03*
%TD*%
D12*
%TO.P,MX31,1,COL*%
%TO.N,Net-(J1-Pin_1)*%
X153100000Y-54700000D03*
%TO.P,MX31,2,ROW*%
%TO.N,/20*%
X160100000Y-55750000D03*
%TD*%
%TO.P,MX56,1,COL*%
%TO.N,/2*%
X245600000Y-83200000D03*
%TO.P,MX56,2,ROW*%
%TO.N,/25*%
X252600000Y-84250000D03*
%TD*%
%TO.P,MX69,1,COL*%
%TO.N,Net-(J1-Pin_1)*%
X305600000Y-54700000D03*
%TO.P,MX69,2,ROW*%
%TO.N,/28*%
X312600000Y-55750000D03*
%TD*%
%TO.P,MX9,1,COL*%
%TO.N,/3*%
X84350000Y-102300000D03*
%TO.P,MX9,2,ROW*%
%TO.N,/16*%
X91350000Y-103350000D03*
%TD*%
%TO.P,MX43,1,COL*%
%TO.N,/3*%
X198350000Y-102300000D03*
%TO.P,MX43,2,ROW*%
%TO.N,/22*%
X205350000Y-103350000D03*
%TD*%
%TO.P,MX49,1,COL*%
%TO.N,Net-(J1-Pin_5)*%
X222100000Y-121400000D03*
%TO.P,MX49,2,ROW*%
%TO.N,/23*%
X229100000Y-122450000D03*
%TD*%
D13*
%TO.P,R1,1*%
%TO.N,Net-(D3-K)*%
X339000000Y-115500000D03*
%TO.P,R1,2*%
%TO.N,Net-(D4-K)*%
X339000000Y-113500000D03*
%TD*%
D12*
%TO.P,MX65,1,COL*%
%TO.N,/2*%
X283600000Y-83200000D03*
%TO.P,MX65,2,ROW*%
%TO.N,/27*%
X290600000Y-84250000D03*
%TD*%
%TO.P,MX34,1,COL*%
%TO.N,Net-(J1-Pin_5)*%
X165100000Y-121400000D03*
%TO.P,MX34,2,ROW*%
%TO.N,/20*%
X172100000Y-122450000D03*
%TD*%
%TO.P,MX38,1,COL*%
%TO.N,/2*%
X169600000Y-83200000D03*
%TO.P,MX38,2,ROW*%
%TO.N,/21*%
X176600000Y-84250000D03*
%TD*%
%TO.P,MX40,1,COL*%
%TO.N,Net-(J1-Pin_5)*%
X184100000Y-121400000D03*
%TO.P,MX40,2,ROW*%
%TO.N,/21*%
X191100000Y-122450000D03*
%TD*%
D15*
%TO.P,D4,1,K*%
%TO.N,Net-(D4-K)*%
X344586849Y-117770853D03*
%TO.P,D4,2,A*%
%TO.N,Net-(D4-A)*%
X346461849Y-117770853D03*
%TD*%
D12*
%TO.P,MX21,1,COL*%
%TO.N,/3*%
X122350000Y-102300000D03*
%TO.P,MX21,2,ROW*%
%TO.N,/18*%
X129350000Y-103350000D03*
%TD*%
%TO.P,MX62,1,COL*%
%TO.N,/3*%
X274350000Y-102450000D03*
%TO.P,MX62,2,ROW*%
%TO.N,/26*%
X281350000Y-103500000D03*
%TD*%
%TO.P,MX63,1,COL*%
%TO.N,Net-(J1-Pin_5)*%
X279100000Y-121400000D03*
%TO.P,MX63,2,ROW*%
%TO.N,/26*%
X286100000Y-122450000D03*
%TD*%
%TO.P,MX13,1,COL*%
%TO.N,Net-(J1-Pin_1)*%
X81100000Y-54700000D03*
%TO.P,MX13,2,ROW*%
%TO.N,/17*%
X88100000Y-55750000D03*
%TD*%
%TO.P,MX10,1,COL*%
%TO.N,Net-(J1-Pin_5)*%
X89100000Y-121400000D03*
%TO.P,MX10,2,ROW*%
%TO.N,/16*%
X96100000Y-122450000D03*
%TD*%
%TO.P,MX55,1,COL*%
%TO.N,Net-(J1-Pin_1)*%
X233600000Y-54700000D03*
%TO.P,MX55,2,ROW*%
%TO.N,/25*%
X240600000Y-55750000D03*
%TD*%
%TO.P,MX14,1,COL*%
%TO.N,/2*%
X93600000Y-83200000D03*
%TO.P,MX14,2,ROW*%
%TO.N,/17*%
X100600000Y-84250000D03*
%TD*%
%TO.P,MX32,1,COL*%
%TO.N,/2*%
X150600000Y-83200000D03*
%TO.P,MX32,2,ROW*%
%TO.N,/20*%
X157600000Y-84250000D03*
%TD*%
%TO.P,MX20,1,COL*%
%TO.N,/2*%
X112600000Y-83200000D03*
%TO.P,MX20,2,ROW*%
%TO.N,/18*%
X119600000Y-84250000D03*
%TD*%
D13*
%TO.P,R4,1*%
%TO.N,Net-(D3-A)*%
X344000000Y-92500000D03*
%TO.P,R4,2*%
%TO.N,Net-(J2-Pin_2)*%
X344000000Y-90500000D03*
%TD*%
D12*
%TO.P,MX8,1,COL*%
%TO.N,/2*%
X74600000Y-83200000D03*
%TO.P,MX8,2,ROW*%
%TO.N,/16*%
X81600000Y-84250000D03*
%TD*%
%TO.P,MX67,1,COL*%
%TO.N,Net-(J1-Pin_5)*%
X298100000Y-121400000D03*
%TO.P,MX67,2,ROW*%
%TO.N,/27*%
X305100000Y-122450000D03*
%TD*%
%TO.P,MX2,1,COL*%
%TO.N,Net-(J1-Pin_1)*%
X48100000Y-54700000D03*
%TO.P,MX2,2,ROW*%
%TO.N,/15*%
X55100000Y-55750000D03*
%TD*%
D13*
%TO.P,R2,1*%
%TO.N,Net-(J2-Pin_3)*%
X350500000Y-125000000D03*
%TO.P,R2,2*%
%TO.N,Net-(D4-A)*%
X350500000Y-123000000D03*
%TD*%
D12*
%TO.P,MX19,1,COL*%
%TO.N,Net-(J1-Pin_1)*%
X105100000Y-54700000D03*
%TO.P,MX19,2,ROW*%
%TO.N,/18*%
X112100000Y-55750000D03*
%TD*%
%TO.P,MX75,1,COL*%
%TO.N,/2*%
X321850000Y-140500000D03*
%TO.P,MX75,2,ROW*%
%TO.N,/29*%
X328850000Y-141550000D03*
%TD*%
%TO.P,MX74,1,COL*%
%TO.N,Net-(J1-Pin_1)*%
X339100000Y-54700000D03*
%TO.P,MX74,2,ROW*%
%TO.N,/29*%
X346100000Y-55750000D03*
%TD*%
%TO.P,MX47,1,COL*%
%TO.N,/2*%
X207600000Y-83200000D03*
%TO.P,MX47,2,ROW*%
%TO.N,/23*%
X214600000Y-84250000D03*
%TD*%
%TO.P,MX22,1,COL*%
%TO.N,Net-(J1-Pin_5)*%
X127100000Y-121400000D03*
%TO.P,MX22,2,ROW*%
%TO.N,/18*%
X134100000Y-122450000D03*
%TD*%
%TO.P,MX77,1,COL*%
%TO.N,Net-(J1-Pin_5)*%
X340850000Y-159600000D03*
%TO.P,MX77,2,ROW*%
%TO.N,/29*%
X347850000Y-160650000D03*
%TD*%
D19*
%TO.P,U1,1*%
%TO.N,CAPS_GND*%
X340500000Y-107500000D03*
%TO.P,U1,2,GND*%
%TO.N,Net-(D4-K)*%
X340500000Y-108450000D03*
%TO.P,U1,3*%
%TO.N,Net-(D1-K)*%
X340500000Y-109400000D03*
%TO.P,U1,4*%
%TO.N,Net-(D3-K)*%
X342775000Y-109400000D03*
%TO.P,U1,5,VCC*%
%TO.N,Net-(J2-Pin_2)*%
X342775000Y-108450000D03*
%TO.P,U1,6*%
%TO.N,Net-(D1-K)*%
X342775000Y-107500000D03*
%TD*%
D12*
%TO.P,MX45,1,COL*%
%TO.N,/7*%
X212350000Y-140500000D03*
%TO.P,MX45,2,ROW*%
%TO.N,/22*%
X219350000Y-141550000D03*
%TD*%
%TO.P,MX28,1,COL*%
%TO.N,Net-(J1-Pin_5)*%
X146100000Y-121400000D03*
%TO.P,MX28,2,ROW*%
%TO.N,/19*%
X153100000Y-122450000D03*
%TD*%
D16*
%TO.P,D1,1,K*%
%TO.N,Net-(D1-K)*%
X346463297Y-99688098D03*
%TO.P,D1,2,A*%
%TO.N,Net-(D1-A)*%
X346463297Y-97813098D03*
%TD*%
D12*
%TO.P,MX64,1,COL*%
%TO.N,Net-(J1-Pin_1)*%
X281600000Y-54700000D03*
%TO.P,MX64,2,ROW*%
%TO.N,/27*%
X288600000Y-55750000D03*
%TD*%
%TO.P,MX6,1,COL*%
%TO.N,/7*%
X79350000Y-140500000D03*
%TO.P,MX6,2,ROW*%
%TO.N,/15*%
X86350000Y-141550000D03*
%TD*%
%TO.P,MX39,1,COL*%
%TO.N,/3*%
X179350000Y-102300000D03*
%TO.P,MX39,2,ROW*%
%TO.N,/21*%
X186350000Y-103350000D03*
%TD*%
%TO.P,MX11,1,COL*%
%TO.N,/7*%
X98350000Y-140500000D03*
%TO.P,MX11,2,ROW*%
%TO.N,/16*%
X105350000Y-141550000D03*
%TD*%
%TO.P,MX54,1,COL*%
%TO.N,/7*%
X250350000Y-140500000D03*
%TO.P,MX54,2,ROW*%
%TO.N,/24*%
X257350000Y-141550000D03*
%TD*%
%TO.P,MX17,1,COL*%
%TO.N,/7*%
X117350000Y-140500000D03*
%TO.P,MX17,2,ROW*%
%TO.N,/17*%
X124350000Y-141550000D03*
%TD*%
%TO.P,MX35,1,COL*%
%TO.N,/7*%
X174350000Y-140500000D03*
%TO.P,MX35,2,ROW*%
%TO.N,/20*%
X181350000Y-141550000D03*
%TD*%
%TO.P,MX51,1,COL*%
%TO.N,/2*%
X226600000Y-83200000D03*
%TO.P,MX51,2,ROW*%
%TO.N,/24*%
X233600000Y-84250000D03*
%TD*%
D20*
%TO.P,J1,1,Pin_1*%
%TO.N,Net-(J1-Pin_1)*%
X162250000Y-63750000D03*
%TO.P,J1,2,Pin_2*%
%TO.N,/2*%
X163500000Y-66250000D03*
%TO.P,J1,3,Pin_3*%
%TO.N,/3*%
X164750000Y-63750000D03*
%TO.P,J1,4,Pin_4*%
%TO.N,CAPS_GND*%
X166000000Y-66250000D03*
%TO.P,J1,5,Pin_5*%
%TO.N,Net-(J1-Pin_5)*%
X167250000Y-63750000D03*
%TO.P,J1,6,Pin_6*%
%TO.N,/6*%
X168500000Y-66250000D03*
%TO.P,J1,7,Pin_7*%
%TO.N,/7*%
X169750000Y-63750000D03*
%TO.P,J1,8,Pin_8*%
%TO.N,/8*%
X171000000Y-66250000D03*
%TO.P,J1,9,Pin_9*%
%TO.N,VCC*%
X172250000Y-63750000D03*
%TO.P,J1,10,Pin_10*%
%TO.N,/10*%
X173500000Y-66250000D03*
%TO.P,J1,11,Pin_11*%
%TO.N,/11*%
X174750000Y-63750000D03*
%TO.P,J1,12,Pin_12*%
%TO.N,/12*%
X176000000Y-66250000D03*
%TO.P,J1,13,Pin_13*%
%TO.N,/13*%
X177250000Y-63750000D03*
%TO.P,J1,14,Pin_14*%
%TO.N,/14*%
X178500000Y-66250000D03*
%TO.P,J1,15,Pin_15*%
%TO.N,/15*%
X179750000Y-63750000D03*
%TO.P,J1,16,Pin_16*%
%TO.N,/16*%
X181000000Y-66250000D03*
%TO.P,J1,17,Pin_17*%
%TO.N,/17*%
X182250000Y-63750000D03*
%TO.P,J1,18,Pin_18*%
%TO.N,/18*%
X183500000Y-66250000D03*
%TO.P,J1,19,Pin_19*%
%TO.N,/19*%
X184750000Y-63750000D03*
%TO.P,J1,20,Pin_20*%
%TO.N,/20*%
X186000000Y-66250000D03*
%TO.P,J1,21,Pin_21*%
%TO.N,/21*%
X187250000Y-63750000D03*
%TO.P,J1,22,Pin_22*%
%TO.N,/22*%
X188500000Y-66250000D03*
%TO.P,J1,23,Pin_23*%
%TO.N,/23*%
X189750000Y-63750000D03*
%TO.P,J1,24,Pin_24*%
%TO.N,/24*%
X191000000Y-66250000D03*
%TO.P,J1,25,Pin_25*%
%TO.N,/25*%
X192250000Y-63750000D03*
%TO.P,J1,26,Pin_26*%
%TO.N,/26*%
X193500000Y-66250000D03*
%TO.P,J1,27,Pin_27*%
%TO.N,/27*%
X194750000Y-63750000D03*
%TO.P,J1,28,Pin_28*%
%TO.N,/28*%
X196000000Y-66250000D03*
%TO.P,J1,29,Pin_29*%
%TO.N,/29*%
X197250000Y-63750000D03*
%TO.P,J1,30,Pin_30*%
%TO.N,/30*%
X198500000Y-66250000D03*
%TO.P,J1,31,Pin_31*%
%TO.N,unconnected-(J1-Pin_31-Pad31)*%
X199750000Y-63750000D03*
%TO.P,J1,32,Pin_32*%
%TO.N,unconnected-(J1-Pin_32-Pad32)*%
X201000000Y-66250000D03*
%TD*%
D21*
%TO.N,/30*%
X281000000Y-65000000D03*
X284000000Y-140500000D03*
%TO.N,/6*%
X172000000Y-86000000D03*
X289000000Y-86000000D03*
%TO.N,Net-(J1-Pin_1)*%
X162128487Y-53515826D03*
%TO.N,/3*%
X307000000Y-106000000D03*
%TO.N,/7*%
X322000000Y-144000000D03*
X314000000Y-83000000D03*
X201985474Y-139348605D03*
%TO.N,/8*%
X203000000Y-144000000D03*
X291000000Y-145000000D03*
%TO.N,/16*%
X83000000Y-68000000D03*
%TO.N,/2*%
X308000000Y-140000000D03*
%TO.N,/10*%
X204000000Y-143000000D03*
X269000000Y-143000000D03*
%TO.N,/17*%
X101000000Y-69000000D03*
%TO.N,/11*%
X50000000Y-63000000D03*
%TO.N,/18*%
X112000000Y-70000000D03*
%TO.N,/12*%
X50000000Y-66000000D03*
%TO.N,/19*%
X174000000Y-58000000D03*
%TO.N,/13*%
X51000000Y-62000000D03*
%TO.N,/20*%
X149000000Y-86000000D03*
%TO.N,/14*%
X75000000Y-67000000D03*
%TO.N,/21*%
X184000000Y-84000000D03*
%TO.N,/23*%
X216000000Y-61000000D03*
%TO.N,/24*%
X234000000Y-68000000D03*
%TO.N,/25*%
X241000000Y-62000000D03*
%TO.N,/26*%
X265000000Y-67000000D03*
%TO.N,/27*%
X285000000Y-63000000D03*
X222000000Y-161000000D03*
%TO.N,/28*%
X313000000Y-66000000D03*
%TO.N,/29*%
X338000000Y-64000000D03*
%TO.N,Net-(J1-Pin_5)*%
X335000000Y-123000000D03*
D22*
%TO.N,Net-(D3-K)*%
X345500000Y-110500000D03*
X343500000Y-110500000D03*
%TO.N,Net-(D1-K)*%
X343500000Y-103000000D03*
X343500000Y-106500000D03*
D21*
%TO.N,VCC*%
X70000000Y-64000000D03*
X77000000Y-109000000D03*
D22*
%TO.N,CAPS_GND*%
X166000000Y-46000000D03*
X350000000Y-46000000D03*
D21*
X78000000Y-111000000D03*
X350000000Y-46000000D03*
X71000000Y-65000000D03*
X338000000Y-104000000D03*
%TD*%
D23*
%TO.N,Net-(D4-K)*%
X338500000Y-117500000D02*
X344315996Y-117500000D01*
X344315996Y-117500000D02*
X344586849Y-117770853D01*
X337500000Y-116500000D02*
X338500000Y-117500000D01*
X337500000Y-114000000D02*
X337500000Y-116500000D01*
X338000000Y-113500000D02*
X337500000Y-114000000D01*
X339000000Y-113500000D02*
X338000000Y-113500000D01*
%TO.N,Net-(D3-K)*%
X339000000Y-115500000D02*
X339500000Y-115500000D01*
X339500000Y-115500000D02*
X341612500Y-113387500D01*
%TO.N,Net-(D4-K)*%
X340425000Y-112075000D02*
X339000000Y-113500000D01*
X340425000Y-111500000D02*
X340425000Y-112075000D01*
%TO.N,Net-(D5-A)*%
X347538141Y-136961859D02*
X348500000Y-136000000D01*
X348500000Y-136000000D02*
X348500000Y-131500000D01*
X346375000Y-136961859D02*
X347538141Y-136961859D01*
%TO.N,Net-(J2-Pin_2)*%
X355050000Y-137530000D02*
X353500000Y-139080000D01*
X355050000Y-132550000D02*
X355050000Y-137530000D01*
X352000000Y-129500000D02*
X355050000Y-132550000D01*
X352000000Y-119500000D02*
X352000000Y-129500000D01*
X342500000Y-114500000D02*
X344000000Y-116000000D01*
X344000000Y-116000000D02*
X348500000Y-116000000D01*
X348500000Y-116000000D02*
X352000000Y-119500000D01*
X342500000Y-111500000D02*
X342500000Y-114500000D01*
%TO.N,Net-(D4-K)*%
X344500000Y-136961859D02*
X344500000Y-117857702D01*
X344500000Y-117857702D02*
X344586849Y-117770853D01*
X346120000Y-141620000D02*
X353500000Y-141620000D01*
X344500000Y-140000000D02*
X346120000Y-141620000D01*
X344500000Y-136961859D02*
X344500000Y-140000000D01*
%TO.N,Net-(J2-Pin_2)*%
X343348529Y-111500000D02*
X342500000Y-111500000D01*
X344000000Y-108500000D02*
X344500000Y-109000000D01*
X344500000Y-109000000D02*
X344500000Y-110348529D01*
X344000000Y-108450000D02*
X344000000Y-108500000D01*
X344000000Y-108450000D02*
X343437499Y-108450000D01*
X344050000Y-108450000D02*
X344000000Y-108450000D01*
X344500000Y-110348529D02*
X343348529Y-111500000D01*
%TO.N,Net-(J2-Pin_3)*%
X350500000Y-129000000D02*
X350500000Y-125000000D01*
X354650000Y-133150000D02*
X350500000Y-129000000D01*
X354650000Y-135390000D02*
X354650000Y-133150000D01*
X353500000Y-136540000D02*
X354650000Y-135390000D01*
%TO.N,Net-(J2-Pin_4)*%
X351000000Y-131500000D02*
X350500000Y-131500000D01*
X353500000Y-134000000D02*
X351000000Y-131500000D01*
D24*
%TO.N,/30*%
X80550000Y-162150000D02*
X83100000Y-159600000D01*
X261850000Y-157973655D02*
X261850000Y-159600000D01*
X61150000Y-162150000D02*
X80550000Y-162150000D01*
X86971930Y-159600000D02*
X101571930Y-145000000D01*
X83100000Y-159600000D02*
X86971930Y-159600000D01*
X101571930Y-145000000D02*
X248876345Y-145000000D01*
X58600000Y-159600000D02*
X61150000Y-162150000D01*
X199888000Y-64862000D02*
X280862000Y-64862000D01*
X198500000Y-66250000D02*
X199888000Y-64862000D01*
X280862000Y-64862000D02*
X281000000Y-65000000D01*
X261850000Y-159600000D02*
X264400000Y-162150000D01*
X295600000Y-140500000D02*
X284000000Y-140500000D01*
X281300000Y-162150000D02*
X283850000Y-159600000D01*
X248876345Y-145000000D02*
X261850000Y-157973655D01*
X264400000Y-162150000D02*
X281300000Y-162150000D01*
%TO.N,/6*%
X172000000Y-86000000D02*
X289000000Y-86000000D01*
%TO.N,/15*%
X58350000Y-59000000D02*
X55100000Y-55750000D01*
X179750000Y-63750000D02*
X175000000Y-59000000D01*
X175000000Y-59000000D02*
X58350000Y-59000000D01*
%TO.N,Net-(J1-Pin_1)*%
X178250000Y-53550000D02*
X177100000Y-54700000D01*
X233600000Y-54700000D02*
X232450000Y-53550000D01*
X256450000Y-53550000D02*
X234750000Y-53550000D01*
X304450000Y-53550000D02*
X282750000Y-53550000D01*
X306750000Y-53550000D02*
X305600000Y-54700000D01*
X162094313Y-53550000D02*
X154250000Y-53550000D01*
X282750000Y-53550000D02*
X281600000Y-54700000D01*
X162162661Y-53550000D02*
X162128487Y-53515826D01*
X162128487Y-53515826D02*
X162094313Y-53550000D01*
X281600000Y-54700000D02*
X280450000Y-53550000D01*
X129100000Y-54700000D02*
X127950000Y-53550000D01*
X208450000Y-53550000D02*
X178250000Y-53550000D01*
X209600000Y-54700000D02*
X208450000Y-53550000D01*
X103950000Y-53550000D02*
X82250000Y-53550000D01*
X130250000Y-53550000D02*
X129100000Y-54700000D01*
X339100000Y-54700000D02*
X337950000Y-53550000D01*
X105100000Y-54700000D02*
X103950000Y-53550000D01*
X210750000Y-53550000D02*
X209600000Y-54700000D01*
X81100000Y-54700000D02*
X79950000Y-53550000D01*
X49250000Y-53550000D02*
X48100000Y-54700000D01*
X305600000Y-54700000D02*
X304450000Y-53550000D01*
X106250000Y-53550000D02*
X105100000Y-54700000D01*
X258750000Y-53550000D02*
X257600000Y-54700000D01*
X127950000Y-53550000D02*
X106250000Y-53550000D01*
X79950000Y-53550000D02*
X49250000Y-53550000D01*
X151950000Y-53550000D02*
X130250000Y-53550000D01*
X82250000Y-53550000D02*
X81100000Y-54700000D01*
X280450000Y-53550000D02*
X258750000Y-53550000D01*
X257600000Y-54700000D02*
X256450000Y-53550000D01*
X234750000Y-53550000D02*
X233600000Y-54700000D01*
X177100000Y-54700000D02*
X175950000Y-53550000D01*
X175950000Y-53550000D02*
X162162661Y-53550000D01*
X232450000Y-53550000D02*
X210750000Y-53550000D01*
X154250000Y-53550000D02*
X153100000Y-54700000D01*
X337950000Y-53550000D02*
X306750000Y-53550000D01*
X153100000Y-54700000D02*
X151950000Y-53550000D01*
%TO.N,/3*%
X270800000Y-106000000D02*
X274350000Y-102450000D01*
X156650000Y-106000000D02*
X160350000Y-102300000D01*
X259050000Y-106000000D02*
X270800000Y-106000000D01*
X137650000Y-106000000D02*
X141350000Y-102300000D01*
X99650000Y-106000000D02*
X103350000Y-102300000D01*
X164000000Y-106000000D02*
X175650000Y-106000000D01*
X88000000Y-105950000D02*
X88000000Y-106000000D01*
X126050000Y-106000000D02*
X137650000Y-106000000D01*
X217350000Y-102300000D02*
X221050000Y-106000000D01*
X232650000Y-106000000D02*
X236350000Y-102300000D01*
X160350000Y-102300000D02*
X164000000Y-105950000D01*
X88000000Y-106000000D02*
X99650000Y-106000000D01*
X289796569Y-106000000D02*
X293350000Y-102446569D01*
X55600000Y-102300000D02*
X60550000Y-107250000D01*
X274350000Y-102450000D02*
X277900000Y-106000000D01*
X277900000Y-106000000D02*
X289796569Y-106000000D01*
X60550000Y-107250000D02*
X79400000Y-107250000D01*
X322675000Y-111675000D02*
X317000000Y-106000000D01*
X240050000Y-106000000D02*
X251650000Y-106000000D01*
X194650000Y-106000000D02*
X198350000Y-102300000D01*
X84350000Y-102300000D02*
X88000000Y-105950000D01*
X79400000Y-107250000D02*
X84350000Y-102300000D01*
X164000000Y-105950000D02*
X164000000Y-106000000D01*
X296903431Y-106000000D02*
X293350000Y-102446569D01*
X179350000Y-102300000D02*
X183050000Y-106000000D01*
X141350000Y-102300000D02*
X145050000Y-106000000D01*
X175650000Y-106000000D02*
X179350000Y-102300000D01*
X145050000Y-106000000D02*
X156650000Y-106000000D01*
X202050000Y-106000000D02*
X213650000Y-106000000D01*
X198350000Y-102300000D02*
X202050000Y-106000000D01*
X122350000Y-102300000D02*
X126050000Y-106000000D01*
X183050000Y-106000000D02*
X194650000Y-106000000D01*
X328675000Y-111675000D02*
X322675000Y-111675000D01*
X118650000Y-106000000D02*
X122350000Y-102300000D01*
X317000000Y-106000000D02*
X296903431Y-106000000D01*
X103350000Y-102300000D02*
X107050000Y-106000000D01*
X213650000Y-106000000D02*
X217350000Y-102300000D01*
X255350000Y-102300000D02*
X259050000Y-106000000D01*
X251650000Y-106000000D02*
X255350000Y-102300000D01*
X221050000Y-106000000D02*
X232650000Y-106000000D01*
X236350000Y-102300000D02*
X240050000Y-106000000D01*
X107050000Y-106000000D02*
X118650000Y-106000000D01*
%TO.N,/7*%
X118500000Y-139350000D02*
X117350000Y-140500000D01*
X99500000Y-139350000D02*
X98350000Y-140500000D01*
X116200000Y-139350000D02*
X99500000Y-139350000D01*
X175500000Y-139350000D02*
X174350000Y-140500000D01*
X98350000Y-140500000D02*
X97200000Y-139350000D01*
X250350000Y-140500000D02*
X249200000Y-139350000D01*
X232500000Y-139350000D02*
X231350000Y-140500000D01*
X211200000Y-139350000D02*
X201986869Y-139350000D01*
X193350000Y-140500000D02*
X192200000Y-139350000D01*
X201984079Y-139350000D02*
X194500000Y-139350000D01*
X201985474Y-139348605D02*
X201984079Y-139350000D01*
X192200000Y-139350000D02*
X175500000Y-139350000D01*
X268200000Y-139350000D02*
X251500000Y-139350000D01*
X155350000Y-140500000D02*
X154200000Y-139350000D01*
X272850000Y-144000000D02*
X322000000Y-144000000D01*
X136350000Y-140500000D02*
X135200000Y-139350000D01*
X249200000Y-139350000D02*
X232500000Y-139350000D01*
X80500000Y-139350000D02*
X79350000Y-140500000D01*
X137500000Y-139350000D02*
X136350000Y-140500000D01*
X212350000Y-140500000D02*
X211200000Y-139350000D01*
X251500000Y-139350000D02*
X250350000Y-140500000D01*
X97200000Y-139350000D02*
X80500000Y-139350000D01*
X269350000Y-140500000D02*
X268200000Y-139350000D01*
X230200000Y-139350000D02*
X213500000Y-139350000D01*
X213500000Y-139350000D02*
X212350000Y-140500000D01*
X156500000Y-139350000D02*
X155350000Y-140500000D01*
X173200000Y-139350000D02*
X156500000Y-139350000D01*
X321600000Y-83200000D02*
X314200000Y-83200000D01*
X269350000Y-140500000D02*
X272850000Y-144000000D01*
X231350000Y-140500000D02*
X230200000Y-139350000D01*
X201986869Y-139350000D02*
X201985474Y-139348605D01*
X117350000Y-140500000D02*
X116200000Y-139350000D01*
X154200000Y-139350000D02*
X137500000Y-139350000D01*
X174350000Y-140500000D02*
X173200000Y-139350000D01*
X194500000Y-139350000D02*
X193350000Y-140500000D01*
X314200000Y-83200000D02*
X314000000Y-83000000D01*
X135200000Y-139350000D02*
X118500000Y-139350000D01*
%TO.N,/8*%
X203000000Y-144000000D02*
X268000000Y-144000000D01*
X268000000Y-144000000D02*
X269000000Y-145000000D01*
X269000000Y-145000000D02*
X272000000Y-145000000D01*
X273000000Y-145000000D02*
X291000000Y-145000000D01*
X272000000Y-145000000D02*
X273000000Y-145000000D01*
%TO.N,/16*%
X152000000Y-68000000D02*
X83000000Y-68000000D01*
X167000000Y-71000000D02*
X156000000Y-71000000D01*
X174000000Y-70000000D02*
X168000000Y-70000000D01*
X156000000Y-71000000D02*
X153000000Y-68000000D01*
X177250000Y-70000000D02*
X174000000Y-70000000D01*
X153000000Y-68000000D02*
X152000000Y-68000000D01*
X168000000Y-70000000D02*
X167000000Y-71000000D01*
X181000000Y-66250000D02*
X177250000Y-70000000D01*
%TO.N,/2*%
X308500000Y-140500000D02*
X308000000Y-140000000D01*
X226150000Y-82750000D02*
X208050000Y-82750000D01*
X75750000Y-82050000D02*
X92450000Y-82050000D01*
X132050000Y-82750000D02*
X131600000Y-83200000D01*
X74600000Y-83200000D02*
X75750000Y-82050000D01*
X168450000Y-82050000D02*
X151750000Y-82050000D01*
X226600000Y-83200000D02*
X226150000Y-82750000D01*
X208050000Y-82750000D02*
X207600000Y-83200000D01*
X111450000Y-82050000D02*
X94750000Y-82050000D01*
X74600000Y-83200000D02*
X73450000Y-82050000D01*
X301450000Y-82050000D02*
X284750000Y-82050000D01*
X246750000Y-82050000D02*
X245600000Y-83200000D01*
X92450000Y-82050000D02*
X93600000Y-83200000D01*
X150150000Y-82750000D02*
X132050000Y-82750000D01*
X169600000Y-83200000D02*
X168450000Y-82050000D01*
X73450000Y-82050000D02*
X51750000Y-82050000D01*
X282450000Y-82050000D02*
X265750000Y-82050000D01*
X206450000Y-82050000D02*
X189750000Y-82050000D01*
X151750000Y-82050000D02*
X150600000Y-83200000D01*
X188200000Y-83200000D02*
X187750000Y-82750000D01*
X244450000Y-82050000D02*
X227750000Y-82050000D01*
X245600000Y-83200000D02*
X244450000Y-82050000D01*
X283600000Y-83200000D02*
X282450000Y-82050000D01*
X113050000Y-82750000D02*
X112600000Y-83200000D01*
X284750000Y-82050000D02*
X283600000Y-83200000D01*
X188600000Y-83200000D02*
X188200000Y-83200000D01*
X302600000Y-83200000D02*
X301450000Y-82050000D01*
X264600000Y-83200000D02*
X263450000Y-82050000D01*
X131150000Y-82750000D02*
X113050000Y-82750000D01*
X131600000Y-83200000D02*
X131150000Y-82750000D01*
X263450000Y-82050000D02*
X246750000Y-82050000D01*
X94750000Y-82050000D02*
X93600000Y-83200000D01*
X51750000Y-82050000D02*
X50600000Y-83200000D01*
X207600000Y-83200000D02*
X206450000Y-82050000D01*
X321850000Y-140500000D02*
X308500000Y-140500000D01*
X170050000Y-82750000D02*
X169600000Y-83200000D01*
X227750000Y-82050000D02*
X226600000Y-83200000D01*
X187750000Y-82750000D02*
X170050000Y-82750000D01*
X112600000Y-83200000D02*
X111450000Y-82050000D01*
X265750000Y-82050000D02*
X264600000Y-83200000D01*
X150600000Y-83200000D02*
X150150000Y-82750000D01*
X189750000Y-82050000D02*
X188600000Y-83200000D01*
%TO.N,/10*%
X204050000Y-143050000D02*
X269000000Y-143000000D01*
X204000000Y-143000000D02*
X204050000Y-143050000D01*
X269000000Y-143000000D02*
X268950000Y-143050000D01*
%TO.N,/17*%
X182250000Y-67750000D02*
X179000000Y-71000000D01*
X182250000Y-63750000D02*
X182250000Y-67750000D01*
X168000000Y-72000000D02*
X155000000Y-72000000D01*
X152000000Y-69000000D02*
X101000000Y-69000000D01*
X169000000Y-71000000D02*
X168000000Y-72000000D01*
X155000000Y-72000000D02*
X152000000Y-69000000D01*
X179000000Y-71000000D02*
X169000000Y-71000000D01*
%TO.N,/11*%
X158000000Y-63000000D02*
X160000000Y-61000000D01*
X50000000Y-63000000D02*
X158000000Y-63000000D01*
X160000000Y-61000000D02*
X172000000Y-61000000D01*
X172000000Y-61000000D02*
X174750000Y-63750000D01*
%TO.N,/18*%
X151000000Y-70000000D02*
X112000000Y-70000000D01*
X183500000Y-66250000D02*
X183500000Y-69500000D01*
X183500000Y-69500000D02*
X182000000Y-71000000D01*
X169000000Y-73000000D02*
X168000000Y-73000000D01*
X170000000Y-72000000D02*
X169000000Y-73000000D01*
X154000000Y-73000000D02*
X151000000Y-70000000D01*
X175000000Y-72000000D02*
X170000000Y-72000000D01*
X181000000Y-72000000D02*
X175000000Y-72000000D01*
X168000000Y-73000000D02*
X155000000Y-73000000D01*
X155000000Y-73000000D02*
X154000000Y-73000000D01*
X182000000Y-71000000D02*
X181000000Y-72000000D01*
%TO.N,/12*%
X155000000Y-66000000D02*
X158000000Y-69000000D01*
X158000000Y-69000000D02*
X165000000Y-69000000D01*
X50000000Y-66000000D02*
X155000000Y-66000000D01*
X174250000Y-68000000D02*
X176000000Y-66250000D01*
X165000000Y-69000000D02*
X166000000Y-68000000D01*
X166000000Y-68000000D02*
X174250000Y-68000000D01*
%TO.N,/19*%
X138350000Y-58000000D02*
X136100000Y-55750000D01*
X174000000Y-58000000D02*
X138350000Y-58000000D01*
%TO.N,/13*%
X157000000Y-62000000D02*
X156000000Y-62000000D01*
X173500000Y-60000000D02*
X172000000Y-60000000D01*
X159000000Y-60000000D02*
X157000000Y-62000000D01*
X92000000Y-62000000D02*
X51000000Y-62000000D01*
X172000000Y-60000000D02*
X159000000Y-60000000D01*
X177250000Y-63750000D02*
X173500000Y-60000000D01*
X156000000Y-62000000D02*
X92000000Y-62000000D01*
%TO.N,/20*%
X176000000Y-57000000D02*
X181000000Y-57000000D01*
X160100000Y-55750000D02*
X174750000Y-55750000D01*
X181000000Y-57000000D02*
X186000000Y-62000000D01*
X157600000Y-84250000D02*
X155850000Y-86000000D01*
X186000000Y-62000000D02*
X186000000Y-66250000D01*
X174750000Y-55750000D02*
X176000000Y-57000000D01*
X155850000Y-86000000D02*
X149000000Y-86000000D01*
%TO.N,/14*%
X178500000Y-66250000D02*
X175750000Y-69000000D01*
X154000000Y-67000000D02*
X152000000Y-67000000D01*
X155000000Y-68000000D02*
X154000000Y-67000000D01*
X157000000Y-70000000D02*
X155000000Y-68000000D01*
X167000000Y-69000000D02*
X166000000Y-70000000D01*
X151000000Y-67000000D02*
X75000000Y-67000000D01*
X166000000Y-70000000D02*
X160000000Y-70000000D01*
X169000000Y-69000000D02*
X167000000Y-69000000D01*
X175750000Y-69000000D02*
X169000000Y-69000000D01*
X160000000Y-70000000D02*
X157000000Y-70000000D01*
X152000000Y-67000000D02*
X151000000Y-67000000D01*
%TO.N,/21*%
X176600000Y-84250000D02*
X183750000Y-84250000D01*
X183750000Y-84250000D02*
X184000000Y-84000000D01*
%TO.N,/23*%
X206000000Y-61000000D02*
X207000000Y-61000000D01*
X204000000Y-59000000D02*
X206000000Y-61000000D01*
X194500000Y-59000000D02*
X197000000Y-59000000D01*
X207000000Y-61000000D02*
X216000000Y-61000000D01*
X189750000Y-63750000D02*
X194500000Y-59000000D01*
X197000000Y-59000000D02*
X204000000Y-59000000D01*
%TO.N,/24*%
X191000000Y-66250000D02*
X194750000Y-70000000D01*
X206000000Y-68000000D02*
X234000000Y-68000000D01*
X204000000Y-70000000D02*
X206000000Y-68000000D01*
X198000000Y-70000000D02*
X204000000Y-70000000D01*
X194750000Y-70000000D02*
X198000000Y-70000000D01*
%TO.N,/25*%
X197000000Y-60000000D02*
X203000000Y-60000000D01*
X203000000Y-60000000D02*
X205000000Y-62000000D01*
X205000000Y-62000000D02*
X241000000Y-62000000D01*
X196000000Y-60000000D02*
X197000000Y-60000000D01*
X192250000Y-63750000D02*
X196000000Y-60000000D01*
%TO.N,/26*%
X196250000Y-69000000D02*
X200000000Y-69000000D01*
X206000000Y-67000000D02*
X265000000Y-67000000D01*
X193500000Y-66250000D02*
X196250000Y-69000000D01*
X205000000Y-67000000D02*
X206000000Y-67000000D01*
X203000000Y-69000000D02*
X205000000Y-67000000D01*
X200000000Y-69000000D02*
X203000000Y-69000000D01*
%TO.N,/27*%
X179451750Y-160725000D02*
X221725000Y-160725000D01*
X200000000Y-61000000D02*
X202000000Y-61000000D01*
X204000000Y-63000000D02*
X285000000Y-63000000D01*
X197500000Y-61000000D02*
X200000000Y-61000000D01*
X194750000Y-63750000D02*
X197500000Y-61000000D01*
X202000000Y-61000000D02*
X204000000Y-63000000D01*
X221725000Y-160725000D02*
X222000000Y-161000000D01*
%TO.N,/28*%
X204000000Y-66000000D02*
X313000000Y-66000000D01*
X345050000Y-81700000D02*
X331150000Y-81700000D01*
X196000000Y-66250000D02*
X197750000Y-68000000D01*
X203000000Y-67000000D02*
X204000000Y-66000000D01*
X347600000Y-84250000D02*
X345050000Y-81700000D01*
X312150000Y-81700000D02*
X309600000Y-84250000D01*
X331150000Y-81700000D02*
X328600000Y-84250000D01*
X202000000Y-68000000D02*
X203000000Y-67000000D01*
X328600000Y-84250000D02*
X326050000Y-81700000D01*
X197750000Y-68000000D02*
X202000000Y-68000000D01*
X326050000Y-81700000D02*
X312150000Y-81700000D01*
%TO.N,/29*%
X311000000Y-161800000D02*
X309850000Y-160650000D01*
X330000000Y-161800000D02*
X328850000Y-160650000D01*
X327700000Y-161800000D02*
X311000000Y-161800000D01*
X200000000Y-62000000D02*
X201000000Y-62000000D01*
X346700000Y-161800000D02*
X330000000Y-161800000D01*
X328850000Y-160650000D02*
X327700000Y-161800000D01*
X347850000Y-160650000D02*
X346700000Y-161800000D01*
X197250000Y-63750000D02*
X198362000Y-62638000D01*
X198362000Y-62638000D02*
X199000000Y-62000000D01*
X201000000Y-62000000D02*
X203000000Y-64000000D01*
X204000000Y-64000000D02*
X338000000Y-64000000D01*
X203000000Y-64000000D02*
X204000000Y-64000000D01*
X199000000Y-62000000D02*
X200000000Y-62000000D01*
D23*
%TO.N,Net-(D1-A)*%
X347000000Y-97276395D02*
X347000000Y-92500000D01*
X346463297Y-97813098D02*
X347000000Y-97276395D01*
D24*
%TO.N,Net-(J1-Pin_5)*%
X127100000Y-121400000D02*
X128250000Y-120250000D01*
X280250000Y-120250000D02*
X296950000Y-120250000D01*
X182950000Y-120250000D02*
X184100000Y-121400000D01*
X146100000Y-121400000D02*
X147250000Y-120250000D01*
X261250000Y-120250000D02*
X277950000Y-120250000D01*
X308250000Y-120250000D02*
X309000000Y-121000000D01*
X70100000Y-121400000D02*
X71250000Y-120250000D01*
X203100000Y-121400000D02*
X204250000Y-120250000D01*
X260100000Y-121400000D02*
X261250000Y-120250000D01*
X279100000Y-121400000D02*
X280250000Y-120250000D01*
X184100000Y-121400000D02*
X185250000Y-120250000D01*
X241100000Y-121400000D02*
X242250000Y-120250000D01*
X239950000Y-120250000D02*
X241100000Y-121400000D01*
X222100000Y-121400000D02*
X223250000Y-120250000D01*
X71250000Y-120250000D02*
X87950000Y-120250000D01*
X89100000Y-121400000D02*
X90250000Y-120250000D01*
X258950000Y-120250000D02*
X260100000Y-121400000D01*
X144950000Y-120250000D02*
X146100000Y-121400000D01*
X90250000Y-120250000D02*
X106950000Y-120250000D01*
X109250000Y-120250000D02*
X125950000Y-120250000D01*
X298100000Y-121400000D02*
X299250000Y-120250000D01*
X204250000Y-120250000D02*
X220950000Y-120250000D01*
X223250000Y-120250000D02*
X239950000Y-120250000D01*
X147250000Y-120250000D02*
X163950000Y-120250000D01*
X106950000Y-120250000D02*
X108100000Y-121400000D01*
X296950000Y-120250000D02*
X298100000Y-121400000D01*
X108100000Y-121400000D02*
X109250000Y-120250000D01*
X166250000Y-120250000D02*
X182950000Y-120250000D01*
X185250000Y-120250000D02*
X201950000Y-120250000D01*
X165100000Y-121400000D02*
X166250000Y-120250000D01*
X299250000Y-120250000D02*
X308250000Y-120250000D01*
X128250000Y-120250000D02*
X144950000Y-120250000D01*
X163950000Y-120250000D02*
X165100000Y-121400000D01*
X334000000Y-123000000D02*
X335000000Y-123000000D01*
X87950000Y-120250000D02*
X89100000Y-121400000D01*
X277950000Y-120250000D02*
X279100000Y-121400000D01*
X125950000Y-120250000D02*
X127100000Y-121400000D01*
X242250000Y-120250000D02*
X258950000Y-120250000D01*
X220950000Y-120250000D02*
X222100000Y-121400000D01*
X316000000Y-123000000D02*
X334000000Y-123000000D01*
X201950000Y-120250000D02*
X203100000Y-121400000D01*
X311000000Y-123000000D02*
X316000000Y-123000000D01*
X309000000Y-121000000D02*
X311000000Y-123000000D01*
D23*
%TO.N,Net-(D3-A)*%
X344551296Y-97813098D02*
X344000000Y-97261802D01*
X344000000Y-97261802D02*
X344000000Y-92500000D01*
%TO.N,Net-(D3-K)*%
X341927756Y-110475000D02*
X343475000Y-110475000D01*
X343500000Y-110125000D02*
X343500000Y-110500000D01*
X345500000Y-100636802D02*
X345500000Y-110500000D01*
X341612500Y-113387500D02*
X341612500Y-110790256D01*
X341612500Y-110790256D02*
X341927756Y-110475000D01*
X344551296Y-99688098D02*
X345500000Y-100636802D01*
X343475000Y-110475000D02*
X343500000Y-110500000D01*
X342775000Y-109400000D02*
X343500000Y-110125000D01*
%TO.N,Net-(D4-A)*%
X346461849Y-117770853D02*
X349270853Y-117770853D01*
X349270853Y-117770853D02*
X350500000Y-119000000D01*
X346461849Y-117770853D02*
X346476039Y-117756663D01*
X350500000Y-119000000D02*
X350500000Y-123000000D01*
%TO.N,Net-(D4-K)*%
X339550000Y-108450000D02*
X339000000Y-109000000D01*
X339000000Y-111000000D02*
X339500000Y-111500000D01*
X339000000Y-109000000D02*
X339000000Y-111000000D01*
X340500000Y-108450000D02*
X339550000Y-108450000D01*
X341162499Y-108450000D02*
X340500000Y-108450000D01*
X339500000Y-111500000D02*
X340425000Y-111500000D01*
%TO.N,Net-(D1-K)*%
X343000000Y-102500000D02*
X343500000Y-103000000D01*
X346463297Y-99688098D02*
X345675797Y-98900598D01*
X341562499Y-108050002D02*
X342112501Y-107500000D01*
X340500000Y-109400000D02*
X341162499Y-109400000D01*
X344000000Y-98900598D02*
X343599402Y-98900598D01*
X341162499Y-109400000D02*
X341562499Y-109000000D01*
X346775199Y-100000000D02*
X346463297Y-99688098D01*
X345675797Y-98900598D02*
X344000000Y-98900598D01*
X341562499Y-109000000D02*
X341562499Y-108050002D01*
X343599402Y-98900598D02*
X343000000Y-99500000D01*
X343000000Y-99500000D02*
X343000000Y-102500000D01*
X342775000Y-107500000D02*
X343500000Y-106775000D01*
X343500000Y-106775000D02*
X343500000Y-106500000D01*
X342112501Y-107500000D02*
X342775000Y-107500000D01*
D24*
%TO.N,VCC*%
X72946225Y-111534890D02*
X72946225Y-110053775D01*
X72946225Y-110053775D02*
X74000000Y-109000000D01*
X74000000Y-109000000D02*
X75000000Y-109000000D01*
X75000000Y-109000000D02*
X77000000Y-109000000D01*
X170500000Y-62000000D02*
X172250000Y-63750000D01*
X70000000Y-64000000D02*
X159000000Y-64000000D01*
X161000000Y-62000000D02*
X170500000Y-62000000D01*
X159000000Y-64000000D02*
X161000000Y-62000000D01*
%TO.N,CAPS_GND*%
X74821225Y-111534890D02*
X75356115Y-111000000D01*
X156000000Y-65000000D02*
X71000000Y-65000000D01*
X164250000Y-68000000D02*
X163000000Y-68000000D01*
X75356115Y-111000000D02*
X78000000Y-111000000D01*
X340500000Y-105500000D02*
X339500000Y-105500000D01*
X340500000Y-107500000D02*
X340500000Y-105500000D01*
X163000000Y-68000000D02*
X159000000Y-68000000D01*
X339500000Y-105500000D02*
X338000000Y-104000000D01*
X166000000Y-66250000D02*
X164250000Y-68000000D01*
X350000000Y-46000000D02*
X166000000Y-46000000D01*
X159000000Y-68000000D02*
X156000000Y-65000000D01*
D23*
%TO.N,Net-(J2-Pin_2)*%
X344000000Y-105500000D02*
X344500000Y-106000000D01*
X344500000Y-106000000D02*
X344500000Y-108000000D01*
X347000000Y-90500000D02*
X344000000Y-90500000D01*
X344500000Y-108000000D02*
X344050000Y-108450000D01*
X342500000Y-92000000D02*
X344000000Y-90500000D01*
X342500000Y-105500000D02*
X344000000Y-105500000D01*
X343437499Y-108450000D02*
X342775000Y-108450000D01*
X342500000Y-105500000D02*
X342500000Y-92000000D01*
%TD*%
M02*
