%TF.GenerationSoftware,KiCad,Pcbnew,8.0.3*%
%TF.CreationDate,2024-07-09T09:09:09+10:00*%
%TF.ProjectId,A600KBv2,41363030-4b42-4763-922e-6b696361645f,rev?*%
%TF.SameCoordinates,Original*%
%TF.FileFunction,Legend,Top*%
%TF.FilePolarity,Positive*%
%FSLAX46Y46*%
G04 Gerber Fmt 4.6, Leading zero omitted, Abs format (unit mm)*
G04 Created by KiCad (PCBNEW 8.0.3) date 2024-07-09 09:09:09*
%MOMM*%
%LPD*%
G01*
G04 APERTURE LIST*
%ADD10C,0.300000*%
%ADD11C,0.100000*%
%ADD12C,0.150000*%
%ADD13C,0.120000*%
G04 APERTURE END LIST*
D10*
X77054510Y-112300828D02*
X77054510Y-110800828D01*
X77911653Y-112300828D02*
X77268796Y-111443685D01*
X77911653Y-110800828D02*
X77054510Y-111657971D01*
X70483082Y-111872257D02*
X71197368Y-111872257D01*
X70340225Y-112300828D02*
X70840225Y-110800828D01*
X70840225Y-110800828D02*
X71340225Y-112300828D01*
D11*
X171875312Y-61777180D02*
X171827693Y-61824800D01*
X171827693Y-61824800D02*
X171684836Y-61872419D01*
X171684836Y-61872419D02*
X171589598Y-61872419D01*
X171589598Y-61872419D02*
X171446741Y-61824800D01*
X171446741Y-61824800D02*
X171351503Y-61729561D01*
X171351503Y-61729561D02*
X171303884Y-61634323D01*
X171303884Y-61634323D02*
X171256265Y-61443847D01*
X171256265Y-61443847D02*
X171256265Y-61300990D01*
X171256265Y-61300990D02*
X171303884Y-61110514D01*
X171303884Y-61110514D02*
X171351503Y-61015276D01*
X171351503Y-61015276D02*
X171446741Y-60920038D01*
X171446741Y-60920038D02*
X171589598Y-60872419D01*
X171589598Y-60872419D02*
X171684836Y-60872419D01*
X171684836Y-60872419D02*
X171827693Y-60920038D01*
X171827693Y-60920038D02*
X171875312Y-60967657D01*
X172494360Y-60872419D02*
X172684836Y-60872419D01*
X172684836Y-60872419D02*
X172780074Y-60920038D01*
X172780074Y-60920038D02*
X172875312Y-61015276D01*
X172875312Y-61015276D02*
X172922931Y-61205752D01*
X172922931Y-61205752D02*
X172922931Y-61539085D01*
X172922931Y-61539085D02*
X172875312Y-61729561D01*
X172875312Y-61729561D02*
X172780074Y-61824800D01*
X172780074Y-61824800D02*
X172684836Y-61872419D01*
X172684836Y-61872419D02*
X172494360Y-61872419D01*
X172494360Y-61872419D02*
X172399122Y-61824800D01*
X172399122Y-61824800D02*
X172303884Y-61729561D01*
X172303884Y-61729561D02*
X172256265Y-61539085D01*
X172256265Y-61539085D02*
X172256265Y-61205752D01*
X172256265Y-61205752D02*
X172303884Y-61015276D01*
X172303884Y-61015276D02*
X172399122Y-60920038D01*
X172399122Y-60920038D02*
X172494360Y-60872419D01*
X173351503Y-61872419D02*
X173351503Y-60872419D01*
X173351503Y-60872419D02*
X173922931Y-61872419D01*
X173922931Y-61872419D02*
X173922931Y-60872419D01*
X174399122Y-61872419D02*
X174399122Y-60872419D01*
X174399122Y-60872419D02*
X174970550Y-61872419D01*
X174970550Y-61872419D02*
X174970550Y-60872419D01*
X175446741Y-61348609D02*
X175780074Y-61348609D01*
X175922931Y-61872419D02*
X175446741Y-61872419D01*
X175446741Y-61872419D02*
X175446741Y-60872419D01*
X175446741Y-60872419D02*
X175922931Y-60872419D01*
X176922931Y-61777180D02*
X176875312Y-61824800D01*
X176875312Y-61824800D02*
X176732455Y-61872419D01*
X176732455Y-61872419D02*
X176637217Y-61872419D01*
X176637217Y-61872419D02*
X176494360Y-61824800D01*
X176494360Y-61824800D02*
X176399122Y-61729561D01*
X176399122Y-61729561D02*
X176351503Y-61634323D01*
X176351503Y-61634323D02*
X176303884Y-61443847D01*
X176303884Y-61443847D02*
X176303884Y-61300990D01*
X176303884Y-61300990D02*
X176351503Y-61110514D01*
X176351503Y-61110514D02*
X176399122Y-61015276D01*
X176399122Y-61015276D02*
X176494360Y-60920038D01*
X176494360Y-60920038D02*
X176637217Y-60872419D01*
X176637217Y-60872419D02*
X176732455Y-60872419D01*
X176732455Y-60872419D02*
X176875312Y-60920038D01*
X176875312Y-60920038D02*
X176922931Y-60967657D01*
X177208646Y-60872419D02*
X177780074Y-60872419D01*
X177494360Y-61872419D02*
X177494360Y-60872419D01*
X178303884Y-60872419D02*
X178494360Y-60872419D01*
X178494360Y-60872419D02*
X178589598Y-60920038D01*
X178589598Y-60920038D02*
X178684836Y-61015276D01*
X178684836Y-61015276D02*
X178732455Y-61205752D01*
X178732455Y-61205752D02*
X178732455Y-61539085D01*
X178732455Y-61539085D02*
X178684836Y-61729561D01*
X178684836Y-61729561D02*
X178589598Y-61824800D01*
X178589598Y-61824800D02*
X178494360Y-61872419D01*
X178494360Y-61872419D02*
X178303884Y-61872419D01*
X178303884Y-61872419D02*
X178208646Y-61824800D01*
X178208646Y-61824800D02*
X178113408Y-61729561D01*
X178113408Y-61729561D02*
X178065789Y-61539085D01*
X178065789Y-61539085D02*
X178065789Y-61205752D01*
X178065789Y-61205752D02*
X178113408Y-61015276D01*
X178113408Y-61015276D02*
X178208646Y-60920038D01*
X178208646Y-60920038D02*
X178303884Y-60872419D01*
X179732455Y-61872419D02*
X179399122Y-61396228D01*
X179161027Y-61872419D02*
X179161027Y-60872419D01*
X179161027Y-60872419D02*
X179541979Y-60872419D01*
X179541979Y-60872419D02*
X179637217Y-60920038D01*
X179637217Y-60920038D02*
X179684836Y-60967657D01*
X179684836Y-60967657D02*
X179732455Y-61062895D01*
X179732455Y-61062895D02*
X179732455Y-61205752D01*
X179732455Y-61205752D02*
X179684836Y-61300990D01*
X179684836Y-61300990D02*
X179637217Y-61348609D01*
X179637217Y-61348609D02*
X179541979Y-61396228D01*
X179541979Y-61396228D02*
X179161027Y-61396228D01*
X181113408Y-60872419D02*
X181303884Y-60872419D01*
X181303884Y-60872419D02*
X181399122Y-60920038D01*
X181399122Y-60920038D02*
X181494360Y-61015276D01*
X181494360Y-61015276D02*
X181541979Y-61205752D01*
X181541979Y-61205752D02*
X181541979Y-61539085D01*
X181541979Y-61539085D02*
X181494360Y-61729561D01*
X181494360Y-61729561D02*
X181399122Y-61824800D01*
X181399122Y-61824800D02*
X181303884Y-61872419D01*
X181303884Y-61872419D02*
X181113408Y-61872419D01*
X181113408Y-61872419D02*
X181018170Y-61824800D01*
X181018170Y-61824800D02*
X180922932Y-61729561D01*
X180922932Y-61729561D02*
X180875313Y-61539085D01*
X180875313Y-61539085D02*
X180875313Y-61205752D01*
X180875313Y-61205752D02*
X180922932Y-61015276D01*
X180922932Y-61015276D02*
X181018170Y-60920038D01*
X181018170Y-60920038D02*
X181113408Y-60872419D01*
X181970551Y-61872419D02*
X181970551Y-60872419D01*
X181970551Y-60872419D02*
X182541979Y-61872419D01*
X182541979Y-61872419D02*
X182541979Y-60872419D01*
X183970551Y-60872419D02*
X184161027Y-60872419D01*
X184161027Y-60872419D02*
X184256265Y-60920038D01*
X184256265Y-60920038D02*
X184351503Y-61015276D01*
X184351503Y-61015276D02*
X184399122Y-61205752D01*
X184399122Y-61205752D02*
X184399122Y-61539085D01*
X184399122Y-61539085D02*
X184351503Y-61729561D01*
X184351503Y-61729561D02*
X184256265Y-61824800D01*
X184256265Y-61824800D02*
X184161027Y-61872419D01*
X184161027Y-61872419D02*
X183970551Y-61872419D01*
X183970551Y-61872419D02*
X183875313Y-61824800D01*
X183875313Y-61824800D02*
X183780075Y-61729561D01*
X183780075Y-61729561D02*
X183732456Y-61539085D01*
X183732456Y-61539085D02*
X183732456Y-61205752D01*
X183732456Y-61205752D02*
X183780075Y-61015276D01*
X183780075Y-61015276D02*
X183875313Y-60920038D01*
X183875313Y-60920038D02*
X183970551Y-60872419D01*
X184684837Y-60872419D02*
X185256265Y-60872419D01*
X184970551Y-61872419D02*
X184970551Y-60872419D01*
X185589599Y-61872419D02*
X185589599Y-60872419D01*
X185589599Y-61348609D02*
X186161027Y-61348609D01*
X186161027Y-61872419D02*
X186161027Y-60872419D01*
X186637218Y-61348609D02*
X186970551Y-61348609D01*
X187113408Y-61872419D02*
X186637218Y-61872419D01*
X186637218Y-61872419D02*
X186637218Y-60872419D01*
X186637218Y-60872419D02*
X187113408Y-60872419D01*
X188113408Y-61872419D02*
X187780075Y-61396228D01*
X187541980Y-61872419D02*
X187541980Y-60872419D01*
X187541980Y-60872419D02*
X187922932Y-60872419D01*
X187922932Y-60872419D02*
X188018170Y-60920038D01*
X188018170Y-60920038D02*
X188065789Y-60967657D01*
X188065789Y-60967657D02*
X188113408Y-61062895D01*
X188113408Y-61062895D02*
X188113408Y-61205752D01*
X188113408Y-61205752D02*
X188065789Y-61300990D01*
X188065789Y-61300990D02*
X188018170Y-61348609D01*
X188018170Y-61348609D02*
X187922932Y-61396228D01*
X187922932Y-61396228D02*
X187541980Y-61396228D01*
X189256266Y-61824800D02*
X189399123Y-61872419D01*
X189399123Y-61872419D02*
X189637218Y-61872419D01*
X189637218Y-61872419D02*
X189732456Y-61824800D01*
X189732456Y-61824800D02*
X189780075Y-61777180D01*
X189780075Y-61777180D02*
X189827694Y-61681942D01*
X189827694Y-61681942D02*
X189827694Y-61586704D01*
X189827694Y-61586704D02*
X189780075Y-61491466D01*
X189780075Y-61491466D02*
X189732456Y-61443847D01*
X189732456Y-61443847D02*
X189637218Y-61396228D01*
X189637218Y-61396228D02*
X189446742Y-61348609D01*
X189446742Y-61348609D02*
X189351504Y-61300990D01*
X189351504Y-61300990D02*
X189303885Y-61253371D01*
X189303885Y-61253371D02*
X189256266Y-61158133D01*
X189256266Y-61158133D02*
X189256266Y-61062895D01*
X189256266Y-61062895D02*
X189303885Y-60967657D01*
X189303885Y-60967657D02*
X189351504Y-60920038D01*
X189351504Y-60920038D02*
X189446742Y-60872419D01*
X189446742Y-60872419D02*
X189684837Y-60872419D01*
X189684837Y-60872419D02*
X189827694Y-60920038D01*
X190256266Y-61872419D02*
X190256266Y-60872419D01*
X190732456Y-61872419D02*
X190732456Y-60872419D01*
X190732456Y-60872419D02*
X190970551Y-60872419D01*
X190970551Y-60872419D02*
X191113408Y-60920038D01*
X191113408Y-60920038D02*
X191208646Y-61015276D01*
X191208646Y-61015276D02*
X191256265Y-61110514D01*
X191256265Y-61110514D02*
X191303884Y-61300990D01*
X191303884Y-61300990D02*
X191303884Y-61443847D01*
X191303884Y-61443847D02*
X191256265Y-61634323D01*
X191256265Y-61634323D02*
X191208646Y-61729561D01*
X191208646Y-61729561D02*
X191113408Y-61824800D01*
X191113408Y-61824800D02*
X190970551Y-61872419D01*
X190970551Y-61872419D02*
X190732456Y-61872419D01*
X191732456Y-61348609D02*
X192065789Y-61348609D01*
X192208646Y-61872419D02*
X191732456Y-61872419D01*
X191732456Y-61872419D02*
X191732456Y-60872419D01*
X191732456Y-60872419D02*
X192208646Y-60872419D01*
X192637218Y-61777180D02*
X192684837Y-61824800D01*
X192684837Y-61824800D02*
X192637218Y-61872419D01*
X192637218Y-61872419D02*
X192589599Y-61824800D01*
X192589599Y-61824800D02*
X192637218Y-61777180D01*
X192637218Y-61777180D02*
X192637218Y-61872419D01*
X192637218Y-61491466D02*
X192589599Y-60920038D01*
X192589599Y-60920038D02*
X192637218Y-60872419D01*
X192637218Y-60872419D02*
X192684837Y-60920038D01*
X192684837Y-60920038D02*
X192637218Y-61491466D01*
X192637218Y-61491466D02*
X192637218Y-60872419D01*
X311880949Y-63042587D02*
X311880949Y-62042587D01*
X311880949Y-62042587D02*
X312214282Y-62756872D01*
X312214282Y-62756872D02*
X312547615Y-62042587D01*
X312547615Y-62042587D02*
X312547615Y-63042587D01*
X313404758Y-62994968D02*
X313309520Y-63042587D01*
X313309520Y-63042587D02*
X313119044Y-63042587D01*
X313119044Y-63042587D02*
X313023806Y-62994968D01*
X313023806Y-62994968D02*
X312976187Y-62899729D01*
X312976187Y-62899729D02*
X312976187Y-62518777D01*
X312976187Y-62518777D02*
X313023806Y-62423539D01*
X313023806Y-62423539D02*
X313119044Y-62375920D01*
X313119044Y-62375920D02*
X313309520Y-62375920D01*
X313309520Y-62375920D02*
X313404758Y-62423539D01*
X313404758Y-62423539D02*
X313452377Y-62518777D01*
X313452377Y-62518777D02*
X313452377Y-62614015D01*
X313452377Y-62614015D02*
X312976187Y-62709253D01*
X314309520Y-62994968D02*
X314214282Y-63042587D01*
X314214282Y-63042587D02*
X314023806Y-63042587D01*
X314023806Y-63042587D02*
X313928568Y-62994968D01*
X313928568Y-62994968D02*
X313880949Y-62947348D01*
X313880949Y-62947348D02*
X313833330Y-62852110D01*
X313833330Y-62852110D02*
X313833330Y-62566396D01*
X313833330Y-62566396D02*
X313880949Y-62471158D01*
X313880949Y-62471158D02*
X313928568Y-62423539D01*
X313928568Y-62423539D02*
X314023806Y-62375920D01*
X314023806Y-62375920D02*
X314214282Y-62375920D01*
X314214282Y-62375920D02*
X314309520Y-62423539D01*
X314738092Y-63042587D02*
X314738092Y-62042587D01*
X315166663Y-63042587D02*
X315166663Y-62518777D01*
X315166663Y-62518777D02*
X315119044Y-62423539D01*
X315119044Y-62423539D02*
X315023806Y-62375920D01*
X315023806Y-62375920D02*
X314880949Y-62375920D01*
X314880949Y-62375920D02*
X314785711Y-62423539D01*
X314785711Y-62423539D02*
X314738092Y-62471158D01*
X316071425Y-63042587D02*
X316071425Y-62518777D01*
X316071425Y-62518777D02*
X316023806Y-62423539D01*
X316023806Y-62423539D02*
X315928568Y-62375920D01*
X315928568Y-62375920D02*
X315738092Y-62375920D01*
X315738092Y-62375920D02*
X315642854Y-62423539D01*
X316071425Y-62994968D02*
X315976187Y-63042587D01*
X315976187Y-63042587D02*
X315738092Y-63042587D01*
X315738092Y-63042587D02*
X315642854Y-62994968D01*
X315642854Y-62994968D02*
X315595235Y-62899729D01*
X315595235Y-62899729D02*
X315595235Y-62804491D01*
X315595235Y-62804491D02*
X315642854Y-62709253D01*
X315642854Y-62709253D02*
X315738092Y-62661634D01*
X315738092Y-62661634D02*
X315976187Y-62661634D01*
X315976187Y-62661634D02*
X316071425Y-62614015D01*
X316547616Y-62375920D02*
X316547616Y-63042587D01*
X316547616Y-62471158D02*
X316595235Y-62423539D01*
X316595235Y-62423539D02*
X316690473Y-62375920D01*
X316690473Y-62375920D02*
X316833330Y-62375920D01*
X316833330Y-62375920D02*
X316928568Y-62423539D01*
X316928568Y-62423539D02*
X316976187Y-62518777D01*
X316976187Y-62518777D02*
X316976187Y-63042587D01*
X317452378Y-63042587D02*
X317452378Y-62375920D01*
X317452378Y-62042587D02*
X317404759Y-62090206D01*
X317404759Y-62090206D02*
X317452378Y-62137825D01*
X317452378Y-62137825D02*
X317499997Y-62090206D01*
X317499997Y-62090206D02*
X317452378Y-62042587D01*
X317452378Y-62042587D02*
X317452378Y-62137825D01*
X318357139Y-62994968D02*
X318261901Y-63042587D01*
X318261901Y-63042587D02*
X318071425Y-63042587D01*
X318071425Y-63042587D02*
X317976187Y-62994968D01*
X317976187Y-62994968D02*
X317928568Y-62947348D01*
X317928568Y-62947348D02*
X317880949Y-62852110D01*
X317880949Y-62852110D02*
X317880949Y-62566396D01*
X317880949Y-62566396D02*
X317928568Y-62471158D01*
X317928568Y-62471158D02*
X317976187Y-62423539D01*
X317976187Y-62423539D02*
X318071425Y-62375920D01*
X318071425Y-62375920D02*
X318261901Y-62375920D01*
X318261901Y-62375920D02*
X318357139Y-62423539D01*
X319214282Y-63042587D02*
X319214282Y-62518777D01*
X319214282Y-62518777D02*
X319166663Y-62423539D01*
X319166663Y-62423539D02*
X319071425Y-62375920D01*
X319071425Y-62375920D02*
X318880949Y-62375920D01*
X318880949Y-62375920D02*
X318785711Y-62423539D01*
X319214282Y-62994968D02*
X319119044Y-63042587D01*
X319119044Y-63042587D02*
X318880949Y-63042587D01*
X318880949Y-63042587D02*
X318785711Y-62994968D01*
X318785711Y-62994968D02*
X318738092Y-62899729D01*
X318738092Y-62899729D02*
X318738092Y-62804491D01*
X318738092Y-62804491D02*
X318785711Y-62709253D01*
X318785711Y-62709253D02*
X318880949Y-62661634D01*
X318880949Y-62661634D02*
X319119044Y-62661634D01*
X319119044Y-62661634D02*
X319214282Y-62614015D01*
X319833330Y-63042587D02*
X319738092Y-62994968D01*
X319738092Y-62994968D02*
X319690473Y-62899729D01*
X319690473Y-62899729D02*
X319690473Y-62042587D01*
X320976188Y-63042587D02*
X320976188Y-62042587D01*
X321071426Y-62661634D02*
X321357140Y-63042587D01*
X321357140Y-62375920D02*
X320976188Y-62756872D01*
X322166664Y-62994968D02*
X322071426Y-63042587D01*
X322071426Y-63042587D02*
X321880950Y-63042587D01*
X321880950Y-63042587D02*
X321785712Y-62994968D01*
X321785712Y-62994968D02*
X321738093Y-62899729D01*
X321738093Y-62899729D02*
X321738093Y-62518777D01*
X321738093Y-62518777D02*
X321785712Y-62423539D01*
X321785712Y-62423539D02*
X321880950Y-62375920D01*
X321880950Y-62375920D02*
X322071426Y-62375920D01*
X322071426Y-62375920D02*
X322166664Y-62423539D01*
X322166664Y-62423539D02*
X322214283Y-62518777D01*
X322214283Y-62518777D02*
X322214283Y-62614015D01*
X322214283Y-62614015D02*
X321738093Y-62709253D01*
X322547617Y-62375920D02*
X322785712Y-63042587D01*
X323023807Y-62375920D02*
X322785712Y-63042587D01*
X322785712Y-63042587D02*
X322690474Y-63280682D01*
X322690474Y-63280682D02*
X322642855Y-63328301D01*
X322642855Y-63328301D02*
X322547617Y-63375920D01*
X323404760Y-63042587D02*
X323404760Y-62042587D01*
X323404760Y-62423539D02*
X323499998Y-62375920D01*
X323499998Y-62375920D02*
X323690474Y-62375920D01*
X323690474Y-62375920D02*
X323785712Y-62423539D01*
X323785712Y-62423539D02*
X323833331Y-62471158D01*
X323833331Y-62471158D02*
X323880950Y-62566396D01*
X323880950Y-62566396D02*
X323880950Y-62852110D01*
X323880950Y-62852110D02*
X323833331Y-62947348D01*
X323833331Y-62947348D02*
X323785712Y-62994968D01*
X323785712Y-62994968D02*
X323690474Y-63042587D01*
X323690474Y-63042587D02*
X323499998Y-63042587D01*
X323499998Y-63042587D02*
X323404760Y-62994968D01*
X324452379Y-63042587D02*
X324357141Y-62994968D01*
X324357141Y-62994968D02*
X324309522Y-62947348D01*
X324309522Y-62947348D02*
X324261903Y-62852110D01*
X324261903Y-62852110D02*
X324261903Y-62566396D01*
X324261903Y-62566396D02*
X324309522Y-62471158D01*
X324309522Y-62471158D02*
X324357141Y-62423539D01*
X324357141Y-62423539D02*
X324452379Y-62375920D01*
X324452379Y-62375920D02*
X324595236Y-62375920D01*
X324595236Y-62375920D02*
X324690474Y-62423539D01*
X324690474Y-62423539D02*
X324738093Y-62471158D01*
X324738093Y-62471158D02*
X324785712Y-62566396D01*
X324785712Y-62566396D02*
X324785712Y-62852110D01*
X324785712Y-62852110D02*
X324738093Y-62947348D01*
X324738093Y-62947348D02*
X324690474Y-62994968D01*
X324690474Y-62994968D02*
X324595236Y-63042587D01*
X324595236Y-63042587D02*
X324452379Y-63042587D01*
X325642855Y-63042587D02*
X325642855Y-62518777D01*
X325642855Y-62518777D02*
X325595236Y-62423539D01*
X325595236Y-62423539D02*
X325499998Y-62375920D01*
X325499998Y-62375920D02*
X325309522Y-62375920D01*
X325309522Y-62375920D02*
X325214284Y-62423539D01*
X325642855Y-62994968D02*
X325547617Y-63042587D01*
X325547617Y-63042587D02*
X325309522Y-63042587D01*
X325309522Y-63042587D02*
X325214284Y-62994968D01*
X325214284Y-62994968D02*
X325166665Y-62899729D01*
X325166665Y-62899729D02*
X325166665Y-62804491D01*
X325166665Y-62804491D02*
X325214284Y-62709253D01*
X325214284Y-62709253D02*
X325309522Y-62661634D01*
X325309522Y-62661634D02*
X325547617Y-62661634D01*
X325547617Y-62661634D02*
X325642855Y-62614015D01*
X326119046Y-63042587D02*
X326119046Y-62375920D01*
X326119046Y-62566396D02*
X326166665Y-62471158D01*
X326166665Y-62471158D02*
X326214284Y-62423539D01*
X326214284Y-62423539D02*
X326309522Y-62375920D01*
X326309522Y-62375920D02*
X326404760Y-62375920D01*
X327166665Y-63042587D02*
X327166665Y-62042587D01*
X327166665Y-62994968D02*
X327071427Y-63042587D01*
X327071427Y-63042587D02*
X326880951Y-63042587D01*
X326880951Y-63042587D02*
X326785713Y-62994968D01*
X326785713Y-62994968D02*
X326738094Y-62947348D01*
X326738094Y-62947348D02*
X326690475Y-62852110D01*
X326690475Y-62852110D02*
X326690475Y-62566396D01*
X326690475Y-62566396D02*
X326738094Y-62471158D01*
X326738094Y-62471158D02*
X326785713Y-62423539D01*
X326785713Y-62423539D02*
X326880951Y-62375920D01*
X326880951Y-62375920D02*
X327071427Y-62375920D01*
X327071427Y-62375920D02*
X327166665Y-62423539D01*
X328261904Y-62375920D02*
X328642856Y-62375920D01*
X328404761Y-63042587D02*
X328404761Y-62185444D01*
X328404761Y-62185444D02*
X328452380Y-62090206D01*
X328452380Y-62090206D02*
X328547618Y-62042587D01*
X328547618Y-62042587D02*
X328642856Y-62042587D01*
X329119047Y-63042587D02*
X329023809Y-62994968D01*
X329023809Y-62994968D02*
X328976190Y-62947348D01*
X328976190Y-62947348D02*
X328928571Y-62852110D01*
X328928571Y-62852110D02*
X328928571Y-62566396D01*
X328928571Y-62566396D02*
X328976190Y-62471158D01*
X328976190Y-62471158D02*
X329023809Y-62423539D01*
X329023809Y-62423539D02*
X329119047Y-62375920D01*
X329119047Y-62375920D02*
X329261904Y-62375920D01*
X329261904Y-62375920D02*
X329357142Y-62423539D01*
X329357142Y-62423539D02*
X329404761Y-62471158D01*
X329404761Y-62471158D02*
X329452380Y-62566396D01*
X329452380Y-62566396D02*
X329452380Y-62852110D01*
X329452380Y-62852110D02*
X329404761Y-62947348D01*
X329404761Y-62947348D02*
X329357142Y-62994968D01*
X329357142Y-62994968D02*
X329261904Y-63042587D01*
X329261904Y-63042587D02*
X329119047Y-63042587D01*
X329880952Y-63042587D02*
X329880952Y-62375920D01*
X329880952Y-62566396D02*
X329928571Y-62471158D01*
X329928571Y-62471158D02*
X329976190Y-62423539D01*
X329976190Y-62423539D02*
X330071428Y-62375920D01*
X330071428Y-62375920D02*
X330166666Y-62375920D01*
X331119048Y-62375920D02*
X331500000Y-62375920D01*
X331261905Y-62042587D02*
X331261905Y-62899729D01*
X331261905Y-62899729D02*
X331309524Y-62994968D01*
X331309524Y-62994968D02*
X331404762Y-63042587D01*
X331404762Y-63042587D02*
X331500000Y-63042587D01*
X331833334Y-63042587D02*
X331833334Y-62042587D01*
X332261905Y-63042587D02*
X332261905Y-62518777D01*
X332261905Y-62518777D02*
X332214286Y-62423539D01*
X332214286Y-62423539D02*
X332119048Y-62375920D01*
X332119048Y-62375920D02*
X331976191Y-62375920D01*
X331976191Y-62375920D02*
X331880953Y-62423539D01*
X331880953Y-62423539D02*
X331833334Y-62471158D01*
X333119048Y-62994968D02*
X333023810Y-63042587D01*
X333023810Y-63042587D02*
X332833334Y-63042587D01*
X332833334Y-63042587D02*
X332738096Y-62994968D01*
X332738096Y-62994968D02*
X332690477Y-62899729D01*
X332690477Y-62899729D02*
X332690477Y-62518777D01*
X332690477Y-62518777D02*
X332738096Y-62423539D01*
X332738096Y-62423539D02*
X332833334Y-62375920D01*
X332833334Y-62375920D02*
X333023810Y-62375920D01*
X333023810Y-62375920D02*
X333119048Y-62423539D01*
X333119048Y-62423539D02*
X333166667Y-62518777D01*
X333166667Y-62518777D02*
X333166667Y-62614015D01*
X333166667Y-62614015D02*
X332690477Y-62709253D01*
X334309525Y-62756872D02*
X334785715Y-62756872D01*
X334214287Y-63042587D02*
X334547620Y-62042587D01*
X334547620Y-62042587D02*
X334880953Y-63042587D01*
X335642858Y-62042587D02*
X335452382Y-62042587D01*
X335452382Y-62042587D02*
X335357144Y-62090206D01*
X335357144Y-62090206D02*
X335309525Y-62137825D01*
X335309525Y-62137825D02*
X335214287Y-62280682D01*
X335214287Y-62280682D02*
X335166668Y-62471158D01*
X335166668Y-62471158D02*
X335166668Y-62852110D01*
X335166668Y-62852110D02*
X335214287Y-62947348D01*
X335214287Y-62947348D02*
X335261906Y-62994968D01*
X335261906Y-62994968D02*
X335357144Y-63042587D01*
X335357144Y-63042587D02*
X335547620Y-63042587D01*
X335547620Y-63042587D02*
X335642858Y-62994968D01*
X335642858Y-62994968D02*
X335690477Y-62947348D01*
X335690477Y-62947348D02*
X335738096Y-62852110D01*
X335738096Y-62852110D02*
X335738096Y-62614015D01*
X335738096Y-62614015D02*
X335690477Y-62518777D01*
X335690477Y-62518777D02*
X335642858Y-62471158D01*
X335642858Y-62471158D02*
X335547620Y-62423539D01*
X335547620Y-62423539D02*
X335357144Y-62423539D01*
X335357144Y-62423539D02*
X335261906Y-62471158D01*
X335261906Y-62471158D02*
X335214287Y-62518777D01*
X335214287Y-62518777D02*
X335166668Y-62614015D01*
X336357144Y-62042587D02*
X336452382Y-62042587D01*
X336452382Y-62042587D02*
X336547620Y-62090206D01*
X336547620Y-62090206D02*
X336595239Y-62137825D01*
X336595239Y-62137825D02*
X336642858Y-62233063D01*
X336642858Y-62233063D02*
X336690477Y-62423539D01*
X336690477Y-62423539D02*
X336690477Y-62661634D01*
X336690477Y-62661634D02*
X336642858Y-62852110D01*
X336642858Y-62852110D02*
X336595239Y-62947348D01*
X336595239Y-62947348D02*
X336547620Y-62994968D01*
X336547620Y-62994968D02*
X336452382Y-63042587D01*
X336452382Y-63042587D02*
X336357144Y-63042587D01*
X336357144Y-63042587D02*
X336261906Y-62994968D01*
X336261906Y-62994968D02*
X336214287Y-62947348D01*
X336214287Y-62947348D02*
X336166668Y-62852110D01*
X336166668Y-62852110D02*
X336119049Y-62661634D01*
X336119049Y-62661634D02*
X336119049Y-62423539D01*
X336119049Y-62423539D02*
X336166668Y-62233063D01*
X336166668Y-62233063D02*
X336214287Y-62137825D01*
X336214287Y-62137825D02*
X336261906Y-62090206D01*
X336261906Y-62090206D02*
X336357144Y-62042587D01*
X337309525Y-62042587D02*
X337404763Y-62042587D01*
X337404763Y-62042587D02*
X337500001Y-62090206D01*
X337500001Y-62090206D02*
X337547620Y-62137825D01*
X337547620Y-62137825D02*
X337595239Y-62233063D01*
X337595239Y-62233063D02*
X337642858Y-62423539D01*
X337642858Y-62423539D02*
X337642858Y-62661634D01*
X337642858Y-62661634D02*
X337595239Y-62852110D01*
X337595239Y-62852110D02*
X337547620Y-62947348D01*
X337547620Y-62947348D02*
X337500001Y-62994968D01*
X337500001Y-62994968D02*
X337404763Y-63042587D01*
X337404763Y-63042587D02*
X337309525Y-63042587D01*
X337309525Y-63042587D02*
X337214287Y-62994968D01*
X337214287Y-62994968D02*
X337166668Y-62947348D01*
X337166668Y-62947348D02*
X337119049Y-62852110D01*
X337119049Y-62852110D02*
X337071430Y-62661634D01*
X337071430Y-62661634D02*
X337071430Y-62423539D01*
X337071430Y-62423539D02*
X337119049Y-62233063D01*
X337119049Y-62233063D02*
X337166668Y-62137825D01*
X337166668Y-62137825D02*
X337214287Y-62090206D01*
X337214287Y-62090206D02*
X337309525Y-62042587D01*
X338833335Y-62661634D02*
X339595240Y-62661634D01*
X340785716Y-62756872D02*
X341261906Y-62756872D01*
X340690478Y-63042587D02*
X341023811Y-62042587D01*
X341023811Y-62042587D02*
X341357144Y-63042587D01*
X342119049Y-62042587D02*
X341928573Y-62042587D01*
X341928573Y-62042587D02*
X341833335Y-62090206D01*
X341833335Y-62090206D02*
X341785716Y-62137825D01*
X341785716Y-62137825D02*
X341690478Y-62280682D01*
X341690478Y-62280682D02*
X341642859Y-62471158D01*
X341642859Y-62471158D02*
X341642859Y-62852110D01*
X341642859Y-62852110D02*
X341690478Y-62947348D01*
X341690478Y-62947348D02*
X341738097Y-62994968D01*
X341738097Y-62994968D02*
X341833335Y-63042587D01*
X341833335Y-63042587D02*
X342023811Y-63042587D01*
X342023811Y-63042587D02*
X342119049Y-62994968D01*
X342119049Y-62994968D02*
X342166668Y-62947348D01*
X342166668Y-62947348D02*
X342214287Y-62852110D01*
X342214287Y-62852110D02*
X342214287Y-62614015D01*
X342214287Y-62614015D02*
X342166668Y-62518777D01*
X342166668Y-62518777D02*
X342119049Y-62471158D01*
X342119049Y-62471158D02*
X342023811Y-62423539D01*
X342023811Y-62423539D02*
X341833335Y-62423539D01*
X341833335Y-62423539D02*
X341738097Y-62471158D01*
X341738097Y-62471158D02*
X341690478Y-62518777D01*
X341690478Y-62518777D02*
X341642859Y-62614015D01*
X342833335Y-62042587D02*
X342928573Y-62042587D01*
X342928573Y-62042587D02*
X343023811Y-62090206D01*
X343023811Y-62090206D02*
X343071430Y-62137825D01*
X343071430Y-62137825D02*
X343119049Y-62233063D01*
X343119049Y-62233063D02*
X343166668Y-62423539D01*
X343166668Y-62423539D02*
X343166668Y-62661634D01*
X343166668Y-62661634D02*
X343119049Y-62852110D01*
X343119049Y-62852110D02*
X343071430Y-62947348D01*
X343071430Y-62947348D02*
X343023811Y-62994968D01*
X343023811Y-62994968D02*
X342928573Y-63042587D01*
X342928573Y-63042587D02*
X342833335Y-63042587D01*
X342833335Y-63042587D02*
X342738097Y-62994968D01*
X342738097Y-62994968D02*
X342690478Y-62947348D01*
X342690478Y-62947348D02*
X342642859Y-62852110D01*
X342642859Y-62852110D02*
X342595240Y-62661634D01*
X342595240Y-62661634D02*
X342595240Y-62423539D01*
X342595240Y-62423539D02*
X342642859Y-62233063D01*
X342642859Y-62233063D02*
X342690478Y-62137825D01*
X342690478Y-62137825D02*
X342738097Y-62090206D01*
X342738097Y-62090206D02*
X342833335Y-62042587D01*
X343785716Y-62042587D02*
X343880954Y-62042587D01*
X343880954Y-62042587D02*
X343976192Y-62090206D01*
X343976192Y-62090206D02*
X344023811Y-62137825D01*
X344023811Y-62137825D02*
X344071430Y-62233063D01*
X344071430Y-62233063D02*
X344119049Y-62423539D01*
X344119049Y-62423539D02*
X344119049Y-62661634D01*
X344119049Y-62661634D02*
X344071430Y-62852110D01*
X344071430Y-62852110D02*
X344023811Y-62947348D01*
X344023811Y-62947348D02*
X343976192Y-62994968D01*
X343976192Y-62994968D02*
X343880954Y-63042587D01*
X343880954Y-63042587D02*
X343785716Y-63042587D01*
X343785716Y-63042587D02*
X343690478Y-62994968D01*
X343690478Y-62994968D02*
X343642859Y-62947348D01*
X343642859Y-62947348D02*
X343595240Y-62852110D01*
X343595240Y-62852110D02*
X343547621Y-62661634D01*
X343547621Y-62661634D02*
X343547621Y-62423539D01*
X343547621Y-62423539D02*
X343595240Y-62233063D01*
X343595240Y-62233063D02*
X343642859Y-62137825D01*
X343642859Y-62137825D02*
X343690478Y-62090206D01*
X343690478Y-62090206D02*
X343785716Y-62042587D01*
X344547621Y-63042587D02*
X344547621Y-62042587D01*
X345119049Y-63042587D02*
X344690478Y-62471158D01*
X345119049Y-62042587D02*
X344547621Y-62614015D01*
X345880954Y-62518777D02*
X346023811Y-62566396D01*
X346023811Y-62566396D02*
X346071430Y-62614015D01*
X346071430Y-62614015D02*
X346119049Y-62709253D01*
X346119049Y-62709253D02*
X346119049Y-62852110D01*
X346119049Y-62852110D02*
X346071430Y-62947348D01*
X346071430Y-62947348D02*
X346023811Y-62994968D01*
X346023811Y-62994968D02*
X345928573Y-63042587D01*
X345928573Y-63042587D02*
X345547621Y-63042587D01*
X345547621Y-63042587D02*
X345547621Y-62042587D01*
X345547621Y-62042587D02*
X345880954Y-62042587D01*
X345880954Y-62042587D02*
X345976192Y-62090206D01*
X345976192Y-62090206D02*
X346023811Y-62137825D01*
X346023811Y-62137825D02*
X346071430Y-62233063D01*
X346071430Y-62233063D02*
X346071430Y-62328301D01*
X346071430Y-62328301D02*
X346023811Y-62423539D01*
X346023811Y-62423539D02*
X345976192Y-62471158D01*
X345976192Y-62471158D02*
X345880954Y-62518777D01*
X345880954Y-62518777D02*
X345547621Y-62518777D01*
X346452383Y-62375920D02*
X346690478Y-63042587D01*
X346690478Y-63042587D02*
X346928573Y-62375920D01*
X347261907Y-62137825D02*
X347309526Y-62090206D01*
X347309526Y-62090206D02*
X347404764Y-62042587D01*
X347404764Y-62042587D02*
X347642859Y-62042587D01*
X347642859Y-62042587D02*
X347738097Y-62090206D01*
X347738097Y-62090206D02*
X347785716Y-62137825D01*
X347785716Y-62137825D02*
X347833335Y-62233063D01*
X347833335Y-62233063D02*
X347833335Y-62328301D01*
X347833335Y-62328301D02*
X347785716Y-62471158D01*
X347785716Y-62471158D02*
X347214288Y-63042587D01*
X347214288Y-63042587D02*
X347833335Y-63042587D01*
X349023812Y-63042587D02*
X349023812Y-62375920D01*
X349023812Y-62566396D02*
X349071431Y-62471158D01*
X349071431Y-62471158D02*
X349119050Y-62423539D01*
X349119050Y-62423539D02*
X349214288Y-62375920D01*
X349214288Y-62375920D02*
X349309526Y-62375920D01*
X349595241Y-62137825D02*
X349642860Y-62090206D01*
X349642860Y-62090206D02*
X349738098Y-62042587D01*
X349738098Y-62042587D02*
X349976193Y-62042587D01*
X349976193Y-62042587D02*
X350071431Y-62090206D01*
X350071431Y-62090206D02*
X350119050Y-62137825D01*
X350119050Y-62137825D02*
X350166669Y-62233063D01*
X350166669Y-62233063D02*
X350166669Y-62328301D01*
X350166669Y-62328301D02*
X350119050Y-62471158D01*
X350119050Y-62471158D02*
X349547622Y-63042587D01*
X349547622Y-63042587D02*
X350166669Y-63042587D01*
X315642855Y-63985864D02*
X316023807Y-63985864D01*
X315785712Y-64652531D02*
X315785712Y-63795388D01*
X315785712Y-63795388D02*
X315833331Y-63700150D01*
X315833331Y-63700150D02*
X315928569Y-63652531D01*
X315928569Y-63652531D02*
X316023807Y-63652531D01*
X316499998Y-64652531D02*
X316404760Y-64604912D01*
X316404760Y-64604912D02*
X316357141Y-64557292D01*
X316357141Y-64557292D02*
X316309522Y-64462054D01*
X316309522Y-64462054D02*
X316309522Y-64176340D01*
X316309522Y-64176340D02*
X316357141Y-64081102D01*
X316357141Y-64081102D02*
X316404760Y-64033483D01*
X316404760Y-64033483D02*
X316499998Y-63985864D01*
X316499998Y-63985864D02*
X316642855Y-63985864D01*
X316642855Y-63985864D02*
X316738093Y-64033483D01*
X316738093Y-64033483D02*
X316785712Y-64081102D01*
X316785712Y-64081102D02*
X316833331Y-64176340D01*
X316833331Y-64176340D02*
X316833331Y-64462054D01*
X316833331Y-64462054D02*
X316785712Y-64557292D01*
X316785712Y-64557292D02*
X316738093Y-64604912D01*
X316738093Y-64604912D02*
X316642855Y-64652531D01*
X316642855Y-64652531D02*
X316499998Y-64652531D01*
X317261903Y-64652531D02*
X317261903Y-63985864D01*
X317261903Y-64176340D02*
X317309522Y-64081102D01*
X317309522Y-64081102D02*
X317357141Y-64033483D01*
X317357141Y-64033483D02*
X317452379Y-63985864D01*
X317452379Y-63985864D02*
X317547617Y-63985864D01*
X319166665Y-63700150D02*
X319071427Y-63652531D01*
X319071427Y-63652531D02*
X318928570Y-63652531D01*
X318928570Y-63652531D02*
X318785713Y-63700150D01*
X318785713Y-63700150D02*
X318690475Y-63795388D01*
X318690475Y-63795388D02*
X318642856Y-63890626D01*
X318642856Y-63890626D02*
X318595237Y-64081102D01*
X318595237Y-64081102D02*
X318595237Y-64223959D01*
X318595237Y-64223959D02*
X318642856Y-64414435D01*
X318642856Y-64414435D02*
X318690475Y-64509673D01*
X318690475Y-64509673D02*
X318785713Y-64604912D01*
X318785713Y-64604912D02*
X318928570Y-64652531D01*
X318928570Y-64652531D02*
X319023808Y-64652531D01*
X319023808Y-64652531D02*
X319166665Y-64604912D01*
X319166665Y-64604912D02*
X319214284Y-64557292D01*
X319214284Y-64557292D02*
X319214284Y-64223959D01*
X319214284Y-64223959D02*
X319023808Y-64223959D01*
X320071427Y-64652531D02*
X320071427Y-64128721D01*
X320071427Y-64128721D02*
X320023808Y-64033483D01*
X320023808Y-64033483D02*
X319928570Y-63985864D01*
X319928570Y-63985864D02*
X319738094Y-63985864D01*
X319738094Y-63985864D02*
X319642856Y-64033483D01*
X320071427Y-64604912D02*
X319976189Y-64652531D01*
X319976189Y-64652531D02*
X319738094Y-64652531D01*
X319738094Y-64652531D02*
X319642856Y-64604912D01*
X319642856Y-64604912D02*
X319595237Y-64509673D01*
X319595237Y-64509673D02*
X319595237Y-64414435D01*
X319595237Y-64414435D02*
X319642856Y-64319197D01*
X319642856Y-64319197D02*
X319738094Y-64271578D01*
X319738094Y-64271578D02*
X319976189Y-64271578D01*
X319976189Y-64271578D02*
X320071427Y-64223959D01*
X320404761Y-63985864D02*
X320785713Y-63985864D01*
X320547618Y-63652531D02*
X320547618Y-64509673D01*
X320547618Y-64509673D02*
X320595237Y-64604912D01*
X320595237Y-64604912D02*
X320690475Y-64652531D01*
X320690475Y-64652531D02*
X320785713Y-64652531D01*
X321499999Y-64604912D02*
X321404761Y-64652531D01*
X321404761Y-64652531D02*
X321214285Y-64652531D01*
X321214285Y-64652531D02*
X321119047Y-64604912D01*
X321119047Y-64604912D02*
X321071428Y-64509673D01*
X321071428Y-64509673D02*
X321071428Y-64128721D01*
X321071428Y-64128721D02*
X321119047Y-64033483D01*
X321119047Y-64033483D02*
X321214285Y-63985864D01*
X321214285Y-63985864D02*
X321404761Y-63985864D01*
X321404761Y-63985864D02*
X321499999Y-64033483D01*
X321499999Y-64033483D02*
X321547618Y-64128721D01*
X321547618Y-64128721D02*
X321547618Y-64223959D01*
X321547618Y-64223959D02*
X321071428Y-64319197D01*
X321976190Y-64652531D02*
X321976190Y-63985864D01*
X321976190Y-64176340D02*
X322023809Y-64081102D01*
X322023809Y-64081102D02*
X322071428Y-64033483D01*
X322071428Y-64033483D02*
X322166666Y-63985864D01*
X322166666Y-63985864D02*
X322261904Y-63985864D01*
X322738095Y-64652531D02*
X322642857Y-64604912D01*
X322642857Y-64604912D02*
X322595238Y-64557292D01*
X322595238Y-64557292D02*
X322547619Y-64462054D01*
X322547619Y-64462054D02*
X322547619Y-64176340D01*
X322547619Y-64176340D02*
X322595238Y-64081102D01*
X322595238Y-64081102D02*
X322642857Y-64033483D01*
X322642857Y-64033483D02*
X322738095Y-63985864D01*
X322738095Y-63985864D02*
X322880952Y-63985864D01*
X322880952Y-63985864D02*
X322976190Y-64033483D01*
X322976190Y-64033483D02*
X323023809Y-64081102D01*
X323023809Y-64081102D02*
X323071428Y-64176340D01*
X323071428Y-64176340D02*
X323071428Y-64462054D01*
X323071428Y-64462054D02*
X323023809Y-64557292D01*
X323023809Y-64557292D02*
X322976190Y-64604912D01*
X322976190Y-64604912D02*
X322880952Y-64652531D01*
X322880952Y-64652531D02*
X322738095Y-64652531D01*
X323500000Y-63985864D02*
X323500000Y-64652531D01*
X323500000Y-64081102D02*
X323547619Y-64033483D01*
X323547619Y-64033483D02*
X323642857Y-63985864D01*
X323642857Y-63985864D02*
X323785714Y-63985864D01*
X323785714Y-63985864D02*
X323880952Y-64033483D01*
X323880952Y-64033483D02*
X323928571Y-64128721D01*
X323928571Y-64128721D02*
X323928571Y-64652531D01*
X325166667Y-64652531D02*
X325166667Y-63652531D01*
X325738095Y-64652531D02*
X325309524Y-64081102D01*
X325738095Y-63652531D02*
X325166667Y-64223959D01*
X326119048Y-64604912D02*
X326261905Y-64652531D01*
X326261905Y-64652531D02*
X326500000Y-64652531D01*
X326500000Y-64652531D02*
X326595238Y-64604912D01*
X326595238Y-64604912D02*
X326642857Y-64557292D01*
X326642857Y-64557292D02*
X326690476Y-64462054D01*
X326690476Y-64462054D02*
X326690476Y-64366816D01*
X326690476Y-64366816D02*
X326642857Y-64271578D01*
X326642857Y-64271578D02*
X326595238Y-64223959D01*
X326595238Y-64223959D02*
X326500000Y-64176340D01*
X326500000Y-64176340D02*
X326309524Y-64128721D01*
X326309524Y-64128721D02*
X326214286Y-64081102D01*
X326214286Y-64081102D02*
X326166667Y-64033483D01*
X326166667Y-64033483D02*
X326119048Y-63938245D01*
X326119048Y-63938245D02*
X326119048Y-63843007D01*
X326119048Y-63843007D02*
X326166667Y-63747769D01*
X326166667Y-63747769D02*
X326214286Y-63700150D01*
X326214286Y-63700150D02*
X326309524Y-63652531D01*
X326309524Y-63652531D02*
X326547619Y-63652531D01*
X326547619Y-63652531D02*
X326690476Y-63700150D01*
X327119048Y-64271578D02*
X327880953Y-64271578D01*
X328261905Y-63652531D02*
X328880952Y-63652531D01*
X328880952Y-63652531D02*
X328547619Y-64033483D01*
X328547619Y-64033483D02*
X328690476Y-64033483D01*
X328690476Y-64033483D02*
X328785714Y-64081102D01*
X328785714Y-64081102D02*
X328833333Y-64128721D01*
X328833333Y-64128721D02*
X328880952Y-64223959D01*
X328880952Y-64223959D02*
X328880952Y-64462054D01*
X328880952Y-64462054D02*
X328833333Y-64557292D01*
X328833333Y-64557292D02*
X328785714Y-64604912D01*
X328785714Y-64604912D02*
X328690476Y-64652531D01*
X328690476Y-64652531D02*
X328404762Y-64652531D01*
X328404762Y-64652531D02*
X328309524Y-64604912D01*
X328309524Y-64604912D02*
X328261905Y-64557292D01*
X329214286Y-63652531D02*
X329833333Y-63652531D01*
X329833333Y-63652531D02*
X329500000Y-64033483D01*
X329500000Y-64033483D02*
X329642857Y-64033483D01*
X329642857Y-64033483D02*
X329738095Y-64081102D01*
X329738095Y-64081102D02*
X329785714Y-64128721D01*
X329785714Y-64128721D02*
X329833333Y-64223959D01*
X329833333Y-64223959D02*
X329833333Y-64462054D01*
X329833333Y-64462054D02*
X329785714Y-64557292D01*
X329785714Y-64557292D02*
X329738095Y-64604912D01*
X329738095Y-64604912D02*
X329642857Y-64652531D01*
X329642857Y-64652531D02*
X329357143Y-64652531D01*
X329357143Y-64652531D02*
X329261905Y-64604912D01*
X329261905Y-64604912D02*
X329214286Y-64557292D01*
X331166667Y-64652531D02*
X331071429Y-64604912D01*
X331071429Y-64604912D02*
X331023810Y-64509673D01*
X331023810Y-64509673D02*
X331023810Y-63652531D01*
X331690477Y-64652531D02*
X331595239Y-64604912D01*
X331595239Y-64604912D02*
X331547620Y-64557292D01*
X331547620Y-64557292D02*
X331500001Y-64462054D01*
X331500001Y-64462054D02*
X331500001Y-64176340D01*
X331500001Y-64176340D02*
X331547620Y-64081102D01*
X331547620Y-64081102D02*
X331595239Y-64033483D01*
X331595239Y-64033483D02*
X331690477Y-63985864D01*
X331690477Y-63985864D02*
X331833334Y-63985864D01*
X331833334Y-63985864D02*
X331928572Y-64033483D01*
X331928572Y-64033483D02*
X331976191Y-64081102D01*
X331976191Y-64081102D02*
X332023810Y-64176340D01*
X332023810Y-64176340D02*
X332023810Y-64462054D01*
X332023810Y-64462054D02*
X331976191Y-64557292D01*
X331976191Y-64557292D02*
X331928572Y-64604912D01*
X331928572Y-64604912D02*
X331833334Y-64652531D01*
X331833334Y-64652531D02*
X331690477Y-64652531D01*
X332357144Y-63985864D02*
X332547620Y-64652531D01*
X332547620Y-64652531D02*
X332738096Y-64176340D01*
X332738096Y-64176340D02*
X332928572Y-64652531D01*
X332928572Y-64652531D02*
X333119048Y-63985864D01*
X333500001Y-64271578D02*
X334261906Y-64271578D01*
X334738096Y-63985864D02*
X334738096Y-64985864D01*
X334738096Y-64033483D02*
X334833334Y-63985864D01*
X334833334Y-63985864D02*
X335023810Y-63985864D01*
X335023810Y-63985864D02*
X335119048Y-64033483D01*
X335119048Y-64033483D02*
X335166667Y-64081102D01*
X335166667Y-64081102D02*
X335214286Y-64176340D01*
X335214286Y-64176340D02*
X335214286Y-64462054D01*
X335214286Y-64462054D02*
X335166667Y-64557292D01*
X335166667Y-64557292D02*
X335119048Y-64604912D01*
X335119048Y-64604912D02*
X335023810Y-64652531D01*
X335023810Y-64652531D02*
X334833334Y-64652531D01*
X334833334Y-64652531D02*
X334738096Y-64604912D01*
X335642858Y-64652531D02*
X335642858Y-63985864D01*
X335642858Y-64176340D02*
X335690477Y-64081102D01*
X335690477Y-64081102D02*
X335738096Y-64033483D01*
X335738096Y-64033483D02*
X335833334Y-63985864D01*
X335833334Y-63985864D02*
X335928572Y-63985864D01*
X336404763Y-64652531D02*
X336309525Y-64604912D01*
X336309525Y-64604912D02*
X336261906Y-64557292D01*
X336261906Y-64557292D02*
X336214287Y-64462054D01*
X336214287Y-64462054D02*
X336214287Y-64176340D01*
X336214287Y-64176340D02*
X336261906Y-64081102D01*
X336261906Y-64081102D02*
X336309525Y-64033483D01*
X336309525Y-64033483D02*
X336404763Y-63985864D01*
X336404763Y-63985864D02*
X336547620Y-63985864D01*
X336547620Y-63985864D02*
X336642858Y-64033483D01*
X336642858Y-64033483D02*
X336690477Y-64081102D01*
X336690477Y-64081102D02*
X336738096Y-64176340D01*
X336738096Y-64176340D02*
X336738096Y-64462054D01*
X336738096Y-64462054D02*
X336690477Y-64557292D01*
X336690477Y-64557292D02*
X336642858Y-64604912D01*
X336642858Y-64604912D02*
X336547620Y-64652531D01*
X336547620Y-64652531D02*
X336404763Y-64652531D01*
X337023811Y-63985864D02*
X337404763Y-63985864D01*
X337166668Y-64652531D02*
X337166668Y-63795388D01*
X337166668Y-63795388D02*
X337214287Y-63700150D01*
X337214287Y-63700150D02*
X337309525Y-63652531D01*
X337309525Y-63652531D02*
X337404763Y-63652531D01*
X337738097Y-64652531D02*
X337738097Y-63985864D01*
X337738097Y-63652531D02*
X337690478Y-63700150D01*
X337690478Y-63700150D02*
X337738097Y-63747769D01*
X337738097Y-63747769D02*
X337785716Y-63700150D01*
X337785716Y-63700150D02*
X337738097Y-63652531D01*
X337738097Y-63652531D02*
X337738097Y-63747769D01*
X338357144Y-64652531D02*
X338261906Y-64604912D01*
X338261906Y-64604912D02*
X338214287Y-64509673D01*
X338214287Y-64509673D02*
X338214287Y-63652531D01*
X339119049Y-64604912D02*
X339023811Y-64652531D01*
X339023811Y-64652531D02*
X338833335Y-64652531D01*
X338833335Y-64652531D02*
X338738097Y-64604912D01*
X338738097Y-64604912D02*
X338690478Y-64509673D01*
X338690478Y-64509673D02*
X338690478Y-64128721D01*
X338690478Y-64128721D02*
X338738097Y-64033483D01*
X338738097Y-64033483D02*
X338833335Y-63985864D01*
X338833335Y-63985864D02*
X339023811Y-63985864D01*
X339023811Y-63985864D02*
X339119049Y-64033483D01*
X339119049Y-64033483D02*
X339166668Y-64128721D01*
X339166668Y-64128721D02*
X339166668Y-64223959D01*
X339166668Y-64223959D02*
X338690478Y-64319197D01*
X340309526Y-64604912D02*
X340404764Y-64652531D01*
X340404764Y-64652531D02*
X340595240Y-64652531D01*
X340595240Y-64652531D02*
X340690478Y-64604912D01*
X340690478Y-64604912D02*
X340738097Y-64509673D01*
X340738097Y-64509673D02*
X340738097Y-64462054D01*
X340738097Y-64462054D02*
X340690478Y-64366816D01*
X340690478Y-64366816D02*
X340595240Y-64319197D01*
X340595240Y-64319197D02*
X340452383Y-64319197D01*
X340452383Y-64319197D02*
X340357145Y-64271578D01*
X340357145Y-64271578D02*
X340309526Y-64176340D01*
X340309526Y-64176340D02*
X340309526Y-64128721D01*
X340309526Y-64128721D02*
X340357145Y-64033483D01*
X340357145Y-64033483D02*
X340452383Y-63985864D01*
X340452383Y-63985864D02*
X340595240Y-63985864D01*
X340595240Y-63985864D02*
X340690478Y-64033483D01*
X341071431Y-63985864D02*
X341261907Y-64652531D01*
X341261907Y-64652531D02*
X341452383Y-64176340D01*
X341452383Y-64176340D02*
X341642859Y-64652531D01*
X341642859Y-64652531D02*
X341833335Y-63985864D01*
X342214288Y-64652531D02*
X342214288Y-63985864D01*
X342214288Y-63652531D02*
X342166669Y-63700150D01*
X342166669Y-63700150D02*
X342214288Y-63747769D01*
X342214288Y-63747769D02*
X342261907Y-63700150D01*
X342261907Y-63700150D02*
X342214288Y-63652531D01*
X342214288Y-63652531D02*
X342214288Y-63747769D01*
X342547621Y-63985864D02*
X342928573Y-63985864D01*
X342690478Y-63652531D02*
X342690478Y-64509673D01*
X342690478Y-64509673D02*
X342738097Y-64604912D01*
X342738097Y-64604912D02*
X342833335Y-64652531D01*
X342833335Y-64652531D02*
X342928573Y-64652531D01*
X343690478Y-64604912D02*
X343595240Y-64652531D01*
X343595240Y-64652531D02*
X343404764Y-64652531D01*
X343404764Y-64652531D02*
X343309526Y-64604912D01*
X343309526Y-64604912D02*
X343261907Y-64557292D01*
X343261907Y-64557292D02*
X343214288Y-64462054D01*
X343214288Y-64462054D02*
X343214288Y-64176340D01*
X343214288Y-64176340D02*
X343261907Y-64081102D01*
X343261907Y-64081102D02*
X343309526Y-64033483D01*
X343309526Y-64033483D02*
X343404764Y-63985864D01*
X343404764Y-63985864D02*
X343595240Y-63985864D01*
X343595240Y-63985864D02*
X343690478Y-64033483D01*
X344119050Y-64652531D02*
X344119050Y-63652531D01*
X344547621Y-64652531D02*
X344547621Y-64128721D01*
X344547621Y-64128721D02*
X344500002Y-64033483D01*
X344500002Y-64033483D02*
X344404764Y-63985864D01*
X344404764Y-63985864D02*
X344261907Y-63985864D01*
X344261907Y-63985864D02*
X344166669Y-64033483D01*
X344166669Y-64033483D02*
X344119050Y-64081102D01*
X345404764Y-64604912D02*
X345309526Y-64652531D01*
X345309526Y-64652531D02*
X345119050Y-64652531D01*
X345119050Y-64652531D02*
X345023812Y-64604912D01*
X345023812Y-64604912D02*
X344976193Y-64509673D01*
X344976193Y-64509673D02*
X344976193Y-64128721D01*
X344976193Y-64128721D02*
X345023812Y-64033483D01*
X345023812Y-64033483D02*
X345119050Y-63985864D01*
X345119050Y-63985864D02*
X345309526Y-63985864D01*
X345309526Y-63985864D02*
X345404764Y-64033483D01*
X345404764Y-64033483D02*
X345452383Y-64128721D01*
X345452383Y-64128721D02*
X345452383Y-64223959D01*
X345452383Y-64223959D02*
X344976193Y-64319197D01*
X345833336Y-64604912D02*
X345928574Y-64652531D01*
X345928574Y-64652531D02*
X346119050Y-64652531D01*
X346119050Y-64652531D02*
X346214288Y-64604912D01*
X346214288Y-64604912D02*
X346261907Y-64509673D01*
X346261907Y-64509673D02*
X346261907Y-64462054D01*
X346261907Y-64462054D02*
X346214288Y-64366816D01*
X346214288Y-64366816D02*
X346119050Y-64319197D01*
X346119050Y-64319197D02*
X345976193Y-64319197D01*
X345976193Y-64319197D02*
X345880955Y-64271578D01*
X345880955Y-64271578D02*
X345833336Y-64176340D01*
X345833336Y-64176340D02*
X345833336Y-64128721D01*
X345833336Y-64128721D02*
X345880955Y-64033483D01*
X345880955Y-64033483D02*
X345976193Y-63985864D01*
X345976193Y-63985864D02*
X346119050Y-63985864D01*
X346119050Y-63985864D02*
X346214288Y-64033483D01*
X318452379Y-66262475D02*
X318452379Y-65738665D01*
X318452379Y-65738665D02*
X318404760Y-65643427D01*
X318404760Y-65643427D02*
X318309522Y-65595808D01*
X318309522Y-65595808D02*
X318119046Y-65595808D01*
X318119046Y-65595808D02*
X318023808Y-65643427D01*
X318452379Y-66214856D02*
X318357141Y-66262475D01*
X318357141Y-66262475D02*
X318119046Y-66262475D01*
X318119046Y-66262475D02*
X318023808Y-66214856D01*
X318023808Y-66214856D02*
X317976189Y-66119617D01*
X317976189Y-66119617D02*
X317976189Y-66024379D01*
X317976189Y-66024379D02*
X318023808Y-65929141D01*
X318023808Y-65929141D02*
X318119046Y-65881522D01*
X318119046Y-65881522D02*
X318357141Y-65881522D01*
X318357141Y-65881522D02*
X318452379Y-65833903D01*
X319309522Y-66214856D02*
X319214284Y-66262475D01*
X319214284Y-66262475D02*
X319023808Y-66262475D01*
X319023808Y-66262475D02*
X318928570Y-66214856D01*
X318928570Y-66214856D02*
X318880951Y-66119617D01*
X318880951Y-66119617D02*
X318880951Y-65738665D01*
X318880951Y-65738665D02*
X318928570Y-65643427D01*
X318928570Y-65643427D02*
X319023808Y-65595808D01*
X319023808Y-65595808D02*
X319214284Y-65595808D01*
X319214284Y-65595808D02*
X319309522Y-65643427D01*
X319309522Y-65643427D02*
X319357141Y-65738665D01*
X319357141Y-65738665D02*
X319357141Y-65833903D01*
X319357141Y-65833903D02*
X318880951Y-65929141D01*
X319785713Y-66262475D02*
X319785713Y-65262475D01*
X319785713Y-65643427D02*
X319880951Y-65595808D01*
X319880951Y-65595808D02*
X320071427Y-65595808D01*
X320071427Y-65595808D02*
X320166665Y-65643427D01*
X320166665Y-65643427D02*
X320214284Y-65691046D01*
X320214284Y-65691046D02*
X320261903Y-65786284D01*
X320261903Y-65786284D02*
X320261903Y-66071998D01*
X320261903Y-66071998D02*
X320214284Y-66167236D01*
X320214284Y-66167236D02*
X320166665Y-66214856D01*
X320166665Y-66214856D02*
X320071427Y-66262475D01*
X320071427Y-66262475D02*
X319880951Y-66262475D01*
X319880951Y-66262475D02*
X319785713Y-66214856D01*
X321071427Y-66214856D02*
X320976189Y-66262475D01*
X320976189Y-66262475D02*
X320785713Y-66262475D01*
X320785713Y-66262475D02*
X320690475Y-66214856D01*
X320690475Y-66214856D02*
X320642856Y-66119617D01*
X320642856Y-66119617D02*
X320642856Y-65738665D01*
X320642856Y-65738665D02*
X320690475Y-65643427D01*
X320690475Y-65643427D02*
X320785713Y-65595808D01*
X320785713Y-65595808D02*
X320976189Y-65595808D01*
X320976189Y-65595808D02*
X321071427Y-65643427D01*
X321071427Y-65643427D02*
X321119046Y-65738665D01*
X321119046Y-65738665D02*
X321119046Y-65833903D01*
X321119046Y-65833903D02*
X320642856Y-65929141D01*
X321547618Y-66262475D02*
X321547618Y-65595808D01*
X321547618Y-65786284D02*
X321595237Y-65691046D01*
X321595237Y-65691046D02*
X321642856Y-65643427D01*
X321642856Y-65643427D02*
X321738094Y-65595808D01*
X321738094Y-65595808D02*
X321833332Y-65595808D01*
X322166666Y-66262475D02*
X322166666Y-65262475D01*
X322166666Y-65643427D02*
X322261904Y-65595808D01*
X322261904Y-65595808D02*
X322452380Y-65595808D01*
X322452380Y-65595808D02*
X322547618Y-65643427D01*
X322547618Y-65643427D02*
X322595237Y-65691046D01*
X322595237Y-65691046D02*
X322642856Y-65786284D01*
X322642856Y-65786284D02*
X322642856Y-66071998D01*
X322642856Y-66071998D02*
X322595237Y-66167236D01*
X322595237Y-66167236D02*
X322547618Y-66214856D01*
X322547618Y-66214856D02*
X322452380Y-66262475D01*
X322452380Y-66262475D02*
X322261904Y-66262475D01*
X322261904Y-66262475D02*
X322166666Y-66214856D01*
X323499999Y-66262475D02*
X323499999Y-65738665D01*
X323499999Y-65738665D02*
X323452380Y-65643427D01*
X323452380Y-65643427D02*
X323357142Y-65595808D01*
X323357142Y-65595808D02*
X323166666Y-65595808D01*
X323166666Y-65595808D02*
X323071428Y-65643427D01*
X323499999Y-66214856D02*
X323404761Y-66262475D01*
X323404761Y-66262475D02*
X323166666Y-66262475D01*
X323166666Y-66262475D02*
X323071428Y-66214856D01*
X323071428Y-66214856D02*
X323023809Y-66119617D01*
X323023809Y-66119617D02*
X323023809Y-66024379D01*
X323023809Y-66024379D02*
X323071428Y-65929141D01*
X323071428Y-65929141D02*
X323166666Y-65881522D01*
X323166666Y-65881522D02*
X323404761Y-65881522D01*
X323404761Y-65881522D02*
X323499999Y-65833903D01*
X324404761Y-66214856D02*
X324309523Y-66262475D01*
X324309523Y-66262475D02*
X324119047Y-66262475D01*
X324119047Y-66262475D02*
X324023809Y-66214856D01*
X324023809Y-66214856D02*
X323976190Y-66167236D01*
X323976190Y-66167236D02*
X323928571Y-66071998D01*
X323928571Y-66071998D02*
X323928571Y-65786284D01*
X323928571Y-65786284D02*
X323976190Y-65691046D01*
X323976190Y-65691046D02*
X324023809Y-65643427D01*
X324023809Y-65643427D02*
X324119047Y-65595808D01*
X324119047Y-65595808D02*
X324309523Y-65595808D01*
X324309523Y-65595808D02*
X324404761Y-65643427D01*
X324833333Y-66262475D02*
X324833333Y-65262475D01*
X325261904Y-66262475D02*
X325261904Y-65738665D01*
X325261904Y-65738665D02*
X325214285Y-65643427D01*
X325214285Y-65643427D02*
X325119047Y-65595808D01*
X325119047Y-65595808D02*
X324976190Y-65595808D01*
X324976190Y-65595808D02*
X324880952Y-65643427D01*
X324880952Y-65643427D02*
X324833333Y-65691046D01*
X326690476Y-65262475D02*
X326785714Y-65262475D01*
X326785714Y-65262475D02*
X326880952Y-65310094D01*
X326880952Y-65310094D02*
X326928571Y-65357713D01*
X326928571Y-65357713D02*
X326976190Y-65452951D01*
X326976190Y-65452951D02*
X327023809Y-65643427D01*
X327023809Y-65643427D02*
X327023809Y-65881522D01*
X327023809Y-65881522D02*
X326976190Y-66071998D01*
X326976190Y-66071998D02*
X326928571Y-66167236D01*
X326928571Y-66167236D02*
X326880952Y-66214856D01*
X326880952Y-66214856D02*
X326785714Y-66262475D01*
X326785714Y-66262475D02*
X326690476Y-66262475D01*
X326690476Y-66262475D02*
X326595238Y-66214856D01*
X326595238Y-66214856D02*
X326547619Y-66167236D01*
X326547619Y-66167236D02*
X326500000Y-66071998D01*
X326500000Y-66071998D02*
X326452381Y-65881522D01*
X326452381Y-65881522D02*
X326452381Y-65643427D01*
X326452381Y-65643427D02*
X326500000Y-65452951D01*
X326500000Y-65452951D02*
X326547619Y-65357713D01*
X326547619Y-65357713D02*
X326595238Y-65310094D01*
X326595238Y-65310094D02*
X326690476Y-65262475D01*
X327357143Y-65262475D02*
X328023809Y-65262475D01*
X328023809Y-65262475D02*
X327595238Y-66262475D01*
X329119047Y-65214856D02*
X328261905Y-66500570D01*
X329404762Y-65357713D02*
X329452381Y-65310094D01*
X329452381Y-65310094D02*
X329547619Y-65262475D01*
X329547619Y-65262475D02*
X329785714Y-65262475D01*
X329785714Y-65262475D02*
X329880952Y-65310094D01*
X329880952Y-65310094D02*
X329928571Y-65357713D01*
X329928571Y-65357713D02*
X329976190Y-65452951D01*
X329976190Y-65452951D02*
X329976190Y-65548189D01*
X329976190Y-65548189D02*
X329928571Y-65691046D01*
X329928571Y-65691046D02*
X329357143Y-66262475D01*
X329357143Y-66262475D02*
X329976190Y-66262475D01*
X330833333Y-65595808D02*
X330833333Y-66262475D01*
X330595238Y-65214856D02*
X330357143Y-65929141D01*
X330357143Y-65929141D02*
X330976190Y-65929141D01*
X332547619Y-65595808D02*
X332547619Y-66405332D01*
X332547619Y-66405332D02*
X332500000Y-66500570D01*
X332500000Y-66500570D02*
X332452381Y-66548189D01*
X332452381Y-66548189D02*
X332357143Y-66595808D01*
X332357143Y-66595808D02*
X332214286Y-66595808D01*
X332214286Y-66595808D02*
X332119048Y-66548189D01*
X332547619Y-66214856D02*
X332452381Y-66262475D01*
X332452381Y-66262475D02*
X332261905Y-66262475D01*
X332261905Y-66262475D02*
X332166667Y-66214856D01*
X332166667Y-66214856D02*
X332119048Y-66167236D01*
X332119048Y-66167236D02*
X332071429Y-66071998D01*
X332071429Y-66071998D02*
X332071429Y-65786284D01*
X332071429Y-65786284D02*
X332119048Y-65691046D01*
X332119048Y-65691046D02*
X332166667Y-65643427D01*
X332166667Y-65643427D02*
X332261905Y-65595808D01*
X332261905Y-65595808D02*
X332452381Y-65595808D01*
X332452381Y-65595808D02*
X332547619Y-65643427D01*
X333023810Y-66262475D02*
X333023810Y-65595808D01*
X333023810Y-65786284D02*
X333071429Y-65691046D01*
X333071429Y-65691046D02*
X333119048Y-65643427D01*
X333119048Y-65643427D02*
X333214286Y-65595808D01*
X333214286Y-65595808D02*
X333309524Y-65595808D01*
X334071429Y-66262475D02*
X334071429Y-65738665D01*
X334071429Y-65738665D02*
X334023810Y-65643427D01*
X334023810Y-65643427D02*
X333928572Y-65595808D01*
X333928572Y-65595808D02*
X333738096Y-65595808D01*
X333738096Y-65595808D02*
X333642858Y-65643427D01*
X334071429Y-66214856D02*
X333976191Y-66262475D01*
X333976191Y-66262475D02*
X333738096Y-66262475D01*
X333738096Y-66262475D02*
X333642858Y-66214856D01*
X333642858Y-66214856D02*
X333595239Y-66119617D01*
X333595239Y-66119617D02*
X333595239Y-66024379D01*
X333595239Y-66024379D02*
X333642858Y-65929141D01*
X333642858Y-65929141D02*
X333738096Y-65881522D01*
X333738096Y-65881522D02*
X333976191Y-65881522D01*
X333976191Y-65881522D02*
X334071429Y-65833903D01*
X334452382Y-65595808D02*
X334690477Y-66262475D01*
X334928572Y-65595808D02*
X334690477Y-66262475D01*
X334690477Y-66262475D02*
X334595239Y-66500570D01*
X334595239Y-66500570D02*
X334547620Y-66548189D01*
X334547620Y-66548189D02*
X334452382Y-66595808D01*
X335738096Y-65595808D02*
X335738096Y-66262475D01*
X335309525Y-65595808D02*
X335309525Y-66119617D01*
X335309525Y-66119617D02*
X335357144Y-66214856D01*
X335357144Y-66214856D02*
X335452382Y-66262475D01*
X335452382Y-66262475D02*
X335595239Y-66262475D01*
X335595239Y-66262475D02*
X335690477Y-66214856D01*
X335690477Y-66214856D02*
X335738096Y-66167236D01*
X336214287Y-65595808D02*
X336214287Y-66262475D01*
X336214287Y-65691046D02*
X336261906Y-65643427D01*
X336261906Y-65643427D02*
X336357144Y-65595808D01*
X336357144Y-65595808D02*
X336500001Y-65595808D01*
X336500001Y-65595808D02*
X336595239Y-65643427D01*
X336595239Y-65643427D02*
X336642858Y-65738665D01*
X336642858Y-65738665D02*
X336642858Y-66262475D01*
X337119049Y-66262475D02*
X337119049Y-65595808D01*
X337119049Y-65262475D02*
X337071430Y-65310094D01*
X337071430Y-65310094D02*
X337119049Y-65357713D01*
X337119049Y-65357713D02*
X337166668Y-65310094D01*
X337166668Y-65310094D02*
X337119049Y-65262475D01*
X337119049Y-65262475D02*
X337119049Y-65357713D01*
X338023810Y-66214856D02*
X337928572Y-66262475D01*
X337928572Y-66262475D02*
X337738096Y-66262475D01*
X337738096Y-66262475D02*
X337642858Y-66214856D01*
X337642858Y-66214856D02*
X337595239Y-66167236D01*
X337595239Y-66167236D02*
X337547620Y-66071998D01*
X337547620Y-66071998D02*
X337547620Y-65786284D01*
X337547620Y-65786284D02*
X337595239Y-65691046D01*
X337595239Y-65691046D02*
X337642858Y-65643427D01*
X337642858Y-65643427D02*
X337738096Y-65595808D01*
X337738096Y-65595808D02*
X337928572Y-65595808D01*
X337928572Y-65595808D02*
X338023810Y-65643427D01*
X338595239Y-66262475D02*
X338500001Y-66214856D01*
X338500001Y-66214856D02*
X338452382Y-66167236D01*
X338452382Y-66167236D02*
X338404763Y-66071998D01*
X338404763Y-66071998D02*
X338404763Y-65786284D01*
X338404763Y-65786284D02*
X338452382Y-65691046D01*
X338452382Y-65691046D02*
X338500001Y-65643427D01*
X338500001Y-65643427D02*
X338595239Y-65595808D01*
X338595239Y-65595808D02*
X338738096Y-65595808D01*
X338738096Y-65595808D02*
X338833334Y-65643427D01*
X338833334Y-65643427D02*
X338880953Y-65691046D01*
X338880953Y-65691046D02*
X338928572Y-65786284D01*
X338928572Y-65786284D02*
X338928572Y-66071998D01*
X338928572Y-66071998D02*
X338880953Y-66167236D01*
X338880953Y-66167236D02*
X338833334Y-66214856D01*
X338833334Y-66214856D02*
X338738096Y-66262475D01*
X338738096Y-66262475D02*
X338595239Y-66262475D01*
X339357144Y-66262475D02*
X339357144Y-65595808D01*
X339357144Y-65786284D02*
X339404763Y-65691046D01*
X339404763Y-65691046D02*
X339452382Y-65643427D01*
X339452382Y-65643427D02*
X339547620Y-65595808D01*
X339547620Y-65595808D02*
X339642858Y-65595808D01*
X339976192Y-65595808D02*
X339976192Y-66262475D01*
X339976192Y-65691046D02*
X340023811Y-65643427D01*
X340023811Y-65643427D02*
X340119049Y-65595808D01*
X340119049Y-65595808D02*
X340261906Y-65595808D01*
X340261906Y-65595808D02*
X340357144Y-65643427D01*
X340357144Y-65643427D02*
X340404763Y-65738665D01*
X340404763Y-65738665D02*
X340404763Y-66262475D01*
X340880954Y-66167236D02*
X340928573Y-66214856D01*
X340928573Y-66214856D02*
X340880954Y-66262475D01*
X340880954Y-66262475D02*
X340833335Y-66214856D01*
X340833335Y-66214856D02*
X340880954Y-66167236D01*
X340880954Y-66167236D02*
X340880954Y-66262475D01*
X341785715Y-66214856D02*
X341690477Y-66262475D01*
X341690477Y-66262475D02*
X341500001Y-66262475D01*
X341500001Y-66262475D02*
X341404763Y-66214856D01*
X341404763Y-66214856D02*
X341357144Y-66167236D01*
X341357144Y-66167236D02*
X341309525Y-66071998D01*
X341309525Y-66071998D02*
X341309525Y-65786284D01*
X341309525Y-65786284D02*
X341357144Y-65691046D01*
X341357144Y-65691046D02*
X341404763Y-65643427D01*
X341404763Y-65643427D02*
X341500001Y-65595808D01*
X341500001Y-65595808D02*
X341690477Y-65595808D01*
X341690477Y-65595808D02*
X341785715Y-65643427D01*
X342357144Y-66262475D02*
X342261906Y-66214856D01*
X342261906Y-66214856D02*
X342214287Y-66167236D01*
X342214287Y-66167236D02*
X342166668Y-66071998D01*
X342166668Y-66071998D02*
X342166668Y-65786284D01*
X342166668Y-65786284D02*
X342214287Y-65691046D01*
X342214287Y-65691046D02*
X342261906Y-65643427D01*
X342261906Y-65643427D02*
X342357144Y-65595808D01*
X342357144Y-65595808D02*
X342500001Y-65595808D01*
X342500001Y-65595808D02*
X342595239Y-65643427D01*
X342595239Y-65643427D02*
X342642858Y-65691046D01*
X342642858Y-65691046D02*
X342690477Y-65786284D01*
X342690477Y-65786284D02*
X342690477Y-66071998D01*
X342690477Y-66071998D02*
X342642858Y-66167236D01*
X342642858Y-66167236D02*
X342595239Y-66214856D01*
X342595239Y-66214856D02*
X342500001Y-66262475D01*
X342500001Y-66262475D02*
X342357144Y-66262475D01*
X343119049Y-66262475D02*
X343119049Y-65595808D01*
X343119049Y-65691046D02*
X343166668Y-65643427D01*
X343166668Y-65643427D02*
X343261906Y-65595808D01*
X343261906Y-65595808D02*
X343404763Y-65595808D01*
X343404763Y-65595808D02*
X343500001Y-65643427D01*
X343500001Y-65643427D02*
X343547620Y-65738665D01*
X343547620Y-65738665D02*
X343547620Y-66262475D01*
X343547620Y-65738665D02*
X343595239Y-65643427D01*
X343595239Y-65643427D02*
X343690477Y-65595808D01*
X343690477Y-65595808D02*
X343833334Y-65595808D01*
X343833334Y-65595808D02*
X343928573Y-65643427D01*
X343928573Y-65643427D02*
X343976192Y-65738665D01*
X343976192Y-65738665D02*
X343976192Y-66262475D01*
X320619047Y-67872419D02*
X320142857Y-67872419D01*
X320142857Y-67872419D02*
X320142857Y-66872419D01*
X320952381Y-67872419D02*
X320952381Y-66872419D01*
X321999999Y-67777180D02*
X321952380Y-67824800D01*
X321952380Y-67824800D02*
X321809523Y-67872419D01*
X321809523Y-67872419D02*
X321714285Y-67872419D01*
X321714285Y-67872419D02*
X321571428Y-67824800D01*
X321571428Y-67824800D02*
X321476190Y-67729561D01*
X321476190Y-67729561D02*
X321428571Y-67634323D01*
X321428571Y-67634323D02*
X321380952Y-67443847D01*
X321380952Y-67443847D02*
X321380952Y-67300990D01*
X321380952Y-67300990D02*
X321428571Y-67110514D01*
X321428571Y-67110514D02*
X321476190Y-67015276D01*
X321476190Y-67015276D02*
X321571428Y-66920038D01*
X321571428Y-66920038D02*
X321714285Y-66872419D01*
X321714285Y-66872419D02*
X321809523Y-66872419D01*
X321809523Y-66872419D02*
X321952380Y-66920038D01*
X321952380Y-66920038D02*
X321999999Y-66967657D01*
X322428571Y-67348609D02*
X322761904Y-67348609D01*
X322904761Y-67872419D02*
X322428571Y-67872419D01*
X322428571Y-67872419D02*
X322428571Y-66872419D01*
X322428571Y-66872419D02*
X322904761Y-66872419D01*
X323333333Y-67872419D02*
X323333333Y-66872419D01*
X323333333Y-66872419D02*
X323904761Y-67872419D01*
X323904761Y-67872419D02*
X323904761Y-66872419D01*
X324333333Y-67824800D02*
X324476190Y-67872419D01*
X324476190Y-67872419D02*
X324714285Y-67872419D01*
X324714285Y-67872419D02*
X324809523Y-67824800D01*
X324809523Y-67824800D02*
X324857142Y-67777180D01*
X324857142Y-67777180D02*
X324904761Y-67681942D01*
X324904761Y-67681942D02*
X324904761Y-67586704D01*
X324904761Y-67586704D02*
X324857142Y-67491466D01*
X324857142Y-67491466D02*
X324809523Y-67443847D01*
X324809523Y-67443847D02*
X324714285Y-67396228D01*
X324714285Y-67396228D02*
X324523809Y-67348609D01*
X324523809Y-67348609D02*
X324428571Y-67300990D01*
X324428571Y-67300990D02*
X324380952Y-67253371D01*
X324380952Y-67253371D02*
X324333333Y-67158133D01*
X324333333Y-67158133D02*
X324333333Y-67062895D01*
X324333333Y-67062895D02*
X324380952Y-66967657D01*
X324380952Y-66967657D02*
X324428571Y-66920038D01*
X324428571Y-66920038D02*
X324523809Y-66872419D01*
X324523809Y-66872419D02*
X324761904Y-66872419D01*
X324761904Y-66872419D02*
X324904761Y-66920038D01*
X325333333Y-67348609D02*
X325666666Y-67348609D01*
X325809523Y-67872419D02*
X325333333Y-67872419D01*
X325333333Y-67872419D02*
X325333333Y-66872419D01*
X325333333Y-66872419D02*
X325809523Y-66872419D01*
X326238095Y-67777180D02*
X326285714Y-67824800D01*
X326285714Y-67824800D02*
X326238095Y-67872419D01*
X326238095Y-67872419D02*
X326190476Y-67824800D01*
X326190476Y-67824800D02*
X326238095Y-67777180D01*
X326238095Y-67777180D02*
X326238095Y-67872419D01*
X326238095Y-67253371D02*
X326285714Y-67300990D01*
X326285714Y-67300990D02*
X326238095Y-67348609D01*
X326238095Y-67348609D02*
X326190476Y-67300990D01*
X326190476Y-67300990D02*
X326238095Y-67253371D01*
X326238095Y-67253371D02*
X326238095Y-67348609D01*
X328047618Y-67777180D02*
X327999999Y-67824800D01*
X327999999Y-67824800D02*
X327857142Y-67872419D01*
X327857142Y-67872419D02*
X327761904Y-67872419D01*
X327761904Y-67872419D02*
X327619047Y-67824800D01*
X327619047Y-67824800D02*
X327523809Y-67729561D01*
X327523809Y-67729561D02*
X327476190Y-67634323D01*
X327476190Y-67634323D02*
X327428571Y-67443847D01*
X327428571Y-67443847D02*
X327428571Y-67300990D01*
X327428571Y-67300990D02*
X327476190Y-67110514D01*
X327476190Y-67110514D02*
X327523809Y-67015276D01*
X327523809Y-67015276D02*
X327619047Y-66920038D01*
X327619047Y-66920038D02*
X327761904Y-66872419D01*
X327761904Y-66872419D02*
X327857142Y-66872419D01*
X327857142Y-66872419D02*
X327999999Y-66920038D01*
X327999999Y-66920038D02*
X328047618Y-66967657D01*
X329047618Y-67777180D02*
X328999999Y-67824800D01*
X328999999Y-67824800D02*
X328857142Y-67872419D01*
X328857142Y-67872419D02*
X328761904Y-67872419D01*
X328761904Y-67872419D02*
X328619047Y-67824800D01*
X328619047Y-67824800D02*
X328523809Y-67729561D01*
X328523809Y-67729561D02*
X328476190Y-67634323D01*
X328476190Y-67634323D02*
X328428571Y-67443847D01*
X328428571Y-67443847D02*
X328428571Y-67300990D01*
X328428571Y-67300990D02*
X328476190Y-67110514D01*
X328476190Y-67110514D02*
X328523809Y-67015276D01*
X328523809Y-67015276D02*
X328619047Y-66920038D01*
X328619047Y-66920038D02*
X328761904Y-66872419D01*
X328761904Y-66872419D02*
X328857142Y-66872419D01*
X328857142Y-66872419D02*
X328999999Y-66920038D01*
X328999999Y-66920038D02*
X329047618Y-66967657D01*
X330571428Y-67348609D02*
X330714285Y-67396228D01*
X330714285Y-67396228D02*
X330761904Y-67443847D01*
X330761904Y-67443847D02*
X330809523Y-67539085D01*
X330809523Y-67539085D02*
X330809523Y-67681942D01*
X330809523Y-67681942D02*
X330761904Y-67777180D01*
X330761904Y-67777180D02*
X330714285Y-67824800D01*
X330714285Y-67824800D02*
X330619047Y-67872419D01*
X330619047Y-67872419D02*
X330238095Y-67872419D01*
X330238095Y-67872419D02*
X330238095Y-66872419D01*
X330238095Y-66872419D02*
X330571428Y-66872419D01*
X330571428Y-66872419D02*
X330666666Y-66920038D01*
X330666666Y-66920038D02*
X330714285Y-66967657D01*
X330714285Y-66967657D02*
X330761904Y-67062895D01*
X330761904Y-67062895D02*
X330761904Y-67158133D01*
X330761904Y-67158133D02*
X330714285Y-67253371D01*
X330714285Y-67253371D02*
X330666666Y-67300990D01*
X330666666Y-67300990D02*
X330571428Y-67348609D01*
X330571428Y-67348609D02*
X330238095Y-67348609D01*
X331428571Y-67396228D02*
X331428571Y-67872419D01*
X331095238Y-66872419D02*
X331428571Y-67396228D01*
X331428571Y-67396228D02*
X331761904Y-66872419D01*
X332095238Y-67491466D02*
X332857143Y-67491466D01*
X333333333Y-67872419D02*
X333333333Y-66872419D01*
X333333333Y-66872419D02*
X333904761Y-67872419D01*
X333904761Y-67872419D02*
X333904761Y-66872419D01*
X334952380Y-67777180D02*
X334904761Y-67824800D01*
X334904761Y-67824800D02*
X334761904Y-67872419D01*
X334761904Y-67872419D02*
X334666666Y-67872419D01*
X334666666Y-67872419D02*
X334523809Y-67824800D01*
X334523809Y-67824800D02*
X334428571Y-67729561D01*
X334428571Y-67729561D02*
X334380952Y-67634323D01*
X334380952Y-67634323D02*
X334333333Y-67443847D01*
X334333333Y-67443847D02*
X334333333Y-67300990D01*
X334333333Y-67300990D02*
X334380952Y-67110514D01*
X334380952Y-67110514D02*
X334428571Y-67015276D01*
X334428571Y-67015276D02*
X334523809Y-66920038D01*
X334523809Y-66920038D02*
X334666666Y-66872419D01*
X334666666Y-66872419D02*
X334761904Y-66872419D01*
X334761904Y-66872419D02*
X334904761Y-66920038D01*
X334904761Y-66920038D02*
X334952380Y-66967657D01*
X335380952Y-67491466D02*
X336142857Y-67491466D01*
X336571428Y-67824800D02*
X336714285Y-67872419D01*
X336714285Y-67872419D02*
X336952380Y-67872419D01*
X336952380Y-67872419D02*
X337047618Y-67824800D01*
X337047618Y-67824800D02*
X337095237Y-67777180D01*
X337095237Y-67777180D02*
X337142856Y-67681942D01*
X337142856Y-67681942D02*
X337142856Y-67586704D01*
X337142856Y-67586704D02*
X337095237Y-67491466D01*
X337095237Y-67491466D02*
X337047618Y-67443847D01*
X337047618Y-67443847D02*
X336952380Y-67396228D01*
X336952380Y-67396228D02*
X336761904Y-67348609D01*
X336761904Y-67348609D02*
X336666666Y-67300990D01*
X336666666Y-67300990D02*
X336619047Y-67253371D01*
X336619047Y-67253371D02*
X336571428Y-67158133D01*
X336571428Y-67158133D02*
X336571428Y-67062895D01*
X336571428Y-67062895D02*
X336619047Y-66967657D01*
X336619047Y-66967657D02*
X336666666Y-66920038D01*
X336666666Y-66920038D02*
X336761904Y-66872419D01*
X336761904Y-66872419D02*
X336999999Y-66872419D01*
X336999999Y-66872419D02*
X337142856Y-66920038D01*
X337523809Y-67586704D02*
X337999999Y-67586704D01*
X337428571Y-67872419D02*
X337761904Y-66872419D01*
X337761904Y-66872419D02*
X338095237Y-67872419D01*
X339619047Y-67205752D02*
X339619047Y-67872419D01*
X339380952Y-66824800D02*
X339142857Y-67539085D01*
X339142857Y-67539085D02*
X339761904Y-67539085D01*
X340142857Y-67777180D02*
X340190476Y-67824800D01*
X340190476Y-67824800D02*
X340142857Y-67872419D01*
X340142857Y-67872419D02*
X340095238Y-67824800D01*
X340095238Y-67824800D02*
X340142857Y-67777180D01*
X340142857Y-67777180D02*
X340142857Y-67872419D01*
X340809523Y-66872419D02*
X340904761Y-66872419D01*
X340904761Y-66872419D02*
X340999999Y-66920038D01*
X340999999Y-66920038D02*
X341047618Y-66967657D01*
X341047618Y-66967657D02*
X341095237Y-67062895D01*
X341095237Y-67062895D02*
X341142856Y-67253371D01*
X341142856Y-67253371D02*
X341142856Y-67491466D01*
X341142856Y-67491466D02*
X341095237Y-67681942D01*
X341095237Y-67681942D02*
X341047618Y-67777180D01*
X341047618Y-67777180D02*
X340999999Y-67824800D01*
X340999999Y-67824800D02*
X340904761Y-67872419D01*
X340904761Y-67872419D02*
X340809523Y-67872419D01*
X340809523Y-67872419D02*
X340714285Y-67824800D01*
X340714285Y-67824800D02*
X340666666Y-67777180D01*
X340666666Y-67777180D02*
X340619047Y-67681942D01*
X340619047Y-67681942D02*
X340571428Y-67491466D01*
X340571428Y-67491466D02*
X340571428Y-67253371D01*
X340571428Y-67253371D02*
X340619047Y-67062895D01*
X340619047Y-67062895D02*
X340666666Y-66967657D01*
X340666666Y-66967657D02*
X340714285Y-66920038D01*
X340714285Y-66920038D02*
X340809523Y-66872419D01*
D12*
X84709524Y-150362295D02*
X84328572Y-150362295D01*
X84328572Y-150362295D02*
X84328572Y-149562295D01*
X84785715Y-150438485D02*
X85395238Y-150438485D01*
X85547619Y-150133723D02*
X85928572Y-150133723D01*
X85471429Y-150362295D02*
X85738096Y-149562295D01*
X85738096Y-149562295D02*
X86004762Y-150362295D01*
X86271429Y-150362295D02*
X86271429Y-149562295D01*
X86271429Y-149562295D02*
X86538095Y-150133723D01*
X86538095Y-150133723D02*
X86804762Y-149562295D01*
X86804762Y-149562295D02*
X86804762Y-150362295D01*
X87185715Y-150362295D02*
X87185715Y-149562295D01*
X87985714Y-149600390D02*
X87909524Y-149562295D01*
X87909524Y-149562295D02*
X87795238Y-149562295D01*
X87795238Y-149562295D02*
X87680952Y-149600390D01*
X87680952Y-149600390D02*
X87604762Y-149676580D01*
X87604762Y-149676580D02*
X87566667Y-149752771D01*
X87566667Y-149752771D02*
X87528571Y-149905152D01*
X87528571Y-149905152D02*
X87528571Y-150019438D01*
X87528571Y-150019438D02*
X87566667Y-150171819D01*
X87566667Y-150171819D02*
X87604762Y-150248009D01*
X87604762Y-150248009D02*
X87680952Y-150324200D01*
X87680952Y-150324200D02*
X87795238Y-150362295D01*
X87795238Y-150362295D02*
X87871429Y-150362295D01*
X87871429Y-150362295D02*
X87985714Y-150324200D01*
X87985714Y-150324200D02*
X88023810Y-150286104D01*
X88023810Y-150286104D02*
X88023810Y-150019438D01*
X88023810Y-150019438D02*
X87871429Y-150019438D01*
X88328571Y-150133723D02*
X88709524Y-150133723D01*
X88252381Y-150362295D02*
X88519048Y-149562295D01*
X88519048Y-149562295D02*
X88785714Y-150362295D01*
X346833333Y-94454819D02*
X346500000Y-93978628D01*
X346261905Y-94454819D02*
X346261905Y-93454819D01*
X346261905Y-93454819D02*
X346642857Y-93454819D01*
X346642857Y-93454819D02*
X346738095Y-93502438D01*
X346738095Y-93502438D02*
X346785714Y-93550057D01*
X346785714Y-93550057D02*
X346833333Y-93645295D01*
X346833333Y-93645295D02*
X346833333Y-93788152D01*
X346833333Y-93788152D02*
X346785714Y-93883390D01*
X346785714Y-93883390D02*
X346738095Y-93931009D01*
X346738095Y-93931009D02*
X346642857Y-93978628D01*
X346642857Y-93978628D02*
X346261905Y-93978628D01*
X347738095Y-93454819D02*
X347261905Y-93454819D01*
X347261905Y-93454819D02*
X347214286Y-93931009D01*
X347214286Y-93931009D02*
X347261905Y-93883390D01*
X347261905Y-93883390D02*
X347357143Y-93835771D01*
X347357143Y-93835771D02*
X347595238Y-93835771D01*
X347595238Y-93835771D02*
X347690476Y-93883390D01*
X347690476Y-93883390D02*
X347738095Y-93931009D01*
X347738095Y-93931009D02*
X347785714Y-94026247D01*
X347785714Y-94026247D02*
X347785714Y-94264342D01*
X347785714Y-94264342D02*
X347738095Y-94359580D01*
X347738095Y-94359580D02*
X347690476Y-94407200D01*
X347690476Y-94407200D02*
X347595238Y-94454819D01*
X347595238Y-94454819D02*
X347357143Y-94454819D01*
X347357143Y-94454819D02*
X347261905Y-94407200D01*
X347261905Y-94407200D02*
X347214286Y-94359580D01*
X322716667Y-150186104D02*
X322678571Y-150224200D01*
X322678571Y-150224200D02*
X322564286Y-150262295D01*
X322564286Y-150262295D02*
X322488095Y-150262295D01*
X322488095Y-150262295D02*
X322373809Y-150224200D01*
X322373809Y-150224200D02*
X322297619Y-150148009D01*
X322297619Y-150148009D02*
X322259524Y-150071819D01*
X322259524Y-150071819D02*
X322221428Y-149919438D01*
X322221428Y-149919438D02*
X322221428Y-149805152D01*
X322221428Y-149805152D02*
X322259524Y-149652771D01*
X322259524Y-149652771D02*
X322297619Y-149576580D01*
X322297619Y-149576580D02*
X322373809Y-149500390D01*
X322373809Y-149500390D02*
X322488095Y-149462295D01*
X322488095Y-149462295D02*
X322564286Y-149462295D01*
X322564286Y-149462295D02*
X322678571Y-149500390D01*
X322678571Y-149500390D02*
X322716667Y-149538485D01*
X323021428Y-150224200D02*
X323135714Y-150262295D01*
X323135714Y-150262295D02*
X323326190Y-150262295D01*
X323326190Y-150262295D02*
X323402381Y-150224200D01*
X323402381Y-150224200D02*
X323440476Y-150186104D01*
X323440476Y-150186104D02*
X323478571Y-150109914D01*
X323478571Y-150109914D02*
X323478571Y-150033723D01*
X323478571Y-150033723D02*
X323440476Y-149957533D01*
X323440476Y-149957533D02*
X323402381Y-149919438D01*
X323402381Y-149919438D02*
X323326190Y-149881342D01*
X323326190Y-149881342D02*
X323173809Y-149843247D01*
X323173809Y-149843247D02*
X323097619Y-149805152D01*
X323097619Y-149805152D02*
X323059524Y-149767057D01*
X323059524Y-149767057D02*
X323021428Y-149690866D01*
X323021428Y-149690866D02*
X323021428Y-149614676D01*
X323021428Y-149614676D02*
X323059524Y-149538485D01*
X323059524Y-149538485D02*
X323097619Y-149500390D01*
X323097619Y-149500390D02*
X323173809Y-149462295D01*
X323173809Y-149462295D02*
X323364286Y-149462295D01*
X323364286Y-149462295D02*
X323478571Y-149500390D01*
X324278572Y-150262295D02*
X324011905Y-149881342D01*
X323821429Y-150262295D02*
X323821429Y-149462295D01*
X323821429Y-149462295D02*
X324126191Y-149462295D01*
X324126191Y-149462295D02*
X324202381Y-149500390D01*
X324202381Y-149500390D02*
X324240476Y-149538485D01*
X324240476Y-149538485D02*
X324278572Y-149614676D01*
X324278572Y-149614676D02*
X324278572Y-149728961D01*
X324278572Y-149728961D02*
X324240476Y-149805152D01*
X324240476Y-149805152D02*
X324202381Y-149843247D01*
X324202381Y-149843247D02*
X324126191Y-149881342D01*
X324126191Y-149881342D02*
X323821429Y-149881342D01*
X324430953Y-150338485D02*
X325040476Y-150338485D01*
X325230953Y-150262295D02*
X325230953Y-149462295D01*
X325230953Y-149462295D02*
X325421429Y-149462295D01*
X325421429Y-149462295D02*
X325535715Y-149500390D01*
X325535715Y-149500390D02*
X325611905Y-149576580D01*
X325611905Y-149576580D02*
X325650000Y-149652771D01*
X325650000Y-149652771D02*
X325688096Y-149805152D01*
X325688096Y-149805152D02*
X325688096Y-149919438D01*
X325688096Y-149919438D02*
X325650000Y-150071819D01*
X325650000Y-150071819D02*
X325611905Y-150148009D01*
X325611905Y-150148009D02*
X325535715Y-150224200D01*
X325535715Y-150224200D02*
X325421429Y-150262295D01*
X325421429Y-150262295D02*
X325230953Y-150262295D01*
X326183334Y-149462295D02*
X326335715Y-149462295D01*
X326335715Y-149462295D02*
X326411905Y-149500390D01*
X326411905Y-149500390D02*
X326488096Y-149576580D01*
X326488096Y-149576580D02*
X326526191Y-149728961D01*
X326526191Y-149728961D02*
X326526191Y-149995628D01*
X326526191Y-149995628D02*
X326488096Y-150148009D01*
X326488096Y-150148009D02*
X326411905Y-150224200D01*
X326411905Y-150224200D02*
X326335715Y-150262295D01*
X326335715Y-150262295D02*
X326183334Y-150262295D01*
X326183334Y-150262295D02*
X326107143Y-150224200D01*
X326107143Y-150224200D02*
X326030953Y-150148009D01*
X326030953Y-150148009D02*
X325992857Y-149995628D01*
X325992857Y-149995628D02*
X325992857Y-149728961D01*
X325992857Y-149728961D02*
X326030953Y-149576580D01*
X326030953Y-149576580D02*
X326107143Y-149500390D01*
X326107143Y-149500390D02*
X326183334Y-149462295D01*
X326792857Y-149462295D02*
X326983333Y-150262295D01*
X326983333Y-150262295D02*
X327135714Y-149690866D01*
X327135714Y-149690866D02*
X327288095Y-150262295D01*
X327288095Y-150262295D02*
X327478572Y-149462295D01*
X327783334Y-150262295D02*
X327783334Y-149462295D01*
X327783334Y-149462295D02*
X328240477Y-150262295D01*
X328240477Y-150262295D02*
X328240477Y-149462295D01*
X261233333Y-44943247D02*
X260966667Y-44943247D01*
X260966667Y-45362295D02*
X260966667Y-44562295D01*
X260966667Y-44562295D02*
X261347619Y-44562295D01*
X261766666Y-44905152D02*
X261690476Y-44867057D01*
X261690476Y-44867057D02*
X261652381Y-44828961D01*
X261652381Y-44828961D02*
X261614285Y-44752771D01*
X261614285Y-44752771D02*
X261614285Y-44714676D01*
X261614285Y-44714676D02*
X261652381Y-44638485D01*
X261652381Y-44638485D02*
X261690476Y-44600390D01*
X261690476Y-44600390D02*
X261766666Y-44562295D01*
X261766666Y-44562295D02*
X261919047Y-44562295D01*
X261919047Y-44562295D02*
X261995238Y-44600390D01*
X261995238Y-44600390D02*
X262033333Y-44638485D01*
X262033333Y-44638485D02*
X262071428Y-44714676D01*
X262071428Y-44714676D02*
X262071428Y-44752771D01*
X262071428Y-44752771D02*
X262033333Y-44828961D01*
X262033333Y-44828961D02*
X261995238Y-44867057D01*
X261995238Y-44867057D02*
X261919047Y-44905152D01*
X261919047Y-44905152D02*
X261766666Y-44905152D01*
X261766666Y-44905152D02*
X261690476Y-44943247D01*
X261690476Y-44943247D02*
X261652381Y-44981342D01*
X261652381Y-44981342D02*
X261614285Y-45057533D01*
X261614285Y-45057533D02*
X261614285Y-45209914D01*
X261614285Y-45209914D02*
X261652381Y-45286104D01*
X261652381Y-45286104D02*
X261690476Y-45324200D01*
X261690476Y-45324200D02*
X261766666Y-45362295D01*
X261766666Y-45362295D02*
X261919047Y-45362295D01*
X261919047Y-45362295D02*
X261995238Y-45324200D01*
X261995238Y-45324200D02*
X262033333Y-45286104D01*
X262033333Y-45286104D02*
X262071428Y-45209914D01*
X262071428Y-45209914D02*
X262071428Y-45057533D01*
X262071428Y-45057533D02*
X262033333Y-44981342D01*
X262033333Y-44981342D02*
X261995238Y-44943247D01*
X261995238Y-44943247D02*
X261919047Y-44905152D01*
X267695238Y-73557533D02*
X268304762Y-73557533D01*
X196521429Y-131162295D02*
X196521429Y-130362295D01*
X196521429Y-130362295D02*
X196978572Y-131162295D01*
X196978572Y-131162295D02*
X196978572Y-130362295D01*
X158483333Y-130362295D02*
X158750000Y-131162295D01*
X158750000Y-131162295D02*
X159016666Y-130362295D01*
X296597619Y-93375530D02*
X296788095Y-93375530D01*
X296788095Y-93375530D02*
X296788095Y-92232673D01*
X296788095Y-92232673D02*
X296597619Y-92232673D01*
X263538095Y-112024200D02*
X263538095Y-112062295D01*
X263538095Y-112062295D02*
X263500000Y-112138485D01*
X263500000Y-112138485D02*
X263461904Y-112176580D01*
X263500000Y-111567057D02*
X263538095Y-111605152D01*
X263538095Y-111605152D02*
X263500000Y-111643247D01*
X263500000Y-111643247D02*
X263461904Y-111605152D01*
X263461904Y-111605152D02*
X263500000Y-111567057D01*
X263500000Y-111567057D02*
X263500000Y-111643247D01*
X52995238Y-73062295D02*
X53452381Y-73062295D01*
X53223809Y-73862295D02*
X53223809Y-73062295D01*
X53719048Y-73862295D02*
X53719048Y-73062295D01*
X54480952Y-73862295D02*
X54100000Y-73862295D01*
X54100000Y-73862295D02*
X54100000Y-73062295D01*
X54747619Y-73862295D02*
X54747619Y-73062295D01*
X54747619Y-73062295D02*
X54938095Y-73062295D01*
X54938095Y-73062295D02*
X55052381Y-73100390D01*
X55052381Y-73100390D02*
X55128571Y-73176580D01*
X55128571Y-73176580D02*
X55166666Y-73252771D01*
X55166666Y-73252771D02*
X55204762Y-73405152D01*
X55204762Y-73405152D02*
X55204762Y-73519438D01*
X55204762Y-73519438D02*
X55166666Y-73671819D01*
X55166666Y-73671819D02*
X55128571Y-73748009D01*
X55128571Y-73748009D02*
X55052381Y-73824200D01*
X55052381Y-73824200D02*
X54938095Y-73862295D01*
X54938095Y-73862295D02*
X54747619Y-73862295D01*
X55547619Y-73443247D02*
X55814285Y-73443247D01*
X55928571Y-73862295D02*
X55547619Y-73862295D01*
X55547619Y-73862295D02*
X55547619Y-73062295D01*
X55547619Y-73062295D02*
X55928571Y-73062295D01*
X304078571Y-150186104D02*
X304040475Y-150224200D01*
X304040475Y-150224200D02*
X303926190Y-150262295D01*
X303926190Y-150262295D02*
X303849999Y-150262295D01*
X303849999Y-150262295D02*
X303735713Y-150224200D01*
X303735713Y-150224200D02*
X303659523Y-150148009D01*
X303659523Y-150148009D02*
X303621428Y-150071819D01*
X303621428Y-150071819D02*
X303583332Y-149919438D01*
X303583332Y-149919438D02*
X303583332Y-149805152D01*
X303583332Y-149805152D02*
X303621428Y-149652771D01*
X303621428Y-149652771D02*
X303659523Y-149576580D01*
X303659523Y-149576580D02*
X303735713Y-149500390D01*
X303735713Y-149500390D02*
X303849999Y-149462295D01*
X303849999Y-149462295D02*
X303926190Y-149462295D01*
X303926190Y-149462295D02*
X304040475Y-149500390D01*
X304040475Y-149500390D02*
X304078571Y-149538485D01*
X304383332Y-150224200D02*
X304497618Y-150262295D01*
X304497618Y-150262295D02*
X304688094Y-150262295D01*
X304688094Y-150262295D02*
X304764285Y-150224200D01*
X304764285Y-150224200D02*
X304802380Y-150186104D01*
X304802380Y-150186104D02*
X304840475Y-150109914D01*
X304840475Y-150109914D02*
X304840475Y-150033723D01*
X304840475Y-150033723D02*
X304802380Y-149957533D01*
X304802380Y-149957533D02*
X304764285Y-149919438D01*
X304764285Y-149919438D02*
X304688094Y-149881342D01*
X304688094Y-149881342D02*
X304535713Y-149843247D01*
X304535713Y-149843247D02*
X304459523Y-149805152D01*
X304459523Y-149805152D02*
X304421428Y-149767057D01*
X304421428Y-149767057D02*
X304383332Y-149690866D01*
X304383332Y-149690866D02*
X304383332Y-149614676D01*
X304383332Y-149614676D02*
X304421428Y-149538485D01*
X304421428Y-149538485D02*
X304459523Y-149500390D01*
X304459523Y-149500390D02*
X304535713Y-149462295D01*
X304535713Y-149462295D02*
X304726190Y-149462295D01*
X304726190Y-149462295D02*
X304840475Y-149500390D01*
X305640476Y-150262295D02*
X305373809Y-149881342D01*
X305183333Y-150262295D02*
X305183333Y-149462295D01*
X305183333Y-149462295D02*
X305488095Y-149462295D01*
X305488095Y-149462295D02*
X305564285Y-149500390D01*
X305564285Y-149500390D02*
X305602380Y-149538485D01*
X305602380Y-149538485D02*
X305640476Y-149614676D01*
X305640476Y-149614676D02*
X305640476Y-149728961D01*
X305640476Y-149728961D02*
X305602380Y-149805152D01*
X305602380Y-149805152D02*
X305564285Y-149843247D01*
X305564285Y-149843247D02*
X305488095Y-149881342D01*
X305488095Y-149881342D02*
X305183333Y-149881342D01*
X305792857Y-150338485D02*
X306402380Y-150338485D01*
X306973809Y-150262295D02*
X306592857Y-150262295D01*
X306592857Y-150262295D02*
X306592857Y-149462295D01*
X307240476Y-149843247D02*
X307507142Y-149843247D01*
X307621428Y-150262295D02*
X307240476Y-150262295D01*
X307240476Y-150262295D02*
X307240476Y-149462295D01*
X307240476Y-149462295D02*
X307621428Y-149462295D01*
X308230952Y-149843247D02*
X307964286Y-149843247D01*
X307964286Y-150262295D02*
X307964286Y-149462295D01*
X307964286Y-149462295D02*
X308345238Y-149462295D01*
X308535714Y-149462295D02*
X308992857Y-149462295D01*
X308764285Y-150262295D02*
X308764285Y-149462295D01*
X111271428Y-111824200D02*
X111385714Y-111862295D01*
X111385714Y-111862295D02*
X111576190Y-111862295D01*
X111576190Y-111862295D02*
X111652381Y-111824200D01*
X111652381Y-111824200D02*
X111690476Y-111786104D01*
X111690476Y-111786104D02*
X111728571Y-111709914D01*
X111728571Y-111709914D02*
X111728571Y-111633723D01*
X111728571Y-111633723D02*
X111690476Y-111557533D01*
X111690476Y-111557533D02*
X111652381Y-111519438D01*
X111652381Y-111519438D02*
X111576190Y-111481342D01*
X111576190Y-111481342D02*
X111423809Y-111443247D01*
X111423809Y-111443247D02*
X111347619Y-111405152D01*
X111347619Y-111405152D02*
X111309524Y-111367057D01*
X111309524Y-111367057D02*
X111271428Y-111290866D01*
X111271428Y-111290866D02*
X111271428Y-111214676D01*
X111271428Y-111214676D02*
X111309524Y-111138485D01*
X111309524Y-111138485D02*
X111347619Y-111100390D01*
X111347619Y-111100390D02*
X111423809Y-111062295D01*
X111423809Y-111062295D02*
X111614286Y-111062295D01*
X111614286Y-111062295D02*
X111728571Y-111100390D01*
X139997619Y-131086104D02*
X139959523Y-131124200D01*
X139959523Y-131124200D02*
X139845238Y-131162295D01*
X139845238Y-131162295D02*
X139769047Y-131162295D01*
X139769047Y-131162295D02*
X139654761Y-131124200D01*
X139654761Y-131124200D02*
X139578571Y-131048009D01*
X139578571Y-131048009D02*
X139540476Y-130971819D01*
X139540476Y-130971819D02*
X139502380Y-130819438D01*
X139502380Y-130819438D02*
X139502380Y-130705152D01*
X139502380Y-130705152D02*
X139540476Y-130552771D01*
X139540476Y-130552771D02*
X139578571Y-130476580D01*
X139578571Y-130476580D02*
X139654761Y-130400390D01*
X139654761Y-130400390D02*
X139769047Y-130362295D01*
X139769047Y-130362295D02*
X139845238Y-130362295D01*
X139845238Y-130362295D02*
X139959523Y-130400390D01*
X139959523Y-130400390D02*
X139997619Y-130438485D01*
X263709524Y-149862295D02*
X263442857Y-149481342D01*
X263252381Y-149862295D02*
X263252381Y-149062295D01*
X263252381Y-149062295D02*
X263557143Y-149062295D01*
X263557143Y-149062295D02*
X263633333Y-149100390D01*
X263633333Y-149100390D02*
X263671428Y-149138485D01*
X263671428Y-149138485D02*
X263709524Y-149214676D01*
X263709524Y-149214676D02*
X263709524Y-149328961D01*
X263709524Y-149328961D02*
X263671428Y-149405152D01*
X263671428Y-149405152D02*
X263633333Y-149443247D01*
X263633333Y-149443247D02*
X263557143Y-149481342D01*
X263557143Y-149481342D02*
X263252381Y-149481342D01*
X263861905Y-149938485D02*
X264471428Y-149938485D01*
X264623809Y-149633723D02*
X265004762Y-149633723D01*
X264547619Y-149862295D02*
X264814286Y-149062295D01*
X264814286Y-149062295D02*
X265080952Y-149862295D01*
X265347619Y-149862295D02*
X265347619Y-149062295D01*
X265347619Y-149062295D02*
X265614285Y-149633723D01*
X265614285Y-149633723D02*
X265880952Y-149062295D01*
X265880952Y-149062295D02*
X265880952Y-149862295D01*
X266261905Y-149862295D02*
X266261905Y-149062295D01*
X267061904Y-149100390D02*
X266985714Y-149062295D01*
X266985714Y-149062295D02*
X266871428Y-149062295D01*
X266871428Y-149062295D02*
X266757142Y-149100390D01*
X266757142Y-149100390D02*
X266680952Y-149176580D01*
X266680952Y-149176580D02*
X266642857Y-149252771D01*
X266642857Y-149252771D02*
X266604761Y-149405152D01*
X266604761Y-149405152D02*
X266604761Y-149519438D01*
X266604761Y-149519438D02*
X266642857Y-149671819D01*
X266642857Y-149671819D02*
X266680952Y-149748009D01*
X266680952Y-149748009D02*
X266757142Y-149824200D01*
X266757142Y-149824200D02*
X266871428Y-149862295D01*
X266871428Y-149862295D02*
X266947619Y-149862295D01*
X266947619Y-149862295D02*
X267061904Y-149824200D01*
X267061904Y-149824200D02*
X267100000Y-149786104D01*
X267100000Y-149786104D02*
X267100000Y-149519438D01*
X267100000Y-149519438D02*
X266947619Y-149519438D01*
X267404761Y-149633723D02*
X267785714Y-149633723D01*
X267328571Y-149862295D02*
X267595238Y-149062295D01*
X267595238Y-149062295D02*
X267861904Y-149862295D01*
X135152381Y-73328961D02*
X135152381Y-73862295D01*
X134961905Y-73024200D02*
X134771428Y-73595628D01*
X134771428Y-73595628D02*
X135266667Y-73595628D01*
X305657143Y-72986104D02*
X306342857Y-74014676D01*
X57785714Y-92054819D02*
X58357142Y-92054819D01*
X58071428Y-93054819D02*
X58071428Y-92054819D01*
X58642857Y-92769104D02*
X59119047Y-92769104D01*
X58547619Y-93054819D02*
X58880952Y-92054819D01*
X58880952Y-92054819D02*
X59214285Y-93054819D01*
X59880952Y-92531009D02*
X60023809Y-92578628D01*
X60023809Y-92578628D02*
X60071428Y-92626247D01*
X60071428Y-92626247D02*
X60119047Y-92721485D01*
X60119047Y-92721485D02*
X60119047Y-92864342D01*
X60119047Y-92864342D02*
X60071428Y-92959580D01*
X60071428Y-92959580D02*
X60023809Y-93007200D01*
X60023809Y-93007200D02*
X59928571Y-93054819D01*
X59928571Y-93054819D02*
X59547619Y-93054819D01*
X59547619Y-93054819D02*
X59547619Y-92054819D01*
X59547619Y-92054819D02*
X59880952Y-92054819D01*
X59880952Y-92054819D02*
X59976190Y-92102438D01*
X59976190Y-92102438D02*
X60023809Y-92150057D01*
X60023809Y-92150057D02*
X60071428Y-92245295D01*
X60071428Y-92245295D02*
X60071428Y-92340533D01*
X60071428Y-92340533D02*
X60023809Y-92435771D01*
X60023809Y-92435771D02*
X59976190Y-92483390D01*
X59976190Y-92483390D02*
X59880952Y-92531009D01*
X59880952Y-92531009D02*
X59547619Y-92531009D01*
X273092857Y-130324200D02*
X272407143Y-131352771D01*
X258540476Y-92962295D02*
X258540476Y-92162295D01*
X258540476Y-92162295D02*
X258845238Y-92162295D01*
X258845238Y-92162295D02*
X258921428Y-92200390D01*
X258921428Y-92200390D02*
X258959523Y-92238485D01*
X258959523Y-92238485D02*
X258997619Y-92314676D01*
X258997619Y-92314676D02*
X258997619Y-92428961D01*
X258997619Y-92428961D02*
X258959523Y-92505152D01*
X258959523Y-92505152D02*
X258921428Y-92543247D01*
X258921428Y-92543247D02*
X258845238Y-92581342D01*
X258845238Y-92581342D02*
X258540476Y-92581342D01*
X213233333Y-44943247D02*
X212966667Y-44943247D01*
X212966667Y-45362295D02*
X212966667Y-44562295D01*
X212966667Y-44562295D02*
X213347619Y-44562295D01*
X213995238Y-44562295D02*
X213842857Y-44562295D01*
X213842857Y-44562295D02*
X213766666Y-44600390D01*
X213766666Y-44600390D02*
X213728571Y-44638485D01*
X213728571Y-44638485D02*
X213652381Y-44752771D01*
X213652381Y-44752771D02*
X213614285Y-44905152D01*
X213614285Y-44905152D02*
X213614285Y-45209914D01*
X213614285Y-45209914D02*
X213652381Y-45286104D01*
X213652381Y-45286104D02*
X213690476Y-45324200D01*
X213690476Y-45324200D02*
X213766666Y-45362295D01*
X213766666Y-45362295D02*
X213919047Y-45362295D01*
X213919047Y-45362295D02*
X213995238Y-45324200D01*
X213995238Y-45324200D02*
X214033333Y-45286104D01*
X214033333Y-45286104D02*
X214071428Y-45209914D01*
X214071428Y-45209914D02*
X214071428Y-45019438D01*
X214071428Y-45019438D02*
X214033333Y-44943247D01*
X214033333Y-44943247D02*
X213995238Y-44905152D01*
X213995238Y-44905152D02*
X213919047Y-44867057D01*
X213919047Y-44867057D02*
X213766666Y-44867057D01*
X213766666Y-44867057D02*
X213690476Y-44905152D01*
X213690476Y-44905152D02*
X213652381Y-44943247D01*
X213652381Y-44943247D02*
X213614285Y-45019438D01*
X244747619Y-112062295D02*
X244366667Y-112062295D01*
X244366667Y-112062295D02*
X244366667Y-111262295D01*
X343104762Y-73862295D02*
X343104762Y-73062295D01*
X343104762Y-73062295D02*
X343295238Y-73062295D01*
X343295238Y-73062295D02*
X343409524Y-73100390D01*
X343409524Y-73100390D02*
X343485714Y-73176580D01*
X343485714Y-73176580D02*
X343523809Y-73252771D01*
X343523809Y-73252771D02*
X343561905Y-73405152D01*
X343561905Y-73405152D02*
X343561905Y-73519438D01*
X343561905Y-73519438D02*
X343523809Y-73671819D01*
X343523809Y-73671819D02*
X343485714Y-73748009D01*
X343485714Y-73748009D02*
X343409524Y-73824200D01*
X343409524Y-73824200D02*
X343295238Y-73862295D01*
X343295238Y-73862295D02*
X343104762Y-73862295D01*
X343904762Y-73443247D02*
X344171428Y-73443247D01*
X344285714Y-73862295D02*
X343904762Y-73862295D01*
X343904762Y-73862295D02*
X343904762Y-73062295D01*
X343904762Y-73062295D02*
X344285714Y-73062295D01*
X345009524Y-73862295D02*
X344628572Y-73862295D01*
X344628572Y-73862295D02*
X344628572Y-73062295D01*
X207114285Y-111062295D02*
X207114285Y-111633723D01*
X207114285Y-111633723D02*
X207076190Y-111748009D01*
X207076190Y-111748009D02*
X206999999Y-111824200D01*
X206999999Y-111824200D02*
X206885714Y-111862295D01*
X206885714Y-111862295D02*
X206809523Y-111862295D01*
X324676190Y-73443247D02*
X324790476Y-73481342D01*
X324790476Y-73481342D02*
X324828571Y-73519438D01*
X324828571Y-73519438D02*
X324866667Y-73595628D01*
X324866667Y-73595628D02*
X324866667Y-73709914D01*
X324866667Y-73709914D02*
X324828571Y-73786104D01*
X324828571Y-73786104D02*
X324790476Y-73824200D01*
X324790476Y-73824200D02*
X324714286Y-73862295D01*
X324714286Y-73862295D02*
X324409524Y-73862295D01*
X324409524Y-73862295D02*
X324409524Y-73062295D01*
X324409524Y-73062295D02*
X324676190Y-73062295D01*
X324676190Y-73062295D02*
X324752381Y-73100390D01*
X324752381Y-73100390D02*
X324790476Y-73138485D01*
X324790476Y-73138485D02*
X324828571Y-73214676D01*
X324828571Y-73214676D02*
X324828571Y-73290866D01*
X324828571Y-73290866D02*
X324790476Y-73367057D01*
X324790476Y-73367057D02*
X324752381Y-73405152D01*
X324752381Y-73405152D02*
X324676190Y-73443247D01*
X324676190Y-73443247D02*
X324409524Y-73443247D01*
X325171428Y-73824200D02*
X325285714Y-73862295D01*
X325285714Y-73862295D02*
X325476190Y-73862295D01*
X325476190Y-73862295D02*
X325552381Y-73824200D01*
X325552381Y-73824200D02*
X325590476Y-73786104D01*
X325590476Y-73786104D02*
X325628571Y-73709914D01*
X325628571Y-73709914D02*
X325628571Y-73633723D01*
X325628571Y-73633723D02*
X325590476Y-73557533D01*
X325590476Y-73557533D02*
X325552381Y-73519438D01*
X325552381Y-73519438D02*
X325476190Y-73481342D01*
X325476190Y-73481342D02*
X325323809Y-73443247D01*
X325323809Y-73443247D02*
X325247619Y-73405152D01*
X325247619Y-73405152D02*
X325209524Y-73367057D01*
X325209524Y-73367057D02*
X325171428Y-73290866D01*
X325171428Y-73290866D02*
X325171428Y-73214676D01*
X325171428Y-73214676D02*
X325209524Y-73138485D01*
X325209524Y-73138485D02*
X325247619Y-73100390D01*
X325247619Y-73100390D02*
X325323809Y-73062295D01*
X325323809Y-73062295D02*
X325514286Y-73062295D01*
X325514286Y-73062295D02*
X325628571Y-73100390D01*
X163521428Y-92162295D02*
X163978571Y-92162295D01*
X163749999Y-92962295D02*
X163749999Y-92162295D01*
X144997619Y-92962295D02*
X144730952Y-92581342D01*
X144540476Y-92962295D02*
X144540476Y-92162295D01*
X144540476Y-92162295D02*
X144845238Y-92162295D01*
X144845238Y-92162295D02*
X144921428Y-92200390D01*
X144921428Y-92200390D02*
X144959523Y-92238485D01*
X144959523Y-92238485D02*
X144997619Y-92314676D01*
X144997619Y-92314676D02*
X144997619Y-92428961D01*
X144997619Y-92428961D02*
X144959523Y-92505152D01*
X144959523Y-92505152D02*
X144921428Y-92543247D01*
X144921428Y-92543247D02*
X144845238Y-92581342D01*
X144845238Y-92581342D02*
X144540476Y-92581342D01*
X347577468Y-138356272D02*
X347577468Y-137356272D01*
X347577468Y-137356272D02*
X347815563Y-137356272D01*
X347815563Y-137356272D02*
X347958420Y-137403891D01*
X347958420Y-137403891D02*
X348053658Y-137499129D01*
X348053658Y-137499129D02*
X348101277Y-137594367D01*
X348101277Y-137594367D02*
X348148896Y-137784843D01*
X348148896Y-137784843D02*
X348148896Y-137927700D01*
X348148896Y-137927700D02*
X348101277Y-138118176D01*
X348101277Y-138118176D02*
X348053658Y-138213414D01*
X348053658Y-138213414D02*
X347958420Y-138308653D01*
X347958420Y-138308653D02*
X347815563Y-138356272D01*
X347815563Y-138356272D02*
X347577468Y-138356272D01*
X349053658Y-137356272D02*
X348577468Y-137356272D01*
X348577468Y-137356272D02*
X348529849Y-137832462D01*
X348529849Y-137832462D02*
X348577468Y-137784843D01*
X348577468Y-137784843D02*
X348672706Y-137737224D01*
X348672706Y-137737224D02*
X348910801Y-137737224D01*
X348910801Y-137737224D02*
X349006039Y-137784843D01*
X349006039Y-137784843D02*
X349053658Y-137832462D01*
X349053658Y-137832462D02*
X349101277Y-137927700D01*
X349101277Y-137927700D02*
X349101277Y-138165795D01*
X349101277Y-138165795D02*
X349053658Y-138261033D01*
X349053658Y-138261033D02*
X349006039Y-138308653D01*
X349006039Y-138308653D02*
X348910801Y-138356272D01*
X348910801Y-138356272D02*
X348672706Y-138356272D01*
X348672706Y-138356272D02*
X348577468Y-138308653D01*
X348577468Y-138308653D02*
X348529849Y-138261033D01*
X338273392Y-128293752D02*
X338273392Y-129008037D01*
X338273392Y-129008037D02*
X338225773Y-129150894D01*
X338225773Y-129150894D02*
X338130535Y-129246133D01*
X338130535Y-129246133D02*
X337987678Y-129293752D01*
X337987678Y-129293752D02*
X337892440Y-129293752D01*
X338701964Y-128388990D02*
X338749583Y-128341371D01*
X338749583Y-128341371D02*
X338844821Y-128293752D01*
X338844821Y-128293752D02*
X339082916Y-128293752D01*
X339082916Y-128293752D02*
X339178154Y-128341371D01*
X339178154Y-128341371D02*
X339225773Y-128388990D01*
X339225773Y-128388990D02*
X339273392Y-128484228D01*
X339273392Y-128484228D02*
X339273392Y-128579466D01*
X339273392Y-128579466D02*
X339225773Y-128722323D01*
X339225773Y-128722323D02*
X338654345Y-129293752D01*
X338654345Y-129293752D02*
X339273392Y-129293752D01*
X173833333Y-150407200D02*
X173976190Y-150454819D01*
X173976190Y-150454819D02*
X174214285Y-150454819D01*
X174214285Y-150454819D02*
X174309523Y-150407200D01*
X174309523Y-150407200D02*
X174357142Y-150359580D01*
X174357142Y-150359580D02*
X174404761Y-150264342D01*
X174404761Y-150264342D02*
X174404761Y-150169104D01*
X174404761Y-150169104D02*
X174357142Y-150073866D01*
X174357142Y-150073866D02*
X174309523Y-150026247D01*
X174309523Y-150026247D02*
X174214285Y-149978628D01*
X174214285Y-149978628D02*
X174023809Y-149931009D01*
X174023809Y-149931009D02*
X173928571Y-149883390D01*
X173928571Y-149883390D02*
X173880952Y-149835771D01*
X173880952Y-149835771D02*
X173833333Y-149740533D01*
X173833333Y-149740533D02*
X173833333Y-149645295D01*
X173833333Y-149645295D02*
X173880952Y-149550057D01*
X173880952Y-149550057D02*
X173928571Y-149502438D01*
X173928571Y-149502438D02*
X174023809Y-149454819D01*
X174023809Y-149454819D02*
X174261904Y-149454819D01*
X174261904Y-149454819D02*
X174404761Y-149502438D01*
X174833333Y-150454819D02*
X174833333Y-149454819D01*
X174833333Y-149454819D02*
X175214285Y-149454819D01*
X175214285Y-149454819D02*
X175309523Y-149502438D01*
X175309523Y-149502438D02*
X175357142Y-149550057D01*
X175357142Y-149550057D02*
X175404761Y-149645295D01*
X175404761Y-149645295D02*
X175404761Y-149788152D01*
X175404761Y-149788152D02*
X175357142Y-149883390D01*
X175357142Y-149883390D02*
X175309523Y-149931009D01*
X175309523Y-149931009D02*
X175214285Y-149978628D01*
X175214285Y-149978628D02*
X174833333Y-149978628D01*
X175785714Y-150169104D02*
X176261904Y-150169104D01*
X175690476Y-150454819D02*
X176023809Y-149454819D01*
X176023809Y-149454819D02*
X176357142Y-150454819D01*
X177261904Y-150359580D02*
X177214285Y-150407200D01*
X177214285Y-150407200D02*
X177071428Y-150454819D01*
X177071428Y-150454819D02*
X176976190Y-150454819D01*
X176976190Y-150454819D02*
X176833333Y-150407200D01*
X176833333Y-150407200D02*
X176738095Y-150311961D01*
X176738095Y-150311961D02*
X176690476Y-150216723D01*
X176690476Y-150216723D02*
X176642857Y-150026247D01*
X176642857Y-150026247D02*
X176642857Y-149883390D01*
X176642857Y-149883390D02*
X176690476Y-149692914D01*
X176690476Y-149692914D02*
X176738095Y-149597676D01*
X176738095Y-149597676D02*
X176833333Y-149502438D01*
X176833333Y-149502438D02*
X176976190Y-149454819D01*
X176976190Y-149454819D02*
X177071428Y-149454819D01*
X177071428Y-149454819D02*
X177214285Y-149502438D01*
X177214285Y-149502438D02*
X177261904Y-149550057D01*
X177690476Y-149931009D02*
X178023809Y-149931009D01*
X178166666Y-150454819D02*
X177690476Y-150454819D01*
X177690476Y-150454819D02*
X177690476Y-149454819D01*
X177690476Y-149454819D02*
X178166666Y-149454819D01*
X348249057Y-129471512D02*
X347915724Y-128995321D01*
X347677629Y-129471512D02*
X347677629Y-128471512D01*
X347677629Y-128471512D02*
X348058581Y-128471512D01*
X348058581Y-128471512D02*
X348153819Y-128519131D01*
X348153819Y-128519131D02*
X348201438Y-128566750D01*
X348201438Y-128566750D02*
X348249057Y-128661988D01*
X348249057Y-128661988D02*
X348249057Y-128804845D01*
X348249057Y-128804845D02*
X348201438Y-128900083D01*
X348201438Y-128900083D02*
X348153819Y-128947702D01*
X348153819Y-128947702D02*
X348058581Y-128995321D01*
X348058581Y-128995321D02*
X347677629Y-128995321D01*
X348582391Y-128471512D02*
X349201438Y-128471512D01*
X349201438Y-128471512D02*
X348868105Y-128852464D01*
X348868105Y-128852464D02*
X349010962Y-128852464D01*
X349010962Y-128852464D02*
X349106200Y-128900083D01*
X349106200Y-128900083D02*
X349153819Y-128947702D01*
X349153819Y-128947702D02*
X349201438Y-129042940D01*
X349201438Y-129042940D02*
X349201438Y-129281035D01*
X349201438Y-129281035D02*
X349153819Y-129376273D01*
X349153819Y-129376273D02*
X349106200Y-129423893D01*
X349106200Y-129423893D02*
X349010962Y-129471512D01*
X349010962Y-129471512D02*
X348725248Y-129471512D01*
X348725248Y-129471512D02*
X348630010Y-129423893D01*
X348630010Y-129423893D02*
X348582391Y-129376273D01*
X318859580Y-108190476D02*
X318907200Y-108238095D01*
X318907200Y-108238095D02*
X318954819Y-108380952D01*
X318954819Y-108380952D02*
X318954819Y-108476190D01*
X318954819Y-108476190D02*
X318907200Y-108619047D01*
X318907200Y-108619047D02*
X318811961Y-108714285D01*
X318811961Y-108714285D02*
X318716723Y-108761904D01*
X318716723Y-108761904D02*
X318526247Y-108809523D01*
X318526247Y-108809523D02*
X318383390Y-108809523D01*
X318383390Y-108809523D02*
X318192914Y-108761904D01*
X318192914Y-108761904D02*
X318097676Y-108714285D01*
X318097676Y-108714285D02*
X318002438Y-108619047D01*
X318002438Y-108619047D02*
X317954819Y-108476190D01*
X317954819Y-108476190D02*
X317954819Y-108380952D01*
X317954819Y-108380952D02*
X318002438Y-108238095D01*
X318002438Y-108238095D02*
X318050057Y-108190476D01*
X318954819Y-107190476D02*
X318478628Y-107523809D01*
X318954819Y-107761904D02*
X317954819Y-107761904D01*
X317954819Y-107761904D02*
X317954819Y-107380952D01*
X317954819Y-107380952D02*
X318002438Y-107285714D01*
X318002438Y-107285714D02*
X318050057Y-107238095D01*
X318050057Y-107238095D02*
X318145295Y-107190476D01*
X318145295Y-107190476D02*
X318288152Y-107190476D01*
X318288152Y-107190476D02*
X318383390Y-107238095D01*
X318383390Y-107238095D02*
X318431009Y-107285714D01*
X318431009Y-107285714D02*
X318478628Y-107380952D01*
X318478628Y-107380952D02*
X318478628Y-107761904D01*
X180733333Y-44943247D02*
X180466667Y-44943247D01*
X180466667Y-45362295D02*
X180466667Y-44562295D01*
X180466667Y-44562295D02*
X180847619Y-44562295D01*
X181533333Y-44562295D02*
X181152381Y-44562295D01*
X181152381Y-44562295D02*
X181114285Y-44943247D01*
X181114285Y-44943247D02*
X181152381Y-44905152D01*
X181152381Y-44905152D02*
X181228571Y-44867057D01*
X181228571Y-44867057D02*
X181419047Y-44867057D01*
X181419047Y-44867057D02*
X181495238Y-44905152D01*
X181495238Y-44905152D02*
X181533333Y-44943247D01*
X181533333Y-44943247D02*
X181571428Y-45019438D01*
X181571428Y-45019438D02*
X181571428Y-45209914D01*
X181571428Y-45209914D02*
X181533333Y-45286104D01*
X181533333Y-45286104D02*
X181495238Y-45324200D01*
X181495238Y-45324200D02*
X181419047Y-45362295D01*
X181419047Y-45362295D02*
X181228571Y-45362295D01*
X181228571Y-45362295D02*
X181152381Y-45324200D01*
X181152381Y-45324200D02*
X181114285Y-45286104D01*
X72623810Y-109786104D02*
X72585714Y-109824200D01*
X72585714Y-109824200D02*
X72471429Y-109862295D01*
X72471429Y-109862295D02*
X72395238Y-109862295D01*
X72395238Y-109862295D02*
X72280952Y-109824200D01*
X72280952Y-109824200D02*
X72204762Y-109748009D01*
X72204762Y-109748009D02*
X72166667Y-109671819D01*
X72166667Y-109671819D02*
X72128571Y-109519438D01*
X72128571Y-109519438D02*
X72128571Y-109405152D01*
X72128571Y-109405152D02*
X72166667Y-109252771D01*
X72166667Y-109252771D02*
X72204762Y-109176580D01*
X72204762Y-109176580D02*
X72280952Y-109100390D01*
X72280952Y-109100390D02*
X72395238Y-109062295D01*
X72395238Y-109062295D02*
X72471429Y-109062295D01*
X72471429Y-109062295D02*
X72585714Y-109100390D01*
X72585714Y-109100390D02*
X72623810Y-109138485D01*
X72928571Y-109633723D02*
X73309524Y-109633723D01*
X72852381Y-109862295D02*
X73119048Y-109062295D01*
X73119048Y-109062295D02*
X73385714Y-109862295D01*
X73652381Y-109862295D02*
X73652381Y-109062295D01*
X73652381Y-109062295D02*
X73957143Y-109062295D01*
X73957143Y-109062295D02*
X74033333Y-109100390D01*
X74033333Y-109100390D02*
X74071428Y-109138485D01*
X74071428Y-109138485D02*
X74109524Y-109214676D01*
X74109524Y-109214676D02*
X74109524Y-109328961D01*
X74109524Y-109328961D02*
X74071428Y-109405152D01*
X74071428Y-109405152D02*
X74033333Y-109443247D01*
X74033333Y-109443247D02*
X73957143Y-109481342D01*
X73957143Y-109481342D02*
X73652381Y-109481342D01*
X74414285Y-109824200D02*
X74528571Y-109862295D01*
X74528571Y-109862295D02*
X74719047Y-109862295D01*
X74719047Y-109862295D02*
X74795238Y-109824200D01*
X74795238Y-109824200D02*
X74833333Y-109786104D01*
X74833333Y-109786104D02*
X74871428Y-109709914D01*
X74871428Y-109709914D02*
X74871428Y-109633723D01*
X74871428Y-109633723D02*
X74833333Y-109557533D01*
X74833333Y-109557533D02*
X74795238Y-109519438D01*
X74795238Y-109519438D02*
X74719047Y-109481342D01*
X74719047Y-109481342D02*
X74566666Y-109443247D01*
X74566666Y-109443247D02*
X74490476Y-109405152D01*
X74490476Y-109405152D02*
X74452381Y-109367057D01*
X74452381Y-109367057D02*
X74414285Y-109290866D01*
X74414285Y-109290866D02*
X74414285Y-109214676D01*
X74414285Y-109214676D02*
X74452381Y-109138485D01*
X74452381Y-109138485D02*
X74490476Y-109100390D01*
X74490476Y-109100390D02*
X74566666Y-109062295D01*
X74566666Y-109062295D02*
X74757143Y-109062295D01*
X74757143Y-109062295D02*
X74871428Y-109100390D01*
X286221429Y-150262295D02*
X285954762Y-149881342D01*
X285764286Y-150262295D02*
X285764286Y-149462295D01*
X285764286Y-149462295D02*
X286069048Y-149462295D01*
X286069048Y-149462295D02*
X286145238Y-149500390D01*
X286145238Y-149500390D02*
X286183333Y-149538485D01*
X286183333Y-149538485D02*
X286221429Y-149614676D01*
X286221429Y-149614676D02*
X286221429Y-149728961D01*
X286221429Y-149728961D02*
X286183333Y-149805152D01*
X286183333Y-149805152D02*
X286145238Y-149843247D01*
X286145238Y-149843247D02*
X286069048Y-149881342D01*
X286069048Y-149881342D02*
X285764286Y-149881342D01*
X286373810Y-150338485D02*
X286983333Y-150338485D01*
X287135714Y-150033723D02*
X287516667Y-150033723D01*
X287059524Y-150262295D02*
X287326191Y-149462295D01*
X287326191Y-149462295D02*
X287592857Y-150262295D01*
X288240476Y-150262295D02*
X287859524Y-150262295D01*
X287859524Y-150262295D02*
X287859524Y-149462295D01*
X288392857Y-149462295D02*
X288850000Y-149462295D01*
X288621428Y-150262295D02*
X288621428Y-149462295D01*
X51719048Y-111786104D02*
X51680952Y-111824200D01*
X51680952Y-111824200D02*
X51566667Y-111862295D01*
X51566667Y-111862295D02*
X51490476Y-111862295D01*
X51490476Y-111862295D02*
X51376190Y-111824200D01*
X51376190Y-111824200D02*
X51300000Y-111748009D01*
X51300000Y-111748009D02*
X51261905Y-111671819D01*
X51261905Y-111671819D02*
X51223809Y-111519438D01*
X51223809Y-111519438D02*
X51223809Y-111405152D01*
X51223809Y-111405152D02*
X51261905Y-111252771D01*
X51261905Y-111252771D02*
X51300000Y-111176580D01*
X51300000Y-111176580D02*
X51376190Y-111100390D01*
X51376190Y-111100390D02*
X51490476Y-111062295D01*
X51490476Y-111062295D02*
X51566667Y-111062295D01*
X51566667Y-111062295D02*
X51680952Y-111100390D01*
X51680952Y-111100390D02*
X51719048Y-111138485D01*
X51947619Y-111062295D02*
X52404762Y-111062295D01*
X52176190Y-111862295D02*
X52176190Y-111062295D01*
X53128572Y-111862295D02*
X52861905Y-111481342D01*
X52671429Y-111862295D02*
X52671429Y-111062295D01*
X52671429Y-111062295D02*
X52976191Y-111062295D01*
X52976191Y-111062295D02*
X53052381Y-111100390D01*
X53052381Y-111100390D02*
X53090476Y-111138485D01*
X53090476Y-111138485D02*
X53128572Y-111214676D01*
X53128572Y-111214676D02*
X53128572Y-111328961D01*
X53128572Y-111328961D02*
X53090476Y-111405152D01*
X53090476Y-111405152D02*
X53052381Y-111443247D01*
X53052381Y-111443247D02*
X52976191Y-111481342D01*
X52976191Y-111481342D02*
X52671429Y-111481342D01*
X53852381Y-111862295D02*
X53471429Y-111862295D01*
X53471429Y-111862295D02*
X53471429Y-111062295D01*
X239673810Y-92162295D02*
X239826191Y-92162295D01*
X239826191Y-92162295D02*
X239902381Y-92200390D01*
X239902381Y-92200390D02*
X239978572Y-92276580D01*
X239978572Y-92276580D02*
X240016667Y-92428961D01*
X240016667Y-92428961D02*
X240016667Y-92695628D01*
X240016667Y-92695628D02*
X239978572Y-92848009D01*
X239978572Y-92848009D02*
X239902381Y-92924200D01*
X239902381Y-92924200D02*
X239826191Y-92962295D01*
X239826191Y-92962295D02*
X239673810Y-92962295D01*
X239673810Y-92962295D02*
X239597619Y-92924200D01*
X239597619Y-92924200D02*
X239521429Y-92848009D01*
X239521429Y-92848009D02*
X239483333Y-92695628D01*
X239483333Y-92695628D02*
X239483333Y-92428961D01*
X239483333Y-92428961D02*
X239521429Y-92276580D01*
X239521429Y-92276580D02*
X239597619Y-92200390D01*
X239597619Y-92200390D02*
X239673810Y-92162295D01*
X60971428Y-150362295D02*
X60590476Y-150362295D01*
X60590476Y-150362295D02*
X60590476Y-149562295D01*
X61047619Y-150438485D02*
X61657142Y-150438485D01*
X61809523Y-150133723D02*
X62190476Y-150133723D01*
X61733333Y-150362295D02*
X62000000Y-149562295D01*
X62000000Y-149562295D02*
X62266666Y-150362295D01*
X62914285Y-150362295D02*
X62533333Y-150362295D01*
X62533333Y-150362295D02*
X62533333Y-149562295D01*
X63066666Y-149562295D02*
X63523809Y-149562295D01*
X63295237Y-150362295D02*
X63295237Y-149562295D01*
X297804762Y-130862295D02*
X297538095Y-130481342D01*
X297347619Y-130862295D02*
X297347619Y-130062295D01*
X297347619Y-130062295D02*
X297652381Y-130062295D01*
X297652381Y-130062295D02*
X297728571Y-130100390D01*
X297728571Y-130100390D02*
X297766666Y-130138485D01*
X297766666Y-130138485D02*
X297804762Y-130214676D01*
X297804762Y-130214676D02*
X297804762Y-130328961D01*
X297804762Y-130328961D02*
X297766666Y-130405152D01*
X297766666Y-130405152D02*
X297728571Y-130443247D01*
X297728571Y-130443247D02*
X297652381Y-130481342D01*
X297652381Y-130481342D02*
X297347619Y-130481342D01*
X297957143Y-130938485D02*
X298566666Y-130938485D01*
X298719047Y-130824200D02*
X298833333Y-130862295D01*
X298833333Y-130862295D02*
X299023809Y-130862295D01*
X299023809Y-130862295D02*
X299100000Y-130824200D01*
X299100000Y-130824200D02*
X299138095Y-130786104D01*
X299138095Y-130786104D02*
X299176190Y-130709914D01*
X299176190Y-130709914D02*
X299176190Y-130633723D01*
X299176190Y-130633723D02*
X299138095Y-130557533D01*
X299138095Y-130557533D02*
X299100000Y-130519438D01*
X299100000Y-130519438D02*
X299023809Y-130481342D01*
X299023809Y-130481342D02*
X298871428Y-130443247D01*
X298871428Y-130443247D02*
X298795238Y-130405152D01*
X298795238Y-130405152D02*
X298757143Y-130367057D01*
X298757143Y-130367057D02*
X298719047Y-130290866D01*
X298719047Y-130290866D02*
X298719047Y-130214676D01*
X298719047Y-130214676D02*
X298757143Y-130138485D01*
X298757143Y-130138485D02*
X298795238Y-130100390D01*
X298795238Y-130100390D02*
X298871428Y-130062295D01*
X298871428Y-130062295D02*
X299061905Y-130062295D01*
X299061905Y-130062295D02*
X299176190Y-130100390D01*
X299519048Y-130862295D02*
X299519048Y-130062295D01*
X299519048Y-130443247D02*
X299976191Y-130443247D01*
X299976191Y-130862295D02*
X299976191Y-130062295D01*
X300357143Y-130862295D02*
X300357143Y-130062295D01*
X301004761Y-130443247D02*
X300738095Y-130443247D01*
X300738095Y-130862295D02*
X300738095Y-130062295D01*
X300738095Y-130062295D02*
X301119047Y-130062295D01*
X301309523Y-130062295D02*
X301766666Y-130062295D01*
X301538094Y-130862295D02*
X301538094Y-130062295D01*
X106407142Y-92162295D02*
X106597618Y-92962295D01*
X106597618Y-92962295D02*
X106749999Y-92390866D01*
X106749999Y-92390866D02*
X106902380Y-92962295D01*
X106902380Y-92962295D02*
X107092857Y-92162295D01*
X234788095Y-131124200D02*
X234788095Y-131162295D01*
X234788095Y-131162295D02*
X234750000Y-131238485D01*
X234750000Y-131238485D02*
X234711904Y-131276580D01*
X55304762Y-130862295D02*
X54923810Y-130862295D01*
X54923810Y-130862295D02*
X54923810Y-130062295D01*
X55380953Y-130938485D02*
X55990476Y-130938485D01*
X56142857Y-130824200D02*
X56257143Y-130862295D01*
X56257143Y-130862295D02*
X56447619Y-130862295D01*
X56447619Y-130862295D02*
X56523810Y-130824200D01*
X56523810Y-130824200D02*
X56561905Y-130786104D01*
X56561905Y-130786104D02*
X56600000Y-130709914D01*
X56600000Y-130709914D02*
X56600000Y-130633723D01*
X56600000Y-130633723D02*
X56561905Y-130557533D01*
X56561905Y-130557533D02*
X56523810Y-130519438D01*
X56523810Y-130519438D02*
X56447619Y-130481342D01*
X56447619Y-130481342D02*
X56295238Y-130443247D01*
X56295238Y-130443247D02*
X56219048Y-130405152D01*
X56219048Y-130405152D02*
X56180953Y-130367057D01*
X56180953Y-130367057D02*
X56142857Y-130290866D01*
X56142857Y-130290866D02*
X56142857Y-130214676D01*
X56142857Y-130214676D02*
X56180953Y-130138485D01*
X56180953Y-130138485D02*
X56219048Y-130100390D01*
X56219048Y-130100390D02*
X56295238Y-130062295D01*
X56295238Y-130062295D02*
X56485715Y-130062295D01*
X56485715Y-130062295D02*
X56600000Y-130100390D01*
X56942858Y-130862295D02*
X56942858Y-130062295D01*
X56942858Y-130443247D02*
X57400001Y-130443247D01*
X57400001Y-130862295D02*
X57400001Y-130062295D01*
X57780953Y-130862295D02*
X57780953Y-130062295D01*
X58428571Y-130443247D02*
X58161905Y-130443247D01*
X58161905Y-130862295D02*
X58161905Y-130062295D01*
X58161905Y-130062295D02*
X58542857Y-130062295D01*
X58733333Y-130062295D02*
X59190476Y-130062295D01*
X58961904Y-130862295D02*
X58961904Y-130062295D01*
X343356115Y-99488692D02*
X342356115Y-99488692D01*
X342356115Y-99488692D02*
X342356115Y-99250597D01*
X342356115Y-99250597D02*
X342403734Y-99107740D01*
X342403734Y-99107740D02*
X342498972Y-99012502D01*
X342498972Y-99012502D02*
X342594210Y-98964883D01*
X342594210Y-98964883D02*
X342784686Y-98917264D01*
X342784686Y-98917264D02*
X342927543Y-98917264D01*
X342927543Y-98917264D02*
X343118019Y-98964883D01*
X343118019Y-98964883D02*
X343213257Y-99012502D01*
X343213257Y-99012502D02*
X343308496Y-99107740D01*
X343308496Y-99107740D02*
X343356115Y-99250597D01*
X343356115Y-99250597D02*
X343356115Y-99488692D01*
X342356115Y-98583930D02*
X342356115Y-97964883D01*
X342356115Y-97964883D02*
X342737067Y-98298216D01*
X342737067Y-98298216D02*
X342737067Y-98155359D01*
X342737067Y-98155359D02*
X342784686Y-98060121D01*
X342784686Y-98060121D02*
X342832305Y-98012502D01*
X342832305Y-98012502D02*
X342927543Y-97964883D01*
X342927543Y-97964883D02*
X343165638Y-97964883D01*
X343165638Y-97964883D02*
X343260876Y-98012502D01*
X343260876Y-98012502D02*
X343308496Y-98060121D01*
X343308496Y-98060121D02*
X343356115Y-98155359D01*
X343356115Y-98155359D02*
X343356115Y-98441073D01*
X343356115Y-98441073D02*
X343308496Y-98536311D01*
X343308496Y-98536311D02*
X343260876Y-98583930D01*
X191733333Y-73062295D02*
X192266667Y-73062295D01*
X192266667Y-73062295D02*
X191923809Y-73862295D01*
X132733333Y-44943247D02*
X132466667Y-44943247D01*
X132466667Y-45362295D02*
X132466667Y-44562295D01*
X132466667Y-44562295D02*
X132847619Y-44562295D01*
X133076190Y-44562295D02*
X133571428Y-44562295D01*
X133571428Y-44562295D02*
X133304762Y-44867057D01*
X133304762Y-44867057D02*
X133419047Y-44867057D01*
X133419047Y-44867057D02*
X133495238Y-44905152D01*
X133495238Y-44905152D02*
X133533333Y-44943247D01*
X133533333Y-44943247D02*
X133571428Y-45019438D01*
X133571428Y-45019438D02*
X133571428Y-45209914D01*
X133571428Y-45209914D02*
X133533333Y-45286104D01*
X133533333Y-45286104D02*
X133495238Y-45324200D01*
X133495238Y-45324200D02*
X133419047Y-45362295D01*
X133419047Y-45362295D02*
X133190476Y-45362295D01*
X133190476Y-45362295D02*
X133114285Y-45324200D01*
X133114285Y-45324200D02*
X133076190Y-45286104D01*
X220750000Y-92962295D02*
X220750000Y-92162295D01*
X337833333Y-108359580D02*
X337785714Y-108407200D01*
X337785714Y-108407200D02*
X337642857Y-108454819D01*
X337642857Y-108454819D02*
X337547619Y-108454819D01*
X337547619Y-108454819D02*
X337404762Y-108407200D01*
X337404762Y-108407200D02*
X337309524Y-108311961D01*
X337309524Y-108311961D02*
X337261905Y-108216723D01*
X337261905Y-108216723D02*
X337214286Y-108026247D01*
X337214286Y-108026247D02*
X337214286Y-107883390D01*
X337214286Y-107883390D02*
X337261905Y-107692914D01*
X337261905Y-107692914D02*
X337309524Y-107597676D01*
X337309524Y-107597676D02*
X337404762Y-107502438D01*
X337404762Y-107502438D02*
X337547619Y-107454819D01*
X337547619Y-107454819D02*
X337642857Y-107454819D01*
X337642857Y-107454819D02*
X337785714Y-107502438D01*
X337785714Y-107502438D02*
X337833333Y-107550057D01*
X338785714Y-108454819D02*
X338214286Y-108454819D01*
X338500000Y-108454819D02*
X338500000Y-107454819D01*
X338500000Y-107454819D02*
X338404762Y-107597676D01*
X338404762Y-107597676D02*
X338309524Y-107692914D01*
X338309524Y-107692914D02*
X338214286Y-107740533D01*
X156733333Y-44943247D02*
X156466667Y-44943247D01*
X156466667Y-45362295D02*
X156466667Y-44562295D01*
X156466667Y-44562295D02*
X156847619Y-44562295D01*
X157495238Y-44828961D02*
X157495238Y-45362295D01*
X157304762Y-44524200D02*
X157114285Y-45095628D01*
X157114285Y-45095628D02*
X157609524Y-45095628D01*
X248961905Y-73062295D02*
X249038095Y-73062295D01*
X249038095Y-73062295D02*
X249114286Y-73100390D01*
X249114286Y-73100390D02*
X249152381Y-73138485D01*
X249152381Y-73138485D02*
X249190476Y-73214676D01*
X249190476Y-73214676D02*
X249228571Y-73367057D01*
X249228571Y-73367057D02*
X249228571Y-73557533D01*
X249228571Y-73557533D02*
X249190476Y-73709914D01*
X249190476Y-73709914D02*
X249152381Y-73786104D01*
X249152381Y-73786104D02*
X249114286Y-73824200D01*
X249114286Y-73824200D02*
X249038095Y-73862295D01*
X249038095Y-73862295D02*
X248961905Y-73862295D01*
X248961905Y-73862295D02*
X248885714Y-73824200D01*
X248885714Y-73824200D02*
X248847619Y-73786104D01*
X248847619Y-73786104D02*
X248809524Y-73709914D01*
X248809524Y-73709914D02*
X248771428Y-73557533D01*
X248771428Y-73557533D02*
X248771428Y-73367057D01*
X248771428Y-73367057D02*
X248809524Y-73214676D01*
X248809524Y-73214676D02*
X248847619Y-73138485D01*
X248847619Y-73138485D02*
X248885714Y-73100390D01*
X248885714Y-73100390D02*
X248961905Y-73062295D01*
X308852380Y-44943247D02*
X308585714Y-44943247D01*
X308585714Y-45362295D02*
X308585714Y-44562295D01*
X308585714Y-44562295D02*
X308966666Y-44562295D01*
X309690475Y-45362295D02*
X309233332Y-45362295D01*
X309461904Y-45362295D02*
X309461904Y-44562295D01*
X309461904Y-44562295D02*
X309385713Y-44676580D01*
X309385713Y-44676580D02*
X309309523Y-44752771D01*
X309309523Y-44752771D02*
X309233332Y-44790866D01*
X310185714Y-44562295D02*
X310261904Y-44562295D01*
X310261904Y-44562295D02*
X310338095Y-44600390D01*
X310338095Y-44600390D02*
X310376190Y-44638485D01*
X310376190Y-44638485D02*
X310414285Y-44714676D01*
X310414285Y-44714676D02*
X310452380Y-44867057D01*
X310452380Y-44867057D02*
X310452380Y-45057533D01*
X310452380Y-45057533D02*
X310414285Y-45209914D01*
X310414285Y-45209914D02*
X310376190Y-45286104D01*
X310376190Y-45286104D02*
X310338095Y-45324200D01*
X310338095Y-45324200D02*
X310261904Y-45362295D01*
X310261904Y-45362295D02*
X310185714Y-45362295D01*
X310185714Y-45362295D02*
X310109523Y-45324200D01*
X310109523Y-45324200D02*
X310071428Y-45286104D01*
X310071428Y-45286104D02*
X310033333Y-45209914D01*
X310033333Y-45209914D02*
X309995237Y-45057533D01*
X309995237Y-45057533D02*
X309995237Y-44867057D01*
X309995237Y-44867057D02*
X310033333Y-44714676D01*
X310033333Y-44714676D02*
X310071428Y-44638485D01*
X310071428Y-44638485D02*
X310109523Y-44600390D01*
X310109523Y-44600390D02*
X310185714Y-44562295D01*
X88054762Y-93038485D02*
X87978572Y-93000390D01*
X87978572Y-93000390D02*
X87902381Y-92924200D01*
X87902381Y-92924200D02*
X87788095Y-92809914D01*
X87788095Y-92809914D02*
X87711905Y-92771819D01*
X87711905Y-92771819D02*
X87635714Y-92771819D01*
X87673810Y-92962295D02*
X87597619Y-92924200D01*
X87597619Y-92924200D02*
X87521429Y-92848009D01*
X87521429Y-92848009D02*
X87483333Y-92695628D01*
X87483333Y-92695628D02*
X87483333Y-92428961D01*
X87483333Y-92428961D02*
X87521429Y-92276580D01*
X87521429Y-92276580D02*
X87597619Y-92200390D01*
X87597619Y-92200390D02*
X87673810Y-92162295D01*
X87673810Y-92162295D02*
X87826191Y-92162295D01*
X87826191Y-92162295D02*
X87902381Y-92200390D01*
X87902381Y-92200390D02*
X87978572Y-92276580D01*
X87978572Y-92276580D02*
X88016667Y-92428961D01*
X88016667Y-92428961D02*
X88016667Y-92695628D01*
X88016667Y-92695628D02*
X87978572Y-92848009D01*
X87978572Y-92848009D02*
X87902381Y-92924200D01*
X87902381Y-92924200D02*
X87826191Y-92962295D01*
X87826191Y-92962295D02*
X87673810Y-92962295D01*
X201521429Y-92162295D02*
X201521429Y-92809914D01*
X201521429Y-92809914D02*
X201559524Y-92886104D01*
X201559524Y-92886104D02*
X201597619Y-92924200D01*
X201597619Y-92924200D02*
X201673810Y-92962295D01*
X201673810Y-92962295D02*
X201826191Y-92962295D01*
X201826191Y-92962295D02*
X201902381Y-92924200D01*
X201902381Y-92924200D02*
X201940476Y-92886104D01*
X201940476Y-92886104D02*
X201978572Y-92809914D01*
X201978572Y-92809914D02*
X201978572Y-92162295D01*
X225790476Y-111862295D02*
X225790476Y-111062295D01*
X226247619Y-111862295D02*
X225904761Y-111405152D01*
X226247619Y-111062295D02*
X225790476Y-111519438D01*
X348178777Y-111005169D02*
X347845444Y-110528978D01*
X347607349Y-111005169D02*
X347607349Y-110005169D01*
X347607349Y-110005169D02*
X347988301Y-110005169D01*
X347988301Y-110005169D02*
X348083539Y-110052788D01*
X348083539Y-110052788D02*
X348131158Y-110100407D01*
X348131158Y-110100407D02*
X348178777Y-110195645D01*
X348178777Y-110195645D02*
X348178777Y-110338502D01*
X348178777Y-110338502D02*
X348131158Y-110433740D01*
X348131158Y-110433740D02*
X348083539Y-110481359D01*
X348083539Y-110481359D02*
X347988301Y-110528978D01*
X347988301Y-110528978D02*
X347607349Y-110528978D01*
X349131158Y-111005169D02*
X348559730Y-111005169D01*
X348845444Y-111005169D02*
X348845444Y-110005169D01*
X348845444Y-110005169D02*
X348750206Y-110148026D01*
X348750206Y-110148026D02*
X348654968Y-110243264D01*
X348654968Y-110243264D02*
X348559730Y-110290883D01*
X286695238Y-73443247D02*
X287304762Y-73443247D01*
X287304762Y-73671819D02*
X286695238Y-73671819D01*
X168709523Y-111300390D02*
X168633333Y-111262295D01*
X168633333Y-111262295D02*
X168519047Y-111262295D01*
X168519047Y-111262295D02*
X168404761Y-111300390D01*
X168404761Y-111300390D02*
X168328571Y-111376580D01*
X168328571Y-111376580D02*
X168290476Y-111452771D01*
X168290476Y-111452771D02*
X168252380Y-111605152D01*
X168252380Y-111605152D02*
X168252380Y-111719438D01*
X168252380Y-111719438D02*
X168290476Y-111871819D01*
X168290476Y-111871819D02*
X168328571Y-111948009D01*
X168328571Y-111948009D02*
X168404761Y-112024200D01*
X168404761Y-112024200D02*
X168519047Y-112062295D01*
X168519047Y-112062295D02*
X168595238Y-112062295D01*
X168595238Y-112062295D02*
X168709523Y-112024200D01*
X168709523Y-112024200D02*
X168747619Y-111986104D01*
X168747619Y-111986104D02*
X168747619Y-111719438D01*
X168747619Y-111719438D02*
X168595238Y-111719438D01*
X173152381Y-73062295D02*
X173000000Y-73062295D01*
X173000000Y-73062295D02*
X172923809Y-73100390D01*
X172923809Y-73100390D02*
X172885714Y-73138485D01*
X172885714Y-73138485D02*
X172809524Y-73252771D01*
X172809524Y-73252771D02*
X172771428Y-73405152D01*
X172771428Y-73405152D02*
X172771428Y-73709914D01*
X172771428Y-73709914D02*
X172809524Y-73786104D01*
X172809524Y-73786104D02*
X172847619Y-73824200D01*
X172847619Y-73824200D02*
X172923809Y-73862295D01*
X172923809Y-73862295D02*
X173076190Y-73862295D01*
X173076190Y-73862295D02*
X173152381Y-73824200D01*
X173152381Y-73824200D02*
X173190476Y-73786104D01*
X173190476Y-73786104D02*
X173228571Y-73709914D01*
X173228571Y-73709914D02*
X173228571Y-73519438D01*
X173228571Y-73519438D02*
X173190476Y-73443247D01*
X173190476Y-73443247D02*
X173152381Y-73405152D01*
X173152381Y-73405152D02*
X173076190Y-73367057D01*
X173076190Y-73367057D02*
X172923809Y-73367057D01*
X172923809Y-73367057D02*
X172847619Y-73405152D01*
X172847619Y-73405152D02*
X172809524Y-73443247D01*
X172809524Y-73443247D02*
X172771428Y-73519438D01*
X187271429Y-112062295D02*
X187271429Y-111262295D01*
X187271429Y-111643247D02*
X187728572Y-111643247D01*
X187728572Y-112062295D02*
X187728572Y-111262295D01*
X347485490Y-119071937D02*
X347485490Y-118071937D01*
X347485490Y-118071937D02*
X347723585Y-118071937D01*
X347723585Y-118071937D02*
X347866442Y-118119556D01*
X347866442Y-118119556D02*
X347961680Y-118214794D01*
X347961680Y-118214794D02*
X348009299Y-118310032D01*
X348009299Y-118310032D02*
X348056918Y-118500508D01*
X348056918Y-118500508D02*
X348056918Y-118643365D01*
X348056918Y-118643365D02*
X348009299Y-118833841D01*
X348009299Y-118833841D02*
X347961680Y-118929079D01*
X347961680Y-118929079D02*
X347866442Y-119024318D01*
X347866442Y-119024318D02*
X347723585Y-119071937D01*
X347723585Y-119071937D02*
X347485490Y-119071937D01*
X348914061Y-118405270D02*
X348914061Y-119071937D01*
X348675966Y-118024318D02*
X348437871Y-118738603D01*
X348437871Y-118738603D02*
X349056918Y-118738603D01*
X125578571Y-92543247D02*
X125845237Y-92543247D01*
X125959523Y-92962295D02*
X125578571Y-92962295D01*
X125578571Y-92962295D02*
X125578571Y-92162295D01*
X125578571Y-92162295D02*
X125959523Y-92162295D01*
X277902381Y-93378961D02*
X277711905Y-93378961D01*
X277711905Y-93378961D02*
X277711905Y-92236104D01*
X277711905Y-92236104D02*
X277902381Y-92236104D01*
X282538095Y-111262295D02*
X282461904Y-111414676D01*
X84733333Y-44943247D02*
X84466667Y-44943247D01*
X84466667Y-45362295D02*
X84466667Y-44562295D01*
X84466667Y-44562295D02*
X84847619Y-44562295D01*
X85571428Y-45362295D02*
X85114285Y-45362295D01*
X85342857Y-45362295D02*
X85342857Y-44562295D01*
X85342857Y-44562295D02*
X85266666Y-44676580D01*
X85266666Y-44676580D02*
X85190476Y-44752771D01*
X85190476Y-44752771D02*
X85114285Y-44790866D01*
X92309523Y-111833723D02*
X92690476Y-111833723D01*
X92233333Y-112062295D02*
X92500000Y-111262295D01*
X92500000Y-111262295D02*
X92766666Y-112062295D01*
X237233333Y-44943247D02*
X236966667Y-44943247D01*
X236966667Y-45362295D02*
X236966667Y-44562295D01*
X236966667Y-44562295D02*
X237347619Y-44562295D01*
X237576190Y-44562295D02*
X238109524Y-44562295D01*
X238109524Y-44562295D02*
X237766666Y-45362295D01*
X96771428Y-73138485D02*
X96809524Y-73100390D01*
X96809524Y-73100390D02*
X96885714Y-73062295D01*
X96885714Y-73062295D02*
X97076190Y-73062295D01*
X97076190Y-73062295D02*
X97152381Y-73100390D01*
X97152381Y-73100390D02*
X97190476Y-73138485D01*
X97190476Y-73138485D02*
X97228571Y-73214676D01*
X97228571Y-73214676D02*
X97228571Y-73290866D01*
X97228571Y-73290866D02*
X97190476Y-73405152D01*
X97190476Y-73405152D02*
X96733333Y-73862295D01*
X96733333Y-73862295D02*
X97228571Y-73862295D01*
X154190476Y-73062295D02*
X153809524Y-73062295D01*
X153809524Y-73062295D02*
X153771428Y-73443247D01*
X153771428Y-73443247D02*
X153809524Y-73405152D01*
X153809524Y-73405152D02*
X153885714Y-73367057D01*
X153885714Y-73367057D02*
X154076190Y-73367057D01*
X154076190Y-73367057D02*
X154152381Y-73405152D01*
X154152381Y-73405152D02*
X154190476Y-73443247D01*
X154190476Y-73443247D02*
X154228571Y-73519438D01*
X154228571Y-73519438D02*
X154228571Y-73709914D01*
X154228571Y-73709914D02*
X154190476Y-73786104D01*
X154190476Y-73786104D02*
X154152381Y-73824200D01*
X154152381Y-73824200D02*
X154076190Y-73862295D01*
X154076190Y-73862295D02*
X153885714Y-73862295D01*
X153885714Y-73862295D02*
X153809524Y-73824200D01*
X153809524Y-73824200D02*
X153771428Y-73786104D01*
X115733333Y-73062295D02*
X116228571Y-73062295D01*
X116228571Y-73062295D02*
X115961905Y-73367057D01*
X115961905Y-73367057D02*
X116076190Y-73367057D01*
X116076190Y-73367057D02*
X116152381Y-73405152D01*
X116152381Y-73405152D02*
X116190476Y-73443247D01*
X116190476Y-73443247D02*
X116228571Y-73519438D01*
X116228571Y-73519438D02*
X116228571Y-73709914D01*
X116228571Y-73709914D02*
X116190476Y-73786104D01*
X116190476Y-73786104D02*
X116152381Y-73824200D01*
X116152381Y-73824200D02*
X116076190Y-73862295D01*
X116076190Y-73862295D02*
X115847619Y-73862295D01*
X115847619Y-73862295D02*
X115771428Y-73824200D01*
X115771428Y-73824200D02*
X115733333Y-73786104D01*
X343833333Y-94454819D02*
X343500000Y-93978628D01*
X343261905Y-94454819D02*
X343261905Y-93454819D01*
X343261905Y-93454819D02*
X343642857Y-93454819D01*
X343642857Y-93454819D02*
X343738095Y-93502438D01*
X343738095Y-93502438D02*
X343785714Y-93550057D01*
X343785714Y-93550057D02*
X343833333Y-93645295D01*
X343833333Y-93645295D02*
X343833333Y-93788152D01*
X343833333Y-93788152D02*
X343785714Y-93883390D01*
X343785714Y-93883390D02*
X343738095Y-93931009D01*
X343738095Y-93931009D02*
X343642857Y-93978628D01*
X343642857Y-93978628D02*
X343261905Y-93978628D01*
X344690476Y-93788152D02*
X344690476Y-94454819D01*
X344452381Y-93407200D02*
X344214286Y-94121485D01*
X344214286Y-94121485D02*
X344833333Y-94121485D01*
X78228571Y-73862295D02*
X77771428Y-73862295D01*
X78000000Y-73862295D02*
X78000000Y-73062295D01*
X78000000Y-73062295D02*
X77923809Y-73176580D01*
X77923809Y-73176580D02*
X77847619Y-73252771D01*
X77847619Y-73252771D02*
X77771428Y-73290866D01*
X299557143Y-112062295D02*
X299290476Y-111681342D01*
X299100000Y-112062295D02*
X299100000Y-111262295D01*
X299100000Y-111262295D02*
X299404762Y-111262295D01*
X299404762Y-111262295D02*
X299480952Y-111300390D01*
X299480952Y-111300390D02*
X299519047Y-111338485D01*
X299519047Y-111338485D02*
X299557143Y-111414676D01*
X299557143Y-111414676D02*
X299557143Y-111528961D01*
X299557143Y-111528961D02*
X299519047Y-111605152D01*
X299519047Y-111605152D02*
X299480952Y-111643247D01*
X299480952Y-111643247D02*
X299404762Y-111681342D01*
X299404762Y-111681342D02*
X299100000Y-111681342D01*
X299709524Y-112138485D02*
X300319047Y-112138485D01*
X300776190Y-111643247D02*
X300890476Y-111681342D01*
X300890476Y-111681342D02*
X300928571Y-111719438D01*
X300928571Y-111719438D02*
X300966667Y-111795628D01*
X300966667Y-111795628D02*
X300966667Y-111909914D01*
X300966667Y-111909914D02*
X300928571Y-111986104D01*
X300928571Y-111986104D02*
X300890476Y-112024200D01*
X300890476Y-112024200D02*
X300814286Y-112062295D01*
X300814286Y-112062295D02*
X300509524Y-112062295D01*
X300509524Y-112062295D02*
X300509524Y-111262295D01*
X300509524Y-111262295D02*
X300776190Y-111262295D01*
X300776190Y-111262295D02*
X300852381Y-111300390D01*
X300852381Y-111300390D02*
X300890476Y-111338485D01*
X300890476Y-111338485D02*
X300928571Y-111414676D01*
X300928571Y-111414676D02*
X300928571Y-111490866D01*
X300928571Y-111490866D02*
X300890476Y-111567057D01*
X300890476Y-111567057D02*
X300852381Y-111605152D01*
X300852381Y-111605152D02*
X300776190Y-111643247D01*
X300776190Y-111643247D02*
X300509524Y-111643247D01*
X301690476Y-112062295D02*
X301309524Y-112062295D01*
X301309524Y-112062295D02*
X301309524Y-111262295D01*
X301919047Y-111833723D02*
X302300000Y-111833723D01*
X301842857Y-112062295D02*
X302109524Y-111262295D01*
X302109524Y-111262295D02*
X302376190Y-112062295D01*
X302642857Y-112062295D02*
X302642857Y-111262295D01*
X302642857Y-111262295D02*
X303100000Y-112062295D01*
X303100000Y-112062295D02*
X303100000Y-111262295D01*
X303480952Y-112062295D02*
X303480952Y-111262295D01*
X303938095Y-112062295D02*
X303595237Y-111605152D01*
X303938095Y-111262295D02*
X303480952Y-111719438D01*
X51047619Y-44943247D02*
X51314285Y-44943247D01*
X51428571Y-45362295D02*
X51047619Y-45362295D01*
X51047619Y-45362295D02*
X51047619Y-44562295D01*
X51047619Y-44562295D02*
X51428571Y-44562295D01*
X51733333Y-45324200D02*
X51847619Y-45362295D01*
X51847619Y-45362295D02*
X52038095Y-45362295D01*
X52038095Y-45362295D02*
X52114286Y-45324200D01*
X52114286Y-45324200D02*
X52152381Y-45286104D01*
X52152381Y-45286104D02*
X52190476Y-45209914D01*
X52190476Y-45209914D02*
X52190476Y-45133723D01*
X52190476Y-45133723D02*
X52152381Y-45057533D01*
X52152381Y-45057533D02*
X52114286Y-45019438D01*
X52114286Y-45019438D02*
X52038095Y-44981342D01*
X52038095Y-44981342D02*
X51885714Y-44943247D01*
X51885714Y-44943247D02*
X51809524Y-44905152D01*
X51809524Y-44905152D02*
X51771429Y-44867057D01*
X51771429Y-44867057D02*
X51733333Y-44790866D01*
X51733333Y-44790866D02*
X51733333Y-44714676D01*
X51733333Y-44714676D02*
X51771429Y-44638485D01*
X51771429Y-44638485D02*
X51809524Y-44600390D01*
X51809524Y-44600390D02*
X51885714Y-44562295D01*
X51885714Y-44562295D02*
X52076191Y-44562295D01*
X52076191Y-44562295D02*
X52190476Y-44600390D01*
X52990477Y-45286104D02*
X52952381Y-45324200D01*
X52952381Y-45324200D02*
X52838096Y-45362295D01*
X52838096Y-45362295D02*
X52761905Y-45362295D01*
X52761905Y-45362295D02*
X52647619Y-45324200D01*
X52647619Y-45324200D02*
X52571429Y-45248009D01*
X52571429Y-45248009D02*
X52533334Y-45171819D01*
X52533334Y-45171819D02*
X52495238Y-45019438D01*
X52495238Y-45019438D02*
X52495238Y-44905152D01*
X52495238Y-44905152D02*
X52533334Y-44752771D01*
X52533334Y-44752771D02*
X52571429Y-44676580D01*
X52571429Y-44676580D02*
X52647619Y-44600390D01*
X52647619Y-44600390D02*
X52761905Y-44562295D01*
X52761905Y-44562295D02*
X52838096Y-44562295D01*
X52838096Y-44562295D02*
X52952381Y-44600390D01*
X52952381Y-44600390D02*
X52990477Y-44638485D01*
X348173991Y-112974851D02*
X347840658Y-112498660D01*
X347602563Y-112974851D02*
X347602563Y-111974851D01*
X347602563Y-111974851D02*
X347983515Y-111974851D01*
X347983515Y-111974851D02*
X348078753Y-112022470D01*
X348078753Y-112022470D02*
X348126372Y-112070089D01*
X348126372Y-112070089D02*
X348173991Y-112165327D01*
X348173991Y-112165327D02*
X348173991Y-112308184D01*
X348173991Y-112308184D02*
X348126372Y-112403422D01*
X348126372Y-112403422D02*
X348078753Y-112451041D01*
X348078753Y-112451041D02*
X347983515Y-112498660D01*
X347983515Y-112498660D02*
X347602563Y-112498660D01*
X348554944Y-112070089D02*
X348602563Y-112022470D01*
X348602563Y-112022470D02*
X348697801Y-111974851D01*
X348697801Y-111974851D02*
X348935896Y-111974851D01*
X348935896Y-111974851D02*
X349031134Y-112022470D01*
X349031134Y-112022470D02*
X349078753Y-112070089D01*
X349078753Y-112070089D02*
X349126372Y-112165327D01*
X349126372Y-112165327D02*
X349126372Y-112260565D01*
X349126372Y-112260565D02*
X349078753Y-112403422D01*
X349078753Y-112403422D02*
X348507325Y-112974851D01*
X348507325Y-112974851D02*
X349126372Y-112974851D01*
X108733333Y-44943247D02*
X108466667Y-44943247D01*
X108466667Y-45362295D02*
X108466667Y-44562295D01*
X108466667Y-44562295D02*
X108847619Y-44562295D01*
X109114285Y-44638485D02*
X109152381Y-44600390D01*
X109152381Y-44600390D02*
X109228571Y-44562295D01*
X109228571Y-44562295D02*
X109419047Y-44562295D01*
X109419047Y-44562295D02*
X109495238Y-44600390D01*
X109495238Y-44600390D02*
X109533333Y-44638485D01*
X109533333Y-44638485D02*
X109571428Y-44714676D01*
X109571428Y-44714676D02*
X109571428Y-44790866D01*
X109571428Y-44790866D02*
X109533333Y-44905152D01*
X109533333Y-44905152D02*
X109076190Y-45362295D01*
X109076190Y-45362295D02*
X109571428Y-45362295D01*
X323592857Y-131086104D02*
X323554761Y-131124200D01*
X323554761Y-131124200D02*
X323440476Y-131162295D01*
X323440476Y-131162295D02*
X323364285Y-131162295D01*
X323364285Y-131162295D02*
X323249999Y-131124200D01*
X323249999Y-131124200D02*
X323173809Y-131048009D01*
X323173809Y-131048009D02*
X323135714Y-130971819D01*
X323135714Y-130971819D02*
X323097618Y-130819438D01*
X323097618Y-130819438D02*
X323097618Y-130705152D01*
X323097618Y-130705152D02*
X323135714Y-130552771D01*
X323135714Y-130552771D02*
X323173809Y-130476580D01*
X323173809Y-130476580D02*
X323249999Y-130400390D01*
X323249999Y-130400390D02*
X323364285Y-130362295D01*
X323364285Y-130362295D02*
X323440476Y-130362295D01*
X323440476Y-130362295D02*
X323554761Y-130400390D01*
X323554761Y-130400390D02*
X323592857Y-130438485D01*
X323897618Y-131124200D02*
X324011904Y-131162295D01*
X324011904Y-131162295D02*
X324202380Y-131162295D01*
X324202380Y-131162295D02*
X324278571Y-131124200D01*
X324278571Y-131124200D02*
X324316666Y-131086104D01*
X324316666Y-131086104D02*
X324354761Y-131009914D01*
X324354761Y-131009914D02*
X324354761Y-130933723D01*
X324354761Y-130933723D02*
X324316666Y-130857533D01*
X324316666Y-130857533D02*
X324278571Y-130819438D01*
X324278571Y-130819438D02*
X324202380Y-130781342D01*
X324202380Y-130781342D02*
X324049999Y-130743247D01*
X324049999Y-130743247D02*
X323973809Y-130705152D01*
X323973809Y-130705152D02*
X323935714Y-130667057D01*
X323935714Y-130667057D02*
X323897618Y-130590866D01*
X323897618Y-130590866D02*
X323897618Y-130514676D01*
X323897618Y-130514676D02*
X323935714Y-130438485D01*
X323935714Y-130438485D02*
X323973809Y-130400390D01*
X323973809Y-130400390D02*
X324049999Y-130362295D01*
X324049999Y-130362295D02*
X324240476Y-130362295D01*
X324240476Y-130362295D02*
X324354761Y-130400390D01*
X325154762Y-131162295D02*
X324888095Y-130781342D01*
X324697619Y-131162295D02*
X324697619Y-130362295D01*
X324697619Y-130362295D02*
X325002381Y-130362295D01*
X325002381Y-130362295D02*
X325078571Y-130400390D01*
X325078571Y-130400390D02*
X325116666Y-130438485D01*
X325116666Y-130438485D02*
X325154762Y-130514676D01*
X325154762Y-130514676D02*
X325154762Y-130628961D01*
X325154762Y-130628961D02*
X325116666Y-130705152D01*
X325116666Y-130705152D02*
X325078571Y-130743247D01*
X325078571Y-130743247D02*
X325002381Y-130781342D01*
X325002381Y-130781342D02*
X324697619Y-130781342D01*
X325307143Y-131238485D02*
X325916666Y-131238485D01*
X326107143Y-130362295D02*
X326107143Y-131009914D01*
X326107143Y-131009914D02*
X326145238Y-131086104D01*
X326145238Y-131086104D02*
X326183333Y-131124200D01*
X326183333Y-131124200D02*
X326259524Y-131162295D01*
X326259524Y-131162295D02*
X326411905Y-131162295D01*
X326411905Y-131162295D02*
X326488095Y-131124200D01*
X326488095Y-131124200D02*
X326526190Y-131086104D01*
X326526190Y-131086104D02*
X326564286Y-131009914D01*
X326564286Y-131009914D02*
X326564286Y-130362295D01*
X326945238Y-131162295D02*
X326945238Y-130362295D01*
X326945238Y-130362295D02*
X327250000Y-130362295D01*
X327250000Y-130362295D02*
X327326190Y-130400390D01*
X327326190Y-130400390D02*
X327364285Y-130438485D01*
X327364285Y-130438485D02*
X327402381Y-130514676D01*
X327402381Y-130514676D02*
X327402381Y-130628961D01*
X327402381Y-130628961D02*
X327364285Y-130705152D01*
X327364285Y-130705152D02*
X327326190Y-130743247D01*
X327326190Y-130743247D02*
X327250000Y-130781342D01*
X327250000Y-130781342D02*
X326945238Y-130781342D01*
X341685714Y-45362295D02*
X341685714Y-44562295D01*
X341685714Y-44943247D02*
X342142857Y-44943247D01*
X342142857Y-45362295D02*
X342142857Y-44562295D01*
X342523809Y-44943247D02*
X342790475Y-44943247D01*
X342904761Y-45362295D02*
X342523809Y-45362295D01*
X342523809Y-45362295D02*
X342523809Y-44562295D01*
X342523809Y-44562295D02*
X342904761Y-44562295D01*
X343628571Y-45362295D02*
X343247619Y-45362295D01*
X343247619Y-45362295D02*
X343247619Y-44562295D01*
X343895238Y-45362295D02*
X343895238Y-44562295D01*
X343895238Y-44562295D02*
X344200000Y-44562295D01*
X344200000Y-44562295D02*
X344276190Y-44600390D01*
X344276190Y-44600390D02*
X344314285Y-44638485D01*
X344314285Y-44638485D02*
X344352381Y-44714676D01*
X344352381Y-44714676D02*
X344352381Y-44828961D01*
X344352381Y-44828961D02*
X344314285Y-44905152D01*
X344314285Y-44905152D02*
X344276190Y-44943247D01*
X344276190Y-44943247D02*
X344200000Y-44981342D01*
X344200000Y-44981342D02*
X343895238Y-44981342D01*
X210923809Y-73405152D02*
X210847619Y-73367057D01*
X210847619Y-73367057D02*
X210809524Y-73328961D01*
X210809524Y-73328961D02*
X210771428Y-73252771D01*
X210771428Y-73252771D02*
X210771428Y-73214676D01*
X210771428Y-73214676D02*
X210809524Y-73138485D01*
X210809524Y-73138485D02*
X210847619Y-73100390D01*
X210847619Y-73100390D02*
X210923809Y-73062295D01*
X210923809Y-73062295D02*
X211076190Y-73062295D01*
X211076190Y-73062295D02*
X211152381Y-73100390D01*
X211152381Y-73100390D02*
X211190476Y-73138485D01*
X211190476Y-73138485D02*
X211228571Y-73214676D01*
X211228571Y-73214676D02*
X211228571Y-73252771D01*
X211228571Y-73252771D02*
X211190476Y-73328961D01*
X211190476Y-73328961D02*
X211152381Y-73367057D01*
X211152381Y-73367057D02*
X211076190Y-73405152D01*
X211076190Y-73405152D02*
X210923809Y-73405152D01*
X210923809Y-73405152D02*
X210847619Y-73443247D01*
X210847619Y-73443247D02*
X210809524Y-73481342D01*
X210809524Y-73481342D02*
X210771428Y-73557533D01*
X210771428Y-73557533D02*
X210771428Y-73709914D01*
X210771428Y-73709914D02*
X210809524Y-73786104D01*
X210809524Y-73786104D02*
X210847619Y-73824200D01*
X210847619Y-73824200D02*
X210923809Y-73862295D01*
X210923809Y-73862295D02*
X211076190Y-73862295D01*
X211076190Y-73862295D02*
X211152381Y-73824200D01*
X211152381Y-73824200D02*
X211190476Y-73786104D01*
X211190476Y-73786104D02*
X211228571Y-73709914D01*
X211228571Y-73709914D02*
X211228571Y-73557533D01*
X211228571Y-73557533D02*
X211190476Y-73481342D01*
X211190476Y-73481342D02*
X211152381Y-73443247D01*
X211152381Y-73443247D02*
X211076190Y-73405152D01*
X130290476Y-112062295D02*
X130290476Y-111262295D01*
X130290476Y-111262295D02*
X130480952Y-111262295D01*
X130480952Y-111262295D02*
X130595238Y-111300390D01*
X130595238Y-111300390D02*
X130671428Y-111376580D01*
X130671428Y-111376580D02*
X130709523Y-111452771D01*
X130709523Y-111452771D02*
X130747619Y-111605152D01*
X130747619Y-111605152D02*
X130747619Y-111719438D01*
X130747619Y-111719438D02*
X130709523Y-111871819D01*
X130709523Y-111871819D02*
X130671428Y-111948009D01*
X130671428Y-111948009D02*
X130595238Y-112024200D01*
X130595238Y-112024200D02*
X130480952Y-112062295D01*
X130480952Y-112062295D02*
X130290476Y-112062295D01*
X341697619Y-150186104D02*
X341659523Y-150224200D01*
X341659523Y-150224200D02*
X341545238Y-150262295D01*
X341545238Y-150262295D02*
X341469047Y-150262295D01*
X341469047Y-150262295D02*
X341354761Y-150224200D01*
X341354761Y-150224200D02*
X341278571Y-150148009D01*
X341278571Y-150148009D02*
X341240476Y-150071819D01*
X341240476Y-150071819D02*
X341202380Y-149919438D01*
X341202380Y-149919438D02*
X341202380Y-149805152D01*
X341202380Y-149805152D02*
X341240476Y-149652771D01*
X341240476Y-149652771D02*
X341278571Y-149576580D01*
X341278571Y-149576580D02*
X341354761Y-149500390D01*
X341354761Y-149500390D02*
X341469047Y-149462295D01*
X341469047Y-149462295D02*
X341545238Y-149462295D01*
X341545238Y-149462295D02*
X341659523Y-149500390D01*
X341659523Y-149500390D02*
X341697619Y-149538485D01*
X342002380Y-150224200D02*
X342116666Y-150262295D01*
X342116666Y-150262295D02*
X342307142Y-150262295D01*
X342307142Y-150262295D02*
X342383333Y-150224200D01*
X342383333Y-150224200D02*
X342421428Y-150186104D01*
X342421428Y-150186104D02*
X342459523Y-150109914D01*
X342459523Y-150109914D02*
X342459523Y-150033723D01*
X342459523Y-150033723D02*
X342421428Y-149957533D01*
X342421428Y-149957533D02*
X342383333Y-149919438D01*
X342383333Y-149919438D02*
X342307142Y-149881342D01*
X342307142Y-149881342D02*
X342154761Y-149843247D01*
X342154761Y-149843247D02*
X342078571Y-149805152D01*
X342078571Y-149805152D02*
X342040476Y-149767057D01*
X342040476Y-149767057D02*
X342002380Y-149690866D01*
X342002380Y-149690866D02*
X342002380Y-149614676D01*
X342002380Y-149614676D02*
X342040476Y-149538485D01*
X342040476Y-149538485D02*
X342078571Y-149500390D01*
X342078571Y-149500390D02*
X342154761Y-149462295D01*
X342154761Y-149462295D02*
X342345238Y-149462295D01*
X342345238Y-149462295D02*
X342459523Y-149500390D01*
X343259524Y-150262295D02*
X342992857Y-149881342D01*
X342802381Y-150262295D02*
X342802381Y-149462295D01*
X342802381Y-149462295D02*
X343107143Y-149462295D01*
X343107143Y-149462295D02*
X343183333Y-149500390D01*
X343183333Y-149500390D02*
X343221428Y-149538485D01*
X343221428Y-149538485D02*
X343259524Y-149614676D01*
X343259524Y-149614676D02*
X343259524Y-149728961D01*
X343259524Y-149728961D02*
X343221428Y-149805152D01*
X343221428Y-149805152D02*
X343183333Y-149843247D01*
X343183333Y-149843247D02*
X343107143Y-149881342D01*
X343107143Y-149881342D02*
X342802381Y-149881342D01*
X343411905Y-150338485D02*
X344021428Y-150338485D01*
X344669048Y-150262295D02*
X344402381Y-149881342D01*
X344211905Y-150262295D02*
X344211905Y-149462295D01*
X344211905Y-149462295D02*
X344516667Y-149462295D01*
X344516667Y-149462295D02*
X344592857Y-149500390D01*
X344592857Y-149500390D02*
X344630952Y-149538485D01*
X344630952Y-149538485D02*
X344669048Y-149614676D01*
X344669048Y-149614676D02*
X344669048Y-149728961D01*
X344669048Y-149728961D02*
X344630952Y-149805152D01*
X344630952Y-149805152D02*
X344592857Y-149843247D01*
X344592857Y-149843247D02*
X344516667Y-149881342D01*
X344516667Y-149881342D02*
X344211905Y-149881342D01*
X345011905Y-150262295D02*
X345011905Y-149462295D01*
X345811904Y-149500390D02*
X345735714Y-149462295D01*
X345735714Y-149462295D02*
X345621428Y-149462295D01*
X345621428Y-149462295D02*
X345507142Y-149500390D01*
X345507142Y-149500390D02*
X345430952Y-149576580D01*
X345430952Y-149576580D02*
X345392857Y-149652771D01*
X345392857Y-149652771D02*
X345354761Y-149805152D01*
X345354761Y-149805152D02*
X345354761Y-149919438D01*
X345354761Y-149919438D02*
X345392857Y-150071819D01*
X345392857Y-150071819D02*
X345430952Y-150148009D01*
X345430952Y-150148009D02*
X345507142Y-150224200D01*
X345507142Y-150224200D02*
X345621428Y-150262295D01*
X345621428Y-150262295D02*
X345697619Y-150262295D01*
X345697619Y-150262295D02*
X345811904Y-150224200D01*
X345811904Y-150224200D02*
X345850000Y-150186104D01*
X345850000Y-150186104D02*
X345850000Y-149919438D01*
X345850000Y-149919438D02*
X345697619Y-149919438D01*
X346192857Y-150262295D02*
X346192857Y-149462295D01*
X346192857Y-149843247D02*
X346650000Y-149843247D01*
X346650000Y-150262295D02*
X346650000Y-149462295D01*
X346916666Y-149462295D02*
X347373809Y-149462295D01*
X347145237Y-150262295D02*
X347145237Y-149462295D01*
X337238095Y-104454819D02*
X337238095Y-105264342D01*
X337238095Y-105264342D02*
X337285714Y-105359580D01*
X337285714Y-105359580D02*
X337333333Y-105407200D01*
X337333333Y-105407200D02*
X337428571Y-105454819D01*
X337428571Y-105454819D02*
X337619047Y-105454819D01*
X337619047Y-105454819D02*
X337714285Y-105407200D01*
X337714285Y-105407200D02*
X337761904Y-105359580D01*
X337761904Y-105359580D02*
X337809523Y-105264342D01*
X337809523Y-105264342D02*
X337809523Y-104454819D01*
X338809523Y-105454819D02*
X338238095Y-105454819D01*
X338523809Y-105454819D02*
X338523809Y-104454819D01*
X338523809Y-104454819D02*
X338428571Y-104597676D01*
X338428571Y-104597676D02*
X338333333Y-104692914D01*
X338333333Y-104692914D02*
X338238095Y-104740533D01*
X215733333Y-130862295D02*
X215733333Y-130062295D01*
X215733333Y-130062295D02*
X215999999Y-130633723D01*
X215999999Y-130633723D02*
X216266666Y-130062295D01*
X216266666Y-130062295D02*
X216266666Y-130862295D01*
X149614285Y-111643247D02*
X149347619Y-111643247D01*
X149347619Y-112062295D02*
X149347619Y-111262295D01*
X149347619Y-111262295D02*
X149728571Y-111262295D01*
X349410093Y-98743685D02*
X348410093Y-98743685D01*
X348410093Y-98743685D02*
X348410093Y-98505590D01*
X348410093Y-98505590D02*
X348457712Y-98362733D01*
X348457712Y-98362733D02*
X348552950Y-98267495D01*
X348552950Y-98267495D02*
X348648188Y-98219876D01*
X348648188Y-98219876D02*
X348838664Y-98172257D01*
X348838664Y-98172257D02*
X348981521Y-98172257D01*
X348981521Y-98172257D02*
X349171997Y-98219876D01*
X349171997Y-98219876D02*
X349267235Y-98267495D01*
X349267235Y-98267495D02*
X349362474Y-98362733D01*
X349362474Y-98362733D02*
X349410093Y-98505590D01*
X349410093Y-98505590D02*
X349410093Y-98743685D01*
X349410093Y-97219876D02*
X349410093Y-97791304D01*
X349410093Y-97505590D02*
X348410093Y-97505590D01*
X348410093Y-97505590D02*
X348552950Y-97600828D01*
X348552950Y-97600828D02*
X348648188Y-97696066D01*
X348648188Y-97696066D02*
X348695807Y-97791304D01*
X285233333Y-44943247D02*
X284966667Y-44943247D01*
X284966667Y-45362295D02*
X284966667Y-44562295D01*
X284966667Y-44562295D02*
X285347619Y-44562295D01*
X285690476Y-45362295D02*
X285842857Y-45362295D01*
X285842857Y-45362295D02*
X285919047Y-45324200D01*
X285919047Y-45324200D02*
X285957143Y-45286104D01*
X285957143Y-45286104D02*
X286033333Y-45171819D01*
X286033333Y-45171819D02*
X286071428Y-45019438D01*
X286071428Y-45019438D02*
X286071428Y-44714676D01*
X286071428Y-44714676D02*
X286033333Y-44638485D01*
X286033333Y-44638485D02*
X285995238Y-44600390D01*
X285995238Y-44600390D02*
X285919047Y-44562295D01*
X285919047Y-44562295D02*
X285766666Y-44562295D01*
X285766666Y-44562295D02*
X285690476Y-44600390D01*
X285690476Y-44600390D02*
X285652381Y-44638485D01*
X285652381Y-44638485D02*
X285614285Y-44714676D01*
X285614285Y-44714676D02*
X285614285Y-44905152D01*
X285614285Y-44905152D02*
X285652381Y-44981342D01*
X285652381Y-44981342D02*
X285690476Y-45019438D01*
X285690476Y-45019438D02*
X285766666Y-45057533D01*
X285766666Y-45057533D02*
X285919047Y-45057533D01*
X285919047Y-45057533D02*
X285995238Y-45019438D01*
X285995238Y-45019438D02*
X286033333Y-44981342D01*
X286033333Y-44981342D02*
X286071428Y-44905152D01*
X80807143Y-131162295D02*
X80426191Y-131162295D01*
X80426191Y-131162295D02*
X80426191Y-130362295D01*
X80883334Y-131238485D02*
X81492857Y-131238485D01*
X81950000Y-130743247D02*
X82064286Y-130781342D01*
X82064286Y-130781342D02*
X82102381Y-130819438D01*
X82102381Y-130819438D02*
X82140477Y-130895628D01*
X82140477Y-130895628D02*
X82140477Y-131009914D01*
X82140477Y-131009914D02*
X82102381Y-131086104D01*
X82102381Y-131086104D02*
X82064286Y-131124200D01*
X82064286Y-131124200D02*
X81988096Y-131162295D01*
X81988096Y-131162295D02*
X81683334Y-131162295D01*
X81683334Y-131162295D02*
X81683334Y-130362295D01*
X81683334Y-130362295D02*
X81950000Y-130362295D01*
X81950000Y-130362295D02*
X82026191Y-130400390D01*
X82026191Y-130400390D02*
X82064286Y-130438485D01*
X82064286Y-130438485D02*
X82102381Y-130514676D01*
X82102381Y-130514676D02*
X82102381Y-130590866D01*
X82102381Y-130590866D02*
X82064286Y-130667057D01*
X82064286Y-130667057D02*
X82026191Y-130705152D01*
X82026191Y-130705152D02*
X81950000Y-130743247D01*
X81950000Y-130743247D02*
X81683334Y-130743247D01*
X82864286Y-131162295D02*
X82483334Y-131162295D01*
X82483334Y-131162295D02*
X82483334Y-130362295D01*
X83092857Y-130933723D02*
X83473810Y-130933723D01*
X83016667Y-131162295D02*
X83283334Y-130362295D01*
X83283334Y-130362295D02*
X83550000Y-131162295D01*
X83816667Y-131162295D02*
X83816667Y-130362295D01*
X83816667Y-130362295D02*
X84273810Y-131162295D01*
X84273810Y-131162295D02*
X84273810Y-130362295D01*
X84654762Y-131162295D02*
X84654762Y-130362295D01*
X85111905Y-131162295D02*
X84769047Y-130705152D01*
X85111905Y-130362295D02*
X84654762Y-130819438D01*
X182750000Y-92581342D02*
X182750000Y-92962295D01*
X182483333Y-92162295D02*
X182750000Y-92581342D01*
X182750000Y-92581342D02*
X183016666Y-92162295D01*
X101483333Y-130362295D02*
X102016667Y-130362295D01*
X102016667Y-130362295D02*
X101483333Y-131162295D01*
X101483333Y-131162295D02*
X102016667Y-131162295D01*
X253750000Y-131086104D02*
X253788095Y-131124200D01*
X253788095Y-131124200D02*
X253750000Y-131162295D01*
X253750000Y-131162295D02*
X253711904Y-131124200D01*
X253711904Y-131124200D02*
X253750000Y-131086104D01*
X253750000Y-131086104D02*
X253750000Y-131162295D01*
X120483333Y-130362295D02*
X121016667Y-131162295D01*
X121016667Y-130362295D02*
X120483333Y-131162295D01*
X177807142Y-130743247D02*
X177921428Y-130781342D01*
X177921428Y-130781342D02*
X177959523Y-130819438D01*
X177959523Y-130819438D02*
X177997619Y-130895628D01*
X177997619Y-130895628D02*
X177997619Y-131009914D01*
X177997619Y-131009914D02*
X177959523Y-131086104D01*
X177959523Y-131086104D02*
X177921428Y-131124200D01*
X177921428Y-131124200D02*
X177845238Y-131162295D01*
X177845238Y-131162295D02*
X177540476Y-131162295D01*
X177540476Y-131162295D02*
X177540476Y-130362295D01*
X177540476Y-130362295D02*
X177807142Y-130362295D01*
X177807142Y-130362295D02*
X177883333Y-130400390D01*
X177883333Y-130400390D02*
X177921428Y-130438485D01*
X177921428Y-130438485D02*
X177959523Y-130514676D01*
X177959523Y-130514676D02*
X177959523Y-130590866D01*
X177959523Y-130590866D02*
X177921428Y-130667057D01*
X177921428Y-130667057D02*
X177883333Y-130705152D01*
X177883333Y-130705152D02*
X177807142Y-130743247D01*
X177807142Y-130743247D02*
X177540476Y-130743247D01*
X229847619Y-73862295D02*
X230000000Y-73862295D01*
X230000000Y-73862295D02*
X230076190Y-73824200D01*
X230076190Y-73824200D02*
X230114286Y-73786104D01*
X230114286Y-73786104D02*
X230190476Y-73671819D01*
X230190476Y-73671819D02*
X230228571Y-73519438D01*
X230228571Y-73519438D02*
X230228571Y-73214676D01*
X230228571Y-73214676D02*
X230190476Y-73138485D01*
X230190476Y-73138485D02*
X230152381Y-73100390D01*
X230152381Y-73100390D02*
X230076190Y-73062295D01*
X230076190Y-73062295D02*
X229923809Y-73062295D01*
X229923809Y-73062295D02*
X229847619Y-73100390D01*
X229847619Y-73100390D02*
X229809524Y-73138485D01*
X229809524Y-73138485D02*
X229771428Y-73214676D01*
X229771428Y-73214676D02*
X229771428Y-73405152D01*
X229771428Y-73405152D02*
X229809524Y-73481342D01*
X229809524Y-73481342D02*
X229847619Y-73519438D01*
X229847619Y-73519438D02*
X229923809Y-73557533D01*
X229923809Y-73557533D02*
X230076190Y-73557533D01*
X230076190Y-73557533D02*
X230152381Y-73519438D01*
X230152381Y-73519438D02*
X230190476Y-73481342D01*
X230190476Y-73481342D02*
X230228571Y-73405152D01*
D13*
%TO.C,R5*%
X346265000Y-91727064D02*
X346265000Y-91272936D01*
X347735000Y-91727064D02*
X347735000Y-91272936D01*
%TO.C,D5*%
X343880888Y-136001859D02*
X343880888Y-137921859D01*
X343880888Y-137921859D02*
X346565888Y-137921859D01*
X346565888Y-136001859D02*
X343880888Y-136001859D01*
%TO.C,J2*%
X337276726Y-125238933D02*
X337276726Y-117558933D01*
X339936726Y-117558933D02*
X337276726Y-117558933D01*
X339936726Y-125238933D02*
X337276726Y-125238933D01*
X339936726Y-125238933D02*
X339936726Y-117558933D01*
X339936726Y-126508933D02*
X339936726Y-127838933D01*
X339936726Y-127838933D02*
X338606726Y-127838933D01*
%TO.C,R3*%
X345283977Y-128265000D02*
X345738105Y-128265000D01*
X345283977Y-129735000D02*
X345738105Y-129735000D01*
%TO.C,D3*%
X343591296Y-97750598D02*
X343591296Y-100435598D01*
X343591296Y-100435598D02*
X345511296Y-100435598D01*
X345511296Y-100435598D02*
X345511296Y-97750598D01*
%TO.C,D2*%
X72776961Y-112450353D02*
X75461961Y-112450353D01*
X75461961Y-110530353D02*
X72776961Y-110530353D01*
X75461961Y-112450353D02*
X75461961Y-110530353D01*
%TO.C,C1*%
X341223752Y-107265000D02*
X340701248Y-107265000D01*
X341223752Y-108735000D02*
X340701248Y-108735000D01*
%TO.C,R1*%
X345272936Y-109765000D02*
X345727064Y-109765000D01*
X345272936Y-111235000D02*
X345727064Y-111235000D01*
%TO.C,D4*%
X343839349Y-116810853D02*
X343839349Y-118730853D01*
X343839349Y-118730853D02*
X346524349Y-118730853D01*
X346524349Y-116810853D02*
X343839349Y-116810853D01*
%TO.C,R4*%
X343265000Y-91727064D02*
X343265000Y-91272936D01*
X344735000Y-91727064D02*
X344735000Y-91272936D01*
%TO.C,R2*%
X345248975Y-111765000D02*
X345703103Y-111765000D01*
X345248975Y-113235000D02*
X345703103Y-113235000D01*
%TO.C,U1*%
X341137500Y-103390000D02*
X340337500Y-103390000D01*
X341137500Y-103390000D02*
X341937500Y-103390000D01*
X341137500Y-106510000D02*
X340337500Y-106510000D01*
X341137500Y-106510000D02*
X341937500Y-106510000D01*
X339837500Y-103440000D02*
X339597500Y-103110000D01*
X340077500Y-103110000D01*
X339837500Y-103440000D01*
G36*
X339837500Y-103440000D02*
G01*
X339597500Y-103110000D01*
X340077500Y-103110000D01*
X339837500Y-103440000D01*
G37*
%TO.C,D1*%
X345503297Y-97750598D02*
X345503297Y-100435598D01*
X345503297Y-100435598D02*
X347423297Y-100435598D01*
X347423297Y-100435598D02*
X347423297Y-97750598D01*
%TD*%
M02*
