M48
; DRILL file {KiCad 8.0.3} date 2024-07-09T09:09:02+1000
; FORMAT={-:-/ absolute / metric / decimal}
; #@! TF.CreationDate,2024-07-09T09:09:02+10:00
; #@! TF.GenerationSoftware,Kicad,Pcbnew,8.0.3
; #@! TF.FileFunction,NonPlated,1,2,NPTH
FMAT,2
METRIC
; #@! TA.AperFunction,NonPlated,NPTH,ComponentDrill
T1C3.200
; #@! TA.AperFunction,NonPlated,NPTH,ComponentDrill
T2C5.100
%
G90
G05
T1
X259.0Y-74.0
T2
X52.5Y-50.0
X53.0Y-116.7
X55.0Y-78.5
X57.5Y-135.8
X60.0Y-97.6
X63.0Y-154.9
X74.5Y-116.7
X79.0Y-78.5
X83.75Y-135.8
X85.5Y-50.0
X87.5Y-154.9
X88.75Y-97.6
X93.5Y-116.7
X98.0Y-78.5
X102.75Y-135.8
X107.75Y-97.6
X109.5Y-50.0
X112.5Y-116.7
X117.0Y-78.5
X121.75Y-135.8
X126.75Y-97.6
X131.5Y-116.7
X133.5Y-50.0
X136.0Y-78.5
X140.75Y-135.8
X145.75Y-97.6
X150.5Y-116.7
X155.0Y-78.5
X157.5Y-50.0
X159.75Y-135.8
X164.75Y-97.6
X169.5Y-116.7
X174.0Y-78.5
X176.852Y-154.975
X178.75Y-135.8
X181.5Y-50.0
X183.75Y-97.6
X188.5Y-116.7
X193.0Y-78.5
X197.75Y-135.8
X202.75Y-97.6
X207.5Y-116.7
X212.0Y-78.5
X214.0Y-50.0
X216.75Y-135.8
X221.75Y-97.6
X226.5Y-116.7
X231.0Y-78.5
X235.75Y-135.8
X238.0Y-50.0
X240.75Y-97.6
X245.5Y-116.7
X250.0Y-78.5
X254.75Y-135.8
X259.75Y-97.6
X262.0Y-50.0
X264.5Y-116.7
X266.25Y-154.9
X269.0Y-78.5
X273.75Y-135.8
X278.75Y-97.75
X283.5Y-116.7
X286.0Y-50.0
X288.0Y-78.5
X288.25Y-154.9
X297.75Y-97.747
X300.0Y-135.8
X302.5Y-116.7
X307.0Y-78.5
X307.25Y-154.9
X310.0Y-50.0
X323.975Y-107.275
X326.0Y-78.5
X326.25Y-135.8
X326.25Y-154.9
X343.5Y-50.0
X345.0Y-78.5
X345.25Y-154.9
M30
