%TF.GenerationSoftware,KiCad,Pcbnew,8.0.4*%
%TF.CreationDate,2024-08-15T08:49:59+10:00*%
%TF.ProjectId,A600KBv2,41363030-4b42-4763-922e-6b696361645f,rev?*%
%TF.SameCoordinates,Original*%
%TF.FileFunction,Legend,Bot*%
%TF.FilePolarity,Positive*%
%FSLAX46Y46*%
G04 Gerber Fmt 4.6, Leading zero omitted, Abs format (unit mm)*
G04 Created by KiCad (PCBNEW 8.0.4) date 2024-08-15 08:49:59*
%MOMM*%
%LPD*%
G01*
G04 APERTURE LIST*
%ADD10C,0.100000*%
%ADD11C,0.150000*%
G04 APERTURE END LIST*
D10*
X158872419Y-63303884D02*
X157872419Y-63303884D01*
X157872419Y-63303884D02*
X157872419Y-63684836D01*
X157872419Y-63684836D02*
X157920038Y-63780074D01*
X157920038Y-63780074D02*
X157967657Y-63827693D01*
X157967657Y-63827693D02*
X158062895Y-63875312D01*
X158062895Y-63875312D02*
X158205752Y-63875312D01*
X158205752Y-63875312D02*
X158300990Y-63827693D01*
X158300990Y-63827693D02*
X158348609Y-63780074D01*
X158348609Y-63780074D02*
X158396228Y-63684836D01*
X158396228Y-63684836D02*
X158396228Y-63303884D01*
X158872419Y-64303884D02*
X157872419Y-64303884D01*
X158872419Y-64780074D02*
X157872419Y-64780074D01*
X157872419Y-64780074D02*
X158872419Y-65351502D01*
X158872419Y-65351502D02*
X157872419Y-65351502D01*
X158872419Y-67113407D02*
X158872419Y-66541979D01*
X158872419Y-66827693D02*
X157872419Y-66827693D01*
X157872419Y-66827693D02*
X158015276Y-66732455D01*
X158015276Y-66732455D02*
X158110514Y-66637217D01*
X158110514Y-66637217D02*
X158158133Y-66541979D01*
D11*
X182583333Y-67954819D02*
X182583333Y-68669104D01*
X182583333Y-68669104D02*
X182630952Y-68811961D01*
X182630952Y-68811961D02*
X182726190Y-68907200D01*
X182726190Y-68907200D02*
X182869047Y-68954819D01*
X182869047Y-68954819D02*
X182964285Y-68954819D01*
X181583333Y-68954819D02*
X182154761Y-68954819D01*
X181869047Y-68954819D02*
X181869047Y-67954819D01*
X181869047Y-67954819D02*
X181964285Y-68097676D01*
X181964285Y-68097676D02*
X182059523Y-68192914D01*
X182059523Y-68192914D02*
X182154761Y-68240533D01*
%TO.C,J1*%
X159750000Y-65000000D02*
X159750000Y-57250000D01*
X159750000Y-65000000D02*
X161750000Y-65000000D01*
X201500000Y-65000000D02*
X203500000Y-65000000D01*
X203500000Y-57250000D02*
X159750000Y-57250000D01*
X203500000Y-65000000D02*
X203500000Y-57250000D01*
%TD*%
M02*
